%
M48
M72
T01C0.0236
T02C0.0354
T03C0.0394
T04C0.0400
T05C0.0520
T06C0.0827
%
T01
X4616Y2818
X7273Y4845
X8494Y4747
X10561Y3172
X12962Y1656
X14439Y1519
X14636Y3271
X15207Y3487
X19203Y1676
X12234Y7168
X10423Y7444
X11132Y8743
X11092Y9806
X11860Y10239
X11447Y11204
X10856Y12483
X9675Y14215
X7844Y10593
X8179Y9865
X9006Y9806
X6565Y10141
X4970Y11519
X5108Y12365
X3474Y14767
X5423Y16086
X5226Y17247
X3474Y17225
X7726Y18881
X11348Y18881
X14596Y15987
X14242Y14491
X16151Y15810
X21092Y15731
X14321Y9314
X6919Y7326
X6388Y7601
X5836Y7582
X5522Y8487
X6151Y8487
T02
X4333Y9034
X4309Y6483
X9033Y6483
X10392Y6483
X10415Y9034
X9057Y9034
X9057Y13759
X10415Y13759
X12777Y14546
X15140Y13759
X15140Y9034
X15116Y6483
X15116Y1759
X12754Y971
X10392Y1759
X9033Y1759
X6671Y971
X4309Y1759
X4333Y13759
X6695Y14546
T03
X18695Y13487
X19695Y13487
X20695Y13487
T04
X2984Y1715
X2984Y2715
X2984Y3715
X2984Y8715
X2984Y9715
X2984Y10715
X2984Y11715
X2984Y12715
X2984Y13715
X2984Y15715
X3984Y15715
X3984Y16715
X2984Y16715
X2984Y17715
X3984Y17715
X17037Y13715
X17037Y12715
X17037Y11715
X17037Y10715
X17037Y9715
X17037Y8715
X17037Y7715
X17037Y6715
T05
X21014Y7267
X21014Y9235
X21014Y5298
X21014Y3330
X21014Y1361
X21014Y16912
X21014Y18881
T06
X4301Y18979
M30
