G75*
%MOIN*%
%OFA0B0*%
%FSLAX24Y24*%
%IPPOS*%
%LPD*%
%AMOC8*
5,1,8,0,0,1.08239X$1,22.5*
%
%ADD10C,0.0160*%
%ADD11C,0.0000*%
%ADD12OC8,0.1250*%
%ADD13C,0.0531*%
%ADD14R,0.0480X0.0880*%
%ADD15R,0.1417X0.0866*%
%ADD16R,0.0160X0.0480*%
%ADD17R,0.0591X0.0512*%
%ADD18R,0.0945X0.0945*%
%ADD19R,0.0421X0.0004*%
%ADD20R,0.0465X0.0004*%
%ADD21R,0.0492X0.0004*%
%ADD22R,0.0516X0.0004*%
%ADD23R,0.0531X0.0004*%
%ADD24R,0.0547X0.0004*%
%ADD25R,0.0563X0.0004*%
%ADD26R,0.0575X0.0004*%
%ADD27R,0.0587X0.0004*%
%ADD28R,0.0598X0.0004*%
%ADD29R,0.0610X0.0004*%
%ADD30R,0.0618X0.0004*%
%ADD31R,0.0626X0.0004*%
%ADD32R,0.0638X0.0004*%
%ADD33R,0.0646X0.0004*%
%ADD34R,0.0650X0.0004*%
%ADD35R,0.0657X0.0004*%
%ADD36R,0.0665X0.0004*%
%ADD37R,0.0673X0.0004*%
%ADD38R,0.0677X0.0004*%
%ADD39R,0.0685X0.0004*%
%ADD40R,0.0689X0.0004*%
%ADD41R,0.0693X0.0004*%
%ADD42R,0.0701X0.0004*%
%ADD43R,0.0705X0.0004*%
%ADD44R,0.0709X0.0004*%
%ADD45R,0.0717X0.0004*%
%ADD46R,0.0720X0.0004*%
%ADD47R,0.0724X0.0004*%
%ADD48R,0.0728X0.0004*%
%ADD49R,0.0732X0.0004*%
%ADD50R,0.0736X0.0004*%
%ADD51R,0.0740X0.0004*%
%ADD52R,0.0744X0.0004*%
%ADD53R,0.0748X0.0004*%
%ADD54R,0.0752X0.0004*%
%ADD55R,0.0756X0.0004*%
%ADD56R,0.0760X0.0004*%
%ADD57R,0.0764X0.0004*%
%ADD58R,0.0768X0.0004*%
%ADD59R,0.0772X0.0004*%
%ADD60R,0.0776X0.0004*%
%ADD61R,0.0780X0.0004*%
%ADD62R,0.0783X0.0004*%
%ADD63R,0.0787X0.0004*%
%ADD64R,0.0791X0.0004*%
%ADD65R,0.0795X0.0004*%
%ADD66R,0.0799X0.0004*%
%ADD67R,0.0803X0.0004*%
%ADD68R,0.0807X0.0004*%
%ADD69R,0.0811X0.0004*%
%ADD70R,0.0815X0.0004*%
%ADD71R,0.0819X0.0004*%
%ADD72R,0.0823X0.0004*%
%ADD73R,0.0827X0.0004*%
%ADD74R,0.0831X0.0004*%
%ADD75R,0.0835X0.0004*%
%ADD76R,0.0839X0.0004*%
%ADD77R,0.0909X0.0004*%
%ADD78R,0.0937X0.0004*%
%ADD79R,0.0953X0.0004*%
%ADD80R,0.0961X0.0004*%
%ADD81R,0.0969X0.0004*%
%ADD82R,0.0976X0.0004*%
%ADD83R,0.0980X0.0004*%
%ADD84R,0.0984X0.0004*%
%ADD85R,0.0965X0.0004*%
%ADD86R,0.0957X0.0004*%
%ADD87R,0.0945X0.0004*%
%ADD88R,0.0921X0.0004*%
%ADD89R,0.0232X0.0004*%
%ADD90R,0.0555X0.0004*%
%ADD91R,0.0224X0.0004*%
%ADD92R,0.0543X0.0004*%
%ADD93R,0.0539X0.0004*%
%ADD94R,0.0220X0.0004*%
%ADD95R,0.0535X0.0004*%
%ADD96R,0.0528X0.0004*%
%ADD97R,0.0520X0.0004*%
%ADD98R,0.0512X0.0004*%
%ADD99R,0.0500X0.0004*%
%ADD100R,0.0488X0.0004*%
%ADD101R,0.0484X0.0004*%
%ADD102R,0.0476X0.0004*%
%ADD103R,0.0449X0.0004*%
%ADD104R,0.0370X0.0004*%
%ADD105R,0.0043X0.0004*%
%ADD106R,0.0228X0.0004*%
%ADD107R,0.0358X0.0004*%
%ADD108R,0.0350X0.0004*%
%ADD109R,0.0343X0.0004*%
%ADD110R,0.0331X0.0004*%
%ADD111R,0.0319X0.0004*%
%ADD112R,0.0311X0.0004*%
%ADD113R,0.0307X0.0004*%
%ADD114R,0.0303X0.0004*%
%ADD115R,0.0063X0.0004*%
%ADD116R,0.0130X0.0004*%
%ADD117R,0.0445X0.0004*%
%ADD118R,0.0437X0.0004*%
%ADD119R,0.0433X0.0004*%
%ADD120R,0.0362X0.0004*%
%ADD121R,0.0047X0.0004*%
%ADD122R,0.0354X0.0004*%
%ADD123R,0.0031X0.0004*%
%ADD124R,0.0346X0.0004*%
%ADD125R,0.0339X0.0004*%
%ADD126R,0.0055X0.0004*%
%ADD127R,0.0177X0.0004*%
%ADD128R,0.0035X0.0004*%
%ADD129R,0.0161X0.0004*%
%ADD130R,0.0051X0.0004*%
%ADD131R,0.0142X0.0004*%
%ADD132R,0.0118X0.0004*%
%ADD133R,0.0091X0.0004*%
%ADD134R,0.0024X0.0004*%
%ADD135R,0.0020X0.0004*%
%ADD136R,0.0008X0.0004*%
%ADD137R,0.0004X0.0004*%
%ADD138R,0.0012X0.0004*%
%ADD139R,0.0028X0.0004*%
%ADD140R,0.0059X0.0004*%
%ADD141R,0.0067X0.0004*%
%ADD142R,0.0075X0.0004*%
%ADD143R,0.0083X0.0004*%
%ADD144R,0.0098X0.0004*%
%ADD145R,0.0106X0.0004*%
%ADD146R,0.0114X0.0004*%
%ADD147R,0.0122X0.0004*%
%ADD148R,0.0138X0.0004*%
%ADD149R,0.0146X0.0004*%
%ADD150R,0.0154X0.0004*%
%ADD151R,0.0165X0.0004*%
%ADD152R,0.0169X0.0004*%
%ADD153R,0.0185X0.0004*%
%ADD154R,0.0189X0.0004*%
%ADD155R,0.0193X0.0004*%
%ADD156R,0.0201X0.0004*%
%ADD157R,0.0209X0.0004*%
%ADD158R,0.0213X0.0004*%
%ADD159R,0.0217X0.0004*%
%ADD160R,0.0236X0.0004*%
%ADD161R,0.0240X0.0004*%
%ADD162R,0.0248X0.0004*%
%ADD163R,0.0256X0.0004*%
%ADD164R,0.0264X0.0004*%
%ADD165R,0.0272X0.0004*%
%ADD166R,0.0280X0.0004*%
%ADD167R,0.0287X0.0004*%
%ADD168R,0.0295X0.0004*%
%ADD169R,0.0299X0.0004*%
%ADD170R,0.0126X0.0004*%
%ADD171R,0.0157X0.0004*%
%ADD172R,0.0134X0.0004*%
%ADD173R,0.0173X0.0004*%
%ADD174R,0.0366X0.0004*%
%ADD175R,0.0374X0.0004*%
%ADD176R,0.0382X0.0004*%
%ADD177R,0.0390X0.0004*%
%ADD178R,0.0394X0.0004*%
%ADD179R,0.0398X0.0004*%
%ADD180R,0.0406X0.0004*%
%ADD181R,0.0409X0.0004*%
%ADD182R,0.0417X0.0004*%
%ADD183R,0.0429X0.0004*%
%ADD184R,0.0441X0.0004*%
%ADD185R,0.0453X0.0004*%
%ADD186R,0.0457X0.0004*%
%ADD187R,0.0469X0.0004*%
%ADD188R,0.0480X0.0004*%
%ADD189R,0.0504X0.0004*%
%ADD190R,0.0508X0.0004*%
%ADD191R,0.0551X0.0004*%
%ADD192R,0.0567X0.0004*%
%ADD193R,0.0579X0.0004*%
%ADD194R,0.0413X0.0004*%
%ADD195R,0.0425X0.0004*%
%ADD196R,0.0181X0.0004*%
%ADD197R,0.0634X0.0004*%
%ADD198R,0.0654X0.0004*%
%ADD199R,0.0661X0.0004*%
%ADD200R,0.0669X0.0004*%
%ADD201R,0.0697X0.0004*%
%ADD202R,0.0244X0.0004*%
%ADD203R,0.0252X0.0004*%
%ADD204R,0.0461X0.0004*%
%ADD205R,0.0094X0.0004*%
%ADD206R,0.0622X0.0004*%
%ADD207R,0.0102X0.0004*%
%ADD208R,0.0630X0.0004*%
%ADD209R,0.0614X0.0004*%
%ADD210R,0.0583X0.0004*%
%ADD211R,0.0327X0.0004*%
%ADD212R,0.0748X0.0669*%
%ADD213C,0.0591*%
%ADD214C,0.0600*%
%ADD215OC8,0.0600*%
%ADD216C,0.0600*%
%ADD217C,0.0240*%
%ADD218C,0.0356*%
%ADD219C,0.0400*%
%ADD220C,0.0120*%
D10*
X002234Y000180D02*
X021919Y000180D01*
X021919Y019865D01*
X003888Y019865D01*
X002234Y018211D01*
X002234Y000180D01*
X004309Y001759D02*
X005407Y001759D01*
X006014Y002365D01*
X006840Y003192D01*
X006840Y003881D01*
X006840Y004845D01*
X007273Y004845D01*
X006840Y004845D02*
X006840Y006321D01*
X005931Y006321D02*
X005930Y006322D01*
X005167Y006322D01*
X004655Y005810D01*
X004655Y004727D01*
X005931Y006321D02*
X005931Y006897D01*
X004970Y007857D01*
X004970Y011519D01*
X004498Y011460D02*
X004498Y012948D01*
X004821Y013271D01*
X004333Y013759D01*
X004333Y014778D01*
X004951Y015397D01*
X004951Y016749D01*
X003984Y017715D01*
X005561Y016223D02*
X005423Y016086D01*
X005561Y016223D02*
X007037Y016223D01*
X007108Y016294D01*
X007108Y016735D01*
X003829Y014412D02*
X003474Y014767D01*
X003829Y014412D02*
X003829Y009774D01*
X003888Y009715D01*
X004073Y009715D01*
X004321Y009963D01*
X003888Y009715D02*
X002984Y009715D01*
X004321Y010711D02*
X004321Y011282D01*
X004498Y011460D01*
X004821Y013271D02*
X005679Y013271D01*
X006565Y012424D02*
X007411Y013271D01*
X007899Y013759D01*
X009057Y013759D01*
X010415Y013759D02*
X010415Y013574D01*
X010797Y013192D01*
X011978Y013192D01*
X011998Y013211D01*
X010423Y013767D02*
X010415Y013759D01*
X010423Y013767D02*
X010423Y015397D01*
X013730Y013211D02*
X013730Y012561D01*
X012825Y011656D01*
X012825Y009216D01*
X012825Y008369D01*
X014459Y006735D01*
X014459Y003448D01*
X014636Y003271D01*
X015207Y003487D02*
X015207Y002739D01*
X014439Y001971D01*
X014439Y001519D01*
X013750Y002306D02*
X013612Y002306D01*
X012962Y001656D01*
X012018Y002306D02*
X010939Y002306D01*
X010392Y001759D01*
X009033Y001759D02*
X008427Y002365D01*
X007746Y002365D01*
X008494Y004747D02*
X008494Y009550D01*
X008179Y009865D01*
X007475Y010224D02*
X007844Y010593D01*
X008415Y011164D01*
X008829Y011164D01*
X007475Y010224D02*
X007475Y009176D01*
X006565Y009176D02*
X006545Y009157D01*
X006565Y009176D02*
X006565Y010141D01*
X006565Y011617D01*
X006565Y012424D01*
X010600Y010357D02*
X011092Y009865D01*
X011092Y009806D01*
X011132Y008743D02*
X010994Y008605D01*
X010994Y006282D01*
X011013Y006302D01*
X011895Y006302D01*
X010994Y006282D02*
X010994Y005239D01*
X010758Y005003D01*
X012687Y003684D02*
X012687Y002975D01*
X012018Y002306D01*
X012687Y003684D02*
X012805Y003802D01*
X012805Y003861D01*
X012943Y003723D01*
X012805Y003861D02*
X012805Y006302D01*
X013735Y009216D02*
X014223Y009216D01*
X014321Y009314D01*
X013730Y013211D02*
X014277Y013759D01*
X015140Y013759D01*
X018829Y001715D02*
X018868Y001676D01*
X019203Y001676D01*
D11*
X003888Y018979D02*
X003890Y019019D01*
X003896Y019060D01*
X003906Y019099D01*
X003919Y019137D01*
X003937Y019174D01*
X003958Y019208D01*
X003982Y019241D01*
X004009Y019271D01*
X004039Y019298D01*
X004072Y019322D01*
X004106Y019343D01*
X004143Y019361D01*
X004181Y019374D01*
X004220Y019384D01*
X004261Y019390D01*
X004301Y019392D01*
X004341Y019390D01*
X004382Y019384D01*
X004421Y019374D01*
X004459Y019361D01*
X004496Y019343D01*
X004530Y019322D01*
X004563Y019298D01*
X004593Y019271D01*
X004620Y019241D01*
X004644Y019208D01*
X004665Y019174D01*
X004683Y019137D01*
X004696Y019099D01*
X004706Y019060D01*
X004712Y019019D01*
X004714Y018979D01*
X004712Y018939D01*
X004706Y018898D01*
X004696Y018859D01*
X004683Y018821D01*
X004665Y018784D01*
X004644Y018750D01*
X004620Y018717D01*
X004593Y018687D01*
X004563Y018660D01*
X004530Y018636D01*
X004496Y018615D01*
X004459Y018597D01*
X004421Y018584D01*
X004382Y018574D01*
X004341Y018568D01*
X004301Y018566D01*
X004261Y018568D01*
X004220Y018574D01*
X004181Y018584D01*
X004143Y018597D01*
X004106Y018615D01*
X004072Y018636D01*
X004039Y018660D01*
X004009Y018687D01*
X003982Y018717D01*
X003958Y018750D01*
X003937Y018784D01*
X003919Y018821D01*
X003906Y018859D01*
X003896Y018898D01*
X003890Y018939D01*
X003888Y018979D01*
D12*
X021014Y018881D03*
X021014Y016912D03*
X021014Y009235D03*
X021014Y007267D03*
X021014Y005298D03*
X021014Y003330D03*
X021014Y001361D03*
D13*
X015116Y001759D03*
X012754Y000971D03*
X010392Y001759D03*
X009033Y001759D03*
X006671Y000971D03*
X004309Y001759D03*
X004309Y006483D03*
X004333Y009034D03*
X009057Y009034D03*
X010415Y009034D03*
X010392Y006483D03*
X009033Y006483D03*
X015116Y006483D03*
X015140Y009034D03*
X015140Y013759D03*
X012777Y014546D03*
X010415Y013759D03*
X009057Y013759D03*
X006695Y014546D03*
X004333Y013759D03*
D14*
X005655Y009176D03*
X006565Y009176D03*
X007475Y009176D03*
X007750Y006321D03*
X006840Y006321D03*
X005931Y006321D03*
X011895Y006302D03*
X012805Y006302D03*
X013715Y006302D03*
X013735Y009216D03*
X012825Y009216D03*
X011915Y009216D03*
D15*
X012825Y011656D03*
X006565Y011617D03*
X006840Y003881D03*
X012805Y003861D03*
D16*
X008108Y016735D03*
X007608Y016735D03*
X007108Y016735D03*
X007108Y017995D03*
X007608Y017995D03*
X008108Y017995D03*
D17*
X008829Y011164D03*
X008829Y010416D03*
X010600Y010357D03*
X010600Y011105D03*
X004321Y010711D03*
X004321Y009963D03*
X004655Y004727D03*
X004655Y003979D03*
X010758Y004255D03*
X010758Y005003D03*
D18*
X012018Y002306D03*
X013750Y002306D03*
X007746Y002365D03*
X006014Y002365D03*
X011998Y013211D03*
X013730Y013211D03*
X007411Y013271D03*
X005679Y013271D03*
D19*
X014931Y012109D03*
X014931Y011133D03*
D20*
X014933Y011137D03*
X014811Y011649D03*
X014929Y012137D03*
D21*
X014931Y012156D03*
X014931Y012408D03*
X014931Y011141D03*
D22*
X014931Y011145D03*
X014931Y012172D03*
X014931Y012404D03*
D23*
X014931Y012400D03*
X014931Y012184D03*
X014931Y011149D03*
D24*
X014931Y011152D03*
X014809Y011601D03*
X014931Y012397D03*
D25*
X014931Y012204D03*
X014931Y011156D03*
D26*
X014933Y011160D03*
X014929Y012211D03*
D27*
X014931Y011164D03*
D28*
X014933Y011168D03*
X014929Y012385D03*
D29*
X014931Y011172D03*
D30*
X014931Y011176D03*
X014868Y012326D03*
D31*
X014864Y012334D03*
X014864Y012337D03*
X014872Y012345D03*
X014931Y012247D03*
X014931Y011180D03*
D32*
X014933Y011184D03*
X014929Y012255D03*
D33*
X014929Y012259D03*
X014929Y012373D03*
X014933Y011188D03*
D34*
X014931Y011192D03*
X014931Y012263D03*
D35*
X014931Y011196D03*
D36*
X014931Y011200D03*
D37*
X014931Y011204D03*
X014931Y012278D03*
X014931Y012365D03*
D38*
X014929Y012282D03*
X014933Y011208D03*
D39*
X014933Y011211D03*
X014929Y012286D03*
D40*
X014931Y011215D03*
D41*
X014933Y011219D03*
X014929Y012290D03*
D42*
X014933Y011223D03*
D43*
X014931Y011227D03*
D44*
X014933Y011231D03*
D45*
X014933Y011235D03*
D46*
X014931Y011239D03*
D47*
X014933Y011243D03*
X014929Y012314D03*
D48*
X014931Y011247D03*
D49*
X014933Y011251D03*
D50*
X014931Y011255D03*
D51*
X014933Y011259D03*
D52*
X014931Y011263D03*
D53*
X014933Y011267D03*
D54*
X014931Y011271D03*
D55*
X014933Y011274D03*
X014933Y011278D03*
D56*
X014931Y011282D03*
D57*
X014933Y011286D03*
D58*
X014931Y011290D03*
D59*
X014933Y011294D03*
X014933Y011298D03*
D60*
X014931Y011302D03*
D61*
X014933Y011306D03*
D62*
X014931Y011310D03*
X014931Y011314D03*
D63*
X014933Y011318D03*
D64*
X014931Y011322D03*
X014931Y011326D03*
X014931Y011593D03*
D65*
X014929Y011589D03*
X014933Y011334D03*
X014933Y011330D03*
D66*
X014931Y011337D03*
X014931Y011582D03*
X014931Y011586D03*
D67*
X014929Y011578D03*
X014929Y011574D03*
X014933Y011345D03*
X014933Y011341D03*
D68*
X014931Y011349D03*
X014931Y011353D03*
X014931Y011562D03*
X014931Y011566D03*
X014931Y011570D03*
D69*
X014933Y011361D03*
X014933Y011357D03*
D70*
X014931Y011365D03*
D71*
X014933Y011369D03*
X014933Y011373D03*
X014933Y011377D03*
D72*
X014931Y011381D03*
X014931Y011385D03*
D73*
X014933Y011389D03*
X014933Y011393D03*
D74*
X014931Y011397D03*
X014931Y011400D03*
D75*
X014933Y011404D03*
X014933Y011408D03*
D76*
X014931Y011412D03*
X014931Y011416D03*
D77*
X014931Y011420D03*
D78*
X014929Y011424D03*
D79*
X014929Y011428D03*
D80*
X014929Y011432D03*
D81*
X014929Y011436D03*
X014929Y011515D03*
D82*
X014929Y011511D03*
X014929Y011507D03*
X014929Y011444D03*
X014929Y011440D03*
D83*
X014931Y011448D03*
X014931Y011503D03*
D84*
X014929Y011499D03*
X014929Y011495D03*
X014929Y011491D03*
X014929Y011487D03*
X014929Y011483D03*
X014929Y011479D03*
X014929Y011475D03*
X014929Y011471D03*
X014929Y011467D03*
X014929Y011463D03*
X014929Y011460D03*
X014929Y011456D03*
X014929Y011452D03*
D85*
X014931Y011519D03*
D86*
X014931Y011523D03*
D87*
X014929Y011526D03*
D88*
X014929Y011530D03*
D89*
X015151Y011676D03*
X015163Y011668D03*
X015167Y011664D03*
X015210Y011597D03*
X014931Y011979D03*
X014703Y012361D03*
D90*
X014931Y012200D03*
X014813Y011597D03*
D91*
X015128Y011688D03*
X015179Y011656D03*
X015183Y011652D03*
X015187Y011649D03*
X015191Y011645D03*
X015195Y011637D03*
X015199Y011633D03*
X015203Y011625D03*
X015207Y011617D03*
X015210Y011609D03*
X015210Y011605D03*
X015210Y011601D03*
X014931Y011975D03*
X014931Y012448D03*
D92*
X014929Y012192D03*
X014811Y011605D03*
D93*
X014809Y011609D03*
X014931Y012188D03*
D94*
X015193Y011641D03*
X015201Y011629D03*
X015205Y011621D03*
X015209Y011613D03*
D95*
X014811Y011613D03*
D96*
X014811Y011617D03*
X014811Y011621D03*
X014929Y012180D03*
D97*
X014929Y012176D03*
X014811Y011625D03*
D98*
X014811Y011629D03*
D99*
X014809Y011633D03*
X014931Y012160D03*
D100*
X014929Y012152D03*
X014807Y011637D03*
D101*
X014809Y011641D03*
D102*
X014809Y011645D03*
X014931Y012145D03*
X014931Y012412D03*
D103*
X015051Y012361D03*
X015055Y012357D03*
X014811Y011652D03*
D104*
X014846Y011656D03*
X014929Y012074D03*
D105*
X014931Y011853D03*
X014809Y011747D03*
X014620Y011656D03*
D106*
X015138Y011684D03*
X015146Y011680D03*
X015157Y011672D03*
X015173Y011660D03*
D107*
X014844Y011660D03*
X014931Y012432D03*
D108*
X014844Y011664D03*
D109*
X014840Y011668D03*
D110*
X014838Y011672D03*
D111*
X014836Y011676D03*
D112*
X014833Y011680D03*
D113*
X014835Y011684D03*
X014842Y011692D03*
D114*
X014836Y011688D03*
D115*
X014815Y011735D03*
X015193Y011692D03*
D116*
X015073Y011692D03*
X014931Y011912D03*
X014829Y012050D03*
D117*
X014931Y012125D03*
X014915Y011700D03*
X014915Y011696D03*
D118*
X014915Y011704D03*
D119*
X014917Y011708D03*
X014929Y012117D03*
D120*
X014953Y011711D03*
D121*
X014937Y011755D03*
X014811Y011743D03*
X014732Y011711D03*
D122*
X014953Y011715D03*
X014953Y011719D03*
D123*
X014933Y011845D03*
X014807Y011751D03*
X014728Y011715D03*
D124*
X014953Y011723D03*
X014953Y011727D03*
D125*
X014953Y011731D03*
D126*
X015090Y011735D03*
D127*
X014947Y011735D03*
X014931Y011944D03*
X015018Y012062D03*
X014931Y012452D03*
D128*
X014931Y011849D03*
X015096Y011739D03*
D129*
X014947Y011739D03*
X014931Y011932D03*
X015002Y012030D03*
X015010Y012038D03*
X015014Y012046D03*
X014718Y012219D03*
X014714Y012223D03*
X014710Y012227D03*
X014710Y012231D03*
D130*
X014931Y011861D03*
X014931Y011857D03*
X014813Y011739D03*
D131*
X014945Y011743D03*
X014827Y012058D03*
X014827Y012062D03*
D132*
X014941Y011747D03*
D133*
X014939Y011751D03*
X014931Y011885D03*
D134*
X014807Y011755D03*
D135*
X014805Y011759D03*
X014931Y011837D03*
D136*
X014803Y011763D03*
D137*
X014931Y011826D03*
D138*
X014931Y011830D03*
X014931Y011834D03*
D139*
X014931Y011841D03*
D140*
X014931Y011865D03*
D141*
X014931Y011869D03*
D142*
X014931Y011873D03*
X014931Y011877D03*
D143*
X014931Y011881D03*
D144*
X014931Y011889D03*
X014931Y011893D03*
X015258Y012334D03*
D145*
X014931Y012456D03*
X014931Y011897D03*
D146*
X014931Y011900D03*
D147*
X014931Y011904D03*
X014931Y011908D03*
X014836Y012034D03*
D148*
X014931Y011916D03*
D149*
X014931Y011920D03*
X014931Y011924D03*
D150*
X014931Y011928D03*
X014829Y012066D03*
D151*
X014929Y011936D03*
X015016Y012050D03*
X014709Y012235D03*
D152*
X015018Y012054D03*
X014931Y011940D03*
D153*
X014931Y011948D03*
D154*
X014929Y011952D03*
X015016Y012066D03*
D155*
X014931Y011956D03*
D156*
X014931Y011960D03*
D157*
X014931Y011963D03*
D158*
X014929Y011967D03*
D159*
X014931Y011971D03*
D160*
X014929Y011983D03*
X014697Y012357D03*
D161*
X014931Y011987D03*
X015159Y012298D03*
X015163Y012302D03*
D162*
X014931Y011991D03*
D163*
X014931Y011995D03*
X014931Y011999D03*
X014691Y012349D03*
D164*
X014931Y012444D03*
X014931Y012003D03*
D165*
X014931Y012007D03*
D166*
X014931Y012011D03*
X014931Y012015D03*
D167*
X014931Y012019D03*
D168*
X014931Y012023D03*
X014931Y012440D03*
D169*
X014929Y012026D03*
D170*
X014842Y012030D03*
X014835Y012038D03*
X014831Y012042D03*
X014831Y012046D03*
D171*
X015008Y012034D03*
X015012Y012042D03*
D172*
X014827Y012054D03*
D173*
X015016Y012058D03*
X014709Y012239D03*
D174*
X014931Y012070D03*
D175*
X014931Y012078D03*
D176*
X014931Y012082D03*
X014931Y012428D03*
D177*
X014931Y012086D03*
D178*
X014929Y012089D03*
D179*
X014931Y012093D03*
D180*
X014931Y012097D03*
X015022Y012223D03*
X015025Y012227D03*
X014931Y012424D03*
D181*
X015027Y012231D03*
X015020Y012219D03*
X014929Y012101D03*
D182*
X014929Y012105D03*
X015027Y012239D03*
D183*
X014931Y012113D03*
X014931Y012420D03*
D184*
X014929Y012121D03*
D185*
X014931Y012129D03*
X014805Y012298D03*
X014801Y012302D03*
X014931Y012416D03*
D186*
X015059Y012353D03*
X014929Y012133D03*
X014799Y012306D03*
D187*
X014931Y012141D03*
X015061Y012349D03*
D188*
X014929Y012149D03*
D189*
X014929Y012164D03*
D190*
X014931Y012168D03*
D191*
X014929Y012196D03*
D192*
X014929Y012208D03*
X014929Y012393D03*
D193*
X014931Y012215D03*
D194*
X015029Y012235D03*
D195*
X015027Y012243D03*
D196*
X014709Y012243D03*
D197*
X014931Y012251D03*
D198*
X014929Y012267D03*
D199*
X014929Y012271D03*
X014929Y012369D03*
D200*
X014929Y012274D03*
D201*
X014931Y012294D03*
D202*
X015165Y012306D03*
X014693Y012353D03*
D203*
X015165Y012310D03*
D204*
X014801Y012310D03*
D205*
X015248Y012318D03*
X015252Y012322D03*
X015256Y012326D03*
X015256Y012330D03*
D206*
X014874Y012318D03*
X014870Y012322D03*
X014866Y012330D03*
D207*
X015252Y012345D03*
X015256Y012341D03*
X015260Y012337D03*
D208*
X014929Y012377D03*
X014866Y012341D03*
D209*
X014929Y012381D03*
D210*
X014929Y012389D03*
D211*
X014931Y012436D03*
D212*
X014773Y016735D03*
X014773Y018743D03*
X018317Y018743D03*
X018317Y016735D03*
D213*
X018695Y013782D02*
X018695Y013192D01*
X019695Y013192D02*
X019695Y013782D01*
X020695Y013782D02*
X020695Y013192D01*
D214*
X003984Y015715D03*
D215*
X002984Y015715D03*
X002984Y016715D03*
X003984Y016715D03*
X003984Y017715D03*
X002984Y017715D03*
D216*
X003284Y013715D02*
X002684Y013715D01*
X002684Y012715D02*
X003284Y012715D01*
X003284Y011715D02*
X002684Y011715D01*
X002684Y010715D02*
X003284Y010715D01*
X003284Y009715D02*
X002684Y009715D01*
X002684Y008715D02*
X003284Y008715D01*
X003284Y003715D02*
X002684Y003715D01*
X002684Y002715D02*
X003284Y002715D01*
X003284Y001715D02*
X002684Y001715D01*
X016737Y006715D02*
X017337Y006715D01*
X017337Y007715D02*
X016737Y007715D01*
X016737Y008715D02*
X017337Y008715D01*
X017337Y009715D02*
X016737Y009715D01*
X016737Y010715D02*
X017337Y010715D01*
X017337Y011715D02*
X016737Y011715D01*
X016737Y012715D02*
X017337Y012715D01*
X017337Y013715D02*
X016737Y013715D01*
D217*
X016335Y013298D02*
X015450Y013298D01*
X015449Y013296D02*
X015602Y013450D01*
X015685Y013650D01*
X015685Y013867D01*
X015602Y014068D01*
X015449Y014221D01*
X015248Y014304D01*
X015031Y014304D01*
X014830Y014221D01*
X014728Y014119D01*
X014206Y014119D01*
X014074Y014064D01*
X013974Y013964D01*
X013202Y013964D01*
X013099Y013921D01*
X013020Y013843D01*
X012978Y013740D01*
X012978Y012683D01*
X013020Y012580D01*
X013099Y012502D01*
X013143Y012483D01*
X013029Y012369D01*
X012060Y012369D01*
X011957Y012326D01*
X011879Y012248D01*
X011836Y012145D01*
X011836Y011167D01*
X011879Y011064D01*
X011957Y010986D01*
X012060Y010943D01*
X012465Y010943D01*
X012465Y009909D01*
X012426Y009893D01*
X012347Y009814D01*
X012335Y009784D01*
X012331Y009791D01*
X012290Y009832D01*
X012240Y009861D01*
X012184Y009876D01*
X011915Y009876D01*
X011915Y009216D01*
X011915Y009216D01*
X011915Y009876D01*
X011646Y009876D01*
X011590Y009861D01*
X011550Y009838D01*
X011550Y009897D01*
X011481Y010065D01*
X011352Y010194D01*
X011216Y010251D01*
X011176Y010291D01*
X011176Y010669D01*
X011133Y010772D01*
X011109Y010796D01*
X011116Y010820D01*
X011116Y011097D01*
X010608Y011097D01*
X010608Y011113D01*
X010592Y011113D01*
X010592Y011097D01*
X010085Y011097D01*
X010085Y010820D01*
X010092Y010796D01*
X010075Y010779D01*
X010075Y013327D01*
X010106Y013296D01*
X010239Y013241D01*
X010492Y012988D01*
X010593Y012887D01*
X010726Y012832D01*
X011245Y012832D01*
X011245Y012683D01*
X011288Y012580D01*
X011367Y012502D01*
X011470Y012459D01*
X012526Y012459D01*
X012629Y012502D01*
X012708Y012580D01*
X012750Y012683D01*
X012750Y013740D01*
X012708Y013843D01*
X012629Y013921D01*
X012526Y013964D01*
X011470Y013964D01*
X011367Y013921D01*
X011288Y013843D01*
X011245Y013740D01*
X011245Y013552D01*
X010946Y013552D01*
X010928Y013570D01*
X010961Y013650D01*
X010961Y013867D01*
X010878Y014068D01*
X010783Y014163D01*
X010783Y014997D01*
X012456Y014997D01*
X012315Y014855D01*
X012232Y014655D01*
X012232Y014438D01*
X012315Y014237D01*
X012468Y014083D01*
X012669Y014000D01*
X012886Y014000D01*
X013087Y014083D01*
X013149Y014146D01*
X013392Y014146D01*
X013539Y014207D01*
X013817Y014485D01*
X019066Y014485D01*
X019213Y014546D01*
X020674Y016007D01*
X020690Y016007D01*
X020685Y016003D01*
X020612Y015827D01*
X020612Y015636D01*
X020685Y015459D01*
X020986Y015158D01*
X020986Y014284D01*
X020809Y014358D01*
X020580Y014358D01*
X020369Y014270D01*
X020207Y014108D01*
X020162Y014000D01*
X020135Y014052D01*
X020088Y014118D01*
X020030Y014175D01*
X019965Y014223D01*
X019893Y014260D01*
X019815Y014285D01*
X019735Y014298D01*
X019695Y014298D01*
X019695Y013487D01*
X019695Y012677D01*
X019735Y012677D01*
X019815Y012689D01*
X019862Y012704D01*
X019549Y012391D01*
X018926Y012391D01*
X018779Y012330D01*
X018667Y012218D01*
X018602Y012153D01*
X018490Y012040D01*
X018429Y011893D01*
X018429Y001997D01*
X015608Y001997D01*
X015579Y002068D01*
X015425Y002221D01*
X015265Y002288D01*
X015410Y002434D01*
X015512Y002535D01*
X015567Y002667D01*
X015567Y003199D01*
X015595Y003228D01*
X015665Y003396D01*
X015665Y003578D01*
X015595Y003747D01*
X015466Y003875D01*
X015298Y003945D01*
X015115Y003945D01*
X014947Y003875D01*
X014819Y003747D01*
X014819Y006016D01*
X015007Y005937D01*
X015225Y005937D01*
X015425Y006020D01*
X015579Y006174D01*
X015662Y006375D01*
X015662Y006592D01*
X015579Y006792D01*
X015425Y006946D01*
X015225Y007029D01*
X015007Y007029D01*
X014807Y006946D01*
X014774Y006913D01*
X014764Y006939D01*
X014662Y007040D01*
X013185Y008518D01*
X013185Y008523D01*
X013223Y008538D01*
X013280Y008595D01*
X013336Y008538D01*
X013439Y008496D01*
X014030Y008496D01*
X014133Y008538D01*
X014212Y008617D01*
X014254Y008720D01*
X014254Y008856D01*
X014412Y008856D01*
X014580Y008925D01*
X014594Y008939D01*
X014594Y008926D01*
X014677Y008725D01*
X014830Y008572D01*
X015031Y008489D01*
X015248Y008489D01*
X015449Y008572D01*
X015602Y008725D01*
X015685Y008926D01*
X015685Y009143D01*
X015602Y009343D01*
X015449Y009497D01*
X015248Y009580D01*
X015031Y009580D01*
X014830Y009497D01*
X014767Y009434D01*
X014709Y009573D01*
X014580Y009702D01*
X014412Y009772D01*
X014230Y009772D01*
X014229Y009772D01*
X014212Y009814D01*
X014133Y009893D01*
X014030Y009936D01*
X013439Y009936D01*
X013336Y009893D01*
X013280Y009837D01*
X013223Y009893D01*
X013185Y009909D01*
X013185Y010943D01*
X013589Y010943D01*
X013692Y010986D01*
X013771Y011064D01*
X013813Y011167D01*
X013813Y012136D01*
X014035Y012358D01*
X014077Y012459D01*
X014258Y012459D01*
X014304Y012478D01*
X014271Y012399D01*
X014271Y012276D01*
X014314Y012173D01*
X014319Y012168D01*
X014322Y012161D01*
X014331Y012152D01*
X014333Y012145D01*
X014342Y012136D01*
X014345Y012130D01*
X014354Y012121D01*
X014357Y012114D01*
X014366Y012105D01*
X014369Y012098D01*
X014378Y012089D01*
X014381Y012082D01*
X014390Y012073D01*
X014392Y012067D01*
X014401Y012058D01*
X014404Y012051D01*
X014413Y012042D01*
X014416Y012035D01*
X014425Y012026D01*
X014428Y012019D01*
X014437Y012010D01*
X014440Y012004D01*
X014445Y011999D01*
X014448Y011992D01*
X014457Y011983D01*
X014459Y011976D01*
X014468Y011967D01*
X014471Y011960D01*
X014480Y011951D01*
X014483Y011945D01*
X014492Y011936D01*
X014495Y011929D01*
X014501Y011922D01*
X014428Y011892D01*
X014427Y011891D01*
X014420Y011888D01*
X014419Y011887D01*
X014412Y011884D01*
X014333Y011805D01*
X014329Y011801D01*
X014325Y011797D01*
X014322Y011793D01*
X014318Y011789D01*
X014314Y011785D01*
X014310Y011782D01*
X014307Y011775D01*
X014306Y011774D01*
X014302Y011770D01*
X014301Y011767D01*
X014298Y011766D01*
X014219Y011687D01*
X014215Y011683D01*
X014211Y011679D01*
X014207Y011675D01*
X014203Y011671D01*
X014161Y011568D01*
X014161Y011566D01*
X014157Y011557D01*
X014157Y011394D01*
X014161Y011384D01*
X014161Y011382D01*
X014203Y011279D01*
X014279Y011204D01*
X014318Y011110D01*
X014319Y011109D01*
X014322Y011102D01*
X014323Y011101D01*
X014325Y011094D01*
X014327Y011093D01*
X014329Y011086D01*
X014331Y011085D01*
X014333Y011078D01*
X014338Y011073D01*
X014341Y011067D01*
X014346Y011062D01*
X014349Y011055D01*
X014354Y011050D01*
X014357Y011043D01*
X014436Y010964D01*
X014440Y010960D01*
X014444Y010956D01*
X014448Y010952D01*
X014451Y010949D01*
X014455Y010945D01*
X014459Y010941D01*
X014463Y010937D01*
X014467Y010933D01*
X014474Y010930D01*
X014475Y010929D01*
X014479Y010925D01*
X014486Y010922D01*
X014487Y010921D01*
X014491Y010917D01*
X014498Y010914D01*
X014499Y010913D01*
X014505Y010910D01*
X014507Y010909D01*
X014513Y010906D01*
X014514Y010905D01*
X014617Y010863D01*
X014620Y010863D01*
X014629Y010859D01*
X014635Y010859D01*
X014645Y010855D01*
X014655Y010855D01*
X014665Y010851D01*
X015197Y010851D01*
X015207Y010855D01*
X015221Y010855D01*
X015230Y010859D01*
X015233Y010859D01*
X015242Y010863D01*
X015245Y010863D01*
X015347Y010905D01*
X015349Y010906D01*
X015355Y010909D01*
X015356Y010910D01*
X015363Y010913D01*
X015364Y010914D01*
X015371Y010917D01*
X015372Y010918D01*
X015379Y010921D01*
X015383Y010925D01*
X015384Y010926D01*
X015391Y010929D01*
X015395Y010933D01*
X015399Y010937D01*
X015403Y010941D01*
X015404Y010942D01*
X015410Y010945D01*
X015414Y010949D01*
X015493Y011027D01*
X015496Y011034D01*
X015513Y011051D01*
X015516Y011058D01*
X015521Y011063D01*
X015523Y011069D01*
X015529Y011075D01*
X015531Y011081D01*
X015533Y011082D01*
X015535Y011089D01*
X015536Y011090D01*
X015539Y011097D01*
X015540Y011098D01*
X015543Y011105D01*
X015544Y011106D01*
X015547Y011113D01*
X015548Y011114D01*
X015590Y011215D01*
X015655Y011279D01*
X015657Y011286D01*
X015659Y011287D01*
X015701Y011390D01*
X015701Y011560D01*
X015659Y011663D01*
X015657Y011665D01*
X015655Y011671D01*
X015653Y011672D01*
X015651Y011679D01*
X015647Y011683D01*
X015568Y011762D01*
X015562Y011764D01*
X015560Y011770D01*
X015559Y011771D01*
X015556Y011778D01*
X015555Y011779D01*
X015552Y011785D01*
X015551Y011787D01*
X015548Y011793D01*
X015544Y011797D01*
X015543Y011798D01*
X015540Y011805D01*
X015536Y011809D01*
X015533Y011813D01*
X015529Y011817D01*
X015450Y011896D01*
X015450Y011896D01*
X015438Y011908D01*
X015431Y011910D01*
X015426Y011915D01*
X015419Y011918D01*
X015418Y011919D01*
X015412Y011922D01*
X015410Y011923D01*
X015372Y011939D01*
X015374Y011943D01*
X015383Y011952D01*
X015386Y011959D01*
X015395Y011968D01*
X015398Y011975D01*
X015407Y011984D01*
X015409Y011991D01*
X015418Y012000D01*
X015421Y012006D01*
X015426Y012012D01*
X015429Y012018D01*
X015438Y012027D01*
X015441Y012034D01*
X015450Y012043D01*
X015453Y012050D01*
X015462Y012059D01*
X015464Y012066D01*
X015473Y012075D01*
X015476Y012081D01*
X015485Y012090D01*
X015488Y012097D01*
X015493Y012102D01*
X015496Y012109D01*
X015505Y012118D01*
X015508Y012125D01*
X015517Y012134D01*
X015520Y012140D01*
X015529Y012149D01*
X015531Y012156D01*
X015540Y012165D01*
X015543Y012172D01*
X015548Y012177D01*
X015591Y012280D01*
X015591Y012395D01*
X015548Y012498D01*
X015544Y012502D01*
X015540Y012506D01*
X015462Y012585D01*
X015455Y012587D01*
X015454Y012589D01*
X015447Y012591D01*
X015446Y012593D01*
X015439Y012595D01*
X015434Y012600D01*
X015427Y012603D01*
X015426Y012604D01*
X015419Y012607D01*
X015418Y012608D01*
X015412Y012611D01*
X015410Y012612D01*
X015404Y012615D01*
X015403Y012616D01*
X015396Y012619D01*
X015395Y012620D01*
X015388Y012623D01*
X015387Y012624D01*
X015380Y012627D01*
X015379Y012628D01*
X015372Y012631D01*
X015371Y012632D01*
X015364Y012635D01*
X015363Y012636D01*
X015356Y012639D01*
X015355Y012640D01*
X015349Y012643D01*
X015347Y012644D01*
X015245Y012686D01*
X015244Y012686D01*
X015225Y012694D01*
X015223Y012694D01*
X015213Y012698D01*
X015211Y012698D01*
X015201Y012702D01*
X015199Y012702D01*
X015189Y012706D01*
X015187Y012706D01*
X015178Y012710D01*
X015175Y012710D01*
X015166Y012714D01*
X015160Y012714D01*
X015150Y012718D01*
X015144Y012718D01*
X015134Y012722D01*
X015128Y012722D01*
X015119Y012726D01*
X015108Y012726D01*
X015099Y012730D01*
X015085Y012730D01*
X015075Y012734D01*
X015049Y012734D01*
X015040Y012738D01*
X014822Y012738D01*
X014813Y012734D01*
X014787Y012734D01*
X014777Y012730D01*
X014763Y012730D01*
X014754Y012726D01*
X014743Y012726D01*
X014734Y012722D01*
X014728Y012722D01*
X014718Y012718D01*
X014712Y012718D01*
X014702Y012714D01*
X014696Y012714D01*
X014687Y012710D01*
X014684Y012710D01*
X014675Y012706D01*
X014673Y012706D01*
X014663Y012702D01*
X014661Y012702D01*
X014651Y012698D01*
X014649Y012698D01*
X014639Y012694D01*
X014637Y012694D01*
X014618Y012686D01*
X014617Y012686D01*
X014514Y012644D01*
X014514Y012643D01*
X014487Y012632D01*
X014486Y012631D01*
X014479Y012628D01*
X014478Y012627D01*
X014471Y012624D01*
X014470Y012623D01*
X014463Y012620D01*
X014462Y012619D01*
X014455Y012616D01*
X014454Y012615D01*
X014483Y012683D01*
X014483Y013399D01*
X014728Y013399D01*
X014830Y013296D01*
X015031Y013213D01*
X015248Y013213D01*
X015449Y013296D01*
X015638Y013536D02*
X016184Y013536D01*
X016157Y013600D02*
X016246Y013387D01*
X016409Y013224D01*
X016429Y013215D01*
X016409Y013207D01*
X016246Y013044D01*
X016157Y012831D01*
X016157Y012600D01*
X016246Y012387D01*
X016409Y012224D01*
X016429Y012215D01*
X016409Y012207D01*
X016246Y012044D01*
X016157Y011831D01*
X016157Y011600D01*
X016246Y011387D01*
X016409Y011224D01*
X016429Y011215D01*
X016409Y011207D01*
X016246Y011044D01*
X016157Y010831D01*
X016157Y010600D01*
X016246Y010387D01*
X016409Y010224D01*
X016429Y010215D01*
X016409Y010207D01*
X016246Y010044D01*
X016157Y009831D01*
X016157Y009600D01*
X016246Y009387D01*
X016409Y009224D01*
X016429Y009215D01*
X016409Y009207D01*
X016246Y009044D01*
X016157Y008831D01*
X016157Y008600D01*
X016246Y008387D01*
X016409Y008224D01*
X016429Y008215D01*
X016409Y008207D01*
X016246Y008044D01*
X016157Y007831D01*
X016157Y007600D01*
X016246Y007387D01*
X016409Y007224D01*
X016429Y007215D01*
X016409Y007207D01*
X016246Y007044D01*
X016157Y006831D01*
X016157Y006600D01*
X016246Y006387D01*
X016409Y006224D01*
X016622Y006135D01*
X017453Y006135D01*
X017666Y006224D01*
X017829Y006387D01*
X017917Y006600D01*
X017917Y006831D01*
X017829Y007044D01*
X017666Y007207D01*
X017646Y007215D01*
X017666Y007224D01*
X017829Y007387D01*
X017917Y007600D01*
X017917Y007831D01*
X017829Y008044D01*
X017666Y008207D01*
X017646Y008215D01*
X017666Y008224D01*
X017829Y008387D01*
X017917Y008600D01*
X017917Y008831D01*
X017829Y009044D01*
X017666Y009207D01*
X017646Y009215D01*
X017666Y009224D01*
X017829Y009387D01*
X017917Y009600D01*
X017917Y009831D01*
X017829Y010044D01*
X017666Y010207D01*
X017646Y010215D01*
X017666Y010224D01*
X017829Y010387D01*
X017917Y010600D01*
X017917Y010831D01*
X017829Y011044D01*
X017666Y011207D01*
X017646Y011215D01*
X017666Y011224D01*
X017829Y011387D01*
X017917Y011600D01*
X017917Y011831D01*
X017829Y012044D01*
X017666Y012207D01*
X017646Y012215D01*
X017666Y012224D01*
X017829Y012387D01*
X017917Y012600D01*
X017917Y012831D01*
X017829Y013044D01*
X017666Y013207D01*
X017646Y013215D01*
X017666Y013224D01*
X017829Y013387D01*
X017917Y013600D01*
X017917Y013831D01*
X017829Y014044D01*
X017666Y014207D01*
X017453Y014295D01*
X016622Y014295D01*
X016409Y014207D01*
X016246Y014044D01*
X016157Y013831D01*
X016157Y013600D01*
X016157Y013775D02*
X015685Y013775D01*
X015625Y014013D02*
X016233Y014013D01*
X016516Y014252D02*
X015376Y014252D01*
X014903Y014252D02*
X013584Y014252D01*
X013313Y014546D02*
X013651Y014885D01*
X018986Y014885D01*
X021014Y016912D01*
X018494Y016912D01*
X018317Y016735D01*
X017663Y016637D02*
X015428Y016637D01*
X015428Y016398D02*
X017663Y016398D01*
X017663Y016345D02*
X017705Y016242D01*
X017784Y016163D01*
X017887Y016120D01*
X018747Y016120D01*
X018849Y016163D01*
X018928Y016242D01*
X018971Y016345D01*
X018971Y016512D01*
X020048Y016512D01*
X018820Y015285D01*
X016192Y015285D01*
X016271Y015363D01*
X016411Y015422D01*
X016540Y015550D01*
X016610Y015719D01*
X016610Y015901D01*
X016540Y016069D01*
X016411Y016198D01*
X016243Y016268D01*
X016060Y016268D01*
X015892Y016198D01*
X015763Y016069D01*
X015705Y015929D01*
X015572Y015797D01*
X015013Y015797D01*
X015043Y015868D01*
X015113Y015938D01*
X015173Y016085D01*
X015173Y016120D01*
X015203Y016120D01*
X015306Y016163D01*
X015385Y016242D01*
X015428Y016345D01*
X015428Y017125D01*
X015385Y017228D01*
X015306Y017307D01*
X015203Y017350D01*
X014344Y017350D01*
X014241Y017307D01*
X014162Y017228D01*
X014119Y017125D01*
X014119Y016345D01*
X014162Y016242D01*
X014193Y016211D01*
X014138Y016078D01*
X014138Y015896D01*
X014179Y015797D01*
X005782Y015797D01*
X005811Y015826D01*
X005827Y015863D01*
X007109Y015863D01*
X007241Y015918D01*
X007312Y015989D01*
X007413Y016090D01*
X007466Y016218D01*
X007472Y016215D01*
X007744Y016215D01*
X007847Y016258D01*
X007858Y016269D01*
X007870Y016258D01*
X007972Y016215D01*
X008244Y016215D01*
X008347Y016258D01*
X008426Y016336D01*
X008468Y016439D01*
X008468Y017031D01*
X008426Y017134D01*
X008347Y017212D01*
X008244Y017255D01*
X007972Y017255D01*
X007870Y017212D01*
X007858Y017201D01*
X007847Y017212D01*
X007744Y017255D01*
X007472Y017255D01*
X007370Y017212D01*
X007358Y017201D01*
X007347Y017212D01*
X007244Y017255D01*
X006972Y017255D01*
X006870Y017212D01*
X006791Y017134D01*
X006748Y017031D01*
X006748Y016583D01*
X005489Y016583D01*
X005393Y016544D01*
X005332Y016544D01*
X005311Y016535D01*
X005311Y016821D01*
X005256Y016953D01*
X004564Y017645D01*
X004564Y017956D01*
X004274Y018246D01*
X004447Y018246D01*
X004716Y018357D01*
X004923Y018564D01*
X005034Y018833D01*
X005034Y019125D01*
X004923Y019395D01*
X004852Y019465D01*
X020318Y019465D01*
X020134Y019281D01*
X018884Y019281D01*
X018849Y019315D01*
X018747Y019358D01*
X017887Y019358D01*
X017784Y019315D01*
X017705Y019236D01*
X017663Y019133D01*
X017663Y018353D01*
X017705Y018250D01*
X017784Y018171D01*
X017887Y018128D01*
X018747Y018128D01*
X018849Y018171D01*
X018928Y018250D01*
X018971Y018353D01*
X018971Y018481D01*
X020134Y018481D01*
X020639Y017976D01*
X021389Y017976D01*
X021519Y018106D01*
X021519Y017687D01*
X021389Y017817D01*
X020639Y017817D01*
X020134Y017312D01*
X018837Y017312D01*
X018747Y017350D01*
X017887Y017350D01*
X017784Y017307D01*
X017705Y017228D01*
X017663Y017125D01*
X017663Y016345D01*
X017793Y016160D02*
X016450Y016160D01*
X016601Y015921D02*
X019457Y015921D01*
X019695Y016160D02*
X018841Y016160D01*
X018971Y016398D02*
X019934Y016398D01*
X020588Y015921D02*
X020651Y015921D01*
X020612Y015683D02*
X020350Y015683D01*
X020111Y015444D02*
X020701Y015444D01*
X020939Y015206D02*
X019873Y015206D01*
X019634Y014967D02*
X020986Y014967D01*
X020986Y014729D02*
X019396Y014729D01*
X019078Y014490D02*
X020986Y014490D01*
X020350Y014252D02*
X019909Y014252D01*
X019695Y014252D02*
X019695Y014252D01*
X019695Y014298D02*
X019654Y014298D01*
X019574Y014285D01*
X019497Y014260D01*
X019425Y014223D01*
X019359Y014175D01*
X019302Y014118D01*
X019254Y014052D01*
X019227Y014000D01*
X019182Y014108D01*
X019021Y014270D01*
X018809Y014358D01*
X018580Y014358D01*
X018369Y014270D01*
X018207Y014108D01*
X018119Y013897D01*
X018119Y013077D01*
X018207Y012866D01*
X018369Y012704D01*
X018580Y012617D01*
X018809Y012617D01*
X019021Y012704D01*
X019182Y012866D01*
X019227Y012974D01*
X019254Y012922D01*
X019302Y012856D01*
X019359Y012799D01*
X019425Y012751D01*
X019497Y012714D01*
X019574Y012689D01*
X019654Y012677D01*
X019695Y012677D01*
X019695Y013487D01*
X019695Y013487D01*
X019695Y013487D01*
X019695Y014298D01*
X019481Y014252D02*
X019039Y014252D01*
X019222Y014013D02*
X019234Y014013D01*
X019695Y014013D02*
X019695Y014013D01*
X019695Y013775D02*
X019695Y013775D01*
X019695Y013536D02*
X019695Y013536D01*
X019695Y013298D02*
X019695Y013298D01*
X019695Y013059D02*
X019695Y013059D01*
X019695Y012821D02*
X019695Y012821D01*
X019740Y012582D02*
X017910Y012582D01*
X017917Y012821D02*
X018252Y012821D01*
X018127Y013059D02*
X017814Y013059D01*
X017740Y013298D02*
X018119Y013298D01*
X018119Y013536D02*
X017891Y013536D01*
X017917Y013775D02*
X018119Y013775D01*
X018168Y014013D02*
X017842Y014013D01*
X017559Y014252D02*
X018350Y014252D01*
X018980Y015444D02*
X016433Y015444D01*
X016595Y015683D02*
X019218Y015683D01*
X017663Y016875D02*
X015428Y016875D01*
X015428Y017114D02*
X017663Y017114D01*
X017682Y018306D02*
X015342Y018306D01*
X015353Y018323D02*
X015368Y018379D01*
X015368Y018696D01*
X014821Y018696D01*
X014821Y018790D01*
X015368Y018790D01*
X015368Y019107D01*
X015353Y019163D01*
X015324Y019213D01*
X015283Y019254D01*
X015232Y019283D01*
X015176Y019298D01*
X014821Y019298D01*
X014821Y018790D01*
X014726Y018790D01*
X014726Y018696D01*
X014179Y018696D01*
X014179Y018379D01*
X014194Y018323D01*
X014223Y018273D01*
X014264Y018232D01*
X014315Y018203D01*
X014371Y018188D01*
X014726Y018188D01*
X014726Y018696D01*
X014821Y018696D01*
X014821Y018188D01*
X015176Y018188D01*
X015232Y018203D01*
X015283Y018232D01*
X015324Y018273D01*
X015353Y018323D01*
X015368Y018545D02*
X017663Y018545D01*
X017663Y018783D02*
X014821Y018783D01*
X014726Y018783D02*
X005014Y018783D01*
X005034Y019022D02*
X014179Y019022D01*
X014179Y019107D02*
X014179Y018790D01*
X014726Y018790D01*
X014726Y019298D01*
X014371Y019298D01*
X014315Y019283D01*
X014264Y019254D01*
X014223Y019213D01*
X014194Y019163D01*
X014179Y019107D01*
X014275Y019260D02*
X004979Y019260D01*
X004904Y018545D02*
X014179Y018545D01*
X014205Y018306D02*
X008462Y018306D01*
X008468Y018291D02*
X008426Y018394D01*
X008347Y018472D01*
X008244Y018515D01*
X007972Y018515D01*
X007870Y018472D01*
X007858Y018461D01*
X007847Y018472D01*
X007744Y018515D01*
X007472Y018515D01*
X007370Y018472D01*
X007314Y018417D01*
X007273Y018440D01*
X007217Y018455D01*
X007108Y018455D01*
X006999Y018455D01*
X006943Y018440D01*
X006893Y018411D01*
X006852Y018370D01*
X006823Y018320D01*
X006808Y018264D01*
X006808Y017995D01*
X006808Y017726D01*
X006823Y017670D01*
X006852Y017620D01*
X006893Y017579D01*
X006943Y017550D01*
X006999Y017535D01*
X007108Y017535D01*
X007108Y017995D01*
X006808Y017995D01*
X007108Y017995D01*
X007108Y017995D01*
X007108Y017995D01*
X007108Y018455D01*
X007108Y017995D01*
X007108Y017995D01*
X007108Y017535D01*
X007217Y017535D01*
X007273Y017550D01*
X007314Y017573D01*
X007370Y017518D01*
X007472Y017475D01*
X007744Y017475D01*
X007847Y017518D01*
X007858Y017529D01*
X007870Y017518D01*
X007972Y017475D01*
X008244Y017475D01*
X008347Y017518D01*
X008426Y017596D01*
X008468Y017699D01*
X008468Y018291D01*
X008468Y018068D02*
X020547Y018068D01*
X020309Y018306D02*
X018951Y018306D01*
X018455Y018881D02*
X018317Y018743D01*
X018455Y018881D02*
X021014Y018881D01*
X021480Y018068D02*
X021519Y018068D01*
X021519Y017829D02*
X008468Y017829D01*
X008420Y017591D02*
X020412Y017591D01*
X020174Y017352D02*
X004857Y017352D01*
X005095Y017114D02*
X006782Y017114D01*
X006748Y016875D02*
X005288Y016875D01*
X005311Y016637D02*
X006748Y016637D01*
X007442Y016160D02*
X014172Y016160D01*
X014138Y015921D02*
X007244Y015921D01*
X007016Y014997D02*
X010063Y014997D01*
X010063Y014475D01*
X009935Y014604D01*
X009766Y014674D01*
X009584Y014674D01*
X009416Y014604D01*
X009287Y014475D01*
X009217Y014307D01*
X009217Y014283D01*
X009166Y014304D01*
X008948Y014304D01*
X008748Y014221D01*
X008645Y014119D01*
X007828Y014119D01*
X007696Y014064D01*
X007655Y014023D01*
X006883Y014023D01*
X006780Y013980D01*
X006701Y013902D01*
X006659Y013799D01*
X006659Y013027D01*
X006431Y012800D01*
X006431Y013799D01*
X006389Y013902D01*
X006310Y013980D01*
X006207Y014023D01*
X005151Y014023D01*
X005048Y013980D01*
X004969Y013902D01*
X004927Y013799D01*
X004927Y013674D01*
X004878Y013722D01*
X004878Y013867D01*
X004795Y014068D01*
X004693Y014171D01*
X004693Y014629D01*
X005060Y014997D01*
X006373Y014997D01*
X006232Y014855D01*
X006149Y014655D01*
X006149Y014438D01*
X006232Y014237D01*
X006386Y014083D01*
X006586Y014000D01*
X006803Y014000D01*
X007004Y014083D01*
X007157Y014237D01*
X007240Y014438D01*
X007240Y014655D01*
X007157Y014855D01*
X007016Y014997D01*
X007046Y014967D02*
X010063Y014967D01*
X010063Y014729D02*
X007210Y014729D01*
X007240Y014490D02*
X009302Y014490D01*
X009675Y014215D02*
X009675Y001030D01*
X009616Y000971D01*
X012754Y000971D01*
X013134Y000580D02*
X013216Y000662D01*
X013300Y000863D01*
X013300Y001080D01*
X013222Y001268D01*
X013351Y001397D01*
X013416Y001554D01*
X013981Y001554D01*
X013981Y001427D01*
X014050Y001259D01*
X014179Y001130D01*
X014348Y001060D01*
X014530Y001060D01*
X014698Y001130D01*
X014827Y001259D01*
X014837Y001283D01*
X015007Y001213D01*
X015160Y001213D01*
X015198Y001197D01*
X018790Y001197D01*
X018937Y001258D01*
X018960Y001281D01*
X019111Y001218D01*
X019294Y001218D01*
X019462Y001288D01*
X019541Y001367D01*
X019639Y001269D01*
X019639Y001269D01*
X019819Y001089D01*
X019954Y000954D01*
X020131Y000881D01*
X020214Y000881D01*
X020515Y000580D01*
X013134Y000580D01*
X013211Y000657D02*
X020438Y000657D01*
X020096Y000896D02*
X013300Y000896D01*
X013277Y001134D02*
X014176Y001134D01*
X014003Y001373D02*
X013326Y001373D01*
X013222Y001268D02*
X013222Y001268D01*
X012542Y001474D02*
X012445Y001434D01*
X012382Y001371D01*
X010776Y001371D01*
X010854Y001450D01*
X010937Y001650D01*
X010937Y001795D01*
X011088Y001946D01*
X011265Y001946D01*
X011265Y001778D01*
X011308Y001675D01*
X011387Y001596D01*
X011489Y001554D01*
X012509Y001554D01*
X012542Y001474D01*
X012383Y001373D02*
X010777Y001373D01*
X010921Y001611D02*
X011372Y001611D01*
X011265Y001850D02*
X010991Y001850D01*
X010450Y002327D02*
X010075Y002327D01*
X010082Y002221D02*
X010075Y002214D01*
X010075Y006028D01*
X010082Y006020D01*
X010283Y005937D01*
X010500Y005937D01*
X010634Y005993D01*
X010634Y005539D01*
X010407Y005539D01*
X010304Y005496D01*
X010225Y005417D01*
X010182Y005314D01*
X010182Y004691D01*
X010225Y004588D01*
X010249Y004564D01*
X010242Y004540D01*
X010242Y004263D01*
X010750Y004263D01*
X010750Y004247D01*
X010766Y004247D01*
X010766Y004263D01*
X011273Y004263D01*
X011273Y004540D01*
X011266Y004564D01*
X011290Y004588D01*
X011333Y004691D01*
X011333Y005117D01*
X011354Y005167D01*
X011354Y005942D01*
X011375Y005942D01*
X011375Y005806D01*
X011418Y005703D01*
X011497Y005624D01*
X011599Y005582D01*
X012191Y005582D01*
X012294Y005624D01*
X012350Y005681D01*
X012406Y005624D01*
X012445Y005608D01*
X012445Y004575D01*
X012041Y004575D01*
X011938Y004532D01*
X011859Y004453D01*
X011816Y004350D01*
X011816Y003373D01*
X011859Y003270D01*
X011938Y003191D01*
X012041Y003148D01*
X012327Y003148D01*
X012327Y003124D01*
X012261Y003058D01*
X011489Y003058D01*
X011387Y003016D01*
X011308Y002937D01*
X011265Y002834D01*
X011265Y002666D01*
X010867Y002666D01*
X010735Y002611D01*
X010428Y002304D01*
X010283Y002304D01*
X010082Y002221D01*
X010075Y002565D02*
X010689Y002565D01*
X011265Y002804D02*
X010075Y002804D01*
X010075Y003042D02*
X011450Y003042D01*
X011855Y003281D02*
X010075Y003281D01*
X010075Y003519D02*
X011816Y003519D01*
X011816Y003758D02*
X010075Y003758D01*
X010286Y003864D02*
X010327Y003823D01*
X010378Y003794D01*
X010434Y003779D01*
X010750Y003779D01*
X010750Y004247D01*
X010242Y004247D01*
X010242Y003970D01*
X010257Y003914D01*
X010286Y003864D01*
X010242Y003996D02*
X010075Y003996D01*
X010075Y004235D02*
X010242Y004235D01*
X010242Y004473D02*
X010075Y004473D01*
X010075Y004712D02*
X010182Y004712D01*
X010182Y004950D02*
X010075Y004950D01*
X010075Y005189D02*
X010182Y005189D01*
X010235Y005427D02*
X010075Y005427D01*
X010075Y005666D02*
X010634Y005666D01*
X010634Y005904D02*
X010075Y005904D01*
X009275Y005904D02*
X008854Y005904D01*
X008854Y005967D02*
X008925Y005937D01*
X009142Y005937D01*
X009275Y005993D01*
X009275Y002249D01*
X009142Y002304D01*
X008997Y002304D01*
X008631Y002670D01*
X008499Y002725D01*
X008498Y002725D01*
X008498Y002893D01*
X008456Y002996D01*
X008377Y003075D01*
X008274Y003117D01*
X007218Y003117D01*
X007195Y003108D01*
X007200Y003120D01*
X007200Y003168D01*
X007605Y003168D01*
X007708Y003211D01*
X007786Y003290D01*
X007829Y003392D01*
X007829Y004370D01*
X007786Y004473D01*
X008120Y004473D01*
X008106Y004487D02*
X008234Y004359D01*
X008403Y004289D01*
X008585Y004289D01*
X008753Y004359D01*
X008882Y004487D01*
X008952Y004656D01*
X008952Y004838D01*
X008882Y005006D01*
X008854Y005035D01*
X008854Y005967D01*
X008854Y005666D02*
X009275Y005666D01*
X009275Y005427D02*
X008854Y005427D01*
X008854Y005189D02*
X009275Y005189D01*
X009275Y004950D02*
X008906Y004950D01*
X008952Y004712D02*
X009275Y004712D01*
X009275Y004473D02*
X008868Y004473D01*
X009275Y004235D02*
X007829Y004235D01*
X007786Y004473D02*
X007708Y004552D01*
X007651Y004575D01*
X007662Y004586D01*
X007732Y004754D01*
X007732Y004936D01*
X007662Y005105D01*
X007533Y005234D01*
X007365Y005303D01*
X007200Y005303D01*
X007200Y005628D01*
X007239Y005644D01*
X007318Y005723D01*
X007330Y005753D01*
X007334Y005746D01*
X007375Y005705D01*
X007425Y005676D01*
X007481Y005661D01*
X007750Y005661D01*
X007750Y006321D01*
X007750Y006321D01*
X007750Y005661D01*
X008019Y005661D01*
X008075Y005676D01*
X008125Y005705D01*
X008134Y005714D01*
X008134Y005035D01*
X008106Y005006D01*
X008036Y004838D01*
X008036Y004656D01*
X008106Y004487D01*
X008036Y004712D02*
X007714Y004712D01*
X007726Y004950D02*
X008082Y004950D01*
X008134Y005189D02*
X007578Y005189D01*
X007200Y005427D02*
X008134Y005427D01*
X008134Y005666D02*
X008035Y005666D01*
X007750Y005666D02*
X007750Y005666D01*
X007750Y005904D02*
X007750Y005904D01*
X007750Y006143D02*
X007750Y006143D01*
X007750Y006321D02*
X007750Y006981D01*
X007481Y006981D01*
X007425Y006966D01*
X007375Y006937D01*
X007334Y006896D01*
X007330Y006890D01*
X007318Y006920D01*
X007239Y006999D01*
X007136Y007041D01*
X006545Y007041D01*
X006442Y006999D01*
X006385Y006942D01*
X006329Y006999D01*
X006268Y007024D01*
X006236Y007101D01*
X006135Y007202D01*
X006134Y007202D01*
X006120Y007217D01*
X006122Y007219D01*
X006128Y007213D01*
X006297Y007143D01*
X006479Y007143D01*
X006647Y007213D01*
X006776Y007342D01*
X006846Y007510D01*
X006846Y007692D01*
X006776Y007861D01*
X006728Y007909D01*
X006728Y008318D01*
X006676Y008443D01*
X006663Y008456D01*
X006860Y008456D01*
X006963Y008499D01*
X007020Y008555D01*
X007076Y008499D01*
X007179Y008456D01*
X007770Y008456D01*
X007873Y008499D01*
X007952Y008578D01*
X007995Y008681D01*
X007995Y009446D01*
X008088Y009407D01*
X008128Y009407D01*
X008134Y009401D01*
X008134Y006929D01*
X008125Y006937D01*
X008075Y006966D01*
X008019Y006981D01*
X007750Y006981D01*
X007750Y006321D01*
X007750Y006321D01*
X007750Y006381D02*
X007750Y006381D01*
X007750Y006620D02*
X007750Y006620D01*
X007750Y006858D02*
X007750Y006858D01*
X008134Y007097D02*
X006238Y007097D01*
X006769Y007335D02*
X008134Y007335D01*
X008134Y007574D02*
X006846Y007574D01*
X006796Y007812D02*
X008134Y007812D01*
X008134Y008051D02*
X006728Y008051D01*
X006728Y008289D02*
X008134Y008289D01*
X008134Y008528D02*
X007902Y008528D01*
X007995Y008766D02*
X008134Y008766D01*
X008134Y009005D02*
X007995Y009005D01*
X007995Y009243D02*
X008134Y009243D01*
X008854Y009541D02*
X008854Y009622D01*
X008799Y009754D01*
X008637Y009916D01*
X008637Y009940D01*
X008821Y009940D01*
X008821Y010408D01*
X008837Y010408D01*
X008837Y009940D01*
X009153Y009940D01*
X009209Y009955D01*
X009259Y009984D01*
X009275Y010000D01*
X009275Y009535D01*
X009166Y009580D01*
X008948Y009580D01*
X008854Y009541D01*
X008813Y009720D02*
X009275Y009720D01*
X009275Y009959D02*
X009214Y009959D01*
X008837Y009959D02*
X008821Y009959D01*
X008821Y010197D02*
X008837Y010197D01*
X008821Y010408D02*
X008313Y010408D01*
X008313Y010305D01*
X008270Y010323D01*
X008222Y010323D01*
X008233Y010334D01*
X008302Y010502D01*
X008302Y010542D01*
X008313Y010553D01*
X008313Y010424D01*
X008821Y010424D01*
X008821Y010408D01*
X008313Y010436D02*
X008275Y010436D01*
X007753Y011051D02*
X007585Y010982D01*
X007456Y010853D01*
X007386Y010685D01*
X007386Y010644D01*
X007271Y010529D01*
X007169Y010428D01*
X007115Y010295D01*
X007115Y009870D01*
X007076Y009854D01*
X007020Y009797D01*
X006963Y009854D01*
X006937Y009865D01*
X006953Y009881D01*
X007023Y010050D01*
X007023Y010232D01*
X006953Y010400D01*
X006925Y010428D01*
X006925Y010904D01*
X007329Y010904D01*
X007432Y010946D01*
X007511Y011025D01*
X007553Y011128D01*
X007553Y012105D01*
X009275Y012105D01*
X009275Y011867D02*
X007553Y011867D01*
X007553Y012105D02*
X007511Y012208D01*
X007432Y012287D01*
X007329Y012330D01*
X006980Y012330D01*
X007168Y012518D01*
X007939Y012518D01*
X008042Y012561D01*
X008121Y012640D01*
X008164Y012742D01*
X008164Y013399D01*
X008645Y013399D01*
X008748Y013296D01*
X008948Y013213D01*
X009166Y013213D01*
X009275Y013258D01*
X009275Y011661D01*
X009180Y011700D01*
X008478Y011700D01*
X008375Y011658D01*
X008296Y011579D01*
X008259Y011489D01*
X008211Y011469D01*
X007793Y011051D01*
X007753Y011051D01*
X007893Y011151D02*
X007553Y011151D01*
X007553Y011390D02*
X008131Y011390D01*
X008345Y011628D02*
X007553Y011628D01*
X007516Y010913D02*
X007351Y010913D01*
X007386Y010674D02*
X006925Y010674D01*
X006925Y010436D02*
X007177Y010436D01*
X007115Y010197D02*
X007023Y010197D01*
X006985Y009959D02*
X007115Y009959D01*
X006193Y009865D02*
X006166Y009854D01*
X006087Y009775D01*
X006075Y009745D01*
X006071Y009751D01*
X006030Y009792D01*
X005980Y009821D01*
X005924Y009836D01*
X005655Y009836D01*
X005655Y009176D01*
X005655Y009836D01*
X005386Y009836D01*
X005330Y009821D01*
X005330Y011231D01*
X005359Y011259D01*
X005428Y011427D01*
X005428Y011610D01*
X005359Y011778D01*
X005230Y011907D01*
X005061Y011977D01*
X004879Y011977D01*
X004858Y011968D01*
X004858Y012799D01*
X004927Y012867D01*
X004927Y012742D01*
X004969Y012640D01*
X005048Y012561D01*
X005151Y012518D01*
X006207Y012518D01*
X006216Y012522D01*
X006205Y012496D01*
X006205Y012330D01*
X005800Y012330D01*
X005698Y012287D01*
X005619Y012208D01*
X005576Y012105D01*
X004858Y012105D01*
X004858Y012344D02*
X006205Y012344D01*
X006431Y012821D02*
X006452Y012821D01*
X006431Y013059D02*
X006659Y013059D01*
X006659Y013298D02*
X006431Y013298D01*
X006431Y013536D02*
X006659Y013536D01*
X006659Y013775D02*
X006431Y013775D01*
X006556Y014013D02*
X006231Y014013D01*
X006226Y014252D02*
X004693Y014252D01*
X004818Y014013D02*
X005127Y014013D01*
X004927Y013775D02*
X004878Y013775D01*
X004254Y013213D02*
X004193Y013152D01*
X004189Y013142D01*
X004189Y013228D01*
X004224Y013213D01*
X004254Y013213D01*
X004880Y012821D02*
X004927Y012821D01*
X004858Y012582D02*
X005027Y012582D01*
X005576Y012105D02*
X005576Y011128D01*
X005619Y011025D01*
X005698Y010946D01*
X005800Y010904D01*
X006205Y010904D01*
X006205Y010428D01*
X006176Y010400D01*
X006107Y010232D01*
X006107Y010050D01*
X006176Y009881D01*
X006193Y009865D01*
X006144Y009959D02*
X005330Y009959D01*
X005330Y010197D02*
X006107Y010197D01*
X006205Y010436D02*
X005330Y010436D01*
X005330Y010674D02*
X006205Y010674D01*
X005779Y010913D02*
X005330Y010913D01*
X005330Y011151D02*
X005576Y011151D01*
X005576Y011390D02*
X005413Y011390D01*
X005421Y011628D02*
X005576Y011628D01*
X005576Y011867D02*
X005270Y011867D01*
X006993Y012344D02*
X009275Y012344D01*
X009275Y012582D02*
X008064Y012582D01*
X008164Y012821D02*
X009275Y012821D01*
X009275Y013059D02*
X008164Y013059D01*
X008164Y013298D02*
X008746Y013298D01*
X008821Y014252D02*
X007163Y014252D01*
X006859Y014013D02*
X006834Y014013D01*
X006149Y014490D02*
X004693Y014490D01*
X004792Y014729D02*
X006180Y014729D01*
X006344Y014967D02*
X005030Y014967D01*
X004951Y015397D02*
X010423Y015397D01*
X015738Y015397D01*
X016151Y015810D01*
X015853Y016160D02*
X015297Y016160D01*
X015096Y015921D02*
X015697Y015921D01*
X014773Y016164D02*
X014773Y016735D01*
X014773Y016164D02*
X014596Y015987D01*
X014119Y016398D02*
X008451Y016398D01*
X008468Y016637D02*
X014119Y016637D01*
X014119Y016875D02*
X008468Y016875D01*
X008434Y017114D02*
X014119Y017114D01*
X014726Y018306D02*
X014821Y018306D01*
X014821Y018545D02*
X014726Y018545D01*
X014726Y019022D02*
X014821Y019022D01*
X014821Y019260D02*
X014726Y019260D01*
X015272Y019260D02*
X017729Y019260D01*
X017663Y019022D02*
X015368Y019022D01*
X013198Y014997D02*
X013148Y014947D01*
X013099Y014997D01*
X013198Y014997D01*
X013168Y014967D02*
X013128Y014967D01*
X013313Y014546D02*
X012777Y014546D01*
X012262Y014729D02*
X010783Y014729D01*
X010783Y014967D02*
X012426Y014967D01*
X012232Y014490D02*
X010783Y014490D01*
X010783Y014252D02*
X012309Y014252D01*
X012638Y014013D02*
X010901Y014013D01*
X010961Y013775D02*
X011260Y013775D01*
X010421Y013059D02*
X010075Y013059D01*
X010075Y013298D02*
X010105Y013298D01*
X010075Y012821D02*
X011245Y012821D01*
X011287Y012582D02*
X010075Y012582D01*
X010075Y012344D02*
X011999Y012344D01*
X011836Y012105D02*
X010075Y012105D01*
X010075Y011867D02*
X011836Y011867D01*
X011836Y011628D02*
X010075Y011628D01*
X010170Y011537D02*
X010129Y011496D01*
X010100Y011446D01*
X010085Y011390D01*
X010085Y011113D01*
X010592Y011113D01*
X010592Y011581D01*
X010276Y011581D01*
X010220Y011566D01*
X010170Y011537D01*
X010085Y011390D02*
X010075Y011390D01*
X010075Y011151D02*
X010085Y011151D01*
X010075Y010913D02*
X010085Y010913D01*
X010608Y011113D02*
X010608Y011581D01*
X010925Y011581D01*
X010980Y011566D01*
X011031Y011537D01*
X011072Y011496D01*
X011101Y011446D01*
X011116Y011390D01*
X011116Y011113D01*
X010608Y011113D01*
X010608Y011151D02*
X010592Y011151D01*
X010592Y011390D02*
X010608Y011390D01*
X011116Y011390D02*
X011836Y011390D01*
X011843Y011151D02*
X011116Y011151D01*
X011116Y010913D02*
X012465Y010913D01*
X012465Y010674D02*
X011173Y010674D01*
X011176Y010436D02*
X012465Y010436D01*
X012465Y010197D02*
X011345Y010197D01*
X011525Y009959D02*
X012465Y009959D01*
X011915Y009720D02*
X011915Y009720D01*
X011915Y009482D02*
X011915Y009482D01*
X011915Y009243D02*
X011915Y009243D01*
X011915Y009216D02*
X011915Y009216D01*
X011915Y008556D01*
X012184Y008556D01*
X012240Y008571D01*
X012290Y008600D01*
X012331Y008641D01*
X012335Y008648D01*
X012347Y008617D01*
X012426Y008538D01*
X012465Y008523D01*
X012465Y008297D01*
X012519Y008165D01*
X012621Y008064D01*
X013723Y006962D01*
X013715Y006962D01*
X013715Y006302D01*
X013715Y006302D01*
X013715Y006962D01*
X013446Y006962D01*
X013390Y006947D01*
X013340Y006918D01*
X013299Y006877D01*
X013295Y006870D01*
X013282Y006900D01*
X013204Y006979D01*
X013101Y007022D01*
X012509Y007022D01*
X012406Y006979D01*
X012350Y006923D01*
X012294Y006979D01*
X012191Y007022D01*
X011599Y007022D01*
X011497Y006979D01*
X011418Y006900D01*
X011375Y006797D01*
X011375Y006662D01*
X011354Y006662D01*
X011354Y008339D01*
X011391Y008355D01*
X011520Y008483D01*
X011563Y008587D01*
X011590Y008571D01*
X011646Y008556D01*
X011915Y008556D01*
X011915Y009216D01*
X011915Y009216D01*
X011455Y009216D01*
X011455Y009521D01*
X011352Y009418D01*
X011184Y009348D01*
X011001Y009348D01*
X010833Y009418D01*
X010704Y009546D01*
X010634Y009715D01*
X010634Y009814D01*
X010627Y009821D01*
X010249Y009821D01*
X010146Y009864D01*
X010075Y009935D01*
X010075Y009466D01*
X010106Y009497D01*
X010307Y009580D01*
X010524Y009580D01*
X010724Y009497D01*
X010878Y009343D01*
X010952Y009164D01*
X011041Y009201D01*
X011223Y009201D01*
X011391Y009131D01*
X011455Y009068D01*
X011455Y009216D01*
X011915Y009216D01*
X011915Y009005D02*
X011915Y009005D01*
X011915Y008766D02*
X011915Y008766D01*
X011538Y008528D02*
X012453Y008528D01*
X012468Y008289D02*
X011354Y008289D01*
X011354Y008051D02*
X012634Y008051D01*
X012873Y007812D02*
X011354Y007812D01*
X011354Y007574D02*
X013111Y007574D01*
X013350Y007335D02*
X011354Y007335D01*
X011354Y007097D02*
X013588Y007097D01*
X013715Y006858D02*
X013715Y006858D01*
X013715Y006620D02*
X013715Y006620D01*
X013715Y006381D02*
X013715Y006381D01*
X013715Y006302D02*
X013715Y005642D01*
X013984Y005642D01*
X014040Y005657D01*
X014090Y005686D01*
X014099Y005694D01*
X014099Y003376D01*
X014153Y003244D01*
X014178Y003220D01*
X014178Y003179D01*
X014228Y003058D01*
X013222Y003058D01*
X013119Y003016D01*
X013047Y002944D01*
X013047Y003148D01*
X013569Y003148D01*
X013672Y003191D01*
X013751Y003270D01*
X013794Y003373D01*
X013794Y004350D01*
X013751Y004453D01*
X013672Y004532D01*
X013569Y004575D01*
X013165Y004575D01*
X013165Y005608D01*
X013204Y005624D01*
X013282Y005703D01*
X013295Y005733D01*
X013299Y005727D01*
X013340Y005686D01*
X013390Y005657D01*
X013446Y005642D01*
X013715Y005642D01*
X013715Y006302D01*
X013715Y006302D01*
X013715Y006143D02*
X013715Y006143D01*
X013715Y005904D02*
X013715Y005904D01*
X013715Y005666D02*
X013715Y005666D01*
X013375Y005666D02*
X013245Y005666D01*
X013165Y005427D02*
X014099Y005427D01*
X014099Y005666D02*
X014055Y005666D01*
X014099Y005189D02*
X013165Y005189D01*
X013165Y004950D02*
X014099Y004950D01*
X014099Y004712D02*
X013165Y004712D01*
X013731Y004473D02*
X014099Y004473D01*
X014099Y004235D02*
X013794Y004235D01*
X013794Y003996D02*
X014099Y003996D01*
X014099Y003758D02*
X013794Y003758D01*
X013794Y003519D02*
X014099Y003519D01*
X014138Y003281D02*
X013755Y003281D01*
X013182Y003042D02*
X013047Y003042D01*
X012997Y002784D02*
X012997Y002200D01*
X012911Y002114D01*
X012871Y002114D01*
X012770Y002073D01*
X012770Y002549D01*
X012992Y002771D01*
X012997Y002784D01*
X012997Y002565D02*
X012786Y002565D01*
X012770Y002327D02*
X012997Y002327D01*
X012807Y002088D02*
X012770Y002088D01*
X014502Y002544D02*
X014502Y002830D01*
X014545Y002812D01*
X014727Y002812D01*
X014802Y002844D01*
X014502Y002544D01*
X014502Y002565D02*
X014523Y002565D01*
X014502Y002804D02*
X014762Y002804D01*
X015303Y002327D02*
X018429Y002327D01*
X018429Y002565D02*
X015524Y002565D01*
X015567Y002804D02*
X018429Y002804D01*
X018429Y003042D02*
X015567Y003042D01*
X015617Y003281D02*
X018429Y003281D01*
X018429Y003519D02*
X015665Y003519D01*
X015584Y003758D02*
X018429Y003758D01*
X018429Y003996D02*
X014819Y003996D01*
X014819Y003758D02*
X014829Y003758D01*
X014819Y004235D02*
X018429Y004235D01*
X018429Y004473D02*
X014819Y004473D01*
X014819Y004712D02*
X018429Y004712D01*
X018429Y004950D02*
X014819Y004950D01*
X014819Y005189D02*
X018429Y005189D01*
X018429Y005427D02*
X014819Y005427D01*
X014819Y005666D02*
X018429Y005666D01*
X018429Y005904D02*
X014819Y005904D01*
X015547Y006143D02*
X016605Y006143D01*
X016251Y006381D02*
X015662Y006381D01*
X015650Y006620D02*
X016157Y006620D01*
X016169Y006858D02*
X015513Y006858D01*
X016168Y007574D02*
X014129Y007574D01*
X013891Y007812D02*
X016157Y007812D01*
X016252Y008051D02*
X013652Y008051D01*
X013414Y008289D02*
X016343Y008289D01*
X016187Y008528D02*
X015342Y008528D01*
X014937Y008528D02*
X014107Y008528D01*
X014254Y008766D02*
X014660Y008766D01*
X014747Y009482D02*
X014815Y009482D01*
X014537Y009720D02*
X016157Y009720D01*
X016206Y009482D02*
X015464Y009482D01*
X015644Y009243D02*
X016389Y009243D01*
X016229Y009005D02*
X015685Y009005D01*
X015619Y008766D02*
X016157Y008766D01*
X016210Y009959D02*
X013185Y009959D01*
X013185Y010197D02*
X016399Y010197D01*
X016225Y010436D02*
X013185Y010436D01*
X013185Y010674D02*
X016157Y010674D01*
X016191Y010913D02*
X015362Y010913D01*
X015564Y011151D02*
X016353Y011151D01*
X016244Y011390D02*
X015701Y011390D01*
X015673Y011628D02*
X016157Y011628D01*
X016172Y011867D02*
X015479Y011867D01*
X015494Y012105D02*
X016307Y012105D01*
X016289Y012344D02*
X015591Y012344D01*
X015464Y012582D02*
X016165Y012582D01*
X016157Y012821D02*
X014483Y012821D01*
X014483Y013059D02*
X016261Y013059D01*
X014829Y013298D02*
X014483Y013298D01*
X014023Y014013D02*
X012916Y014013D01*
X012992Y013775D02*
X012736Y013775D01*
X012750Y013536D02*
X012978Y013536D01*
X012978Y013298D02*
X012750Y013298D01*
X012750Y013059D02*
X012978Y013059D01*
X012978Y012821D02*
X012750Y012821D01*
X012708Y012582D02*
X013020Y012582D01*
X013813Y012105D02*
X014366Y012105D01*
X014395Y011867D02*
X013813Y011867D01*
X013813Y011628D02*
X014186Y011628D01*
X014159Y011390D02*
X013813Y011390D01*
X013807Y011151D02*
X014301Y011151D01*
X014500Y010913D02*
X013185Y010913D01*
X014021Y012344D02*
X014271Y012344D01*
X011455Y009482D02*
X011416Y009482D01*
X011455Y009243D02*
X010919Y009243D01*
X010769Y009482D02*
X010740Y009482D01*
X010634Y009720D02*
X010075Y009720D01*
X010075Y009482D02*
X010091Y009482D01*
X010415Y009034D02*
X010423Y009026D01*
X010423Y007444D01*
X010255Y007017D02*
X010164Y007055D01*
X010075Y007144D01*
X010075Y006938D01*
X010082Y006946D01*
X010255Y007017D01*
X010123Y007097D02*
X010075Y007097D01*
X010559Y007004D02*
X010634Y006973D01*
X010634Y007035D01*
X010559Y007004D01*
X011354Y006858D02*
X011400Y006858D01*
X011375Y005904D02*
X011354Y005904D01*
X011354Y005666D02*
X011455Y005666D01*
X011354Y005427D02*
X012445Y005427D01*
X012365Y005666D02*
X012335Y005666D01*
X012445Y005189D02*
X011354Y005189D01*
X011333Y004950D02*
X012445Y004950D01*
X012445Y004712D02*
X011333Y004712D01*
X011273Y004473D02*
X011879Y004473D01*
X011816Y004235D02*
X011273Y004235D01*
X011273Y004247D02*
X011273Y003970D01*
X011258Y003914D01*
X011229Y003864D01*
X011188Y003823D01*
X011138Y003794D01*
X011082Y003779D01*
X010766Y003779D01*
X010766Y004247D01*
X011273Y004247D01*
X011273Y003996D02*
X011816Y003996D01*
X010766Y003996D02*
X010750Y003996D01*
X010750Y004235D02*
X010766Y004235D01*
X009275Y003996D02*
X007829Y003996D01*
X007829Y003758D02*
X009275Y003758D01*
X009275Y003519D02*
X007829Y003519D01*
X007777Y003281D02*
X009275Y003281D01*
X009275Y003042D02*
X008410Y003042D01*
X008498Y002804D02*
X009275Y002804D01*
X009275Y002565D02*
X008736Y002565D01*
X008975Y002327D02*
X009275Y002327D01*
X008488Y001795D02*
X008488Y001650D01*
X008571Y001450D01*
X008649Y001371D01*
X007043Y001371D01*
X006980Y001434D01*
X006780Y001517D01*
X006563Y001517D01*
X006362Y001434D01*
X006208Y001280D01*
X006125Y001080D01*
X006125Y000863D01*
X006208Y000662D01*
X006291Y000580D01*
X002634Y000580D01*
X002634Y001135D01*
X003399Y001135D01*
X003613Y001224D01*
X003776Y001387D01*
X003824Y001503D01*
X003846Y001450D01*
X004000Y001296D01*
X004200Y001213D01*
X004417Y001213D01*
X004618Y001296D01*
X004721Y001399D01*
X005479Y001399D01*
X005611Y001454D01*
X005770Y001613D01*
X006542Y001613D01*
X006645Y001655D01*
X006723Y001734D01*
X006766Y001837D01*
X006766Y002608D01*
X006993Y002836D01*
X006993Y001837D01*
X007036Y001734D01*
X007115Y001655D01*
X007218Y001613D01*
X008274Y001613D01*
X008377Y001655D01*
X008456Y001734D01*
X008483Y001800D01*
X008488Y001795D01*
X008504Y001611D02*
X005769Y001611D01*
X006300Y001373D02*
X004694Y001373D01*
X003923Y001373D02*
X003761Y001373D01*
X003806Y001971D02*
X003776Y002044D01*
X003613Y002207D01*
X003593Y002215D01*
X003613Y002224D01*
X003776Y002387D01*
X003864Y002600D01*
X003864Y002831D01*
X003776Y003044D01*
X003613Y003207D01*
X003513Y003248D01*
X003557Y003271D01*
X003623Y003319D01*
X003681Y003377D01*
X003729Y003443D01*
X003766Y003516D01*
X003791Y003594D01*
X003804Y003675D01*
X003804Y003715D01*
X002984Y003715D01*
X002984Y003715D01*
X003804Y003715D01*
X003804Y003756D01*
X003791Y003837D01*
X003766Y003915D01*
X003729Y003988D01*
X003681Y004054D01*
X003623Y004112D01*
X003557Y004160D01*
X003484Y004197D01*
X003406Y004223D01*
X003325Y004235D01*
X002984Y004235D01*
X002643Y004235D01*
X002634Y004234D01*
X002634Y008135D01*
X003399Y008135D01*
X003613Y008224D01*
X003776Y008387D01*
X003864Y008600D01*
X003864Y008739D01*
X003870Y008725D01*
X004023Y008572D01*
X004224Y008489D01*
X004441Y008489D01*
X004610Y008559D01*
X004610Y007786D01*
X004665Y007653D01*
X005437Y006881D01*
X005411Y006817D01*
X005411Y006682D01*
X005096Y006682D01*
X004963Y006627D01*
X004862Y006526D01*
X004855Y006518D01*
X004855Y006592D01*
X004772Y006792D01*
X004618Y006946D01*
X004417Y007029D01*
X004200Y007029D01*
X004000Y006946D01*
X003846Y006792D01*
X003763Y006592D01*
X003763Y006375D01*
X003846Y006174D01*
X004000Y006020D01*
X004200Y005937D01*
X004319Y005937D01*
X004295Y005882D01*
X004295Y005259D01*
X004201Y005221D01*
X004123Y005142D01*
X004080Y005039D01*
X004080Y004416D01*
X004123Y004313D01*
X004147Y004289D01*
X004140Y004264D01*
X004140Y003987D01*
X004647Y003987D01*
X004647Y003971D01*
X004140Y003971D01*
X004140Y003694D01*
X004155Y003638D01*
X004184Y003588D01*
X004225Y003547D01*
X004275Y003518D01*
X004331Y003503D01*
X004647Y003503D01*
X004647Y003971D01*
X004663Y003971D01*
X004663Y003503D01*
X004980Y003503D01*
X005036Y003518D01*
X005086Y003547D01*
X005127Y003588D01*
X005156Y003638D01*
X005171Y003694D01*
X005171Y003971D01*
X004663Y003971D01*
X004663Y003987D01*
X005171Y003987D01*
X005171Y004264D01*
X005164Y004289D01*
X005188Y004313D01*
X005231Y004416D01*
X005231Y005039D01*
X005188Y005142D01*
X005109Y005221D01*
X005015Y005259D01*
X005015Y005661D01*
X005316Y005962D01*
X005411Y005962D01*
X005411Y005826D01*
X005453Y005723D01*
X005532Y005644D01*
X005635Y005601D01*
X006226Y005601D01*
X006329Y005644D01*
X006385Y005700D01*
X006442Y005644D01*
X006480Y005628D01*
X006480Y004594D01*
X006076Y004594D01*
X005973Y004552D01*
X005894Y004473D01*
X005852Y004370D01*
X005852Y003392D01*
X005894Y003290D01*
X005973Y003211D01*
X006076Y003168D01*
X006308Y003168D01*
X006257Y003117D01*
X005486Y003117D01*
X005383Y003075D01*
X005304Y002996D01*
X005261Y002893D01*
X005261Y002122D01*
X005258Y002119D01*
X004721Y002119D01*
X004618Y002221D01*
X004417Y002304D01*
X004200Y002304D01*
X004000Y002221D01*
X003846Y002068D01*
X003806Y001971D01*
X003866Y002088D02*
X003732Y002088D01*
X003715Y002327D02*
X005261Y002327D01*
X005261Y002565D02*
X003850Y002565D01*
X003864Y002804D02*
X005261Y002804D01*
X005350Y003042D02*
X003777Y003042D01*
X003570Y003281D02*
X005903Y003281D01*
X005852Y003519D02*
X005037Y003519D01*
X005171Y003758D02*
X005852Y003758D01*
X005852Y003996D02*
X005171Y003996D01*
X005171Y004235D02*
X005852Y004235D01*
X005895Y004473D02*
X005231Y004473D01*
X005231Y004712D02*
X006480Y004712D01*
X006480Y004950D02*
X005231Y004950D01*
X005141Y005189D02*
X006480Y005189D01*
X006480Y005427D02*
X005015Y005427D01*
X005020Y005666D02*
X005511Y005666D01*
X005411Y005904D02*
X005259Y005904D01*
X004956Y006620D02*
X004843Y006620D01*
X004706Y006858D02*
X005428Y006858D01*
X005222Y007097D02*
X002634Y007097D01*
X002634Y007335D02*
X004983Y007335D01*
X004745Y007574D02*
X002634Y007574D01*
X002634Y007812D02*
X004610Y007812D01*
X004610Y008051D02*
X002634Y008051D01*
X003678Y008289D02*
X004610Y008289D01*
X004610Y008528D02*
X004535Y008528D01*
X004130Y008528D02*
X003834Y008528D01*
X003787Y009017D02*
X003776Y009044D01*
X003613Y009207D01*
X003593Y009215D01*
X003613Y009224D01*
X003744Y009355D01*
X003882Y009355D01*
X003870Y009343D01*
X003787Y009143D01*
X003787Y009017D01*
X003828Y009243D02*
X003632Y009243D01*
X005655Y009243D02*
X005655Y009243D01*
X005655Y009176D02*
X005655Y009176D01*
X005655Y009482D02*
X005655Y009482D01*
X005655Y009720D02*
X005655Y009720D01*
X006992Y008528D02*
X007048Y008528D01*
X006048Y008034D02*
X006048Y007990D01*
X005928Y008040D01*
X005862Y008040D01*
X005862Y008129D01*
X005892Y008099D01*
X006048Y008034D01*
X006008Y008051D02*
X005862Y008051D01*
X003912Y006858D02*
X002634Y006858D01*
X002634Y006620D02*
X003775Y006620D01*
X003763Y006381D02*
X002634Y006381D01*
X002634Y006143D02*
X003878Y006143D01*
X004305Y005904D02*
X002634Y005904D01*
X002634Y005666D02*
X004295Y005666D01*
X004295Y005427D02*
X002634Y005427D01*
X002634Y005189D02*
X004169Y005189D01*
X004080Y004950D02*
X002634Y004950D01*
X002634Y004712D02*
X004080Y004712D01*
X004080Y004473D02*
X002634Y004473D01*
X002634Y004235D02*
X002637Y004235D01*
X002984Y004235D02*
X002984Y004235D01*
X002984Y003715D01*
X002984Y003715D01*
X002984Y004235D01*
X003331Y004235D02*
X004140Y004235D01*
X004140Y003996D02*
X003723Y003996D01*
X003804Y003758D02*
X004140Y003758D01*
X004274Y003519D02*
X003767Y003519D01*
X002984Y003758D02*
X002984Y003758D01*
X002984Y003996D02*
X002984Y003996D01*
X004647Y003758D02*
X004663Y003758D01*
X004647Y003519D02*
X004663Y003519D01*
X006766Y002565D02*
X006993Y002565D01*
X006993Y002327D02*
X006766Y002327D01*
X006766Y002088D02*
X006993Y002088D01*
X006993Y001850D02*
X006766Y001850D01*
X007042Y001373D02*
X008648Y001373D01*
X009616Y000971D02*
X006671Y000971D01*
X006214Y000657D02*
X002634Y000657D01*
X002634Y000896D02*
X006125Y000896D01*
X006148Y001134D02*
X002634Y001134D01*
X006961Y002804D02*
X006993Y002804D01*
X007260Y005666D02*
X007466Y005666D01*
X006420Y005666D02*
X006351Y005666D01*
X008854Y007000D02*
X008854Y008528D01*
X008948Y008489D01*
X009166Y008489D01*
X009275Y008534D01*
X009275Y006974D01*
X009142Y007029D01*
X008925Y007029D01*
X008854Y007000D01*
X008854Y007097D02*
X009275Y007097D01*
X009275Y007335D02*
X008854Y007335D01*
X008854Y007574D02*
X009275Y007574D01*
X009275Y007812D02*
X008854Y007812D01*
X008854Y008051D02*
X009275Y008051D01*
X009275Y008289D02*
X008854Y008289D01*
X008854Y008528D02*
X008854Y008528D01*
X009259Y008528D02*
X009275Y008528D01*
X013197Y008528D02*
X013362Y008528D01*
X014368Y007335D02*
X016297Y007335D01*
X016298Y007097D02*
X014606Y007097D01*
X017470Y006143D02*
X018429Y006143D01*
X018429Y006381D02*
X017823Y006381D01*
X017917Y006620D02*
X018429Y006620D01*
X018429Y006858D02*
X017906Y006858D01*
X017776Y007097D02*
X018429Y007097D01*
X018429Y007335D02*
X017777Y007335D01*
X017906Y007574D02*
X018429Y007574D01*
X018429Y007812D02*
X017917Y007812D01*
X017822Y008051D02*
X018429Y008051D01*
X018429Y008289D02*
X017731Y008289D01*
X017887Y008528D02*
X018429Y008528D01*
X018429Y008766D02*
X017917Y008766D01*
X017845Y009005D02*
X018429Y009005D01*
X018429Y009243D02*
X017685Y009243D01*
X017868Y009482D02*
X018429Y009482D01*
X018429Y009720D02*
X017917Y009720D01*
X017864Y009959D02*
X018429Y009959D01*
X018429Y010197D02*
X017676Y010197D01*
X017849Y010436D02*
X018429Y010436D01*
X018429Y010674D02*
X017917Y010674D01*
X017883Y010913D02*
X018429Y010913D01*
X018429Y011151D02*
X017722Y011151D01*
X017830Y011390D02*
X018429Y011390D01*
X018429Y011628D02*
X017917Y011628D01*
X017902Y011867D02*
X018429Y011867D01*
X018554Y012105D02*
X017768Y012105D01*
X017786Y012344D02*
X018812Y012344D01*
X018602Y012153D02*
X018602Y012153D01*
X018829Y011814D02*
X019006Y011991D01*
X019714Y011991D01*
X020695Y012971D01*
X020695Y013487D01*
X020168Y014013D02*
X020156Y014013D01*
X019337Y012821D02*
X019137Y012821D01*
X020156Y011867D02*
X020986Y011867D01*
X020986Y011836D02*
X019504Y010353D01*
X019431Y010177D01*
X019431Y002077D01*
X019294Y002134D01*
X019229Y002134D01*
X019229Y011591D01*
X019794Y011591D01*
X019941Y011652D01*
X020921Y012632D01*
X020974Y012685D01*
X020986Y012690D01*
X020986Y011836D01*
X020779Y011628D02*
X019883Y011628D01*
X020302Y011151D02*
X019229Y011151D01*
X019229Y010913D02*
X020063Y010913D01*
X019825Y010674D02*
X019229Y010674D01*
X019229Y010436D02*
X019586Y010436D01*
X019440Y010197D02*
X019229Y010197D01*
X019229Y009959D02*
X019431Y009959D01*
X019431Y009720D02*
X019229Y009720D01*
X019229Y009482D02*
X019431Y009482D01*
X019431Y009243D02*
X019229Y009243D01*
X019229Y009005D02*
X019431Y009005D01*
X019431Y008766D02*
X019229Y008766D01*
X019229Y008528D02*
X019431Y008528D01*
X019431Y008289D02*
X019229Y008289D01*
X019229Y008051D02*
X019431Y008051D01*
X019431Y007812D02*
X019229Y007812D01*
X019229Y007574D02*
X019431Y007574D01*
X019431Y007335D02*
X019229Y007335D01*
X019229Y007097D02*
X019431Y007097D01*
X019431Y006858D02*
X019229Y006858D01*
X019229Y006620D02*
X019431Y006620D01*
X019431Y006381D02*
X019229Y006381D01*
X019229Y006143D02*
X019431Y006143D01*
X019431Y005904D02*
X019229Y005904D01*
X019229Y005666D02*
X019431Y005666D01*
X019431Y005427D02*
X019229Y005427D01*
X019229Y005189D02*
X019431Y005189D01*
X019431Y004950D02*
X019229Y004950D01*
X019229Y004712D02*
X019431Y004712D01*
X019431Y004473D02*
X019229Y004473D01*
X019229Y004235D02*
X019431Y004235D01*
X019431Y003996D02*
X019229Y003996D01*
X019229Y003758D02*
X019431Y003758D01*
X019431Y003519D02*
X019229Y003519D01*
X019229Y003281D02*
X019431Y003281D01*
X019431Y003042D02*
X019229Y003042D01*
X019229Y002804D02*
X019431Y002804D01*
X019431Y002565D02*
X019229Y002565D01*
X019229Y002327D02*
X019431Y002327D01*
X019431Y002088D02*
X019405Y002088D01*
X018829Y001715D02*
X018710Y001597D01*
X015277Y001597D01*
X015116Y001759D01*
X015559Y002088D02*
X018429Y002088D01*
X018829Y001715D02*
X018829Y011814D01*
X019229Y011390D02*
X020540Y011390D01*
X021183Y010674D02*
X021519Y010674D01*
X021519Y010913D02*
X021421Y010913D01*
X021519Y011011D02*
X021519Y010009D01*
X021389Y010140D01*
X020649Y010140D01*
X021519Y011011D01*
X021519Y010436D02*
X020944Y010436D01*
X020706Y010197D02*
X021519Y010197D01*
X021519Y008461D02*
X021519Y008041D01*
X021389Y008172D01*
X020639Y008172D01*
X020391Y007924D01*
X020391Y008578D01*
X020639Y008330D01*
X021389Y008330D01*
X021519Y008461D01*
X021519Y008289D02*
X020391Y008289D01*
X020391Y008051D02*
X020518Y008051D01*
X020441Y008528D02*
X020391Y008528D01*
X021510Y008051D02*
X021519Y008051D01*
X021519Y006492D02*
X021519Y006072D01*
X021389Y006203D01*
X020639Y006203D01*
X020391Y005956D01*
X020391Y006609D01*
X020639Y006362D01*
X021389Y006362D01*
X021519Y006492D01*
X021519Y006381D02*
X021408Y006381D01*
X021449Y006143D02*
X021519Y006143D01*
X020619Y006381D02*
X020391Y006381D01*
X020391Y006143D02*
X020578Y006143D01*
X020391Y004641D02*
X020639Y004393D01*
X021389Y004393D01*
X021519Y004524D01*
X021519Y004104D01*
X021389Y004235D01*
X020639Y004235D01*
X020391Y003987D01*
X020391Y004641D01*
X020391Y004473D02*
X020559Y004473D01*
X020639Y004235D02*
X020391Y004235D01*
X020391Y003996D02*
X020400Y003996D01*
X021389Y004235D02*
X021519Y004235D01*
X021519Y004473D02*
X021468Y004473D01*
X020391Y002672D02*
X020639Y002425D01*
X021389Y002425D01*
X021519Y002555D01*
X021519Y002135D01*
X021389Y002266D01*
X020639Y002266D01*
X020391Y002019D01*
X020391Y002672D01*
X020391Y002565D02*
X020498Y002565D01*
X020391Y002327D02*
X021519Y002327D01*
X020461Y002088D02*
X020391Y002088D01*
X019775Y001134D02*
X014702Y001134D01*
X019819Y001089D02*
X019819Y001089D01*
X021512Y000580D02*
X021519Y000587D01*
X021519Y000580D01*
X021512Y000580D01*
X020986Y012105D02*
X020394Y012105D01*
X020633Y012344D02*
X020986Y012344D01*
X020986Y012582D02*
X020871Y012582D01*
X021519Y015983D02*
X021442Y016061D01*
X021519Y016138D01*
X021519Y015983D01*
X010063Y014490D02*
X010048Y014490D01*
X007108Y017591D02*
X007108Y017591D01*
X006882Y017591D02*
X004618Y017591D01*
X004564Y017829D02*
X006808Y017829D01*
X006808Y018068D02*
X004452Y018068D01*
X004592Y018306D02*
X006819Y018306D01*
X007108Y018306D02*
X007108Y018306D01*
X007108Y018068D02*
X007108Y018068D01*
X007108Y017995D02*
X007248Y017995D01*
X007108Y017995D01*
X007108Y017995D01*
X007248Y017995D02*
X007248Y017995D01*
X007108Y017829D02*
X007108Y017829D01*
X004591Y016600D02*
X004591Y015573D01*
X004572Y015527D01*
X004507Y015462D01*
X004564Y015600D01*
X004564Y015831D01*
X004476Y016044D01*
X004313Y016207D01*
X004301Y016212D01*
X004564Y016475D01*
X004564Y016626D01*
X004591Y016600D01*
X004591Y016398D02*
X004487Y016398D01*
X004591Y016160D02*
X004360Y016160D01*
X004527Y015921D02*
X004591Y015921D01*
X004591Y015683D02*
X004564Y015683D01*
X004238Y015193D02*
X004099Y015135D01*
X003869Y015135D01*
X003656Y015224D01*
X003492Y015387D01*
X003488Y015399D01*
X003265Y015176D01*
X003383Y015225D01*
X003565Y015225D01*
X003734Y015155D01*
X003863Y015026D01*
X003932Y014858D01*
X003932Y014818D01*
X003973Y014777D01*
X003973Y014850D01*
X004027Y014982D01*
X004238Y015193D01*
X004021Y014967D02*
X003887Y014967D01*
X003700Y015206D02*
X003612Y015206D01*
X003337Y015206D02*
X003294Y015206D01*
X003195Y015135D02*
X003086Y015026D01*
X003016Y014858D01*
X003016Y014675D01*
X003086Y014507D01*
X003215Y014378D01*
X003383Y014309D01*
X003423Y014309D01*
X003462Y014269D01*
X003399Y014295D01*
X002634Y014295D01*
X002634Y015245D01*
X002744Y015135D01*
X003195Y015135D01*
X003061Y014967D02*
X002634Y014967D01*
X002634Y014729D02*
X003016Y014729D01*
X003103Y014490D02*
X002634Y014490D01*
X002634Y015206D02*
X002674Y015206D01*
X003488Y016032D02*
X003304Y016215D01*
X003484Y016395D01*
X003667Y016212D01*
X003656Y016207D01*
X003492Y016044D01*
X003488Y016032D01*
X003608Y016160D02*
X003360Y016160D01*
X002664Y016215D02*
X002634Y016186D01*
X002634Y016245D01*
X002664Y016215D01*
X003484Y017036D02*
X003262Y017258D01*
X003442Y017438D01*
X003664Y017215D01*
X003484Y017036D01*
X003406Y017114D02*
X003562Y017114D01*
X003527Y017352D02*
X003356Y017352D01*
X003442Y017993D02*
X003200Y018235D01*
X003033Y018235D01*
X003568Y018944D01*
X003568Y018833D01*
X003679Y018564D01*
X003886Y018357D01*
X004035Y018295D01*
X003744Y018295D01*
X003442Y017993D01*
X003516Y018068D02*
X003367Y018068D01*
X003086Y018306D02*
X004010Y018306D01*
X003699Y018545D02*
X003266Y018545D01*
X003446Y018783D02*
X003589Y018783D01*
X002634Y017330D02*
X002706Y017258D01*
X002634Y017186D01*
X002634Y017330D01*
D218*
X003474Y017225D03*
X005226Y017247D03*
X005423Y016086D03*
X003474Y014767D03*
X005108Y012365D03*
X004970Y011519D03*
X006565Y010141D03*
X007844Y010593D03*
X008179Y009865D03*
X009006Y009806D03*
X011092Y009806D03*
X011860Y010239D03*
X011447Y011204D03*
X010856Y012483D03*
X009675Y014215D03*
X014242Y014491D03*
X014596Y015987D03*
X016151Y015810D03*
X021092Y015731D03*
X014321Y009314D03*
X012234Y007168D03*
X010423Y007444D03*
X011132Y008743D03*
X006919Y007326D03*
X006388Y007601D03*
X005836Y007582D03*
X005522Y008487D03*
X006151Y008487D03*
X007273Y004845D03*
X008494Y004747D03*
X010561Y003172D03*
X012962Y001656D03*
X014439Y001519D03*
X014636Y003271D03*
X015207Y003487D03*
X019203Y001676D03*
X004616Y002818D03*
X007726Y018881D03*
X011348Y018881D03*
D219*
X021092Y015731D02*
X021466Y015357D01*
X021466Y011637D01*
X019911Y010082D01*
X019911Y001676D01*
X020226Y001361D01*
X021014Y001361D01*
D220*
X006388Y007601D02*
X006388Y008251D01*
X006151Y008487D01*
X005522Y008487D02*
X005522Y007897D01*
X005836Y007582D01*
M02*
