G75*
%MOIN*%
%OFA0B0*%
%FSLAX24Y24*%
%IPPOS*%
%LPD*%
%AMOC8*
5,1,8,0,0,1.08239X$1,22.5*
%
%ADD10C,0.0160*%
%ADD11C,0.0000*%
%ADD12OC8,0.1250*%
%ADD13R,0.0472X0.0472*%
%ADD14R,0.0512X0.0591*%
%ADD15C,0.0531*%
%ADD16R,0.0004X0.0421*%
%ADD17R,0.0004X0.0465*%
%ADD18R,0.0004X0.0492*%
%ADD19R,0.0004X0.0516*%
%ADD20R,0.0004X0.0531*%
%ADD21R,0.0004X0.0547*%
%ADD22R,0.0004X0.0563*%
%ADD23R,0.0004X0.0575*%
%ADD24R,0.0004X0.0587*%
%ADD25R,0.0004X0.0598*%
%ADD26R,0.0004X0.0610*%
%ADD27R,0.0004X0.0618*%
%ADD28R,0.0004X0.0626*%
%ADD29R,0.0004X0.0638*%
%ADD30R,0.0004X0.0646*%
%ADD31R,0.0004X0.0650*%
%ADD32R,0.0004X0.0657*%
%ADD33R,0.0004X0.0665*%
%ADD34R,0.0004X0.0673*%
%ADD35R,0.0004X0.0677*%
%ADD36R,0.0004X0.0685*%
%ADD37R,0.0004X0.0689*%
%ADD38R,0.0004X0.0693*%
%ADD39R,0.0004X0.0701*%
%ADD40R,0.0004X0.0705*%
%ADD41R,0.0004X0.0709*%
%ADD42R,0.0004X0.0717*%
%ADD43R,0.0004X0.0720*%
%ADD44R,0.0004X0.0724*%
%ADD45R,0.0004X0.0728*%
%ADD46R,0.0004X0.0732*%
%ADD47R,0.0004X0.0736*%
%ADD48R,0.0004X0.0740*%
%ADD49R,0.0004X0.0744*%
%ADD50R,0.0004X0.0748*%
%ADD51R,0.0004X0.0752*%
%ADD52R,0.0004X0.0756*%
%ADD53R,0.0004X0.0760*%
%ADD54R,0.0004X0.0764*%
%ADD55R,0.0004X0.0768*%
%ADD56R,0.0004X0.0772*%
%ADD57R,0.0004X0.0776*%
%ADD58R,0.0004X0.0780*%
%ADD59R,0.0004X0.0783*%
%ADD60R,0.0004X0.0787*%
%ADD61R,0.0004X0.0791*%
%ADD62R,0.0004X0.0795*%
%ADD63R,0.0004X0.0799*%
%ADD64R,0.0004X0.0803*%
%ADD65R,0.0004X0.0807*%
%ADD66R,0.0004X0.0811*%
%ADD67R,0.0004X0.0815*%
%ADD68R,0.0004X0.0819*%
%ADD69R,0.0004X0.0823*%
%ADD70R,0.0004X0.0827*%
%ADD71R,0.0004X0.0831*%
%ADD72R,0.0004X0.0835*%
%ADD73R,0.0004X0.0839*%
%ADD74R,0.0004X0.0909*%
%ADD75R,0.0004X0.0937*%
%ADD76R,0.0004X0.0953*%
%ADD77R,0.0004X0.0961*%
%ADD78R,0.0004X0.0969*%
%ADD79R,0.0004X0.0976*%
%ADD80R,0.0004X0.0980*%
%ADD81R,0.0004X0.0984*%
%ADD82R,0.0004X0.0965*%
%ADD83R,0.0004X0.0957*%
%ADD84R,0.0004X0.0945*%
%ADD85R,0.0004X0.0921*%
%ADD86R,0.0004X0.0232*%
%ADD87R,0.0004X0.0555*%
%ADD88R,0.0004X0.0224*%
%ADD89R,0.0004X0.0543*%
%ADD90R,0.0004X0.0539*%
%ADD91R,0.0004X0.0220*%
%ADD92R,0.0004X0.0535*%
%ADD93R,0.0004X0.0528*%
%ADD94R,0.0004X0.0520*%
%ADD95R,0.0004X0.0512*%
%ADD96R,0.0004X0.0500*%
%ADD97R,0.0004X0.0488*%
%ADD98R,0.0004X0.0484*%
%ADD99R,0.0004X0.0476*%
%ADD100R,0.0004X0.0449*%
%ADD101R,0.0004X0.0370*%
%ADD102R,0.0004X0.0043*%
%ADD103R,0.0004X0.0228*%
%ADD104R,0.0004X0.0358*%
%ADD105R,0.0004X0.0350*%
%ADD106R,0.0004X0.0343*%
%ADD107R,0.0004X0.0331*%
%ADD108R,0.0004X0.0319*%
%ADD109R,0.0004X0.0311*%
%ADD110R,0.0004X0.0307*%
%ADD111R,0.0004X0.0303*%
%ADD112R,0.0004X0.0063*%
%ADD113R,0.0004X0.0130*%
%ADD114R,0.0004X0.0445*%
%ADD115R,0.0004X0.0437*%
%ADD116R,0.0004X0.0433*%
%ADD117R,0.0004X0.0362*%
%ADD118R,0.0004X0.0047*%
%ADD119R,0.0004X0.0354*%
%ADD120R,0.0004X0.0031*%
%ADD121R,0.0004X0.0346*%
%ADD122R,0.0004X0.0339*%
%ADD123R,0.0004X0.0055*%
%ADD124R,0.0004X0.0177*%
%ADD125R,0.0004X0.0035*%
%ADD126R,0.0004X0.0161*%
%ADD127R,0.0004X0.0051*%
%ADD128R,0.0004X0.0142*%
%ADD129R,0.0004X0.0118*%
%ADD130R,0.0004X0.0091*%
%ADD131R,0.0004X0.0024*%
%ADD132R,0.0004X0.0020*%
%ADD133R,0.0004X0.0008*%
%ADD134R,0.0004X0.0004*%
%ADD135R,0.0004X0.0012*%
%ADD136R,0.0004X0.0028*%
%ADD137R,0.0004X0.0059*%
%ADD138R,0.0004X0.0067*%
%ADD139R,0.0004X0.0075*%
%ADD140R,0.0004X0.0083*%
%ADD141R,0.0004X0.0098*%
%ADD142R,0.0004X0.0106*%
%ADD143R,0.0004X0.0114*%
%ADD144R,0.0004X0.0122*%
%ADD145R,0.0004X0.0138*%
%ADD146R,0.0004X0.0146*%
%ADD147R,0.0004X0.0154*%
%ADD148R,0.0004X0.0165*%
%ADD149R,0.0004X0.0169*%
%ADD150R,0.0004X0.0185*%
%ADD151R,0.0004X0.0189*%
%ADD152R,0.0004X0.0193*%
%ADD153R,0.0004X0.0201*%
%ADD154R,0.0004X0.0209*%
%ADD155R,0.0004X0.0213*%
%ADD156R,0.0004X0.0217*%
%ADD157R,0.0004X0.0236*%
%ADD158R,0.0004X0.0240*%
%ADD159R,0.0004X0.0248*%
%ADD160R,0.0004X0.0256*%
%ADD161R,0.0004X0.0264*%
%ADD162R,0.0004X0.0272*%
%ADD163R,0.0004X0.0280*%
%ADD164R,0.0004X0.0287*%
%ADD165R,0.0004X0.0295*%
%ADD166R,0.0004X0.0299*%
%ADD167R,0.0004X0.0126*%
%ADD168R,0.0004X0.0157*%
%ADD169R,0.0004X0.0134*%
%ADD170R,0.0004X0.0173*%
%ADD171R,0.0004X0.0366*%
%ADD172R,0.0004X0.0374*%
%ADD173R,0.0004X0.0382*%
%ADD174R,0.0004X0.0390*%
%ADD175R,0.0004X0.0394*%
%ADD176R,0.0004X0.0398*%
%ADD177R,0.0004X0.0406*%
%ADD178R,0.0004X0.0409*%
%ADD179R,0.0004X0.0417*%
%ADD180R,0.0004X0.0429*%
%ADD181R,0.0004X0.0441*%
%ADD182R,0.0004X0.0453*%
%ADD183R,0.0004X0.0457*%
%ADD184R,0.0004X0.0469*%
%ADD185R,0.0004X0.0480*%
%ADD186R,0.0004X0.0504*%
%ADD187R,0.0004X0.0508*%
%ADD188R,0.0004X0.0551*%
%ADD189R,0.0004X0.0567*%
%ADD190R,0.0004X0.0579*%
%ADD191R,0.0004X0.0413*%
%ADD192R,0.0004X0.0425*%
%ADD193R,0.0004X0.0181*%
%ADD194R,0.0004X0.0634*%
%ADD195R,0.0004X0.0654*%
%ADD196R,0.0004X0.0661*%
%ADD197R,0.0004X0.0669*%
%ADD198R,0.0004X0.0697*%
%ADD199R,0.0004X0.0244*%
%ADD200R,0.0004X0.0252*%
%ADD201R,0.0004X0.0461*%
%ADD202R,0.0004X0.0094*%
%ADD203R,0.0004X0.0622*%
%ADD204R,0.0004X0.0102*%
%ADD205R,0.0004X0.0630*%
%ADD206R,0.0004X0.0614*%
%ADD207R,0.0004X0.0583*%
%ADD208R,0.0004X0.0327*%
%ADD209C,0.0591*%
%ADD210R,0.0984X0.1378*%
%ADD211C,0.0600*%
%ADD212OC8,0.0600*%
%ADD213C,0.0600*%
%ADD214R,0.0600X0.0300*%
%ADD215R,0.0591X0.0512*%
%ADD216C,0.0240*%
%ADD217C,0.0356*%
%ADD218C,0.0320*%
%ADD219C,0.0400*%
%ADD220C,0.0120*%
D10*
X002027Y000180D02*
X021712Y000180D01*
X021712Y019865D01*
X003681Y019865D01*
X002027Y018211D01*
X002027Y000180D01*
X007067Y004845D02*
X008268Y003645D01*
X014842Y003645D01*
X015000Y003487D01*
X015177Y003940D02*
X015492Y003625D01*
X015492Y003389D01*
X015551Y003330D01*
X016024Y003330D01*
X016772Y003330D02*
X017559Y003330D01*
X018386Y003330D02*
X018386Y001755D01*
X018996Y001676D02*
X018386Y001066D01*
X018386Y000967D01*
X018386Y001066D02*
X018386Y002542D01*
X018386Y003330D01*
X018386Y004117D01*
X017559Y004117D02*
X016772Y004117D01*
X016024Y004117D02*
X015709Y004117D01*
X015512Y004314D01*
X015098Y004314D01*
X014980Y004432D01*
X010630Y004432D01*
X010571Y004491D01*
X009094Y003940D02*
X015177Y003940D01*
X014429Y003271D02*
X015157Y002542D01*
X016024Y002542D01*
X016772Y002542D02*
X017559Y002542D01*
X017559Y001755D02*
X016772Y001755D01*
X016024Y001755D02*
X016004Y001774D01*
X015531Y001774D01*
X014449Y002857D01*
X011283Y002857D01*
X010185Y001759D01*
X009480Y001105D02*
X008827Y001759D01*
X009480Y001105D02*
X011024Y001105D01*
X012244Y002326D01*
X012697Y002326D01*
X012756Y002267D01*
X012756Y001656D01*
X012697Y002326D02*
X014331Y002326D01*
X014898Y001759D01*
X014909Y001759D01*
X014232Y001519D02*
X014783Y000967D01*
X016024Y000967D01*
X016772Y000967D02*
X017559Y000967D01*
X017795Y006696D02*
X016850Y006696D01*
X016831Y006715D01*
X017795Y006696D02*
X018090Y006991D01*
X018090Y007621D01*
X018642Y007621D01*
X018838Y007818D01*
X018838Y008822D01*
X018051Y009609D01*
X018051Y011991D01*
X018327Y012267D01*
X018587Y012267D01*
X018605Y012249D01*
X019646Y012739D02*
X019646Y013330D01*
X019488Y013487D01*
X019646Y012739D02*
X019980Y012404D01*
X019980Y011420D01*
X019309Y010749D01*
X018605Y010749D01*
X016831Y010715D02*
X007760Y010715D01*
X007638Y010593D01*
X007972Y009865D02*
X006634Y009865D01*
X006358Y010141D01*
X004984Y011739D02*
X004764Y011519D01*
X004984Y011739D02*
X016831Y011715D01*
X017756Y013625D02*
X017756Y008704D01*
X018090Y008369D01*
X016831Y008715D02*
X016622Y008507D01*
X013937Y008507D01*
X013701Y008743D01*
X010925Y008743D01*
X010976Y009715D02*
X010886Y009806D01*
X010976Y009715D02*
X014075Y009715D01*
X014114Y009676D01*
X014114Y009314D01*
X014075Y009715D02*
X016831Y009715D01*
X016803Y008743D02*
X016831Y008715D01*
X016508Y008715D01*
X017756Y013625D02*
X017665Y013715D01*
X016831Y013715D01*
X008287Y004747D02*
X009094Y003940D01*
X002716Y014511D02*
X002716Y014747D01*
X003268Y015298D01*
X003268Y017225D01*
X002777Y017715D01*
X003268Y017225D02*
X003285Y017208D01*
X003325Y017247D01*
X005020Y017247D01*
X005216Y016086D02*
X005216Y015200D01*
X005020Y015003D01*
X003504Y015003D01*
X003268Y014767D01*
D11*
X003681Y018979D02*
X003683Y019019D01*
X003689Y019060D01*
X003699Y019099D01*
X003712Y019137D01*
X003730Y019174D01*
X003751Y019208D01*
X003775Y019241D01*
X003802Y019271D01*
X003832Y019298D01*
X003865Y019322D01*
X003899Y019343D01*
X003936Y019361D01*
X003974Y019374D01*
X004013Y019384D01*
X004054Y019390D01*
X004094Y019392D01*
X004134Y019390D01*
X004175Y019384D01*
X004214Y019374D01*
X004252Y019361D01*
X004289Y019343D01*
X004323Y019322D01*
X004356Y019298D01*
X004386Y019271D01*
X004413Y019241D01*
X004437Y019208D01*
X004458Y019174D01*
X004476Y019137D01*
X004489Y019099D01*
X004499Y019060D01*
X004505Y019019D01*
X004507Y018979D01*
X004505Y018939D01*
X004499Y018898D01*
X004489Y018859D01*
X004476Y018821D01*
X004458Y018784D01*
X004437Y018750D01*
X004413Y018717D01*
X004386Y018687D01*
X004356Y018660D01*
X004323Y018636D01*
X004289Y018615D01*
X004252Y018597D01*
X004214Y018584D01*
X004175Y018574D01*
X004134Y018568D01*
X004094Y018566D01*
X004054Y018568D01*
X004013Y018574D01*
X003974Y018584D01*
X003936Y018597D01*
X003899Y018615D01*
X003865Y018636D01*
X003832Y018660D01*
X003802Y018687D01*
X003775Y018717D01*
X003751Y018750D01*
X003730Y018784D01*
X003712Y018821D01*
X003699Y018859D01*
X003689Y018898D01*
X003683Y018939D01*
X003681Y018979D01*
D12*
X020807Y018881D03*
X020807Y016912D03*
X020807Y009235D03*
X020807Y007267D03*
X020807Y005298D03*
X020807Y003330D03*
X020807Y001361D03*
D13*
X018386Y000967D03*
X017559Y000967D03*
X017559Y001755D03*
X018386Y001755D03*
X018386Y002542D03*
X017559Y002542D03*
X017559Y003330D03*
X018386Y003330D03*
X018386Y004117D03*
X017559Y004117D03*
D14*
X016772Y004117D03*
X016024Y004117D03*
X016024Y003330D03*
X016772Y003330D03*
X016772Y002542D03*
X016024Y002542D03*
X016024Y001755D03*
X016772Y001755D03*
X016772Y000967D03*
X016024Y000967D03*
D15*
X014909Y001759D03*
X012547Y000971D03*
X010185Y001759D03*
X008827Y001759D03*
X006464Y000971D03*
X004102Y001759D03*
X004102Y006483D03*
X004126Y009034D03*
X008850Y009034D03*
X010209Y009034D03*
X010185Y006483D03*
X008827Y006483D03*
X014909Y006483D03*
X014933Y009034D03*
X014933Y013759D03*
X012571Y014546D03*
X010209Y013759D03*
X008850Y013759D03*
X006488Y014546D03*
X004126Y013759D03*
D16*
X008838Y012818D03*
X009815Y012818D03*
D17*
X009811Y012816D03*
X009299Y012938D03*
X008811Y012820D03*
D18*
X008791Y012818D03*
X008539Y012818D03*
X009807Y012818D03*
D19*
X009803Y012818D03*
X008775Y012818D03*
X008543Y012818D03*
D20*
X008547Y012818D03*
X008764Y012818D03*
X009799Y012818D03*
D21*
X009795Y012818D03*
X009346Y012940D03*
X008551Y012818D03*
D22*
X008744Y012818D03*
X009791Y012818D03*
D23*
X009787Y012816D03*
X008736Y012820D03*
D24*
X009783Y012818D03*
D25*
X009779Y012816D03*
X008563Y012820D03*
D26*
X009775Y012818D03*
D27*
X009772Y012818D03*
X008622Y012881D03*
D28*
X008614Y012885D03*
X008610Y012885D03*
X008602Y012877D03*
X008701Y012818D03*
X009768Y012818D03*
D29*
X009764Y012816D03*
X008693Y012820D03*
D30*
X008689Y012820D03*
X008575Y012820D03*
X009760Y012816D03*
D31*
X009756Y012818D03*
X008685Y012818D03*
D32*
X009752Y012818D03*
D33*
X009748Y012818D03*
D34*
X009744Y012818D03*
X008669Y012818D03*
X008583Y012818D03*
D35*
X008665Y012820D03*
X009740Y012816D03*
D36*
X009736Y012816D03*
X008661Y012820D03*
D37*
X009732Y012818D03*
D38*
X009728Y012816D03*
X008657Y012820D03*
D39*
X009724Y012816D03*
D40*
X009720Y012818D03*
D41*
X009716Y012816D03*
D42*
X009712Y012816D03*
D43*
X009709Y012818D03*
D44*
X009705Y012816D03*
X008634Y012820D03*
D45*
X009701Y012818D03*
D46*
X009697Y012816D03*
D47*
X009693Y012818D03*
D48*
X009689Y012816D03*
D49*
X009685Y012818D03*
D50*
X009681Y012816D03*
D51*
X009677Y012818D03*
D52*
X009673Y012816D03*
X009669Y012816D03*
D53*
X009665Y012818D03*
D54*
X009661Y012816D03*
D55*
X009657Y012818D03*
D56*
X009653Y012816D03*
X009650Y012816D03*
D57*
X009646Y012818D03*
D58*
X009642Y012816D03*
D59*
X009638Y012818D03*
X009634Y012818D03*
D60*
X009630Y012816D03*
D61*
X009626Y012818D03*
X009622Y012818D03*
X009354Y012818D03*
D62*
X009358Y012820D03*
X009614Y012816D03*
X009618Y012816D03*
D63*
X009610Y012818D03*
X009366Y012818D03*
X009362Y012818D03*
D64*
X009370Y012820D03*
X009374Y012820D03*
X009602Y012816D03*
X009606Y012816D03*
D65*
X009598Y012818D03*
X009594Y012818D03*
X009386Y012818D03*
X009382Y012818D03*
X009378Y012818D03*
D66*
X009587Y012816D03*
X009590Y012816D03*
D67*
X009583Y012818D03*
D68*
X009579Y012816D03*
X009575Y012816D03*
X009571Y012816D03*
D69*
X009567Y012818D03*
X009563Y012818D03*
D70*
X009559Y012816D03*
X009555Y012816D03*
D71*
X009551Y012818D03*
X009547Y012818D03*
D72*
X009543Y012816D03*
X009539Y012816D03*
D73*
X009535Y012818D03*
X009531Y012818D03*
D74*
X009527Y012818D03*
D75*
X009524Y012820D03*
D76*
X009520Y012820D03*
D77*
X009516Y012820D03*
D78*
X009512Y012820D03*
X009433Y012820D03*
D79*
X009437Y012820D03*
X009441Y012820D03*
X009504Y012820D03*
X009508Y012820D03*
D80*
X009500Y012818D03*
X009445Y012818D03*
D81*
X009449Y012820D03*
X009453Y012820D03*
X009457Y012820D03*
X009461Y012820D03*
X009464Y012820D03*
X009468Y012820D03*
X009472Y012820D03*
X009476Y012820D03*
X009480Y012820D03*
X009484Y012820D03*
X009488Y012820D03*
X009492Y012820D03*
X009496Y012820D03*
D82*
X009429Y012818D03*
D83*
X009425Y012818D03*
D84*
X009421Y012820D03*
D85*
X009417Y012820D03*
D86*
X009272Y012597D03*
X009279Y012586D03*
X009283Y012582D03*
X009350Y012538D03*
X008968Y012818D03*
X008587Y013046D03*
D87*
X008748Y012818D03*
X009350Y012936D03*
D88*
X009260Y012621D03*
X009291Y012570D03*
X009295Y012566D03*
X009299Y012562D03*
X009303Y012558D03*
X009311Y012554D03*
X009315Y012550D03*
X009323Y012546D03*
X009331Y012542D03*
X009338Y012538D03*
X009342Y012538D03*
X009346Y012538D03*
X008972Y012818D03*
X008500Y012818D03*
D89*
X008756Y012820D03*
X009342Y012938D03*
D90*
X009338Y012940D03*
X008760Y012818D03*
D91*
X009307Y012556D03*
X009319Y012548D03*
X009327Y012544D03*
X009335Y012540D03*
D92*
X009335Y012938D03*
D93*
X009331Y012938D03*
X009327Y012938D03*
X008768Y012820D03*
D94*
X008772Y012820D03*
X009323Y012938D03*
D95*
X009319Y012938D03*
D96*
X009315Y012940D03*
X008787Y012818D03*
D97*
X008795Y012820D03*
X009311Y012942D03*
D98*
X009307Y012940D03*
D99*
X009303Y012940D03*
X008803Y012818D03*
X008535Y012818D03*
D100*
X008587Y012698D03*
X008590Y012694D03*
X009295Y012938D03*
D101*
X009291Y012902D03*
X008874Y012820D03*
D102*
X009094Y012818D03*
X009201Y012940D03*
X009291Y013129D03*
D103*
X009264Y012611D03*
X009268Y012603D03*
X009275Y012591D03*
X009287Y012576D03*
D104*
X009287Y012904D03*
X008516Y012818D03*
D105*
X009283Y012904D03*
D106*
X009279Y012908D03*
D107*
X009275Y012910D03*
D108*
X009272Y012912D03*
D109*
X009268Y012916D03*
D110*
X009264Y012914D03*
X009256Y012906D03*
D111*
X009260Y012912D03*
D112*
X009212Y012934D03*
X009256Y012556D03*
D113*
X009256Y012676D03*
X009035Y012818D03*
X008898Y012920D03*
D114*
X008823Y012818D03*
X009248Y012834D03*
X009252Y012834D03*
D115*
X009244Y012834D03*
D116*
X009240Y012832D03*
X008831Y012820D03*
D117*
X009236Y012796D03*
D118*
X009193Y012812D03*
X009205Y012938D03*
X009236Y013017D03*
D119*
X009232Y012796D03*
X009228Y012796D03*
D120*
X009102Y012816D03*
X009197Y012942D03*
X009232Y013021D03*
D121*
X009224Y012796D03*
X009220Y012796D03*
D122*
X009216Y012796D03*
D123*
X009212Y012658D03*
D124*
X009212Y012802D03*
X009004Y012818D03*
X008886Y012731D03*
X008496Y012818D03*
D125*
X009098Y012818D03*
X009209Y012652D03*
D126*
X009209Y012802D03*
X009016Y012818D03*
X008917Y012747D03*
X008909Y012739D03*
X008901Y012735D03*
X008728Y013030D03*
X008724Y013034D03*
X008720Y013038D03*
X008716Y013038D03*
D127*
X009087Y012818D03*
X009090Y012818D03*
X009209Y012936D03*
D128*
X009205Y012804D03*
X008890Y012922D03*
X008886Y012922D03*
D129*
X009201Y012808D03*
D130*
X009197Y012810D03*
X009063Y012818D03*
D131*
X009193Y012942D03*
D132*
X009189Y012944D03*
X009110Y012818D03*
D133*
X009185Y012946D03*
D134*
X009122Y012818D03*
D135*
X009118Y012818D03*
X009114Y012818D03*
D136*
X009106Y012818D03*
D137*
X009083Y012818D03*
D138*
X009079Y012818D03*
D139*
X009075Y012818D03*
X009071Y012818D03*
D140*
X009067Y012818D03*
D141*
X009059Y012818D03*
X009055Y012818D03*
X008614Y012491D03*
D142*
X008492Y012818D03*
X009051Y012818D03*
D143*
X009047Y012818D03*
D144*
X009043Y012818D03*
X009039Y012818D03*
X008913Y012912D03*
D145*
X009031Y012818D03*
D146*
X009027Y012818D03*
X009024Y012818D03*
D147*
X009020Y012818D03*
X008882Y012920D03*
D148*
X009012Y012820D03*
X008898Y012733D03*
X008712Y013040D03*
D149*
X008894Y012731D03*
X009008Y012818D03*
D150*
X009000Y012818D03*
D151*
X008996Y012820D03*
X008882Y012733D03*
D152*
X008992Y012818D03*
D153*
X008988Y012818D03*
D154*
X008984Y012818D03*
D155*
X008980Y012820D03*
D156*
X008976Y012818D03*
D157*
X008964Y012820D03*
X008590Y013052D03*
D158*
X008961Y012818D03*
X008650Y012589D03*
X008646Y012586D03*
D159*
X008957Y012818D03*
D160*
X008953Y012818D03*
X008949Y012818D03*
X008598Y013058D03*
D161*
X008504Y012818D03*
X008945Y012818D03*
D162*
X008941Y012818D03*
D163*
X008937Y012818D03*
X008933Y012818D03*
D164*
X008929Y012818D03*
D165*
X008925Y012818D03*
X008508Y012818D03*
D166*
X008921Y012820D03*
D167*
X008917Y012906D03*
X008909Y012914D03*
X008905Y012918D03*
X008901Y012918D03*
D168*
X008913Y012741D03*
X008905Y012737D03*
D169*
X008894Y012922D03*
D170*
X008890Y012733D03*
X008709Y013040D03*
D171*
X008878Y012818D03*
D172*
X008870Y012818D03*
D173*
X008866Y012818D03*
X008520Y012818D03*
D174*
X008862Y012818D03*
D175*
X008858Y012820D03*
D176*
X008854Y012818D03*
D177*
X008850Y012818D03*
X008724Y012727D03*
X008720Y012723D03*
X008524Y012818D03*
D178*
X008716Y012721D03*
X008728Y012729D03*
X008846Y012820D03*
D179*
X008842Y012820D03*
X008709Y012721D03*
D180*
X008835Y012818D03*
X008527Y012818D03*
D181*
X008827Y012820D03*
D182*
X008819Y012818D03*
X008650Y012944D03*
X008646Y012948D03*
X008531Y012818D03*
D183*
X008594Y012690D03*
X008815Y012820D03*
X008642Y012950D03*
D184*
X008807Y012818D03*
X008598Y012688D03*
D185*
X008799Y012820D03*
D186*
X008783Y012820D03*
D187*
X008779Y012818D03*
D188*
X008752Y012820D03*
D189*
X008740Y012820D03*
X008555Y012820D03*
D190*
X008732Y012818D03*
D191*
X008712Y012719D03*
D192*
X008705Y012721D03*
D193*
X008705Y013040D03*
D194*
X008697Y012818D03*
D195*
X008681Y012820D03*
D196*
X008677Y012820D03*
X008579Y012820D03*
D197*
X008673Y012820D03*
D198*
X008653Y012818D03*
D199*
X008642Y012584D03*
X008594Y013056D03*
D200*
X008638Y012584D03*
D201*
X008638Y012948D03*
D202*
X008630Y012501D03*
X008626Y012497D03*
X008622Y012493D03*
X008618Y012493D03*
D203*
X008630Y012875D03*
X008626Y012879D03*
X008618Y012883D03*
D204*
X008602Y012497D03*
X008606Y012493D03*
X008610Y012489D03*
D205*
X008571Y012820D03*
X008606Y012883D03*
D206*
X008567Y012820D03*
D207*
X008559Y012820D03*
D208*
X008512Y012818D03*
D209*
X018488Y013192D02*
X018488Y013782D01*
X019488Y013782D02*
X019488Y013192D01*
X020488Y013192D02*
X020488Y013782D01*
D210*
X016929Y016420D03*
X016929Y018979D03*
X013366Y018979D03*
X013366Y016420D03*
X009705Y016420D03*
X009705Y018979D03*
X006161Y018979D03*
X006161Y016420D03*
D211*
X003777Y015715D03*
D212*
X002777Y015715D03*
X002777Y016715D03*
X003777Y016715D03*
X003777Y017715D03*
X002777Y017715D03*
D213*
X003077Y013715D02*
X002477Y013715D01*
X002477Y012715D02*
X003077Y012715D01*
X003077Y011715D02*
X002477Y011715D01*
X002477Y010715D02*
X003077Y010715D01*
X003077Y009715D02*
X002477Y009715D01*
X002477Y008715D02*
X003077Y008715D01*
X003077Y003715D02*
X002477Y003715D01*
X002477Y002715D02*
X003077Y002715D01*
X003077Y001715D02*
X002477Y001715D01*
X016531Y006715D02*
X017131Y006715D01*
X017131Y007715D02*
X016531Y007715D01*
X016531Y008715D02*
X017131Y008715D01*
X017131Y009715D02*
X016531Y009715D01*
X016531Y010715D02*
X017131Y010715D01*
X017131Y011715D02*
X016531Y011715D01*
X016531Y012715D02*
X017131Y012715D01*
X017131Y013715D02*
X016531Y013715D01*
D214*
X018605Y012249D03*
X018605Y010749D03*
X020805Y010749D03*
X020805Y012249D03*
D215*
X018090Y008369D03*
X018090Y007621D03*
D216*
X018450Y007089D02*
X018544Y007128D01*
X018623Y007206D01*
X018646Y007261D01*
X018713Y007261D01*
X018846Y007316D01*
X019042Y007513D01*
X019127Y007598D01*
X019127Y006289D01*
X017524Y006289D01*
X017571Y006336D01*
X017867Y006336D01*
X017999Y006391D01*
X018100Y006492D01*
X018396Y006787D01*
X018450Y006919D01*
X018450Y007089D01*
X018469Y007097D02*
X019127Y007097D01*
X019127Y007335D02*
X018865Y007335D01*
X019103Y007574D02*
X019127Y007574D01*
X019527Y007956D02*
X019527Y006026D01*
X019390Y005889D01*
X015984Y005889D01*
X015748Y006125D01*
X015748Y007267D01*
X014980Y008034D01*
X004665Y008034D01*
X004126Y008574D01*
X004126Y009034D01*
X004630Y009243D02*
X005388Y009243D01*
X005388Y009179D02*
X005388Y009331D01*
X004485Y010234D01*
X004302Y010234D01*
X004177Y010285D01*
X004082Y010381D01*
X003747Y010716D01*
X003695Y010841D01*
X003695Y012303D01*
X003623Y012375D01*
X003558Y012375D01*
X003406Y012224D01*
X003386Y012215D01*
X003406Y012207D01*
X003569Y012044D01*
X003657Y011831D01*
X003657Y011600D01*
X003569Y011387D01*
X003406Y011224D01*
X003386Y011215D01*
X003406Y011207D01*
X003569Y011044D01*
X003657Y010831D01*
X003657Y010600D01*
X003569Y010387D01*
X003406Y010224D01*
X003386Y010215D01*
X003406Y010207D01*
X003569Y010044D01*
X003657Y009831D01*
X003657Y009600D01*
X003569Y009387D01*
X003406Y009224D01*
X003386Y009215D01*
X003406Y009207D01*
X003569Y009044D01*
X003580Y009017D01*
X003580Y009143D01*
X003663Y009343D01*
X003817Y009497D01*
X004017Y009580D01*
X004234Y009580D01*
X004435Y009497D01*
X004589Y009343D01*
X004672Y009143D01*
X004672Y008926D01*
X004589Y008725D01*
X004564Y008701D01*
X004831Y008434D01*
X004857Y008434D01*
X004857Y008578D01*
X004926Y008747D01*
X005055Y008875D01*
X005105Y008896D01*
X005122Y008913D01*
X005388Y009179D01*
X005214Y009005D02*
X004672Y009005D01*
X004605Y008766D02*
X004946Y008766D01*
X004857Y008528D02*
X004738Y008528D01*
X004083Y008051D02*
X002427Y008051D01*
X002427Y008135D02*
X003193Y008135D01*
X003406Y008224D01*
X003569Y008387D01*
X003657Y008600D01*
X003657Y008739D01*
X003663Y008725D01*
X003726Y008663D01*
X003726Y008494D01*
X003787Y008347D01*
X004326Y007808D01*
X004439Y007695D01*
X004586Y007634D01*
X005172Y007634D01*
X005172Y007490D01*
X005241Y007322D01*
X005290Y007274D01*
X005290Y006837D01*
X003235Y004782D01*
X003184Y004657D01*
X003184Y004522D01*
X003184Y004225D01*
X003118Y004235D01*
X002777Y004235D01*
X002437Y004235D01*
X002427Y004234D01*
X002427Y008135D01*
X002427Y007812D02*
X004322Y007812D01*
X003845Y008289D02*
X003471Y008289D01*
X003627Y008528D02*
X003726Y008528D01*
X003622Y009243D02*
X003425Y009243D01*
X003608Y009482D02*
X003801Y009482D01*
X003657Y009720D02*
X004999Y009720D01*
X004760Y009959D02*
X003605Y009959D01*
X003416Y010197D02*
X004522Y010197D01*
X004027Y010436D02*
X003589Y010436D01*
X003657Y010674D02*
X003789Y010674D01*
X003695Y010913D02*
X003624Y010913D01*
X003695Y011151D02*
X003462Y011151D01*
X003570Y011390D02*
X003695Y011390D01*
X003695Y011628D02*
X003657Y011628D01*
X003643Y011867D02*
X003695Y011867D01*
X003695Y012105D02*
X003508Y012105D01*
X003526Y012344D02*
X003655Y012344D01*
X003612Y013055D02*
X003558Y013055D01*
X003406Y013207D01*
X003386Y013215D01*
X003406Y013224D01*
X003425Y013243D01*
X003612Y013055D01*
X003609Y013059D02*
X003554Y013059D01*
X004363Y013266D02*
X004540Y013089D01*
X004592Y012964D01*
X004592Y011943D01*
X004673Y011977D01*
X004713Y011977D01*
X004730Y011994D01*
X004780Y012044D01*
X004781Y012044D01*
X004781Y012045D01*
X004847Y012072D01*
X004913Y012099D01*
X004913Y012099D01*
X004913Y012099D01*
X004984Y012099D01*
X005056Y012099D01*
X005056Y012099D01*
X009284Y012090D01*
X009283Y012091D01*
X009276Y012094D01*
X009275Y012095D01*
X009268Y012098D01*
X009265Y012102D01*
X009186Y012181D01*
X009183Y012186D01*
X009178Y012189D01*
X009177Y012190D01*
X009170Y012193D01*
X009169Y012194D01*
X009162Y012197D01*
X009161Y012198D01*
X009154Y012201D01*
X009150Y012204D01*
X009149Y012206D01*
X009142Y012208D01*
X009139Y012212D01*
X009135Y012216D01*
X009131Y012220D01*
X009127Y012224D01*
X009123Y012228D01*
X009119Y012232D01*
X009040Y012311D01*
X009037Y012317D01*
X009032Y012323D01*
X009029Y012329D01*
X009028Y012330D01*
X009025Y012337D01*
X009024Y012338D01*
X009008Y012377D01*
X009004Y012375D01*
X008995Y012366D01*
X008988Y012363D01*
X008979Y012354D01*
X008973Y012351D01*
X008964Y012342D01*
X008957Y012339D01*
X008948Y012330D01*
X008941Y012328D01*
X008936Y012323D01*
X008929Y012320D01*
X008920Y012311D01*
X008914Y012308D01*
X008905Y012299D01*
X008898Y012296D01*
X008889Y012287D01*
X008882Y012284D01*
X008873Y012275D01*
X008866Y012273D01*
X008857Y012263D01*
X008851Y012261D01*
X008846Y012256D01*
X008839Y012253D01*
X008830Y012244D01*
X008823Y012241D01*
X008814Y012232D01*
X008807Y012229D01*
X008798Y012220D01*
X008792Y012217D01*
X008790Y012216D01*
X008790Y012216D01*
X008783Y012208D01*
X008776Y012206D01*
X008771Y012201D01*
X008668Y012158D01*
X008552Y012158D01*
X008450Y012201D01*
X008446Y012204D01*
X008442Y012208D01*
X008363Y012287D01*
X008360Y012294D01*
X008359Y012295D01*
X008356Y012302D01*
X008355Y012303D01*
X008352Y012310D01*
X008347Y012315D01*
X008344Y012321D01*
X008343Y012323D01*
X008340Y012329D01*
X008339Y012330D01*
X008337Y012337D01*
X008335Y012338D01*
X008333Y012345D01*
X008331Y012346D01*
X008329Y012353D01*
X008327Y012354D01*
X008325Y012361D01*
X008324Y012362D01*
X008321Y012369D01*
X008320Y012370D01*
X008317Y012377D01*
X008316Y012378D01*
X008313Y012384D01*
X008312Y012386D01*
X008309Y012392D01*
X008308Y012393D01*
X008305Y012400D01*
X008304Y012401D01*
X008261Y012504D01*
X008261Y012505D01*
X008253Y012524D01*
X008253Y012526D01*
X008249Y012536D01*
X008249Y012538D01*
X008245Y012548D01*
X008245Y012550D01*
X008242Y012559D01*
X008242Y012562D01*
X008238Y012571D01*
X008238Y012573D01*
X008234Y012583D01*
X008234Y012589D01*
X008230Y012599D01*
X008230Y012605D01*
X008226Y012614D01*
X008226Y012621D01*
X008222Y012630D01*
X008222Y012640D01*
X008218Y012650D01*
X008218Y012664D01*
X008214Y012674D01*
X008214Y012699D01*
X008210Y012709D01*
X008210Y012927D01*
X008214Y012936D01*
X008214Y012962D01*
X008218Y012972D01*
X008218Y012986D01*
X008222Y012995D01*
X008222Y013005D01*
X008226Y013015D01*
X008226Y013021D01*
X008230Y013031D01*
X008230Y013037D01*
X008234Y013046D01*
X008234Y013053D01*
X008238Y013062D01*
X008238Y013064D01*
X008242Y013074D01*
X008242Y013076D01*
X008245Y013086D01*
X008245Y013088D01*
X008249Y013098D01*
X008249Y013100D01*
X008253Y013109D01*
X008253Y013112D01*
X008261Y013131D01*
X008261Y013131D01*
X008304Y013234D01*
X008305Y013235D01*
X008316Y013262D01*
X008317Y013263D01*
X008320Y013270D01*
X008321Y013271D01*
X008324Y013278D01*
X008325Y013279D01*
X008327Y013285D01*
X008329Y013287D01*
X008331Y013293D01*
X008333Y013294D01*
X008335Y013301D01*
X008337Y013302D01*
X008339Y013309D01*
X008344Y013314D01*
X008347Y013321D01*
X008348Y013322D01*
X008351Y013329D01*
X008352Y013330D01*
X008355Y013337D01*
X008356Y013338D01*
X008359Y013345D01*
X008364Y013350D01*
X008367Y013356D01*
X008424Y013413D01*
X008388Y013450D01*
X008305Y013650D01*
X008305Y013867D01*
X008388Y014068D01*
X008466Y014146D01*
X006860Y014146D01*
X006797Y014083D01*
X006597Y014000D01*
X006380Y014000D01*
X006179Y014083D01*
X006025Y014237D01*
X005942Y014438D01*
X005942Y014655D01*
X006025Y014855D01*
X006179Y015009D01*
X006380Y015092D01*
X006597Y015092D01*
X006797Y015009D01*
X006860Y014946D01*
X012199Y014946D01*
X012262Y015009D01*
X012462Y015092D01*
X012679Y015092D01*
X012880Y015009D01*
X013033Y014855D01*
X013117Y014655D01*
X013117Y014438D01*
X013033Y014237D01*
X012880Y014083D01*
X012679Y014000D01*
X012462Y014000D01*
X012262Y014083D01*
X012199Y014146D01*
X010593Y014146D01*
X010671Y014068D01*
X010754Y013867D01*
X010754Y013650D01*
X010671Y013450D01*
X010518Y013296D01*
X010317Y013213D01*
X010100Y013213D01*
X010040Y013238D01*
X010041Y013235D01*
X010042Y013234D01*
X010085Y013131D01*
X010085Y013129D01*
X010089Y013120D01*
X010089Y013113D01*
X010093Y013104D01*
X010093Y013094D01*
X010097Y013084D01*
X010097Y012551D01*
X010093Y012542D01*
X010093Y012528D01*
X010089Y012518D01*
X010089Y012516D01*
X010085Y012507D01*
X010085Y012504D01*
X010042Y012401D01*
X010041Y012400D01*
X010038Y012393D01*
X010037Y012392D01*
X010035Y012386D01*
X010033Y012384D01*
X010031Y012378D01*
X010029Y012377D01*
X010027Y012370D01*
X010023Y012366D01*
X010022Y012365D01*
X010019Y012358D01*
X010015Y012354D01*
X010011Y012350D01*
X010007Y012346D01*
X010006Y012345D01*
X010003Y012338D01*
X009924Y012260D01*
X009924Y012260D01*
X009920Y012256D01*
X009914Y012253D01*
X009897Y012236D01*
X009890Y012233D01*
X009885Y012228D01*
X009878Y012225D01*
X009873Y012220D01*
X009866Y012217D01*
X009865Y012216D01*
X009858Y012213D01*
X009857Y012212D01*
X009851Y012210D01*
X009849Y012208D01*
X009843Y012206D01*
X009842Y012204D01*
X009835Y012202D01*
X009834Y012201D01*
X009733Y012159D01*
X009668Y012094D01*
X009662Y012091D01*
X009660Y012090D01*
X009659Y012090D01*
X016072Y012077D01*
X016202Y012207D01*
X016222Y012215D01*
X016202Y012224D01*
X016039Y012387D01*
X015951Y012600D01*
X015951Y012831D01*
X016039Y013044D01*
X016202Y013207D01*
X016222Y013215D01*
X016202Y013224D01*
X016039Y013387D01*
X015951Y013600D01*
X015951Y013831D01*
X016039Y014044D01*
X016202Y014207D01*
X016415Y014295D01*
X017246Y014295D01*
X017459Y014207D01*
X017591Y014075D01*
X017737Y014075D01*
X017869Y014021D01*
X017936Y013953D01*
X018000Y014108D01*
X018024Y014132D01*
X017849Y014307D01*
X015542Y014307D01*
X015381Y014374D01*
X015257Y014498D01*
X014207Y015547D01*
X014070Y015547D01*
X014017Y015494D01*
X013914Y015451D01*
X012818Y015451D01*
X012715Y015494D01*
X012637Y015573D01*
X012594Y015675D01*
X012594Y015980D01*
X010477Y015980D01*
X010477Y015675D01*
X010434Y015573D01*
X010355Y015494D01*
X010252Y015451D01*
X009157Y015451D01*
X009054Y015494D01*
X008975Y015573D01*
X008932Y015675D01*
X008932Y015980D01*
X006933Y015980D01*
X006933Y015675D01*
X006891Y015573D01*
X006812Y015494D01*
X006709Y015451D01*
X005613Y015451D01*
X005576Y015467D01*
X005576Y015128D01*
X005522Y014996D01*
X005420Y014894D01*
X005224Y014698D01*
X005091Y014643D01*
X003712Y014643D01*
X003656Y014507D01*
X003527Y014378D01*
X003359Y014309D01*
X003176Y014309D01*
X003008Y014378D01*
X002879Y014507D01*
X002810Y014675D01*
X002810Y014858D01*
X002879Y015026D01*
X002989Y015135D01*
X002537Y015135D01*
X002427Y015245D01*
X002427Y014295D01*
X003193Y014295D01*
X003406Y014207D01*
X003569Y014044D01*
X003581Y014015D01*
X003633Y013994D01*
X003663Y014068D01*
X003817Y014221D01*
X004017Y014304D01*
X004234Y014304D01*
X004435Y014221D01*
X004589Y014068D01*
X004672Y013867D01*
X004672Y013650D01*
X004589Y013450D01*
X004435Y013296D01*
X004363Y013266D01*
X004436Y013298D02*
X008334Y013298D01*
X008352Y013536D02*
X004624Y013536D01*
X004672Y013775D02*
X008305Y013775D01*
X008365Y014013D02*
X006627Y014013D01*
X006349Y014013D02*
X004611Y014013D01*
X004362Y014252D02*
X006019Y014252D01*
X005942Y014490D02*
X003639Y014490D01*
X003889Y014252D02*
X003299Y014252D01*
X003586Y014013D02*
X003640Y014013D01*
X002896Y014490D02*
X002427Y014490D01*
X002427Y014729D02*
X002810Y014729D01*
X002855Y014967D02*
X002427Y014967D01*
X002427Y015206D02*
X002467Y015206D01*
X003058Y015176D02*
X003281Y015399D01*
X003286Y015387D01*
X003346Y015327D01*
X003300Y015308D01*
X003217Y015225D01*
X003176Y015225D01*
X003058Y015176D01*
X003088Y015206D02*
X003130Y015206D01*
X003281Y016032D02*
X003098Y016215D01*
X003277Y016395D01*
X003461Y016212D01*
X003449Y016207D01*
X003286Y016044D01*
X003281Y016032D01*
X003401Y016160D02*
X003154Y016160D01*
X002457Y016215D02*
X002427Y016186D01*
X002427Y016245D01*
X002457Y016215D01*
X003277Y017036D02*
X003055Y017258D01*
X003235Y017438D01*
X003457Y017215D01*
X003277Y017036D01*
X003200Y017114D02*
X003355Y017114D01*
X003321Y017352D02*
X003149Y017352D01*
X002777Y017715D02*
X002777Y017715D01*
X002777Y018235D01*
X002709Y018235D01*
X003231Y018850D01*
X003361Y018979D01*
X003361Y018833D01*
X003473Y018564D01*
X003679Y018357D01*
X003829Y018295D01*
X003537Y018295D01*
X003235Y017993D01*
X002993Y018235D01*
X002777Y018235D01*
X002777Y017715D01*
X002777Y017829D02*
X002777Y017829D01*
X002777Y018068D02*
X002777Y018068D01*
X003161Y018068D02*
X003309Y018068D01*
X003803Y018306D02*
X002769Y018306D01*
X002972Y018545D02*
X003492Y018545D01*
X003382Y018783D02*
X003175Y018783D01*
X004067Y018246D02*
X004240Y018246D01*
X004510Y018357D01*
X004716Y018564D01*
X004828Y018833D01*
X004828Y019125D01*
X004716Y019395D01*
X004646Y019465D01*
X005449Y019465D01*
X005449Y019099D01*
X006041Y019099D01*
X006041Y018859D01*
X005449Y018859D01*
X005449Y018261D01*
X005464Y018205D01*
X005493Y018155D01*
X005534Y018114D01*
X005584Y018085D01*
X005640Y018070D01*
X006041Y018070D01*
X006041Y018859D01*
X006281Y018859D01*
X006281Y018070D01*
X006682Y018070D01*
X006738Y018085D01*
X006789Y018114D01*
X006829Y018155D01*
X006858Y018205D01*
X006873Y018261D01*
X006873Y018859D01*
X006281Y018859D01*
X006281Y019099D01*
X006873Y019099D01*
X006873Y019465D01*
X008992Y019465D01*
X008992Y019099D01*
X009585Y019099D01*
X009585Y018859D01*
X009825Y018859D01*
X009825Y019099D01*
X010417Y019099D01*
X010417Y019465D01*
X012654Y019465D01*
X012654Y019099D01*
X013246Y019099D01*
X013246Y018859D01*
X013486Y018859D01*
X013486Y018070D01*
X013887Y018070D01*
X013943Y018085D01*
X013993Y018114D01*
X014034Y018155D01*
X014063Y018205D01*
X014078Y018261D01*
X014078Y018859D01*
X013486Y018859D01*
X013486Y019099D01*
X014078Y019099D01*
X014078Y019465D01*
X016217Y019465D01*
X016217Y019099D01*
X016809Y019099D01*
X016809Y018859D01*
X017049Y018859D01*
X017049Y018070D01*
X017450Y018070D01*
X017506Y018085D01*
X017556Y018114D01*
X017597Y018155D01*
X017626Y018205D01*
X017641Y018261D01*
X017641Y018859D01*
X017049Y018859D01*
X017049Y019099D01*
X017641Y019099D01*
X017641Y019465D01*
X020111Y019465D01*
X019902Y019256D01*
X019902Y018655D01*
X018865Y017617D01*
X018792Y017441D01*
X018792Y016305D01*
X018865Y016129D01*
X019334Y015659D01*
X017694Y015659D01*
X017701Y015675D01*
X017701Y017165D01*
X017659Y017268D01*
X017580Y017347D01*
X017477Y017389D01*
X016381Y017389D01*
X016278Y017347D01*
X016200Y017268D01*
X016157Y017165D01*
X016157Y016270D01*
X016137Y016250D01*
X016080Y016250D01*
X016036Y016268D01*
X015854Y016268D01*
X015685Y016198D01*
X015556Y016069D01*
X015487Y015901D01*
X015487Y015719D01*
X015556Y015550D01*
X015685Y015422D01*
X015854Y015352D01*
X016036Y015352D01*
X016080Y015370D01*
X016406Y015370D01*
X016568Y015437D01*
X016569Y015438D01*
X016576Y015423D01*
X016812Y015187D01*
X015812Y015187D01*
X014796Y016203D01*
X014778Y016247D01*
X014649Y016375D01*
X014481Y016445D01*
X014299Y016445D01*
X014255Y016427D01*
X014138Y016427D01*
X014138Y017165D01*
X014096Y017268D01*
X014017Y017347D01*
X013914Y017389D01*
X012818Y017389D01*
X012715Y017347D01*
X012637Y017268D01*
X012594Y017165D01*
X012594Y016860D01*
X010477Y016860D01*
X010477Y017165D01*
X010434Y017268D01*
X010355Y017347D01*
X010252Y017389D01*
X009157Y017389D01*
X009054Y017347D01*
X008975Y017268D01*
X008932Y017165D01*
X008932Y016860D01*
X006933Y016860D01*
X006933Y017165D01*
X006891Y017268D01*
X006812Y017347D01*
X006709Y017389D01*
X005613Y017389D01*
X005511Y017347D01*
X005432Y017268D01*
X005389Y017165D01*
X005389Y016510D01*
X005308Y016544D01*
X005125Y016544D01*
X004957Y016474D01*
X004828Y016345D01*
X004758Y016177D01*
X004758Y015994D01*
X004828Y015826D01*
X004856Y015798D01*
X004856Y015363D01*
X004245Y015363D01*
X004269Y015387D01*
X004357Y015600D01*
X004357Y015831D01*
X004269Y016044D01*
X004106Y016207D01*
X004094Y016212D01*
X004357Y016475D01*
X004357Y016956D01*
X004098Y017215D01*
X004357Y017475D01*
X004357Y017956D01*
X004067Y018246D01*
X004246Y018068D02*
X019315Y018068D01*
X019076Y017829D02*
X004357Y017829D01*
X004357Y017591D02*
X018854Y017591D01*
X018792Y017352D02*
X017566Y017352D01*
X017701Y017114D02*
X018792Y017114D01*
X018792Y016875D02*
X017701Y016875D01*
X017701Y016637D02*
X018792Y016637D01*
X018792Y016398D02*
X017701Y016398D01*
X017701Y016160D02*
X018852Y016160D01*
X019072Y015921D02*
X017701Y015921D01*
X017701Y015683D02*
X019311Y015683D01*
X019953Y016398D02*
X020041Y016398D01*
X019902Y016537D02*
X020228Y016211D01*
X020140Y016211D01*
X019752Y016599D01*
X019752Y017147D01*
X020581Y017976D01*
X021182Y017976D01*
X021312Y018106D01*
X021312Y017687D01*
X021182Y017817D01*
X020432Y017817D01*
X019902Y017287D01*
X019902Y016537D01*
X019902Y016637D02*
X019752Y016637D01*
X019752Y016875D02*
X019902Y016875D01*
X019902Y017114D02*
X019752Y017114D01*
X019957Y017352D02*
X019967Y017352D01*
X020196Y017591D02*
X020205Y017591D01*
X020434Y017829D02*
X021312Y017829D01*
X021312Y018068D02*
X021274Y018068D01*
X019902Y018783D02*
X017641Y018783D01*
X017641Y018545D02*
X019792Y018545D01*
X019553Y018306D02*
X017641Y018306D01*
X017049Y018306D02*
X016809Y018306D01*
X016809Y018545D02*
X017049Y018545D01*
X017049Y018783D02*
X016809Y018783D01*
X016809Y018859D02*
X016809Y018070D01*
X016408Y018070D01*
X016352Y018085D01*
X016302Y018114D01*
X016261Y018155D01*
X016232Y018205D01*
X016217Y018261D01*
X016217Y018859D01*
X016809Y018859D01*
X016809Y019022D02*
X013486Y019022D01*
X013486Y018783D02*
X013246Y018783D01*
X013246Y018859D02*
X013246Y018070D01*
X012845Y018070D01*
X012789Y018085D01*
X012739Y018114D01*
X012698Y018155D01*
X012669Y018205D01*
X012654Y018261D01*
X012654Y018859D01*
X013246Y018859D01*
X013246Y019022D02*
X009825Y019022D01*
X009825Y018859D02*
X010417Y018859D01*
X010417Y018261D01*
X010402Y018205D01*
X010373Y018155D01*
X010332Y018114D01*
X010282Y018085D01*
X010226Y018070D01*
X009825Y018070D01*
X009825Y018859D01*
X009825Y018783D02*
X009585Y018783D01*
X009585Y018859D02*
X009585Y018070D01*
X009184Y018070D01*
X009128Y018085D01*
X009077Y018114D01*
X009036Y018155D01*
X009007Y018205D01*
X008992Y018261D01*
X008992Y018859D01*
X009585Y018859D01*
X009585Y019022D02*
X006281Y019022D01*
X006281Y018783D02*
X006041Y018783D01*
X006041Y018545D02*
X006281Y018545D01*
X006281Y018306D02*
X006041Y018306D01*
X005449Y018306D02*
X004386Y018306D01*
X004697Y018545D02*
X005449Y018545D01*
X005449Y018783D02*
X004807Y018783D01*
X004828Y019022D02*
X006041Y019022D01*
X005449Y019260D02*
X004772Y019260D01*
X004234Y017352D02*
X005524Y017352D01*
X005389Y017114D02*
X004200Y017114D01*
X004357Y016875D02*
X005389Y016875D01*
X005389Y016637D02*
X004357Y016637D01*
X004280Y016398D02*
X004881Y016398D01*
X004758Y016160D02*
X004154Y016160D01*
X004320Y015921D02*
X004789Y015921D01*
X004856Y015683D02*
X004357Y015683D01*
X004293Y015444D02*
X004856Y015444D01*
X005576Y015444D02*
X014310Y015444D01*
X014549Y015206D02*
X005576Y015206D01*
X005493Y014967D02*
X006137Y014967D01*
X005973Y014729D02*
X005254Y014729D01*
X006488Y014546D02*
X009468Y014546D01*
X009468Y014215D01*
X009468Y014546D02*
X012571Y014546D01*
X013086Y014729D02*
X015026Y014729D01*
X014787Y014967D02*
X012922Y014967D01*
X013117Y014490D02*
X015264Y014490D01*
X015242Y014221D02*
X015042Y014304D01*
X014824Y014304D01*
X014624Y014221D01*
X014470Y014068D01*
X014387Y013867D01*
X014387Y013650D01*
X014470Y013450D01*
X014624Y013296D01*
X014824Y013213D01*
X015042Y013213D01*
X015242Y013296D01*
X015396Y013450D01*
X015479Y013650D01*
X015479Y013867D01*
X015396Y014068D01*
X015242Y014221D01*
X015169Y014252D02*
X016309Y014252D01*
X016026Y014013D02*
X015418Y014013D01*
X015479Y013775D02*
X015951Y013775D01*
X015977Y013536D02*
X015431Y013536D01*
X015244Y013298D02*
X016128Y013298D01*
X016054Y013059D02*
X010097Y013059D01*
X010097Y012821D02*
X015951Y012821D01*
X015958Y012582D02*
X010097Y012582D01*
X010005Y012344D02*
X016082Y012344D01*
X016100Y012105D02*
X009679Y012105D01*
X009262Y012105D02*
X004592Y012105D01*
X004592Y012344D02*
X008333Y012344D01*
X008234Y012582D02*
X004592Y012582D01*
X004592Y012821D02*
X008210Y012821D01*
X008236Y013059D02*
X004553Y013059D01*
X005202Y011379D02*
X016069Y011357D01*
X016202Y011224D01*
X016222Y011215D01*
X016202Y011207D01*
X016070Y011075D01*
X007688Y011075D01*
X007630Y011051D01*
X007547Y011051D01*
X007378Y010982D01*
X007249Y010853D01*
X007180Y010685D01*
X007180Y010502D01*
X007249Y010334D01*
X007358Y010225D01*
X006816Y010225D01*
X006816Y010232D01*
X006747Y010400D01*
X006618Y010529D01*
X006449Y010599D01*
X006267Y010599D01*
X006099Y010529D01*
X005970Y010400D01*
X005900Y010232D01*
X005900Y010056D01*
X004993Y010963D01*
X004897Y011059D01*
X004874Y011068D01*
X005023Y011130D01*
X005152Y011259D01*
X005202Y011379D01*
X005044Y011151D02*
X016146Y011151D01*
X016070Y010355D02*
X016202Y010224D01*
X016222Y010215D01*
X016202Y010207D01*
X016070Y010075D01*
X011264Y010075D01*
X011145Y010194D01*
X010977Y010264D01*
X010795Y010264D01*
X010626Y010194D01*
X010497Y010065D01*
X010428Y009897D01*
X010428Y009715D01*
X010497Y009546D01*
X010626Y009418D01*
X010795Y009348D01*
X010977Y009348D01*
X010995Y009355D01*
X013656Y009355D01*
X013656Y009223D01*
X013706Y009103D01*
X011213Y009103D01*
X011185Y009131D01*
X011016Y009201D01*
X010834Y009201D01*
X010745Y009164D01*
X010671Y009343D01*
X010518Y009497D01*
X010317Y009580D01*
X010100Y009580D01*
X009899Y009497D01*
X009746Y009343D01*
X009663Y009143D01*
X009663Y008926D01*
X009746Y008725D01*
X009899Y008572D01*
X010100Y008489D01*
X010317Y008489D01*
X010503Y008565D01*
X010537Y008483D01*
X010586Y008434D01*
X006403Y008434D01*
X006403Y008578D01*
X006333Y008747D01*
X006285Y008795D01*
X006285Y009598D01*
X006246Y009691D01*
X006267Y009683D01*
X006307Y009683D01*
X006430Y009560D01*
X006562Y009505D01*
X007684Y009505D01*
X007713Y009477D01*
X007881Y009407D01*
X008063Y009407D01*
X008232Y009477D01*
X008361Y009606D01*
X008430Y009774D01*
X008430Y009956D01*
X008361Y010125D01*
X008232Y010253D01*
X008063Y010323D01*
X008015Y010323D01*
X008026Y010334D01*
X008035Y010355D01*
X016070Y010355D01*
X016192Y010197D02*
X011139Y010197D01*
X010633Y010197D02*
X008288Y010197D01*
X008429Y009959D02*
X010453Y009959D01*
X010428Y009720D02*
X008408Y009720D01*
X008541Y009497D02*
X008388Y009343D01*
X008305Y009143D01*
X008305Y008926D01*
X008388Y008725D01*
X008541Y008572D01*
X008742Y008489D01*
X008959Y008489D01*
X009159Y008572D01*
X009313Y008725D01*
X009396Y008926D01*
X009396Y009143D01*
X009313Y009343D01*
X009159Y009497D01*
X008959Y009580D01*
X008742Y009580D01*
X008541Y009497D01*
X008526Y009482D02*
X008237Y009482D01*
X008346Y009243D02*
X006285Y009243D01*
X006285Y009482D02*
X007708Y009482D01*
X008305Y009005D02*
X006285Y009005D01*
X006314Y008766D02*
X008371Y008766D01*
X008648Y008528D02*
X006403Y008528D01*
X006639Y007634D02*
X009800Y007634D01*
X009758Y007535D01*
X009758Y007353D01*
X009828Y007184D01*
X009957Y007055D01*
X010049Y007017D01*
X009876Y006946D01*
X009722Y006792D01*
X009639Y006592D01*
X009639Y006375D01*
X009722Y006174D01*
X009876Y006020D01*
X010076Y005937D01*
X010293Y005937D01*
X010494Y006020D01*
X010648Y006174D01*
X010731Y006375D01*
X010731Y006592D01*
X010648Y006792D01*
X010494Y006946D01*
X010353Y007004D01*
X010448Y007044D01*
X011556Y007044D01*
X011703Y007105D01*
X011780Y007182D01*
X014539Y007182D01*
X014724Y006997D01*
X014600Y006946D01*
X014447Y006792D01*
X014364Y006592D01*
X014364Y006375D01*
X014447Y006174D01*
X014509Y006111D01*
X014509Y005526D01*
X014511Y005521D01*
X010355Y005521D01*
X009372Y006503D01*
X009372Y006592D01*
X009289Y006792D01*
X009136Y006946D01*
X008935Y007029D01*
X008718Y007029D01*
X008518Y006946D01*
X008364Y006792D01*
X008281Y006592D01*
X008281Y006375D01*
X008364Y006174D01*
X008518Y006020D01*
X008718Y005937D01*
X008807Y005937D01*
X009962Y004782D01*
X010109Y004721D01*
X014657Y004721D01*
X015049Y004329D01*
X015120Y004300D01*
X009244Y004300D01*
X008745Y004798D01*
X008745Y004838D01*
X008676Y005006D01*
X008547Y005135D01*
X008378Y005205D01*
X008196Y005205D01*
X008028Y005135D01*
X007899Y005006D01*
X007829Y004838D01*
X007829Y004656D01*
X007874Y004547D01*
X007525Y004896D01*
X007525Y004936D01*
X007455Y005105D01*
X007326Y005234D01*
X007158Y005303D01*
X006976Y005303D01*
X006807Y005234D01*
X006678Y005105D01*
X006609Y004936D01*
X006609Y004754D01*
X006678Y004586D01*
X006807Y004457D01*
X006976Y004387D01*
X007016Y004387D01*
X007962Y003441D01*
X008064Y003339D01*
X008196Y003285D01*
X013971Y003285D01*
X013971Y003217D01*
X011212Y003217D01*
X011079Y003162D01*
X010978Y003061D01*
X010222Y002304D01*
X010076Y002304D01*
X009876Y002221D01*
X009722Y002068D01*
X009639Y001867D01*
X009639Y001650D01*
X009716Y001465D01*
X009629Y001465D01*
X009372Y001722D01*
X009372Y001867D01*
X009289Y002068D01*
X009136Y002221D01*
X008935Y002304D01*
X008718Y002304D01*
X008518Y002221D01*
X008364Y002068D01*
X008281Y001867D01*
X008281Y001650D01*
X008364Y001450D01*
X008518Y001296D01*
X008718Y001213D01*
X008863Y001213D01*
X009276Y000800D01*
X009409Y000745D01*
X011095Y000745D01*
X011227Y000800D01*
X011329Y000901D01*
X012393Y001966D01*
X012396Y001966D01*
X012396Y001944D01*
X012367Y001916D01*
X012298Y001748D01*
X012298Y001565D01*
X012335Y001474D01*
X012238Y001434D01*
X012084Y001280D01*
X012001Y001080D01*
X012001Y000863D01*
X012084Y000662D01*
X012167Y000580D01*
X006845Y000580D01*
X006927Y000662D01*
X007010Y000863D01*
X007010Y001080D01*
X006927Y001280D01*
X006774Y001434D01*
X006573Y001517D01*
X006356Y001517D01*
X006155Y001434D01*
X006002Y001280D01*
X005919Y001080D01*
X005919Y000863D01*
X006002Y000662D01*
X006084Y000580D01*
X002427Y000580D01*
X002427Y001135D01*
X003193Y001135D01*
X003406Y001224D01*
X003569Y001387D01*
X003617Y001503D01*
X003640Y001450D01*
X003793Y001296D01*
X003994Y001213D01*
X004211Y001213D01*
X004411Y001296D01*
X004565Y001450D01*
X004648Y001650D01*
X004648Y001867D01*
X004565Y002068D01*
X004411Y002221D01*
X004211Y002304D01*
X004113Y002304D01*
X004159Y002416D01*
X004159Y004409D01*
X006374Y006624D01*
X006469Y006720D01*
X006521Y006845D01*
X006521Y007293D01*
X006569Y007342D01*
X006639Y007510D01*
X006639Y007634D01*
X006639Y007574D02*
X009774Y007574D01*
X009766Y007335D02*
X006563Y007335D01*
X006521Y007097D02*
X009916Y007097D01*
X009788Y006858D02*
X009224Y006858D01*
X009361Y006620D02*
X009651Y006620D01*
X009639Y006381D02*
X009494Y006381D01*
X009733Y006143D02*
X009754Y006143D01*
X009971Y005904D02*
X014509Y005904D01*
X014509Y005666D02*
X010210Y005666D01*
X010616Y006143D02*
X014478Y006143D01*
X014364Y006381D02*
X010731Y006381D01*
X010719Y006620D02*
X014375Y006620D01*
X014512Y006858D02*
X010582Y006858D01*
X010216Y007444D02*
X011476Y007444D01*
X011614Y007582D01*
X014705Y007582D01*
X015413Y006873D01*
X015413Y005810D01*
X015748Y005475D01*
X019646Y005475D01*
X019882Y005711D01*
X019882Y006341D01*
X020807Y007267D01*
X020073Y007812D02*
X019950Y007812D01*
X019927Y007790D02*
X020468Y008330D01*
X021182Y008330D01*
X021312Y008461D01*
X021312Y008041D01*
X021182Y008172D01*
X020432Y008172D01*
X019927Y007667D01*
X019927Y007790D01*
X020188Y008051D02*
X020311Y008051D01*
X020427Y008289D02*
X021312Y008289D01*
X021303Y008051D02*
X021312Y008051D01*
X020807Y009235D02*
X019527Y007956D01*
X019198Y008192D02*
X019198Y008893D01*
X019144Y009026D01*
X018411Y009758D01*
X018411Y010379D01*
X018605Y010379D01*
X018934Y010379D01*
X018990Y010394D01*
X019040Y010423D01*
X019081Y010464D01*
X019110Y010514D01*
X019125Y010570D01*
X019125Y010749D01*
X019125Y010928D01*
X019110Y010984D01*
X019081Y011034D01*
X019040Y011075D01*
X018990Y011104D01*
X018934Y011119D01*
X018605Y011119D01*
X018605Y010749D01*
X019125Y010749D01*
X018605Y010749D01*
X018605Y010749D01*
X018605Y010749D01*
X018605Y010379D01*
X018605Y010749D01*
X018605Y010749D01*
X018605Y011119D01*
X018411Y011119D01*
X018411Y011819D01*
X018960Y011819D01*
X019063Y011862D01*
X019142Y011940D01*
X019185Y012043D01*
X019185Y012455D01*
X019142Y012558D01*
X019063Y012636D01*
X018960Y012679D01*
X018753Y012679D01*
X018814Y012704D01*
X018976Y012866D01*
X019021Y012974D01*
X019047Y012922D01*
X019095Y012856D01*
X019152Y012799D01*
X019218Y012751D01*
X019290Y012714D01*
X019367Y012689D01*
X019448Y012677D01*
X019488Y012677D01*
X019488Y013487D01*
X019488Y013487D01*
X019488Y012677D01*
X019529Y012677D01*
X019609Y012689D01*
X019686Y012714D01*
X019758Y012751D01*
X019824Y012799D01*
X019881Y012856D01*
X019929Y012922D01*
X019956Y012974D01*
X020000Y012866D01*
X020162Y012704D01*
X020340Y012630D01*
X020267Y012558D01*
X020225Y012455D01*
X020225Y012043D01*
X020267Y011940D01*
X020346Y011862D01*
X020449Y011819D01*
X021160Y011819D01*
X021263Y011862D01*
X021312Y011911D01*
X021312Y011087D01*
X021263Y011136D01*
X021160Y011179D01*
X020449Y011179D01*
X020346Y011136D01*
X020267Y011058D01*
X020225Y010955D01*
X020225Y010543D01*
X020267Y010440D01*
X020346Y010362D01*
X020449Y010319D01*
X021160Y010319D01*
X021263Y010362D01*
X021312Y010411D01*
X021312Y010009D01*
X021182Y010140D01*
X020432Y010140D01*
X019902Y009610D01*
X019902Y008896D01*
X019301Y008295D01*
X019301Y008295D01*
X019198Y008192D01*
X019198Y008289D02*
X019295Y008289D01*
X019198Y008528D02*
X019534Y008528D01*
X019772Y008766D02*
X019198Y008766D01*
X019152Y009005D02*
X019902Y009005D01*
X019902Y009243D02*
X018926Y009243D01*
X018688Y009482D02*
X019902Y009482D01*
X020012Y009720D02*
X018449Y009720D01*
X018411Y009959D02*
X020251Y009959D01*
X020272Y010436D02*
X019052Y010436D01*
X019125Y010674D02*
X020225Y010674D01*
X020225Y010913D02*
X019125Y010913D01*
X018605Y010913D02*
X018605Y010913D01*
X018605Y010674D02*
X018605Y010674D01*
X018605Y010436D02*
X018605Y010436D01*
X018411Y010197D02*
X021312Y010197D01*
X021312Y011151D02*
X021228Y011151D01*
X021312Y011390D02*
X018411Y011390D01*
X018411Y011628D02*
X021312Y011628D01*
X021312Y011867D02*
X021268Y011867D01*
X021312Y012587D02*
X021312Y015507D01*
X021293Y015459D01*
X021158Y015324D01*
X020981Y015251D01*
X020590Y015251D01*
X020722Y015120D01*
X020845Y014996D01*
X020912Y014834D01*
X020912Y014172D01*
X020976Y014108D01*
X021063Y013897D01*
X021063Y013077D01*
X020976Y012866D01*
X020814Y012704D01*
X020753Y012679D01*
X021160Y012679D01*
X021263Y012636D01*
X021312Y012587D01*
X021312Y012821D02*
X020930Y012821D01*
X021056Y013059D02*
X021312Y013059D01*
X021312Y013298D02*
X021063Y013298D01*
X021063Y013536D02*
X021312Y013536D01*
X021312Y013775D02*
X021063Y013775D01*
X021015Y014013D02*
X021312Y014013D01*
X021312Y014252D02*
X020912Y014252D01*
X020912Y014490D02*
X021312Y014490D01*
X021312Y014729D02*
X020912Y014729D01*
X020857Y014967D02*
X021312Y014967D01*
X021312Y015206D02*
X020636Y015206D01*
X021277Y015444D02*
X021312Y015444D01*
X021312Y015955D02*
X021293Y016003D01*
X021235Y016061D01*
X021312Y016138D01*
X021312Y015955D01*
X020032Y014565D02*
X019818Y014779D01*
X018621Y014779D01*
X018737Y014663D01*
X018861Y014539D01*
X018928Y014378D01*
X018928Y014156D01*
X018976Y014108D01*
X019021Y014000D01*
X019047Y014052D01*
X019095Y014118D01*
X019152Y014175D01*
X019218Y014223D01*
X019290Y014260D01*
X019367Y014285D01*
X019448Y014298D01*
X019488Y014298D01*
X019488Y013487D01*
X019488Y013487D01*
X019488Y014298D01*
X019529Y014298D01*
X019609Y014285D01*
X019686Y014260D01*
X019758Y014223D01*
X019824Y014175D01*
X019881Y014118D01*
X019929Y014052D01*
X019956Y014000D01*
X020000Y014108D01*
X020032Y014140D01*
X020032Y014565D01*
X020032Y014490D02*
X018882Y014490D01*
X018672Y014729D02*
X019869Y014729D01*
X020032Y014252D02*
X019702Y014252D01*
X019488Y014252D02*
X019488Y014252D01*
X019274Y014252D02*
X018928Y014252D01*
X019015Y014013D02*
X019027Y014013D01*
X019488Y014013D02*
X019488Y014013D01*
X019488Y013775D02*
X019488Y013775D01*
X019488Y013536D02*
X019488Y013536D01*
X019488Y013298D02*
X019488Y013298D01*
X019488Y013059D02*
X019488Y013059D01*
X019488Y012821D02*
X019488Y012821D01*
X019131Y012821D02*
X018930Y012821D01*
X019117Y012582D02*
X020292Y012582D01*
X020225Y012344D02*
X019185Y012344D01*
X019185Y012105D02*
X020225Y012105D01*
X020341Y011867D02*
X019068Y011867D01*
X018411Y011151D02*
X020382Y011151D01*
X020046Y012821D02*
X019846Y012821D01*
X019949Y014013D02*
X019961Y014013D01*
X018236Y012674D02*
X018146Y012636D01*
X018116Y012606D01*
X018116Y012751D01*
X018162Y012704D01*
X018236Y012674D01*
X017961Y014013D02*
X017877Y014013D01*
X017905Y014252D02*
X017352Y014252D01*
X016793Y015206D02*
X015793Y015206D01*
X015663Y015444D02*
X015555Y015444D01*
X015502Y015683D02*
X015316Y015683D01*
X015495Y015921D02*
X015078Y015921D01*
X014839Y016160D02*
X015647Y016160D01*
X016157Y016398D02*
X014595Y016398D01*
X014138Y016637D02*
X016157Y016637D01*
X016157Y016875D02*
X014138Y016875D01*
X014138Y017114D02*
X016157Y017114D01*
X016292Y017352D02*
X014003Y017352D01*
X014078Y018306D02*
X016217Y018306D01*
X016217Y018545D02*
X014078Y018545D01*
X014078Y018783D02*
X016217Y018783D01*
X016217Y019260D02*
X014078Y019260D01*
X013486Y018545D02*
X013246Y018545D01*
X013246Y018306D02*
X013486Y018306D01*
X012654Y018306D02*
X010417Y018306D01*
X010417Y018545D02*
X012654Y018545D01*
X012654Y018783D02*
X010417Y018783D01*
X010417Y019260D02*
X012654Y019260D01*
X012729Y017352D02*
X010342Y017352D01*
X010477Y017114D02*
X012594Y017114D01*
X012594Y016875D02*
X010477Y016875D01*
X010477Y015921D02*
X012594Y015921D01*
X012594Y015683D02*
X010477Y015683D01*
X008932Y015683D02*
X006933Y015683D01*
X006933Y015921D02*
X008932Y015921D01*
X008932Y016875D02*
X006933Y016875D01*
X006933Y017114D02*
X008932Y017114D01*
X009067Y017352D02*
X006799Y017352D01*
X006873Y018306D02*
X008992Y018306D01*
X008992Y018545D02*
X006873Y018545D01*
X006873Y018783D02*
X008992Y018783D01*
X008992Y019260D02*
X006873Y019260D01*
X009585Y018545D02*
X009825Y018545D01*
X009825Y018306D02*
X009585Y018306D01*
X012220Y014967D02*
X006839Y014967D01*
X009396Y013757D02*
X009396Y013650D01*
X009368Y013583D01*
X009379Y013588D01*
X009382Y013588D01*
X009391Y013592D01*
X009554Y013592D01*
X009563Y013588D01*
X009565Y013588D01*
X009668Y013545D01*
X009733Y013481D01*
X009663Y013650D01*
X009663Y013800D01*
X009560Y013757D01*
X009396Y013757D01*
X009601Y013775D02*
X009663Y013775D01*
X009678Y013536D02*
X009710Y013536D01*
X010519Y013298D02*
X014622Y013298D01*
X014435Y013536D02*
X010707Y013536D01*
X010754Y013775D02*
X014387Y013775D01*
X014448Y014013D02*
X012710Y014013D01*
X012432Y014013D02*
X010694Y014013D01*
X009022Y012344D02*
X008965Y012344D01*
X007309Y010913D02*
X005043Y010913D01*
X005282Y010674D02*
X007180Y010674D01*
X007207Y010436D02*
X006711Y010436D01*
X006005Y010436D02*
X005520Y010436D01*
X005759Y010197D02*
X005900Y010197D01*
X005237Y009482D02*
X004451Y009482D01*
X005172Y007574D02*
X002427Y007574D01*
X002427Y007335D02*
X005236Y007335D01*
X005290Y007097D02*
X002427Y007097D01*
X002427Y006858D02*
X003705Y006858D01*
X003640Y006792D02*
X003793Y006946D01*
X003994Y007029D01*
X004211Y007029D01*
X004411Y006946D01*
X004565Y006792D01*
X004648Y006592D01*
X004648Y006375D01*
X004565Y006174D01*
X004411Y006020D01*
X004211Y005937D01*
X003994Y005937D01*
X003793Y006020D01*
X003640Y006174D01*
X003557Y006375D01*
X003557Y006592D01*
X003640Y006792D01*
X003568Y006620D02*
X002427Y006620D01*
X002427Y006381D02*
X003557Y006381D01*
X003671Y006143D02*
X002427Y006143D01*
X002427Y005904D02*
X004357Y005904D01*
X004533Y006143D02*
X004596Y006143D01*
X004648Y006381D02*
X004834Y006381D01*
X004636Y006620D02*
X005073Y006620D01*
X005290Y006858D02*
X004499Y006858D01*
X005654Y005904D02*
X008840Y005904D01*
X009079Y005666D02*
X005415Y005666D01*
X005177Y005427D02*
X009317Y005427D01*
X009556Y005189D02*
X008418Y005189D01*
X008699Y004950D02*
X009794Y004950D01*
X010189Y005121D02*
X008827Y006483D01*
X008430Y006858D02*
X006521Y006858D01*
X006369Y006620D02*
X008292Y006620D01*
X008281Y006381D02*
X006131Y006381D01*
X005892Y006143D02*
X008396Y006143D01*
X008156Y005189D02*
X007372Y005189D01*
X007519Y004950D02*
X007876Y004950D01*
X007829Y004712D02*
X007710Y004712D01*
X008087Y004334D02*
X008417Y004005D01*
X008521Y004005D01*
X008236Y004289D01*
X008196Y004289D01*
X008087Y004334D01*
X008187Y004235D02*
X008291Y004235D01*
X008832Y004712D02*
X014666Y004712D01*
X014905Y004473D02*
X009070Y004473D01*
X010189Y005121D02*
X014823Y005121D01*
X015275Y004668D01*
X018701Y004668D01*
X019350Y004019D01*
X019350Y003723D01*
X019744Y003330D01*
X020807Y003330D01*
X020194Y003996D02*
X019750Y003996D01*
X019750Y004098D02*
X019750Y003889D01*
X019910Y003730D01*
X019927Y003730D01*
X020432Y004235D01*
X021182Y004235D01*
X021312Y004104D01*
X021312Y004524D01*
X021182Y004393D01*
X020432Y004393D01*
X020144Y004682D01*
X019253Y004682D01*
X019689Y004245D01*
X019750Y004098D01*
X019694Y004235D02*
X020432Y004235D01*
X020352Y004473D02*
X019462Y004473D01*
X018902Y003901D02*
X018950Y003853D01*
X018950Y003644D01*
X019011Y003497D01*
X019124Y003384D01*
X019517Y002991D01*
X019664Y002930D01*
X019927Y002930D01*
X020432Y002425D01*
X021182Y002425D01*
X021312Y002555D01*
X021312Y002135D01*
X021182Y002266D01*
X020432Y002266D01*
X019902Y001736D01*
X019902Y000986D01*
X020308Y000580D01*
X018862Y000580D01*
X018902Y000675D01*
X018902Y001073D01*
X019047Y001218D01*
X019087Y001218D01*
X019255Y001288D01*
X019384Y001417D01*
X019454Y001585D01*
X019454Y001767D01*
X019384Y001936D01*
X019255Y002064D01*
X019087Y002134D01*
X018905Y002134D01*
X018871Y002120D01*
X018860Y002149D01*
X018902Y002250D01*
X018902Y002834D01*
X018860Y002936D01*
X018902Y003038D01*
X018902Y003622D01*
X018860Y003723D01*
X018902Y003825D01*
X018902Y003901D01*
X018874Y003758D02*
X018950Y003758D01*
X018902Y003519D02*
X019002Y003519D01*
X018902Y003281D02*
X019227Y003281D01*
X019466Y003042D02*
X018902Y003042D01*
X018902Y002804D02*
X020053Y002804D01*
X020292Y002565D02*
X018902Y002565D01*
X018902Y002327D02*
X021312Y002327D01*
X020254Y002088D02*
X019199Y002088D01*
X019420Y001850D02*
X020016Y001850D01*
X019902Y001611D02*
X019454Y001611D01*
X019340Y001373D02*
X019902Y001373D01*
X019902Y001134D02*
X018963Y001134D01*
X018902Y000896D02*
X019993Y000896D01*
X020231Y000657D02*
X018894Y000657D01*
X021306Y000580D02*
X021312Y000587D01*
X021312Y000580D01*
X021306Y000580D01*
X019955Y003758D02*
X019882Y003758D01*
X021182Y004235D02*
X021312Y004235D01*
X021312Y004473D02*
X021262Y004473D01*
X020590Y005082D02*
X020807Y005298D01*
X020590Y005082D02*
X015433Y005082D01*
X014909Y005605D01*
X014909Y006483D01*
X014624Y007097D02*
X011683Y007097D01*
X010518Y008528D02*
X010411Y008528D01*
X010006Y008528D02*
X009053Y008528D01*
X009330Y008766D02*
X009729Y008766D01*
X009663Y009005D02*
X009396Y009005D01*
X009355Y009243D02*
X009704Y009243D01*
X009884Y009482D02*
X009175Y009482D01*
X010533Y009482D02*
X010562Y009482D01*
X010713Y009243D02*
X013656Y009243D01*
X014232Y008867D02*
X014374Y008925D01*
X014387Y008939D01*
X014387Y008926D01*
X014412Y008867D01*
X014232Y008867D01*
X015384Y009355D02*
X016070Y009355D01*
X016202Y009224D01*
X016222Y009215D01*
X016202Y009207D01*
X016039Y009044D01*
X015966Y008867D01*
X015454Y008867D01*
X015479Y008926D01*
X015479Y009143D01*
X015396Y009343D01*
X015384Y009355D01*
X015437Y009243D02*
X016183Y009243D01*
X016023Y009005D02*
X015479Y009005D01*
X015433Y008147D02*
X016142Y008147D01*
X016039Y008044D01*
X015951Y007831D01*
X015951Y007630D01*
X015433Y008147D01*
X015530Y008051D02*
X016045Y008051D01*
X015951Y007812D02*
X015768Y007812D01*
X016148Y007278D02*
X016202Y007224D01*
X016222Y007215D01*
X016202Y007207D01*
X016148Y007153D01*
X016148Y007278D01*
X017439Y007215D02*
X017459Y007224D01*
X017524Y007288D01*
X017558Y007206D01*
X017637Y007128D01*
X017694Y007104D01*
X017646Y007056D01*
X017611Y007056D01*
X017459Y007207D01*
X017439Y007215D01*
X017570Y007097D02*
X017687Y007097D01*
X018228Y006620D02*
X019127Y006620D01*
X019127Y006381D02*
X017976Y006381D01*
X018425Y006858D02*
X019127Y006858D01*
X020282Y006176D02*
X020468Y006362D01*
X021182Y006362D01*
X021312Y006492D01*
X021312Y006072D01*
X021182Y006203D01*
X020432Y006203D01*
X020282Y006053D01*
X020282Y006176D01*
X020282Y006143D02*
X020372Y006143D01*
X021201Y006381D02*
X021312Y006381D01*
X021312Y006143D02*
X021242Y006143D01*
X018246Y008905D02*
X018116Y009035D01*
X018116Y008905D01*
X018246Y008905D01*
X018147Y009005D02*
X018116Y009005D01*
X017515Y008280D02*
X017515Y008151D01*
X017459Y008207D01*
X017439Y008215D01*
X017459Y008224D01*
X017515Y008280D01*
X015548Y004268D02*
X015355Y004268D01*
X015325Y004268D01*
X015381Y004245D01*
X015548Y004078D01*
X015548Y004109D01*
X016016Y004109D01*
X016016Y004125D01*
X015548Y004125D01*
X015548Y004268D01*
X015548Y004235D02*
X015392Y004235D01*
X015266Y003105D02*
X015347Y003024D01*
X015479Y002970D01*
X015491Y002970D01*
X015505Y002936D01*
X015491Y002902D01*
X015306Y002902D01*
X015154Y003055D01*
X015259Y003099D01*
X015266Y003105D01*
X015330Y003042D02*
X015167Y003042D01*
X013971Y003281D02*
X004159Y003281D01*
X004159Y003519D02*
X007884Y003519D01*
X007646Y003758D02*
X004159Y003758D01*
X004159Y003996D02*
X007407Y003996D01*
X007169Y004235D02*
X004159Y004235D01*
X004223Y004473D02*
X006791Y004473D01*
X006626Y004712D02*
X004461Y004712D01*
X004700Y004950D02*
X006614Y004950D01*
X006762Y005189D02*
X004938Y005189D01*
X004119Y005666D02*
X002427Y005666D01*
X002427Y005427D02*
X003880Y005427D01*
X003642Y005189D02*
X002427Y005189D01*
X002427Y004950D02*
X003403Y004950D01*
X003206Y004712D02*
X002427Y004712D01*
X002427Y004473D02*
X003184Y004473D01*
X003184Y004235D02*
X003124Y004235D01*
X002777Y004235D02*
X002777Y004235D01*
X002777Y003715D01*
X002777Y003715D01*
X002777Y004235D01*
X002777Y003996D02*
X002777Y003996D01*
X002777Y003758D02*
X002777Y003758D01*
X002431Y004235D02*
X002427Y004235D01*
X004159Y003042D02*
X010959Y003042D01*
X010721Y002804D02*
X004159Y002804D01*
X004159Y002565D02*
X010482Y002565D01*
X010244Y002327D02*
X004122Y002327D01*
X004545Y002088D02*
X008384Y002088D01*
X008281Y001850D02*
X004648Y001850D01*
X004632Y001611D02*
X008297Y001611D01*
X008441Y001373D02*
X006835Y001373D01*
X006988Y001134D02*
X008942Y001134D01*
X009181Y000896D02*
X007010Y000896D01*
X006922Y000657D02*
X012090Y000657D01*
X012001Y000896D02*
X011323Y000896D01*
X011561Y001134D02*
X012024Y001134D01*
X012177Y001373D02*
X011800Y001373D01*
X012038Y001611D02*
X012298Y001611D01*
X012277Y001850D02*
X012340Y001850D01*
X011736Y002327D02*
X011262Y002327D01*
X011432Y002497D02*
X011906Y002497D01*
X010874Y001465D01*
X010654Y001465D01*
X010731Y001650D01*
X010731Y001795D01*
X011432Y002497D01*
X011497Y002088D02*
X011023Y002088D01*
X011259Y001850D02*
X010785Y001850D01*
X010714Y001611D02*
X011020Y001611D01*
X009742Y002088D02*
X009269Y002088D01*
X009372Y001850D02*
X009639Y001850D01*
X009655Y001611D02*
X009484Y001611D01*
X006094Y001373D02*
X004488Y001373D01*
X003717Y001373D02*
X003555Y001373D01*
X002427Y001134D02*
X005941Y001134D01*
X005919Y000896D02*
X002427Y000896D01*
X002427Y000657D02*
X006007Y000657D01*
X012928Y000580D02*
X013010Y000662D01*
X013093Y000863D01*
X013093Y001080D01*
X013015Y001268D01*
X013015Y001268D01*
X013144Y001397D01*
X013214Y001565D01*
X013214Y001748D01*
X013144Y001916D01*
X013116Y001944D01*
X013116Y001966D01*
X014114Y001966D01*
X013973Y001907D01*
X013844Y001778D01*
X013774Y001610D01*
X013774Y001427D01*
X013844Y001259D01*
X013973Y001130D01*
X014141Y001060D01*
X014181Y001060D01*
X014579Y000662D01*
X014712Y000607D01*
X015491Y000607D01*
X015503Y000580D01*
X012928Y000580D01*
X013005Y000657D02*
X014592Y000657D01*
X014346Y000896D02*
X013093Y000896D01*
X013070Y001134D02*
X013969Y001134D01*
X013797Y001373D02*
X013120Y001373D01*
X013214Y001611D02*
X013775Y001611D01*
X013915Y001850D02*
X013172Y001850D01*
X015250Y001327D02*
X015372Y001450D01*
X015372Y001451D01*
X015460Y001414D01*
X015488Y001414D01*
X015488Y001404D01*
X015505Y001361D01*
X015491Y001327D01*
X015250Y001327D01*
X015295Y001373D02*
X015501Y001373D01*
X014697Y014252D02*
X013039Y014252D01*
X017049Y019022D02*
X019902Y019022D01*
X019906Y019260D02*
X017641Y019260D01*
X002500Y017258D02*
X002427Y017186D01*
X002427Y017330D01*
X002500Y017258D01*
D217*
X003268Y017225D03*
X005020Y017247D03*
X005216Y016086D03*
X003268Y014767D03*
X004901Y012365D03*
X004764Y011519D03*
X006358Y010141D03*
X007638Y010593D03*
X007972Y009865D03*
X008799Y009806D03*
X010886Y009806D03*
X011653Y010239D03*
X011240Y011204D03*
X010650Y012483D03*
X009468Y014215D03*
X014035Y014491D03*
X014390Y015987D03*
X015945Y015810D03*
X020886Y015731D03*
X014114Y009314D03*
X012027Y007168D03*
X010216Y007444D03*
X010925Y008743D03*
X006712Y007326D03*
X006181Y007601D03*
X005630Y007582D03*
X005945Y008487D03*
X005315Y008487D03*
X007067Y004845D03*
X008287Y004747D03*
X010354Y003172D03*
X012756Y001656D03*
X014232Y001519D03*
X014429Y003271D03*
X015000Y003487D03*
X018996Y001676D03*
X004409Y002818D03*
X007520Y018881D03*
X011142Y018881D03*
D218*
X009705Y016420D02*
X006161Y016420D01*
X009705Y016420D02*
X013366Y016420D01*
X013405Y015987D01*
X014390Y015987D01*
X015630Y014747D01*
X018031Y014747D01*
X018488Y014290D01*
X018488Y013487D01*
X017401Y015219D02*
X020000Y015219D01*
X020472Y014747D01*
X020472Y013503D01*
X020488Y013487D01*
X017401Y015219D02*
X016949Y015672D01*
X016949Y016007D01*
X016929Y016420D01*
X016319Y015810D01*
X015945Y015810D01*
X017067Y015889D02*
X016929Y016420D01*
D219*
X019272Y016400D02*
X019941Y015731D01*
X020886Y015731D01*
X019272Y016400D02*
X019272Y017345D01*
X020807Y018881D01*
D220*
X006181Y007601D02*
X006181Y006912D01*
X003858Y004589D01*
X003819Y004589D01*
X003819Y002483D01*
X003051Y001715D01*
X002777Y001715D01*
X002777Y002715D02*
X002781Y002719D01*
X003268Y002719D01*
X003524Y002975D01*
X003524Y004589D01*
X005630Y006696D01*
X005630Y007582D01*
X005945Y008487D02*
X005945Y009530D01*
X004705Y010771D01*
X004468Y010771D01*
X004252Y010987D01*
X004252Y012897D01*
X003445Y013704D01*
X002789Y013704D01*
X002777Y013715D01*
X002777Y012715D02*
X003764Y012715D01*
X004035Y012444D01*
X004035Y010908D01*
X004370Y010574D01*
X004626Y010574D01*
X005728Y009471D01*
X005728Y009038D01*
X005315Y008625D01*
X005315Y008487D01*
M02*
