G75*
%MOIN*%
%OFA0B0*%
%FSLAX24Y24*%
%IPPOS*%
%LPD*%
%AMOC8*
5,1,8,0,0,1.08239X$1,22.5*
%
%ADD10C,0.0160*%
%ADD11C,0.0000*%
D10*
X002234Y000180D02*
X021919Y000180D01*
X021919Y019865D01*
X003888Y019865D01*
X002234Y018211D01*
X002234Y000180D01*
D11*
X003888Y018979D02*
X003890Y019019D01*
X003896Y019060D01*
X003906Y019099D01*
X003919Y019137D01*
X003937Y019174D01*
X003958Y019208D01*
X003982Y019241D01*
X004009Y019271D01*
X004039Y019298D01*
X004072Y019322D01*
X004106Y019343D01*
X004143Y019361D01*
X004181Y019374D01*
X004220Y019384D01*
X004261Y019390D01*
X004301Y019392D01*
X004341Y019390D01*
X004382Y019384D01*
X004421Y019374D01*
X004459Y019361D01*
X004496Y019343D01*
X004530Y019322D01*
X004563Y019298D01*
X004593Y019271D01*
X004620Y019241D01*
X004644Y019208D01*
X004665Y019174D01*
X004683Y019137D01*
X004696Y019099D01*
X004706Y019060D01*
X004712Y019019D01*
X004714Y018979D01*
X004712Y018939D01*
X004706Y018898D01*
X004696Y018859D01*
X004683Y018821D01*
X004665Y018784D01*
X004644Y018750D01*
X004620Y018717D01*
X004593Y018687D01*
X004563Y018660D01*
X004530Y018636D01*
X004496Y018615D01*
X004459Y018597D01*
X004421Y018584D01*
X004382Y018574D01*
X004341Y018568D01*
X004301Y018566D01*
X004261Y018568D01*
X004220Y018574D01*
X004181Y018584D01*
X004143Y018597D01*
X004106Y018615D01*
X004072Y018636D01*
X004039Y018660D01*
X004009Y018687D01*
X003982Y018717D01*
X003958Y018750D01*
X003937Y018784D01*
X003919Y018821D01*
X003906Y018859D01*
X003896Y018898D01*
X003890Y018939D01*
X003888Y018979D01*
M02*
