%
M48
M72
T01C0.0236
T02C0.0354
T03C0.0394
T04C0.0400
T05C0.0520
T06C0.0827
%
T01
X4409Y2818
X7067Y4845
X8287Y4747
X10354Y3172
X12756Y1656
X14232Y1519
X14429Y3271
X15000Y3487
X18996Y1676
X12027Y7168
X10216Y7444
X10925Y8743
X10886Y9806
X11653Y10239
X11240Y11204
X10650Y12483
X9468Y14215
X7638Y10593
X7972Y9865
X8799Y9806
X6358Y10141
X4764Y11519
X4901Y12365
X3268Y14767
X5216Y16086
X5020Y17247
X3268Y17225
X7520Y18881
X11142Y18881
X14390Y15987
X14035Y14491
X15945Y15810
X20886Y15731
X14114Y9314
X6712Y7326
X6181Y7601
X5630Y7582
X5945Y8487
X5315Y8487
T02
X4126Y9034
X4102Y6483
X8827Y6483
X10185Y6483
X10209Y9034
X8850Y9034
X8850Y13759
X10209Y13759
X12571Y14546
X14933Y13759
X14933Y9034
X14909Y6483
X14909Y1759
X12547Y971
X10185Y1759
X8827Y1759
X6464Y971
X4102Y1759
X4126Y13759
X6488Y14546
T03
X18488Y13487
X19488Y13487
X20488Y13487
T04
X2777Y1715
X2777Y2715
X2777Y3715
X2777Y8715
X2777Y9715
X2777Y10715
X2777Y11715
X2777Y12715
X2777Y13715
X2777Y15715
X3777Y15715
X3777Y16715
X2777Y16715
X2777Y17715
X3777Y17715
X16831Y13715
X16831Y12715
X16831Y11715
X16831Y10715
X16831Y9715
X16831Y8715
X16831Y7715
X16831Y6715
T05
X20807Y7267
X20807Y9235
X20807Y5298
X20807Y3330
X20807Y1361
X20807Y16912
X20807Y18881
T06
X4094Y18979
M30
