G75*
%MOIN*%
%OFA0B0*%
%FSLAX24Y24*%
%IPPOS*%
%LPD*%
%AMOC8*
5,1,8,0,0,1.08239X$1,22.5*
%
%ADD10C,0.0160*%
%ADD11C,0.0000*%
%ADD12R,0.0480X0.0880*%
%ADD13R,0.1417X0.0866*%
%ADD14R,0.0160X0.0480*%
%ADD15R,0.0591X0.0512*%
%ADD16R,0.0945X0.0945*%
%ADD17R,0.0748X0.0669*%
D10*
X002234Y000180D02*
X021919Y000180D01*
X021919Y019865D01*
X003888Y019865D01*
X002234Y018211D01*
X002234Y000180D01*
D11*
X003888Y018979D02*
X003890Y019019D01*
X003896Y019060D01*
X003906Y019099D01*
X003919Y019137D01*
X003937Y019174D01*
X003958Y019208D01*
X003982Y019241D01*
X004009Y019271D01*
X004039Y019298D01*
X004072Y019322D01*
X004106Y019343D01*
X004143Y019361D01*
X004181Y019374D01*
X004220Y019384D01*
X004261Y019390D01*
X004301Y019392D01*
X004341Y019390D01*
X004382Y019384D01*
X004421Y019374D01*
X004459Y019361D01*
X004496Y019343D01*
X004530Y019322D01*
X004563Y019298D01*
X004593Y019271D01*
X004620Y019241D01*
X004644Y019208D01*
X004665Y019174D01*
X004683Y019137D01*
X004696Y019099D01*
X004706Y019060D01*
X004712Y019019D01*
X004714Y018979D01*
X004712Y018939D01*
X004706Y018898D01*
X004696Y018859D01*
X004683Y018821D01*
X004665Y018784D01*
X004644Y018750D01*
X004620Y018717D01*
X004593Y018687D01*
X004563Y018660D01*
X004530Y018636D01*
X004496Y018615D01*
X004459Y018597D01*
X004421Y018584D01*
X004382Y018574D01*
X004341Y018568D01*
X004301Y018566D01*
X004261Y018568D01*
X004220Y018574D01*
X004181Y018584D01*
X004143Y018597D01*
X004106Y018615D01*
X004072Y018636D01*
X004039Y018660D01*
X004009Y018687D01*
X003982Y018717D01*
X003958Y018750D01*
X003937Y018784D01*
X003919Y018821D01*
X003906Y018859D01*
X003896Y018898D01*
X003890Y018939D01*
X003888Y018979D01*
D12*
X005655Y009176D03*
X006565Y009176D03*
X007475Y009176D03*
X007750Y006321D03*
X006840Y006321D03*
X005931Y006321D03*
X011895Y006302D03*
X012805Y006302D03*
X013715Y006302D03*
X013735Y009216D03*
X012825Y009216D03*
X011915Y009216D03*
D13*
X012825Y011656D03*
X006565Y011617D03*
X006840Y003881D03*
X012805Y003861D03*
D14*
X008108Y016735D03*
X007608Y016735D03*
X007108Y016735D03*
X007108Y017995D03*
X007608Y017995D03*
X008108Y017995D03*
D15*
X008829Y011164D03*
X008829Y010416D03*
X010600Y010357D03*
X010600Y011105D03*
X004321Y010711D03*
X004321Y009963D03*
X004655Y004727D03*
X004655Y003979D03*
X010758Y004255D03*
X010758Y005003D03*
D16*
X012018Y002306D03*
X013750Y002306D03*
X007746Y002365D03*
X006014Y002365D03*
X011998Y013211D03*
X013730Y013211D03*
X007411Y013271D03*
X005679Y013271D03*
D17*
X014773Y016735D03*
X014773Y018743D03*
X018317Y018743D03*
X018317Y016735D03*
M02*
