G75*
%MOIN*%
%OFA0B0*%
%FSLAX24Y24*%
%IPPOS*%
%LPD*%
%AMOC8*
5,1,8,0,0,1.08239X$1,22.5*
%
%ADD10C,0.0160*%
%ADD11C,0.0000*%
D10*
X002027Y000180D02*
X021712Y000180D01*
X021712Y019865D01*
X003681Y019865D01*
X002027Y018211D01*
X002027Y000180D01*
D11*
X003681Y018979D02*
X003683Y019019D01*
X003689Y019060D01*
X003699Y019099D01*
X003712Y019137D01*
X003730Y019174D01*
X003751Y019208D01*
X003775Y019241D01*
X003802Y019271D01*
X003832Y019298D01*
X003865Y019322D01*
X003899Y019343D01*
X003936Y019361D01*
X003974Y019374D01*
X004013Y019384D01*
X004054Y019390D01*
X004094Y019392D01*
X004134Y019390D01*
X004175Y019384D01*
X004214Y019374D01*
X004252Y019361D01*
X004289Y019343D01*
X004323Y019322D01*
X004356Y019298D01*
X004386Y019271D01*
X004413Y019241D01*
X004437Y019208D01*
X004458Y019174D01*
X004476Y019137D01*
X004489Y019099D01*
X004499Y019060D01*
X004505Y019019D01*
X004507Y018979D01*
X004505Y018939D01*
X004499Y018898D01*
X004489Y018859D01*
X004476Y018821D01*
X004458Y018784D01*
X004437Y018750D01*
X004413Y018717D01*
X004386Y018687D01*
X004356Y018660D01*
X004323Y018636D01*
X004289Y018615D01*
X004252Y018597D01*
X004214Y018584D01*
X004175Y018574D01*
X004134Y018568D01*
X004094Y018566D01*
X004054Y018568D01*
X004013Y018574D01*
X003974Y018584D01*
X003936Y018597D01*
X003899Y018615D01*
X003865Y018636D01*
X003832Y018660D01*
X003802Y018687D01*
X003775Y018717D01*
X003751Y018750D01*
X003730Y018784D01*
X003712Y018821D01*
X003699Y018859D01*
X003689Y018898D01*
X003683Y018939D01*
X003681Y018979D01*
M02*
