G75*
%MOIN*%
%OFA0B0*%
%FSLAX24Y24*%
%IPPOS*%
%LPD*%
%AMOC8*
5,1,8,0,0,1.08239X$1,22.5*
%
%ADD10C,0.0160*%
%ADD11C,0.0000*%
%ADD12C,0.0827*%
%ADD13OC8,0.1250*%
%ADD14R,0.0472X0.0472*%
%ADD15R,0.0512X0.0591*%
%ADD16C,0.0531*%
%ADD17C,0.0591*%
%ADD18R,0.0984X0.1378*%
%ADD19C,0.0600*%
%ADD20OC8,0.0600*%
%ADD21C,0.0600*%
%ADD22R,0.0600X0.0300*%
%ADD23R,0.0591X0.0512*%
D10*
X002234Y000180D02*
X021919Y000180D01*
X021919Y019865D01*
X003888Y019865D01*
X002234Y018211D01*
X002234Y000180D01*
D11*
X003888Y018979D02*
X003890Y019019D01*
X003896Y019060D01*
X003906Y019099D01*
X003919Y019137D01*
X003937Y019174D01*
X003958Y019208D01*
X003982Y019241D01*
X004009Y019271D01*
X004039Y019298D01*
X004072Y019322D01*
X004106Y019343D01*
X004143Y019361D01*
X004181Y019374D01*
X004220Y019384D01*
X004261Y019390D01*
X004301Y019392D01*
X004341Y019390D01*
X004382Y019384D01*
X004421Y019374D01*
X004459Y019361D01*
X004496Y019343D01*
X004530Y019322D01*
X004563Y019298D01*
X004593Y019271D01*
X004620Y019241D01*
X004644Y019208D01*
X004665Y019174D01*
X004683Y019137D01*
X004696Y019099D01*
X004706Y019060D01*
X004712Y019019D01*
X004714Y018979D01*
X004712Y018939D01*
X004706Y018898D01*
X004696Y018859D01*
X004683Y018821D01*
X004665Y018784D01*
X004644Y018750D01*
X004620Y018717D01*
X004593Y018687D01*
X004563Y018660D01*
X004530Y018636D01*
X004496Y018615D01*
X004459Y018597D01*
X004421Y018584D01*
X004382Y018574D01*
X004341Y018568D01*
X004301Y018566D01*
X004261Y018568D01*
X004220Y018574D01*
X004181Y018584D01*
X004143Y018597D01*
X004106Y018615D01*
X004072Y018636D01*
X004039Y018660D01*
X004009Y018687D01*
X003982Y018717D01*
X003958Y018750D01*
X003937Y018784D01*
X003919Y018821D01*
X003906Y018859D01*
X003896Y018898D01*
X003890Y018939D01*
X003888Y018979D01*
D12*
X004301Y018979D03*
D13*
X021014Y018881D03*
X021014Y016912D03*
X021014Y009235D03*
X021014Y007267D03*
X021014Y005298D03*
X021014Y003330D03*
X021014Y001361D03*
D14*
X018592Y000967D03*
X018592Y001755D03*
X018592Y002542D03*
X018592Y003330D03*
X018592Y004117D03*
X017766Y004117D03*
X017766Y003330D03*
X017766Y002542D03*
X017766Y001755D03*
X017766Y000967D03*
D15*
X016978Y000967D03*
X016230Y000967D03*
X016230Y001755D03*
X016978Y001755D03*
X016978Y002542D03*
X016230Y002542D03*
X016230Y003330D03*
X016978Y003330D03*
X016978Y004117D03*
X016230Y004117D03*
D16*
X015116Y001759D03*
X012754Y000971D03*
X010392Y001759D03*
X009033Y001759D03*
X006671Y000971D03*
X004309Y001759D03*
X004309Y006483D03*
X004333Y009034D03*
X009057Y009034D03*
X010415Y009034D03*
X010392Y006483D03*
X009033Y006483D03*
X015116Y006483D03*
X015140Y009034D03*
X015140Y013759D03*
X012777Y014546D03*
X010415Y013759D03*
X009057Y013759D03*
X006695Y014546D03*
X004333Y013759D03*
D17*
X018695Y013782D02*
X018695Y013192D01*
X019695Y013192D02*
X019695Y013782D01*
X020695Y013782D02*
X020695Y013192D01*
D18*
X017136Y016420D03*
X017136Y018979D03*
X013573Y018979D03*
X013573Y016420D03*
X009911Y016420D03*
X009911Y018979D03*
X006368Y018979D03*
X006368Y016420D03*
D19*
X003984Y015715D03*
D20*
X002984Y015715D03*
X002984Y016715D03*
X003984Y016715D03*
X003984Y017715D03*
X002984Y017715D03*
D21*
X003284Y013715D02*
X002684Y013715D01*
X002684Y012715D02*
X003284Y012715D01*
X003284Y011715D02*
X002684Y011715D01*
X002684Y010715D02*
X003284Y010715D01*
X003284Y009715D02*
X002684Y009715D01*
X002684Y008715D02*
X003284Y008715D01*
X003284Y003715D02*
X002684Y003715D01*
X002684Y002715D02*
X003284Y002715D01*
X003284Y001715D02*
X002684Y001715D01*
X016737Y006715D02*
X017337Y006715D01*
X017337Y007715D02*
X016737Y007715D01*
X016737Y008715D02*
X017337Y008715D01*
X017337Y009715D02*
X016737Y009715D01*
X016737Y010715D02*
X017337Y010715D01*
X017337Y011715D02*
X016737Y011715D01*
X016737Y012715D02*
X017337Y012715D01*
X017337Y013715D02*
X016737Y013715D01*
D22*
X018811Y012249D03*
X018811Y010749D03*
X021011Y010749D03*
X021011Y012249D03*
D23*
X018297Y008369D03*
X018297Y007621D03*
M02*
