G75*
%MOIN*%
%OFA0B0*%
%FSLAX24Y24*%
%IPPOS*%
%LPD*%
%AMOC8*
5,1,8,0,0,1.08239X$1,22.5*
%
%ADD10C,0.0160*%
%ADD11C,0.0240*%
%ADD12C,0.0000*%
%ADD13C,0.0060*%
%ADD14R,0.0118X0.0059*%
%ADD15R,0.0118X0.0118*%
%ADD16C,0.0030*%
%ADD17C,0.0080*%
%ADD18C,0.0020*%
%ADD19C,0.0050*%
%ADD20C,0.0040*%
%ADD21C,0.0010*%
D10*
X002027Y000180D02*
X021712Y000180D01*
X021712Y019865D01*
X003681Y019865D01*
X002027Y018211D01*
X002027Y000180D01*
X004390Y000180D02*
X016201Y000180D01*
X003563Y018979D02*
X003565Y019025D01*
X003571Y019070D01*
X003581Y019115D01*
X003594Y019158D01*
X003611Y019201D01*
X003632Y019241D01*
X003656Y019280D01*
X003684Y019316D01*
X003715Y019350D01*
X003748Y019382D01*
X003784Y019410D01*
X003822Y019435D01*
X003862Y019457D01*
X003904Y019475D01*
X003947Y019489D01*
X003992Y019500D01*
X004037Y019507D01*
X004083Y019510D01*
X004128Y019509D01*
X004174Y019504D01*
X004219Y019495D01*
X004262Y019483D01*
X004305Y019466D01*
X004346Y019446D01*
X004385Y019423D01*
X004423Y019396D01*
X004457Y019366D01*
X004489Y019334D01*
X004518Y019298D01*
X004544Y019261D01*
X004567Y019221D01*
X004586Y019180D01*
X004601Y019137D01*
X004613Y019092D01*
X004621Y019047D01*
X004625Y019002D01*
X004625Y018956D01*
X004621Y018911D01*
X004613Y018866D01*
X004601Y018821D01*
X004586Y018778D01*
X004567Y018737D01*
X004544Y018697D01*
X004518Y018660D01*
X004489Y018624D01*
X004457Y018592D01*
X004423Y018562D01*
X004385Y018535D01*
X004346Y018512D01*
X004305Y018492D01*
X004262Y018475D01*
X004219Y018463D01*
X004174Y018454D01*
X004128Y018449D01*
X004083Y018448D01*
X004037Y018451D01*
X003992Y018458D01*
X003947Y018469D01*
X003904Y018483D01*
X003862Y018501D01*
X003822Y018523D01*
X003784Y018548D01*
X003748Y018576D01*
X003715Y018608D01*
X003684Y018642D01*
X003656Y018678D01*
X003632Y018717D01*
X003611Y018757D01*
X003594Y018800D01*
X003581Y018843D01*
X003571Y018888D01*
X003565Y018933D01*
X003563Y018979D01*
D11*
X019075Y019865D02*
X019075Y015928D01*
X021712Y015928D01*
X021712Y019865D01*
X019075Y019865D01*
X019075Y010219D02*
X021712Y010219D01*
X021712Y000278D01*
X019075Y000278D01*
X019075Y010219D01*
D12*
X003681Y018979D02*
X003683Y019019D01*
X003689Y019060D01*
X003699Y019099D01*
X003712Y019137D01*
X003730Y019174D01*
X003751Y019208D01*
X003775Y019241D01*
X003802Y019271D01*
X003832Y019298D01*
X003865Y019322D01*
X003899Y019343D01*
X003936Y019361D01*
X003974Y019374D01*
X004013Y019384D01*
X004054Y019390D01*
X004094Y019392D01*
X004134Y019390D01*
X004175Y019384D01*
X004214Y019374D01*
X004252Y019361D01*
X004289Y019343D01*
X004323Y019322D01*
X004356Y019298D01*
X004386Y019271D01*
X004413Y019241D01*
X004437Y019208D01*
X004458Y019174D01*
X004476Y019137D01*
X004489Y019099D01*
X004499Y019060D01*
X004505Y019019D01*
X004507Y018979D01*
X004505Y018939D01*
X004499Y018898D01*
X004489Y018859D01*
X004476Y018821D01*
X004458Y018784D01*
X004437Y018750D01*
X004413Y018717D01*
X004386Y018687D01*
X004356Y018660D01*
X004323Y018636D01*
X004289Y018615D01*
X004252Y018597D01*
X004214Y018584D01*
X004175Y018574D01*
X004134Y018568D01*
X004094Y018566D01*
X004054Y018568D01*
X004013Y018574D01*
X003974Y018584D01*
X003936Y018597D01*
X003899Y018615D01*
X003865Y018636D01*
X003832Y018660D01*
X003802Y018687D01*
X003775Y018717D01*
X003751Y018750D01*
X003730Y018784D01*
X003712Y018821D01*
X003699Y018859D01*
X003689Y018898D01*
X003683Y018939D01*
X003681Y018979D01*
D13*
X004027Y018215D02*
X004277Y017965D01*
X004277Y017465D01*
X004027Y017215D01*
X004277Y016965D01*
X004277Y016465D01*
X004027Y016215D01*
X004277Y015965D01*
X004277Y015465D01*
X004027Y015215D01*
X002527Y015215D01*
X002277Y015465D01*
X002277Y015965D01*
X002527Y016215D01*
X002277Y016465D01*
X002277Y016965D01*
X002527Y017215D01*
X002277Y017465D01*
X002277Y017965D01*
X002527Y018215D01*
X004027Y018215D01*
X003027Y014215D02*
X002527Y014215D01*
X002277Y013965D01*
X002277Y013465D01*
X002527Y013215D01*
X002277Y012965D01*
X002277Y012465D01*
X002527Y012215D01*
X002277Y011965D01*
X002277Y011465D01*
X002527Y011215D01*
X003027Y011215D01*
X003277Y011465D01*
X003277Y011965D01*
X003027Y012215D01*
X003277Y012465D01*
X003277Y012965D01*
X003027Y013215D01*
X003277Y013465D01*
X003277Y013965D01*
X003027Y014215D01*
X003027Y011215D02*
X002527Y011215D01*
X002277Y010965D01*
X002277Y010465D01*
X002527Y010215D01*
X002277Y009965D01*
X002277Y009465D01*
X002527Y009215D01*
X002277Y008965D01*
X002277Y008465D01*
X002527Y008215D01*
X003027Y008215D01*
X003277Y008465D01*
X003277Y008965D01*
X003027Y009215D01*
X003277Y009465D01*
X003277Y009965D01*
X003027Y010215D01*
X003277Y010465D01*
X003277Y010965D01*
X003027Y011215D01*
X003027Y004215D02*
X002527Y004215D01*
X002277Y003965D01*
X002277Y003465D01*
X002527Y003215D01*
X002277Y002965D01*
X002277Y002465D01*
X002527Y002215D01*
X002277Y001965D01*
X002277Y001465D01*
X002527Y001215D01*
X003027Y001215D01*
X003277Y001465D01*
X003277Y001965D01*
X003027Y002215D01*
X003277Y002465D01*
X003277Y002965D01*
X003027Y003215D01*
X003277Y003465D01*
X003277Y003965D01*
X003027Y004215D01*
X016331Y006465D02*
X016581Y006215D01*
X017081Y006215D01*
X017331Y006465D01*
X017331Y006965D01*
X017081Y007215D01*
X017331Y007465D01*
X017331Y007965D01*
X017081Y008215D01*
X017331Y008465D01*
X017331Y008965D01*
X017081Y009215D01*
X017331Y009465D01*
X017331Y009965D01*
X017081Y010215D01*
X017331Y010465D01*
X017331Y010965D01*
X017081Y011215D01*
X017331Y011465D01*
X017331Y011965D01*
X017081Y012215D01*
X017331Y012465D01*
X017331Y012965D01*
X017081Y013215D01*
X017331Y013465D01*
X017331Y013965D01*
X017081Y014215D01*
X016581Y014215D01*
X016331Y013965D01*
X016331Y013465D01*
X016581Y013215D01*
X016331Y012965D01*
X016331Y012465D01*
X016581Y012215D01*
X016331Y011965D01*
X016331Y011465D01*
X016581Y011215D01*
X016331Y010965D01*
X016331Y010465D01*
X016581Y010215D01*
X016331Y009965D01*
X016331Y009465D01*
X016581Y009215D01*
X016331Y008965D01*
X016331Y008465D01*
X016581Y008215D01*
X016331Y007965D01*
X016331Y007465D01*
X016581Y007215D01*
X016331Y006965D01*
X016331Y006465D01*
X020207Y006667D02*
X020207Y006867D01*
X020207Y006667D02*
X020407Y006667D01*
X020407Y005898D02*
X020207Y005898D01*
X020207Y005698D01*
X020207Y004898D02*
X020207Y004698D01*
X020407Y004698D01*
X020407Y003930D02*
X020207Y003930D01*
X020207Y003730D01*
X020207Y002930D02*
X020207Y002730D01*
X020407Y002730D01*
X020407Y001961D02*
X020207Y001961D01*
X020207Y001761D01*
X020207Y000961D02*
X020207Y000761D01*
X020407Y000761D01*
X021207Y000761D02*
X021407Y000761D01*
X021407Y000961D01*
X021407Y001761D02*
X021407Y001961D01*
X021207Y001961D01*
X021207Y002730D02*
X021407Y002730D01*
X021407Y002930D01*
X021407Y003730D02*
X021407Y003930D01*
X021207Y003930D01*
X021207Y004698D02*
X021407Y004698D01*
X021407Y004898D01*
X021407Y005698D02*
X021407Y005898D01*
X021207Y005898D01*
X021207Y006667D02*
X021407Y006667D01*
X021407Y006867D01*
X021407Y007667D02*
X021407Y007867D01*
X021207Y007867D01*
X021207Y008635D02*
X021407Y008635D01*
X021407Y008835D01*
X021407Y009635D02*
X021407Y009835D01*
X021207Y009835D01*
X020407Y009835D02*
X020207Y009835D01*
X020207Y009635D01*
X020207Y008835D02*
X020207Y008635D01*
X020407Y008635D01*
X020407Y007867D02*
X020207Y007867D01*
X020207Y007667D01*
X020207Y016312D02*
X020207Y016512D01*
X020207Y016312D02*
X020407Y016312D01*
X021207Y016312D02*
X021407Y016312D01*
X021407Y016512D01*
X021407Y017312D02*
X021407Y017512D01*
X021207Y017512D01*
X021207Y018281D02*
X021407Y018281D01*
X021407Y018481D01*
X021407Y019281D02*
X021407Y019481D01*
X021207Y019481D01*
X020407Y019481D02*
X020207Y019481D01*
X020207Y019281D01*
X020207Y018481D02*
X020207Y018281D01*
X020407Y018281D01*
X020407Y017512D02*
X020207Y017512D01*
X020207Y017312D01*
D14*
X017913Y004353D03*
X017913Y003881D03*
X017913Y003566D03*
X017913Y003093D03*
X017913Y002778D03*
X017913Y002306D03*
X017913Y001991D03*
X017913Y001519D03*
X017913Y001204D03*
X017913Y000731D03*
D15*
X017913Y000967D03*
X017913Y001755D03*
X017913Y002542D03*
X017913Y003330D03*
X017913Y004117D03*
D16*
X017937Y003760D02*
X017937Y003469D01*
X018131Y003469D01*
X018232Y003469D02*
X018232Y003760D01*
X018377Y003760D01*
X018426Y003711D01*
X018426Y003615D01*
X018377Y003566D01*
X018232Y003566D01*
X018329Y003566D02*
X018426Y003469D01*
X018131Y003760D02*
X017937Y003760D01*
X017836Y003760D02*
X017836Y003469D01*
X017740Y003566D01*
X017643Y003469D01*
X017643Y003760D01*
X017542Y003711D02*
X017493Y003760D01*
X017396Y003760D01*
X017348Y003711D01*
X017348Y003518D01*
X017396Y003469D01*
X017493Y003469D01*
X017542Y003518D01*
X017542Y003711D01*
X017937Y003615D02*
X018034Y003615D01*
X018063Y003031D02*
X017918Y003031D01*
X017918Y002741D01*
X017918Y002838D02*
X018063Y002838D01*
X018111Y002886D01*
X018111Y002983D01*
X018063Y003031D01*
X018212Y002935D02*
X018309Y003031D01*
X018309Y002741D01*
X018212Y002741D02*
X018406Y002741D01*
X018338Y002027D02*
X018241Y002027D01*
X018193Y001979D01*
X018092Y001979D02*
X018043Y002027D01*
X017898Y002027D01*
X017898Y001737D01*
X017898Y001834D02*
X018043Y001834D01*
X018092Y001882D01*
X018092Y001979D01*
X018338Y002027D02*
X018386Y001979D01*
X018386Y001931D01*
X018193Y001737D01*
X018386Y001737D01*
X018338Y001240D02*
X018386Y001192D01*
X018386Y001143D01*
X018338Y001095D01*
X018386Y001047D01*
X018386Y000998D01*
X018338Y000950D01*
X018241Y000950D01*
X018193Y000998D01*
X018289Y001095D02*
X018338Y001095D01*
X018338Y001240D02*
X018241Y001240D01*
X018193Y001192D01*
X018092Y001192D02*
X018043Y001240D01*
X017898Y001240D01*
X017898Y000950D01*
X017898Y001047D02*
X018043Y001047D01*
X018092Y001095D01*
X018092Y001192D01*
X018063Y000630D02*
X017918Y000630D01*
X017918Y000340D01*
X017918Y000436D02*
X018063Y000436D01*
X018111Y000485D01*
X018111Y000581D01*
X018063Y000630D01*
X018212Y000485D02*
X018406Y000485D01*
X018357Y000630D02*
X018212Y000485D01*
X018357Y000340D02*
X018357Y000630D01*
X017053Y003469D02*
X017053Y003760D01*
X017199Y003760D01*
X017247Y003711D01*
X017247Y003615D01*
X017199Y003566D01*
X017053Y003566D01*
D17*
X015500Y000381D02*
X009594Y000381D01*
X009594Y007664D01*
X015500Y007664D01*
X015500Y000381D01*
X009417Y000381D02*
X003512Y000381D01*
X003512Y007664D01*
X009417Y007664D01*
X009417Y000381D01*
X009441Y007853D02*
X003535Y007853D01*
X003535Y015137D01*
X009441Y015137D01*
X009441Y007853D01*
X009618Y007853D02*
X009618Y015137D01*
X015524Y015137D01*
X015524Y007853D01*
X009618Y007853D01*
X009134Y015790D02*
X008622Y015790D01*
X008051Y016361D01*
X008051Y019609D01*
X009134Y019609D01*
X010275Y019609D02*
X011358Y019609D01*
X011358Y016361D01*
X010787Y015790D01*
X010275Y015790D01*
X011712Y016361D02*
X012283Y015790D01*
X012795Y015790D01*
X013937Y015790D02*
X014449Y015790D01*
X015020Y016361D01*
X015020Y019609D01*
X013937Y019609D01*
X012795Y019609D02*
X011712Y019609D01*
X011712Y016361D01*
X012815Y016263D02*
X012743Y016293D01*
X012674Y016326D01*
X012606Y016362D01*
X012539Y016402D01*
X012475Y016445D01*
X012413Y016491D01*
X012354Y016541D01*
X012297Y016593D01*
X012243Y016648D01*
X012192Y016705D01*
X012143Y016766D01*
X012098Y016828D01*
X012056Y016893D01*
X012017Y016960D01*
X011981Y017028D01*
X011949Y017099D01*
X011921Y017170D01*
X011896Y017244D01*
X011875Y017318D01*
X011858Y017393D01*
X011844Y017469D01*
X011835Y017546D01*
X011829Y017623D01*
X011827Y017700D01*
X011829Y017777D01*
X011835Y017854D01*
X011844Y017931D01*
X011858Y018007D01*
X011875Y018082D01*
X011896Y018156D01*
X011921Y018230D01*
X011949Y018301D01*
X011981Y018372D01*
X012017Y018440D01*
X012056Y018507D01*
X012098Y018572D01*
X012143Y018634D01*
X012192Y018695D01*
X012243Y018752D01*
X012297Y018807D01*
X012354Y018859D01*
X012413Y018909D01*
X012475Y018955D01*
X012539Y018998D01*
X012606Y019038D01*
X012674Y019074D01*
X012743Y019107D01*
X012815Y019137D01*
X013917Y019137D02*
X013989Y019107D01*
X014058Y019074D01*
X014126Y019038D01*
X014193Y018998D01*
X014257Y018955D01*
X014319Y018909D01*
X014378Y018859D01*
X014435Y018807D01*
X014489Y018752D01*
X014540Y018695D01*
X014589Y018634D01*
X014634Y018572D01*
X014676Y018507D01*
X014715Y018440D01*
X014751Y018372D01*
X014783Y018301D01*
X014811Y018230D01*
X014836Y018156D01*
X014857Y018082D01*
X014874Y018007D01*
X014888Y017931D01*
X014897Y017854D01*
X014903Y017777D01*
X014905Y017700D01*
X014903Y017623D01*
X014897Y017546D01*
X014888Y017469D01*
X014874Y017393D01*
X014857Y017318D01*
X014836Y017244D01*
X014811Y017170D01*
X014783Y017099D01*
X014751Y017028D01*
X014715Y016960D01*
X014676Y016893D01*
X014634Y016828D01*
X014589Y016766D01*
X014540Y016705D01*
X014489Y016648D01*
X014435Y016593D01*
X014378Y016541D01*
X014319Y016491D01*
X014257Y016445D01*
X014193Y016402D01*
X014126Y016362D01*
X014058Y016326D01*
X013989Y016293D01*
X013917Y016263D01*
X015275Y016361D02*
X015846Y015790D01*
X016358Y015790D01*
X015275Y016361D02*
X015275Y019609D01*
X016358Y019609D01*
X017500Y019609D02*
X018583Y019609D01*
X018583Y016361D01*
X018012Y015790D01*
X017500Y015790D01*
X016378Y016263D02*
X016306Y016293D01*
X016237Y016326D01*
X016169Y016362D01*
X016102Y016402D01*
X016038Y016445D01*
X015976Y016491D01*
X015917Y016541D01*
X015860Y016593D01*
X015806Y016648D01*
X015755Y016705D01*
X015706Y016766D01*
X015661Y016828D01*
X015619Y016893D01*
X015580Y016960D01*
X015544Y017028D01*
X015512Y017099D01*
X015484Y017170D01*
X015459Y017244D01*
X015438Y017318D01*
X015421Y017393D01*
X015407Y017469D01*
X015398Y017546D01*
X015392Y017623D01*
X015390Y017700D01*
X015392Y017777D01*
X015398Y017854D01*
X015407Y017931D01*
X015421Y018007D01*
X015438Y018082D01*
X015459Y018156D01*
X015484Y018230D01*
X015512Y018301D01*
X015544Y018372D01*
X015580Y018440D01*
X015619Y018507D01*
X015661Y018572D01*
X015706Y018634D01*
X015755Y018695D01*
X015806Y018752D01*
X015860Y018807D01*
X015917Y018859D01*
X015976Y018909D01*
X016038Y018955D01*
X016102Y018998D01*
X016169Y019038D01*
X016237Y019074D01*
X016306Y019107D01*
X016378Y019137D01*
X017480Y019137D02*
X017552Y019107D01*
X017621Y019074D01*
X017689Y019038D01*
X017756Y018998D01*
X017820Y018955D01*
X017882Y018909D01*
X017941Y018859D01*
X017998Y018807D01*
X018052Y018752D01*
X018103Y018695D01*
X018152Y018634D01*
X018197Y018572D01*
X018239Y018507D01*
X018278Y018440D01*
X018314Y018372D01*
X018346Y018301D01*
X018374Y018230D01*
X018399Y018156D01*
X018420Y018082D01*
X018437Y018007D01*
X018451Y017931D01*
X018460Y017854D01*
X018466Y017777D01*
X018468Y017700D01*
X018466Y017623D01*
X018460Y017546D01*
X018451Y017469D01*
X018437Y017393D01*
X018420Y017318D01*
X018399Y017244D01*
X018374Y017170D01*
X018346Y017099D01*
X018314Y017028D01*
X018278Y016960D01*
X018239Y016893D01*
X018197Y016828D01*
X018152Y016766D01*
X018103Y016705D01*
X018052Y016648D01*
X017998Y016593D01*
X017941Y016541D01*
X017882Y016491D01*
X017820Y016445D01*
X017756Y016402D01*
X017689Y016362D01*
X017621Y016326D01*
X017552Y016293D01*
X017480Y016263D01*
X019098Y012499D02*
X020311Y012499D01*
X020705Y011987D02*
X020705Y011011D01*
X020311Y010499D02*
X019098Y010499D01*
X018705Y011011D02*
X018705Y011999D01*
X019205Y011499D02*
X019207Y011543D01*
X019213Y011587D01*
X019223Y011630D01*
X019236Y011672D01*
X019253Y011713D01*
X019274Y011752D01*
X019298Y011789D01*
X019325Y011824D01*
X019355Y011856D01*
X019388Y011886D01*
X019424Y011912D01*
X019461Y011936D01*
X019501Y011955D01*
X019542Y011972D01*
X019585Y011984D01*
X019628Y011993D01*
X019672Y011998D01*
X019716Y011999D01*
X019760Y011996D01*
X019804Y011989D01*
X019847Y011978D01*
X019889Y011964D01*
X019929Y011946D01*
X019968Y011924D01*
X020004Y011900D01*
X020038Y011872D01*
X020070Y011841D01*
X020099Y011807D01*
X020125Y011771D01*
X020147Y011733D01*
X020166Y011693D01*
X020181Y011651D01*
X020193Y011609D01*
X020201Y011565D01*
X020205Y011521D01*
X020205Y011477D01*
X020201Y011433D01*
X020193Y011389D01*
X020181Y011347D01*
X020166Y011305D01*
X020147Y011265D01*
X020125Y011227D01*
X020099Y011191D01*
X020070Y011157D01*
X020038Y011126D01*
X020004Y011098D01*
X019968Y011074D01*
X019929Y011052D01*
X019889Y011034D01*
X019847Y011020D01*
X019804Y011009D01*
X019760Y011002D01*
X019716Y010999D01*
X019672Y011000D01*
X019628Y011005D01*
X019585Y011014D01*
X019542Y011026D01*
X019501Y011043D01*
X019461Y011062D01*
X019424Y011086D01*
X019388Y011112D01*
X019355Y011142D01*
X019325Y011174D01*
X019298Y011209D01*
X019274Y011246D01*
X019253Y011285D01*
X019236Y011326D01*
X019223Y011368D01*
X019213Y011411D01*
X019207Y011455D01*
X019205Y011499D01*
X009154Y016263D02*
X009082Y016293D01*
X009013Y016326D01*
X008945Y016362D01*
X008878Y016402D01*
X008814Y016445D01*
X008752Y016491D01*
X008693Y016541D01*
X008636Y016593D01*
X008582Y016648D01*
X008531Y016705D01*
X008482Y016766D01*
X008437Y016828D01*
X008395Y016893D01*
X008356Y016960D01*
X008320Y017028D01*
X008288Y017099D01*
X008260Y017170D01*
X008235Y017244D01*
X008214Y017318D01*
X008197Y017393D01*
X008183Y017469D01*
X008174Y017546D01*
X008168Y017623D01*
X008166Y017700D01*
X008168Y017777D01*
X008174Y017854D01*
X008183Y017931D01*
X008197Y018007D01*
X008214Y018082D01*
X008235Y018156D01*
X008260Y018230D01*
X008288Y018301D01*
X008320Y018372D01*
X008356Y018440D01*
X008395Y018507D01*
X008437Y018572D01*
X008482Y018634D01*
X008531Y018695D01*
X008582Y018752D01*
X008636Y018807D01*
X008693Y018859D01*
X008752Y018909D01*
X008814Y018955D01*
X008878Y018998D01*
X008945Y019038D01*
X009013Y019074D01*
X009082Y019107D01*
X009154Y019137D01*
X007815Y019609D02*
X006732Y019609D01*
X007815Y019609D02*
X007815Y016361D01*
X007244Y015790D01*
X006732Y015790D01*
X005590Y015790D02*
X005079Y015790D01*
X004508Y016361D01*
X004508Y019609D01*
X005590Y019609D01*
X006712Y019137D02*
X006784Y019107D01*
X006853Y019074D01*
X006921Y019038D01*
X006988Y018998D01*
X007052Y018955D01*
X007114Y018909D01*
X007173Y018859D01*
X007230Y018807D01*
X007284Y018752D01*
X007335Y018695D01*
X007384Y018634D01*
X007429Y018572D01*
X007471Y018507D01*
X007510Y018440D01*
X007546Y018372D01*
X007578Y018301D01*
X007606Y018230D01*
X007631Y018156D01*
X007652Y018082D01*
X007669Y018007D01*
X007683Y017931D01*
X007692Y017854D01*
X007698Y017777D01*
X007700Y017700D01*
X007698Y017623D01*
X007692Y017546D01*
X007683Y017469D01*
X007669Y017393D01*
X007652Y017318D01*
X007631Y017244D01*
X007606Y017170D01*
X007578Y017099D01*
X007546Y017028D01*
X007510Y016960D01*
X007471Y016893D01*
X007429Y016828D01*
X007384Y016766D01*
X007335Y016705D01*
X007284Y016648D01*
X007230Y016593D01*
X007173Y016541D01*
X007114Y016491D01*
X007052Y016445D01*
X006988Y016402D01*
X006921Y016362D01*
X006853Y016326D01*
X006784Y016293D01*
X006712Y016263D01*
X005610Y016263D02*
X005538Y016293D01*
X005469Y016326D01*
X005401Y016362D01*
X005334Y016402D01*
X005270Y016445D01*
X005208Y016491D01*
X005149Y016541D01*
X005092Y016593D01*
X005038Y016648D01*
X004987Y016705D01*
X004938Y016766D01*
X004893Y016828D01*
X004851Y016893D01*
X004812Y016960D01*
X004776Y017028D01*
X004744Y017099D01*
X004716Y017170D01*
X004691Y017244D01*
X004670Y017318D01*
X004653Y017393D01*
X004639Y017469D01*
X004630Y017546D01*
X004624Y017623D01*
X004622Y017700D01*
X004624Y017777D01*
X004630Y017854D01*
X004639Y017931D01*
X004653Y018007D01*
X004670Y018082D01*
X004691Y018156D01*
X004716Y018230D01*
X004744Y018301D01*
X004776Y018372D01*
X004812Y018440D01*
X004851Y018507D01*
X004893Y018572D01*
X004938Y018634D01*
X004987Y018695D01*
X005038Y018752D01*
X005092Y018807D01*
X005149Y018859D01*
X005208Y018909D01*
X005270Y018955D01*
X005334Y018998D01*
X005401Y019038D01*
X005469Y019074D01*
X005538Y019107D01*
X005610Y019137D01*
X010256Y019137D02*
X010328Y019107D01*
X010397Y019074D01*
X010465Y019038D01*
X010532Y018998D01*
X010596Y018955D01*
X010658Y018909D01*
X010717Y018859D01*
X010774Y018807D01*
X010828Y018752D01*
X010879Y018695D01*
X010928Y018634D01*
X010973Y018572D01*
X011015Y018507D01*
X011054Y018440D01*
X011090Y018372D01*
X011122Y018301D01*
X011150Y018230D01*
X011175Y018156D01*
X011196Y018082D01*
X011213Y018007D01*
X011227Y017931D01*
X011236Y017854D01*
X011242Y017777D01*
X011244Y017700D01*
X011242Y017623D01*
X011236Y017546D01*
X011227Y017469D01*
X011213Y017393D01*
X011196Y017318D01*
X011175Y017244D01*
X011150Y017170D01*
X011122Y017099D01*
X011090Y017028D01*
X011054Y016960D01*
X011015Y016893D01*
X010973Y016828D01*
X010928Y016766D01*
X010879Y016705D01*
X010828Y016648D01*
X010774Y016593D01*
X010717Y016541D01*
X010658Y016491D01*
X010596Y016445D01*
X010532Y016402D01*
X010465Y016362D01*
X010397Y016326D01*
X010328Y016293D01*
X010256Y016263D01*
D18*
X012581Y013666D02*
X012581Y013483D01*
X012617Y013446D01*
X012691Y013446D01*
X012728Y013483D01*
X012728Y013666D01*
X012802Y013629D02*
X012838Y013666D01*
X012912Y013666D01*
X012949Y013629D01*
X013023Y013629D02*
X013059Y013666D01*
X013133Y013666D01*
X013170Y013629D01*
X013170Y013593D01*
X013133Y013556D01*
X013059Y013556D01*
X013023Y013593D01*
X013023Y013629D01*
X013059Y013556D02*
X013023Y013519D01*
X013023Y013483D01*
X013059Y013446D01*
X013133Y013446D01*
X013170Y013483D01*
X013170Y013519D01*
X013133Y013556D01*
X012949Y013519D02*
X012912Y013556D01*
X012838Y013556D01*
X012802Y013593D01*
X012802Y013629D01*
X012875Y013703D02*
X012875Y013409D01*
X012838Y013446D02*
X012912Y013446D01*
X012949Y013483D01*
X012949Y013519D01*
X012838Y013446D02*
X012802Y013483D01*
X006969Y013413D02*
X006932Y013450D01*
X006859Y013450D01*
X006822Y013413D01*
X006748Y013413D02*
X006711Y013450D01*
X006638Y013450D01*
X006601Y013413D01*
X006601Y013376D01*
X006638Y013339D01*
X006711Y013339D01*
X006748Y013303D01*
X006748Y013266D01*
X006711Y013229D01*
X006638Y013229D01*
X006601Y013266D01*
X006527Y013266D02*
X006490Y013229D01*
X006417Y013229D01*
X006380Y013266D01*
X006380Y013450D01*
X006527Y013450D02*
X006527Y013266D01*
X006674Y013193D02*
X006674Y013486D01*
X006822Y013229D02*
X006969Y013376D01*
X006969Y013413D01*
X006969Y013229D02*
X006822Y013229D01*
X006342Y006301D02*
X006342Y006008D01*
X006305Y006044D02*
X006379Y006044D01*
X006416Y006081D01*
X006416Y006118D01*
X006379Y006155D01*
X006305Y006155D01*
X006269Y006191D01*
X006269Y006228D01*
X006305Y006265D01*
X006379Y006265D01*
X006416Y006228D01*
X006490Y006191D02*
X006563Y006265D01*
X006563Y006044D01*
X006490Y006044D02*
X006636Y006044D01*
X006305Y006044D02*
X006269Y006081D01*
X006195Y006081D02*
X006195Y006265D01*
X006048Y006265D02*
X006048Y006081D01*
X006084Y006044D01*
X006158Y006044D01*
X006195Y006081D01*
X011929Y005497D02*
X011929Y005313D01*
X011966Y005277D01*
X012039Y005277D01*
X012076Y005313D01*
X012076Y005497D01*
X012150Y005460D02*
X012187Y005497D01*
X012260Y005497D01*
X012297Y005460D01*
X012260Y005387D02*
X012187Y005387D01*
X012150Y005424D01*
X012150Y005460D01*
X012223Y005534D02*
X012223Y005240D01*
X012187Y005277D02*
X012260Y005277D01*
X012297Y005313D01*
X012297Y005350D01*
X012260Y005387D01*
X012371Y005424D02*
X012444Y005497D01*
X012444Y005277D01*
X012371Y005277D02*
X012518Y005277D01*
X012592Y005277D02*
X012739Y005277D01*
X012665Y005277D02*
X012665Y005497D01*
X012592Y005424D01*
X012187Y005277D02*
X012150Y005313D01*
D19*
X001652Y001541D02*
X001652Y001391D01*
X001652Y001466D02*
X002027Y001466D01*
X002102Y001391D01*
X002102Y001315D01*
X002027Y001240D01*
X001952Y001701D02*
X001952Y001926D01*
X001877Y002001D01*
X001727Y002001D01*
X001652Y001926D01*
X001652Y001701D01*
X002102Y001701D01*
X002027Y002161D02*
X002102Y002236D01*
X002102Y002386D01*
X002027Y002461D01*
X001952Y002461D01*
X001877Y002386D01*
X001877Y002311D01*
X001877Y002386D02*
X001802Y002461D01*
X001727Y002461D01*
X001652Y002386D01*
X001652Y002236D01*
X001727Y002161D01*
X002552Y000891D02*
X003002Y000891D01*
X003002Y001041D02*
X003002Y000740D01*
X002702Y000740D02*
X002552Y000891D01*
X002702Y007740D02*
X002552Y007891D01*
X003002Y007891D01*
X003002Y008041D02*
X003002Y007740D01*
X003002Y010740D02*
X003002Y011041D01*
X003002Y010891D02*
X002552Y010891D01*
X002702Y010740D01*
X002102Y011315D02*
X002102Y011391D01*
X002027Y011466D01*
X001652Y011466D01*
X001652Y011391D02*
X001652Y011541D01*
X001652Y011701D02*
X001652Y011926D01*
X001727Y012001D01*
X001877Y012001D01*
X001952Y011926D01*
X001952Y011701D01*
X002102Y011701D02*
X001652Y011701D01*
X001727Y012161D02*
X001652Y012236D01*
X001652Y012386D01*
X001727Y012461D01*
X001802Y012461D01*
X002102Y012161D01*
X002102Y012461D01*
X002102Y011315D02*
X002027Y011240D01*
X002027Y015240D02*
X002102Y015315D01*
X002102Y015466D01*
X002027Y015541D01*
X001952Y015541D01*
X001877Y015466D01*
X001877Y015315D01*
X001802Y015240D01*
X001727Y015240D01*
X001652Y015315D01*
X001652Y015466D01*
X001727Y015541D01*
X001652Y015701D02*
X001952Y015701D01*
X002102Y015851D01*
X001952Y016001D01*
X001652Y016001D01*
X001727Y016161D02*
X001652Y016236D01*
X001652Y016386D01*
X001727Y016461D01*
X001802Y016461D01*
X001877Y016386D01*
X001952Y016461D01*
X002027Y016461D01*
X002102Y016386D01*
X002102Y016236D01*
X002027Y016161D01*
X001877Y016311D02*
X001877Y016386D01*
X002777Y018340D02*
X002777Y018566D01*
X002852Y018641D01*
X002927Y018641D01*
X003002Y018566D01*
X003002Y018415D01*
X002927Y018340D01*
X002777Y018340D01*
X002627Y018491D01*
X002552Y018641D01*
X004902Y015791D02*
X004902Y015490D01*
X004902Y015641D02*
X004452Y015641D01*
X004602Y015490D01*
X015705Y013716D02*
X015705Y013565D01*
X015780Y013490D01*
X015855Y013490D01*
X015930Y013565D01*
X015930Y013716D01*
X016005Y013791D01*
X016081Y013791D01*
X016156Y013716D01*
X016156Y013565D01*
X016081Y013490D01*
X016005Y013490D01*
X015930Y013565D01*
X015930Y013716D02*
X015855Y013791D01*
X015780Y013791D01*
X015705Y013716D01*
X017224Y012700D02*
X017224Y015692D01*
X021752Y015692D01*
X021752Y012700D01*
X021358Y012700D01*
X021358Y015652D01*
X021358Y012700D02*
X017618Y012700D01*
X017618Y015652D01*
X017618Y012700D02*
X017224Y012700D01*
X015930Y007461D02*
X015930Y007161D01*
X015705Y007386D01*
X016156Y007386D01*
X016005Y007001D02*
X015705Y007001D01*
X015705Y006701D02*
X016005Y006701D01*
X016156Y006851D01*
X016005Y007001D01*
X016005Y006541D02*
X016081Y006541D01*
X016156Y006466D01*
X016156Y006315D01*
X016081Y006240D01*
X015930Y006315D02*
X015930Y006466D01*
X016005Y006541D01*
X015780Y006541D02*
X015705Y006466D01*
X015705Y006315D01*
X015780Y006240D01*
X015855Y006240D01*
X015930Y006315D01*
X017505Y006691D02*
X017655Y006540D01*
X017505Y006691D02*
X017956Y006691D01*
X017956Y006841D02*
X017956Y006540D01*
D20*
X018610Y006884D02*
X018610Y007114D01*
X018687Y007191D01*
X018840Y007191D01*
X018917Y007114D01*
X018917Y006884D01*
X018917Y007037D02*
X019070Y007191D01*
X019070Y007344D02*
X019070Y007651D01*
X019070Y007498D02*
X018610Y007498D01*
X018764Y007344D01*
X018764Y007805D02*
X018610Y007958D01*
X019070Y007958D01*
X019070Y007805D02*
X019070Y008111D01*
X019070Y006884D02*
X018610Y006884D01*
X013665Y017456D02*
X013358Y017456D01*
X013512Y017456D02*
X013512Y017916D01*
X013358Y017763D01*
X013205Y017840D02*
X013128Y017916D01*
X012975Y017916D01*
X012898Y017840D01*
X012898Y017533D01*
X012975Y017456D01*
X013128Y017456D01*
X013205Y017533D01*
X010043Y017725D02*
X009736Y017725D01*
X009966Y017956D01*
X009966Y017495D01*
X009583Y017572D02*
X009506Y017495D01*
X009353Y017495D01*
X009276Y017572D01*
X009276Y017879D01*
X009353Y017956D01*
X009506Y017956D01*
X009583Y017879D01*
X006460Y017956D02*
X006154Y017956D01*
X006154Y017725D01*
X006307Y017802D01*
X006384Y017802D01*
X006460Y017725D01*
X006460Y017572D01*
X006384Y017495D01*
X006230Y017495D01*
X006154Y017572D01*
X006000Y017572D02*
X005923Y017495D01*
X005770Y017495D01*
X005693Y017572D01*
X005693Y017879D01*
X005770Y017956D01*
X005923Y017956D01*
X006000Y017879D01*
X016402Y017918D02*
X016402Y017611D01*
X016479Y017535D01*
X016632Y017535D01*
X016709Y017611D01*
X016862Y017535D02*
X017169Y017842D01*
X017169Y017918D01*
X017092Y017995D01*
X016939Y017995D01*
X016862Y017918D01*
X016709Y017918D02*
X016632Y017995D01*
X016479Y017995D01*
X016402Y017918D01*
X016862Y017535D02*
X017169Y017535D01*
D21*
X019385Y012354D02*
X019360Y012329D01*
X019360Y012304D01*
X019385Y012279D01*
X019435Y012279D01*
X019460Y012254D01*
X019460Y012229D01*
X019435Y012204D01*
X019385Y012204D01*
X019360Y012229D01*
X019385Y012354D02*
X019435Y012354D01*
X019460Y012329D01*
X019507Y012304D02*
X019557Y012354D01*
X019557Y012204D01*
X019507Y012204D02*
X019607Y012204D01*
M02*
