G75*
%MOIN*%
%OFA0B0*%
%FSLAX24Y24*%
%IPPOS*%
%LPD*%
%AMOC8*
5,1,8,0,0,1.08239X$1,22.5*
%
%ADD10C,0.0160*%
%ADD11C,0.0000*%
%ADD12OC8,0.1250*%
%ADD13C,0.0531*%
%ADD14R,0.0480X0.0880*%
%ADD15R,0.1417X0.0866*%
%ADD16R,0.0160X0.0480*%
%ADD17R,0.0591X0.0512*%
%ADD18R,0.0945X0.0945*%
%ADD19R,0.0421X0.0004*%
%ADD20R,0.0465X0.0004*%
%ADD21R,0.0492X0.0004*%
%ADD22R,0.0516X0.0004*%
%ADD23R,0.0531X0.0004*%
%ADD24R,0.0547X0.0004*%
%ADD25R,0.0563X0.0004*%
%ADD26R,0.0575X0.0004*%
%ADD27R,0.0587X0.0004*%
%ADD28R,0.0598X0.0004*%
%ADD29R,0.0610X0.0004*%
%ADD30R,0.0618X0.0004*%
%ADD31R,0.0626X0.0004*%
%ADD32R,0.0638X0.0004*%
%ADD33R,0.0646X0.0004*%
%ADD34R,0.0650X0.0004*%
%ADD35R,0.0657X0.0004*%
%ADD36R,0.0665X0.0004*%
%ADD37R,0.0673X0.0004*%
%ADD38R,0.0677X0.0004*%
%ADD39R,0.0685X0.0004*%
%ADD40R,0.0689X0.0004*%
%ADD41R,0.0693X0.0004*%
%ADD42R,0.0701X0.0004*%
%ADD43R,0.0705X0.0004*%
%ADD44R,0.0709X0.0004*%
%ADD45R,0.0717X0.0004*%
%ADD46R,0.0720X0.0004*%
%ADD47R,0.0724X0.0004*%
%ADD48R,0.0728X0.0004*%
%ADD49R,0.0732X0.0004*%
%ADD50R,0.0736X0.0004*%
%ADD51R,0.0740X0.0004*%
%ADD52R,0.0744X0.0004*%
%ADD53R,0.0748X0.0004*%
%ADD54R,0.0752X0.0004*%
%ADD55R,0.0756X0.0004*%
%ADD56R,0.0760X0.0004*%
%ADD57R,0.0764X0.0004*%
%ADD58R,0.0768X0.0004*%
%ADD59R,0.0772X0.0004*%
%ADD60R,0.0776X0.0004*%
%ADD61R,0.0780X0.0004*%
%ADD62R,0.0783X0.0004*%
%ADD63R,0.0787X0.0004*%
%ADD64R,0.0791X0.0004*%
%ADD65R,0.0795X0.0004*%
%ADD66R,0.0799X0.0004*%
%ADD67R,0.0803X0.0004*%
%ADD68R,0.0807X0.0004*%
%ADD69R,0.0811X0.0004*%
%ADD70R,0.0815X0.0004*%
%ADD71R,0.0819X0.0004*%
%ADD72R,0.0823X0.0004*%
%ADD73R,0.0827X0.0004*%
%ADD74R,0.0831X0.0004*%
%ADD75R,0.0835X0.0004*%
%ADD76R,0.0839X0.0004*%
%ADD77R,0.0909X0.0004*%
%ADD78R,0.0937X0.0004*%
%ADD79R,0.0953X0.0004*%
%ADD80R,0.0961X0.0004*%
%ADD81R,0.0969X0.0004*%
%ADD82R,0.0976X0.0004*%
%ADD83R,0.0980X0.0004*%
%ADD84R,0.0984X0.0004*%
%ADD85R,0.0965X0.0004*%
%ADD86R,0.0957X0.0004*%
%ADD87R,0.0945X0.0004*%
%ADD88R,0.0921X0.0004*%
%ADD89R,0.0232X0.0004*%
%ADD90R,0.0555X0.0004*%
%ADD91R,0.0224X0.0004*%
%ADD92R,0.0543X0.0004*%
%ADD93R,0.0539X0.0004*%
%ADD94R,0.0220X0.0004*%
%ADD95R,0.0535X0.0004*%
%ADD96R,0.0528X0.0004*%
%ADD97R,0.0520X0.0004*%
%ADD98R,0.0512X0.0004*%
%ADD99R,0.0500X0.0004*%
%ADD100R,0.0488X0.0004*%
%ADD101R,0.0484X0.0004*%
%ADD102R,0.0476X0.0004*%
%ADD103R,0.0449X0.0004*%
%ADD104R,0.0370X0.0004*%
%ADD105R,0.0043X0.0004*%
%ADD106R,0.0228X0.0004*%
%ADD107R,0.0358X0.0004*%
%ADD108R,0.0350X0.0004*%
%ADD109R,0.0343X0.0004*%
%ADD110R,0.0331X0.0004*%
%ADD111R,0.0319X0.0004*%
%ADD112R,0.0311X0.0004*%
%ADD113R,0.0307X0.0004*%
%ADD114R,0.0303X0.0004*%
%ADD115R,0.0063X0.0004*%
%ADD116R,0.0130X0.0004*%
%ADD117R,0.0445X0.0004*%
%ADD118R,0.0437X0.0004*%
%ADD119R,0.0433X0.0004*%
%ADD120R,0.0362X0.0004*%
%ADD121R,0.0047X0.0004*%
%ADD122R,0.0354X0.0004*%
%ADD123R,0.0031X0.0004*%
%ADD124R,0.0346X0.0004*%
%ADD125R,0.0339X0.0004*%
%ADD126R,0.0055X0.0004*%
%ADD127R,0.0177X0.0004*%
%ADD128R,0.0035X0.0004*%
%ADD129R,0.0161X0.0004*%
%ADD130R,0.0051X0.0004*%
%ADD131R,0.0142X0.0004*%
%ADD132R,0.0118X0.0004*%
%ADD133R,0.0091X0.0004*%
%ADD134R,0.0024X0.0004*%
%ADD135R,0.0020X0.0004*%
%ADD136R,0.0008X0.0004*%
%ADD137R,0.0004X0.0004*%
%ADD138R,0.0012X0.0004*%
%ADD139R,0.0028X0.0004*%
%ADD140R,0.0059X0.0004*%
%ADD141R,0.0067X0.0004*%
%ADD142R,0.0075X0.0004*%
%ADD143R,0.0083X0.0004*%
%ADD144R,0.0098X0.0004*%
%ADD145R,0.0106X0.0004*%
%ADD146R,0.0114X0.0004*%
%ADD147R,0.0122X0.0004*%
%ADD148R,0.0138X0.0004*%
%ADD149R,0.0146X0.0004*%
%ADD150R,0.0154X0.0004*%
%ADD151R,0.0165X0.0004*%
%ADD152R,0.0169X0.0004*%
%ADD153R,0.0185X0.0004*%
%ADD154R,0.0189X0.0004*%
%ADD155R,0.0193X0.0004*%
%ADD156R,0.0201X0.0004*%
%ADD157R,0.0209X0.0004*%
%ADD158R,0.0213X0.0004*%
%ADD159R,0.0217X0.0004*%
%ADD160R,0.0236X0.0004*%
%ADD161R,0.0240X0.0004*%
%ADD162R,0.0248X0.0004*%
%ADD163R,0.0256X0.0004*%
%ADD164R,0.0264X0.0004*%
%ADD165R,0.0272X0.0004*%
%ADD166R,0.0280X0.0004*%
%ADD167R,0.0287X0.0004*%
%ADD168R,0.0295X0.0004*%
%ADD169R,0.0299X0.0004*%
%ADD170R,0.0126X0.0004*%
%ADD171R,0.0157X0.0004*%
%ADD172R,0.0134X0.0004*%
%ADD173R,0.0173X0.0004*%
%ADD174R,0.0366X0.0004*%
%ADD175R,0.0374X0.0004*%
%ADD176R,0.0382X0.0004*%
%ADD177R,0.0390X0.0004*%
%ADD178R,0.0394X0.0004*%
%ADD179R,0.0398X0.0004*%
%ADD180R,0.0406X0.0004*%
%ADD181R,0.0409X0.0004*%
%ADD182R,0.0417X0.0004*%
%ADD183R,0.0429X0.0004*%
%ADD184R,0.0441X0.0004*%
%ADD185R,0.0453X0.0004*%
%ADD186R,0.0457X0.0004*%
%ADD187R,0.0469X0.0004*%
%ADD188R,0.0480X0.0004*%
%ADD189R,0.0504X0.0004*%
%ADD190R,0.0508X0.0004*%
%ADD191R,0.0551X0.0004*%
%ADD192R,0.0567X0.0004*%
%ADD193R,0.0579X0.0004*%
%ADD194R,0.0413X0.0004*%
%ADD195R,0.0425X0.0004*%
%ADD196R,0.0181X0.0004*%
%ADD197R,0.0634X0.0004*%
%ADD198R,0.0654X0.0004*%
%ADD199R,0.0661X0.0004*%
%ADD200R,0.0669X0.0004*%
%ADD201R,0.0697X0.0004*%
%ADD202R,0.0244X0.0004*%
%ADD203R,0.0252X0.0004*%
%ADD204R,0.0461X0.0004*%
%ADD205R,0.0094X0.0004*%
%ADD206R,0.0622X0.0004*%
%ADD207R,0.0102X0.0004*%
%ADD208R,0.0630X0.0004*%
%ADD209R,0.0614X0.0004*%
%ADD210R,0.0583X0.0004*%
%ADD211R,0.0327X0.0004*%
%ADD212R,0.0748X0.0669*%
%ADD213C,0.0591*%
%ADD214C,0.0600*%
%ADD215OC8,0.0600*%
%ADD216C,0.0600*%
%ADD217C,0.0240*%
%ADD218C,0.0356*%
%ADD219C,0.0400*%
%ADD220C,0.0120*%
D10*
X002027Y000180D02*
X021712Y000180D01*
X021712Y019865D01*
X003681Y019865D01*
X002027Y018211D01*
X002027Y000180D01*
X004102Y001759D02*
X005201Y001759D01*
X005807Y002365D01*
X006634Y003192D01*
X006634Y003881D01*
X006634Y004845D01*
X007067Y004845D01*
X006634Y004845D02*
X006634Y006321D01*
X005724Y006322D02*
X005724Y006321D01*
X005724Y006897D01*
X004764Y007857D01*
X004764Y011519D01*
X004291Y011460D02*
X004114Y011282D01*
X004114Y010711D01*
X004114Y009963D02*
X003866Y009715D01*
X003681Y009715D01*
X003622Y009774D01*
X003622Y014412D01*
X003268Y014767D01*
X004126Y014778D02*
X004744Y015397D01*
X004744Y016749D01*
X003777Y017715D01*
X005354Y016223D02*
X005216Y016086D01*
X005354Y016223D02*
X006831Y016223D01*
X006901Y016294D01*
X006901Y016735D01*
X004126Y014778D02*
X004126Y013759D01*
X004614Y013271D01*
X004291Y012948D01*
X004291Y011460D01*
X004614Y013271D02*
X005472Y013271D01*
X006358Y012424D02*
X007205Y013271D01*
X007693Y013759D01*
X008850Y013759D01*
X010209Y013759D02*
X010209Y013574D01*
X010590Y013192D01*
X011772Y013192D01*
X011791Y013211D01*
X010216Y013767D02*
X010209Y013759D01*
X010216Y013767D02*
X010216Y015397D01*
X013524Y013211D02*
X013524Y012561D01*
X012618Y011656D01*
X012618Y009216D01*
X012618Y008369D01*
X014252Y006735D01*
X014252Y003448D01*
X014429Y003271D01*
X015000Y003487D02*
X015000Y002739D01*
X014232Y001971D01*
X014232Y001519D01*
X013543Y002306D02*
X013405Y002306D01*
X012756Y001656D01*
X011811Y002306D02*
X010732Y002306D01*
X010185Y001759D01*
X008827Y001759D02*
X008220Y002365D01*
X007539Y002365D01*
X008287Y004747D02*
X008287Y009550D01*
X007972Y009865D01*
X007268Y010224D02*
X007638Y010593D01*
X008209Y011164D01*
X008622Y011164D01*
X007268Y010224D02*
X007268Y009176D01*
X006358Y009176D02*
X006338Y009157D01*
X006358Y009176D02*
X006358Y010141D01*
X006358Y011617D01*
X006358Y012424D01*
X003681Y009715D02*
X002777Y009715D01*
X004961Y006322D02*
X005724Y006322D01*
X004961Y006322D02*
X004449Y005810D01*
X004449Y004727D01*
X010551Y005003D02*
X010787Y005239D01*
X010787Y006282D01*
X010807Y006302D01*
X011688Y006302D01*
X010787Y006282D02*
X010787Y008605D01*
X010925Y008743D01*
X010886Y009806D02*
X010886Y009865D01*
X010394Y010357D01*
X013528Y009216D02*
X014016Y009216D01*
X014114Y009314D01*
X012598Y006302D02*
X012598Y003861D01*
X012737Y003723D01*
X012598Y003802D02*
X012598Y003861D01*
X012598Y003802D02*
X012480Y003684D01*
X012480Y002975D01*
X011811Y002306D01*
X018622Y001715D02*
X018661Y001676D01*
X018996Y001676D01*
X013524Y013211D02*
X014071Y013759D01*
X014933Y013759D01*
D11*
X003681Y018979D02*
X003683Y019019D01*
X003689Y019060D01*
X003699Y019099D01*
X003712Y019137D01*
X003730Y019174D01*
X003751Y019208D01*
X003775Y019241D01*
X003802Y019271D01*
X003832Y019298D01*
X003865Y019322D01*
X003899Y019343D01*
X003936Y019361D01*
X003974Y019374D01*
X004013Y019384D01*
X004054Y019390D01*
X004094Y019392D01*
X004134Y019390D01*
X004175Y019384D01*
X004214Y019374D01*
X004252Y019361D01*
X004289Y019343D01*
X004323Y019322D01*
X004356Y019298D01*
X004386Y019271D01*
X004413Y019241D01*
X004437Y019208D01*
X004458Y019174D01*
X004476Y019137D01*
X004489Y019099D01*
X004499Y019060D01*
X004505Y019019D01*
X004507Y018979D01*
X004505Y018939D01*
X004499Y018898D01*
X004489Y018859D01*
X004476Y018821D01*
X004458Y018784D01*
X004437Y018750D01*
X004413Y018717D01*
X004386Y018687D01*
X004356Y018660D01*
X004323Y018636D01*
X004289Y018615D01*
X004252Y018597D01*
X004214Y018584D01*
X004175Y018574D01*
X004134Y018568D01*
X004094Y018566D01*
X004054Y018568D01*
X004013Y018574D01*
X003974Y018584D01*
X003936Y018597D01*
X003899Y018615D01*
X003865Y018636D01*
X003832Y018660D01*
X003802Y018687D01*
X003775Y018717D01*
X003751Y018750D01*
X003730Y018784D01*
X003712Y018821D01*
X003699Y018859D01*
X003689Y018898D01*
X003683Y018939D01*
X003681Y018979D01*
D12*
X020807Y018881D03*
X020807Y016912D03*
X020807Y009235D03*
X020807Y007267D03*
X020807Y005298D03*
X020807Y003330D03*
X020807Y001361D03*
D13*
X014909Y001759D03*
X012547Y000971D03*
X010185Y001759D03*
X008827Y001759D03*
X006464Y000971D03*
X004102Y001759D03*
X004102Y006483D03*
X004126Y009034D03*
X008850Y009034D03*
X010209Y009034D03*
X010185Y006483D03*
X008827Y006483D03*
X014909Y006483D03*
X014933Y009034D03*
X014933Y013759D03*
X012571Y014546D03*
X010209Y013759D03*
X008850Y013759D03*
X006488Y014546D03*
X004126Y013759D03*
D14*
X005448Y009176D03*
X006358Y009176D03*
X007268Y009176D03*
X007544Y006321D03*
X006634Y006321D03*
X005724Y006321D03*
X011688Y006302D03*
X012598Y006302D03*
X013508Y006302D03*
X013528Y009216D03*
X012618Y009216D03*
X011708Y009216D03*
D15*
X012618Y011656D03*
X006358Y011617D03*
X006634Y003881D03*
X012598Y003861D03*
D16*
X007901Y016735D03*
X007401Y016735D03*
X006901Y016735D03*
X006901Y017995D03*
X007401Y017995D03*
X007901Y017995D03*
D17*
X008622Y011164D03*
X008622Y010416D03*
X010394Y010357D03*
X010394Y011105D03*
X004114Y010711D03*
X004114Y009963D03*
X004449Y004727D03*
X004449Y003979D03*
X010551Y004255D03*
X010551Y005003D03*
D18*
X011811Y002306D03*
X013543Y002306D03*
X007539Y002365D03*
X005807Y002365D03*
X011791Y013211D03*
X013524Y013211D03*
X007205Y013271D03*
X005472Y013271D03*
D19*
X014724Y012109D03*
X014724Y011133D03*
D20*
X014726Y011137D03*
X014604Y011649D03*
X014722Y012137D03*
D21*
X014724Y012156D03*
X014724Y012408D03*
X014724Y011141D03*
D22*
X014724Y011145D03*
X014724Y012172D03*
X014724Y012404D03*
D23*
X014724Y012400D03*
X014724Y012184D03*
X014724Y011149D03*
D24*
X014724Y011152D03*
X014602Y011601D03*
X014724Y012397D03*
D25*
X014724Y012204D03*
X014724Y011156D03*
D26*
X014726Y011160D03*
X014722Y012211D03*
D27*
X014724Y011164D03*
D28*
X014726Y011168D03*
X014722Y012385D03*
D29*
X014724Y011172D03*
D30*
X014724Y011176D03*
X014661Y012326D03*
D31*
X014657Y012334D03*
X014657Y012337D03*
X014665Y012345D03*
X014724Y012247D03*
X014724Y011180D03*
D32*
X014726Y011184D03*
X014722Y012255D03*
D33*
X014722Y012259D03*
X014722Y012373D03*
X014726Y011188D03*
D34*
X014724Y011192D03*
X014724Y012263D03*
D35*
X014724Y011196D03*
D36*
X014724Y011200D03*
D37*
X014724Y011204D03*
X014724Y012278D03*
X014724Y012365D03*
D38*
X014722Y012282D03*
X014726Y011208D03*
D39*
X014726Y011211D03*
X014722Y012286D03*
D40*
X014724Y011215D03*
D41*
X014726Y011219D03*
X014722Y012290D03*
D42*
X014726Y011223D03*
D43*
X014724Y011227D03*
D44*
X014726Y011231D03*
D45*
X014726Y011235D03*
D46*
X014724Y011239D03*
D47*
X014726Y011243D03*
X014722Y012314D03*
D48*
X014724Y011247D03*
D49*
X014726Y011251D03*
D50*
X014724Y011255D03*
D51*
X014726Y011259D03*
D52*
X014724Y011263D03*
D53*
X014726Y011267D03*
D54*
X014724Y011271D03*
D55*
X014726Y011274D03*
X014726Y011278D03*
D56*
X014724Y011282D03*
D57*
X014726Y011286D03*
D58*
X014724Y011290D03*
D59*
X014726Y011294D03*
X014726Y011298D03*
D60*
X014724Y011302D03*
D61*
X014726Y011306D03*
D62*
X014724Y011310D03*
X014724Y011314D03*
D63*
X014726Y011318D03*
D64*
X014724Y011322D03*
X014724Y011326D03*
X014724Y011593D03*
D65*
X014722Y011589D03*
X014726Y011334D03*
X014726Y011330D03*
D66*
X014724Y011337D03*
X014724Y011582D03*
X014724Y011586D03*
D67*
X014722Y011578D03*
X014722Y011574D03*
X014726Y011345D03*
X014726Y011341D03*
D68*
X014724Y011349D03*
X014724Y011353D03*
X014724Y011562D03*
X014724Y011566D03*
X014724Y011570D03*
D69*
X014726Y011361D03*
X014726Y011357D03*
D70*
X014724Y011365D03*
D71*
X014726Y011369D03*
X014726Y011373D03*
X014726Y011377D03*
D72*
X014724Y011381D03*
X014724Y011385D03*
D73*
X014726Y011389D03*
X014726Y011393D03*
D74*
X014724Y011397D03*
X014724Y011400D03*
D75*
X014726Y011404D03*
X014726Y011408D03*
D76*
X014724Y011412D03*
X014724Y011416D03*
D77*
X014724Y011420D03*
D78*
X014722Y011424D03*
D79*
X014722Y011428D03*
D80*
X014722Y011432D03*
D81*
X014722Y011436D03*
X014722Y011515D03*
D82*
X014722Y011511D03*
X014722Y011507D03*
X014722Y011444D03*
X014722Y011440D03*
D83*
X014724Y011448D03*
X014724Y011503D03*
D84*
X014722Y011499D03*
X014722Y011495D03*
X014722Y011491D03*
X014722Y011487D03*
X014722Y011483D03*
X014722Y011479D03*
X014722Y011475D03*
X014722Y011471D03*
X014722Y011467D03*
X014722Y011463D03*
X014722Y011460D03*
X014722Y011456D03*
X014722Y011452D03*
D85*
X014724Y011519D03*
D86*
X014724Y011523D03*
D87*
X014722Y011526D03*
D88*
X014722Y011530D03*
D89*
X014945Y011676D03*
X014957Y011668D03*
X014961Y011664D03*
X015004Y011597D03*
X014724Y011979D03*
X014496Y012361D03*
D90*
X014724Y012200D03*
X014606Y011597D03*
D91*
X014921Y011688D03*
X014972Y011656D03*
X014976Y011652D03*
X014980Y011649D03*
X014984Y011645D03*
X014988Y011637D03*
X014992Y011633D03*
X014996Y011625D03*
X015000Y011617D03*
X015004Y011609D03*
X015004Y011605D03*
X015004Y011601D03*
X014724Y011975D03*
X014724Y012448D03*
D92*
X014722Y012192D03*
X014604Y011605D03*
D93*
X014602Y011609D03*
X014724Y012188D03*
D94*
X014986Y011641D03*
X014994Y011629D03*
X014998Y011621D03*
X015002Y011613D03*
D95*
X014604Y011613D03*
D96*
X014604Y011617D03*
X014604Y011621D03*
X014722Y012180D03*
D97*
X014722Y012176D03*
X014604Y011625D03*
D98*
X014604Y011629D03*
D99*
X014602Y011633D03*
X014724Y012160D03*
D100*
X014722Y012152D03*
X014600Y011637D03*
D101*
X014602Y011641D03*
D102*
X014602Y011645D03*
X014724Y012145D03*
X014724Y012412D03*
D103*
X014844Y012361D03*
X014848Y012357D03*
X014604Y011652D03*
D104*
X014640Y011656D03*
X014722Y012074D03*
D105*
X014724Y011853D03*
X014602Y011747D03*
X014413Y011656D03*
D106*
X014931Y011684D03*
X014939Y011680D03*
X014951Y011672D03*
X014966Y011660D03*
D107*
X014638Y011660D03*
X014724Y012432D03*
D108*
X014638Y011664D03*
D109*
X014634Y011668D03*
D110*
X014632Y011672D03*
D111*
X014630Y011676D03*
D112*
X014626Y011680D03*
D113*
X014628Y011684D03*
X014636Y011692D03*
D114*
X014630Y011688D03*
D115*
X014608Y011735D03*
X014986Y011692D03*
D116*
X014866Y011692D03*
X014724Y011912D03*
X014622Y012050D03*
D117*
X014724Y012125D03*
X014709Y011700D03*
X014709Y011696D03*
D118*
X014709Y011704D03*
D119*
X014711Y011708D03*
X014722Y012117D03*
D120*
X014746Y011711D03*
D121*
X014730Y011755D03*
X014604Y011743D03*
X014525Y011711D03*
D122*
X014746Y011715D03*
X014746Y011719D03*
D123*
X014726Y011845D03*
X014600Y011751D03*
X014522Y011715D03*
D124*
X014746Y011723D03*
X014746Y011727D03*
D125*
X014746Y011731D03*
D126*
X014884Y011735D03*
D127*
X014740Y011735D03*
X014724Y011944D03*
X014811Y012062D03*
X014724Y012452D03*
D128*
X014724Y011849D03*
X014890Y011739D03*
D129*
X014740Y011739D03*
X014724Y011932D03*
X014795Y012030D03*
X014803Y012038D03*
X014807Y012046D03*
X014512Y012219D03*
X014508Y012223D03*
X014504Y012227D03*
X014504Y012231D03*
D130*
X014724Y011861D03*
X014724Y011857D03*
X014606Y011739D03*
D131*
X014738Y011743D03*
X014620Y012058D03*
X014620Y012062D03*
D132*
X014734Y011747D03*
D133*
X014732Y011751D03*
X014724Y011885D03*
D134*
X014600Y011755D03*
D135*
X014598Y011759D03*
X014724Y011837D03*
D136*
X014596Y011763D03*
D137*
X014724Y011826D03*
D138*
X014724Y011830D03*
X014724Y011834D03*
D139*
X014724Y011841D03*
D140*
X014724Y011865D03*
D141*
X014724Y011869D03*
D142*
X014724Y011873D03*
X014724Y011877D03*
D143*
X014724Y011881D03*
D144*
X014724Y011889D03*
X014724Y011893D03*
X015051Y012334D03*
D145*
X014724Y012456D03*
X014724Y011897D03*
D146*
X014724Y011900D03*
D147*
X014724Y011904D03*
X014724Y011908D03*
X014630Y012034D03*
D148*
X014724Y011916D03*
D149*
X014724Y011920D03*
X014724Y011924D03*
D150*
X014724Y011928D03*
X014622Y012066D03*
D151*
X014722Y011936D03*
X014809Y012050D03*
X014502Y012235D03*
D152*
X014724Y011940D03*
X014811Y012054D03*
D153*
X014724Y011948D03*
D154*
X014722Y011952D03*
X014809Y012066D03*
D155*
X014724Y011956D03*
D156*
X014724Y011960D03*
D157*
X014724Y011963D03*
D158*
X014722Y011967D03*
D159*
X014724Y011971D03*
D160*
X014722Y011983D03*
X014490Y012357D03*
D161*
X014724Y011987D03*
X014953Y012298D03*
X014957Y012302D03*
D162*
X014724Y011991D03*
D163*
X014724Y011995D03*
X014724Y011999D03*
X014484Y012349D03*
D164*
X014724Y012444D03*
X014724Y012003D03*
D165*
X014724Y012007D03*
D166*
X014724Y012011D03*
X014724Y012015D03*
D167*
X014724Y012019D03*
D168*
X014724Y012023D03*
X014724Y012440D03*
D169*
X014722Y012026D03*
D170*
X014636Y012030D03*
X014628Y012038D03*
X014624Y012042D03*
X014624Y012046D03*
D171*
X014801Y012034D03*
X014805Y012042D03*
D172*
X014620Y012054D03*
D173*
X014809Y012058D03*
X014502Y012239D03*
D174*
X014724Y012070D03*
D175*
X014724Y012078D03*
D176*
X014724Y012082D03*
X014724Y012428D03*
D177*
X014724Y012086D03*
D178*
X014722Y012089D03*
D179*
X014724Y012093D03*
D180*
X014724Y012097D03*
X014815Y012223D03*
X014819Y012227D03*
X014724Y012424D03*
D181*
X014821Y012231D03*
X014813Y012219D03*
X014722Y012101D03*
D182*
X014722Y012105D03*
X014821Y012239D03*
D183*
X014724Y012113D03*
X014724Y012420D03*
D184*
X014722Y012121D03*
D185*
X014724Y012129D03*
X014598Y012298D03*
X014594Y012302D03*
X014724Y012416D03*
D186*
X014852Y012353D03*
X014722Y012133D03*
X014592Y012306D03*
D187*
X014724Y012141D03*
X014854Y012349D03*
D188*
X014722Y012149D03*
D189*
X014722Y012164D03*
D190*
X014724Y012168D03*
D191*
X014722Y012196D03*
D192*
X014722Y012208D03*
X014722Y012393D03*
D193*
X014724Y012215D03*
D194*
X014823Y012235D03*
D195*
X014821Y012243D03*
D196*
X014502Y012243D03*
D197*
X014724Y012251D03*
D198*
X014722Y012267D03*
D199*
X014722Y012271D03*
X014722Y012369D03*
D200*
X014722Y012274D03*
D201*
X014724Y012294D03*
D202*
X014959Y012306D03*
X014486Y012353D03*
D203*
X014959Y012310D03*
D204*
X014594Y012310D03*
D205*
X015041Y012318D03*
X015045Y012322D03*
X015049Y012326D03*
X015049Y012330D03*
D206*
X014667Y012318D03*
X014663Y012322D03*
X014659Y012330D03*
D207*
X015045Y012345D03*
X015049Y012341D03*
X015053Y012337D03*
D208*
X014722Y012377D03*
X014659Y012341D03*
D209*
X014722Y012381D03*
D210*
X014722Y012389D03*
D211*
X014724Y012436D03*
D212*
X014567Y016735D03*
X014567Y018743D03*
X018110Y018743D03*
X018110Y016735D03*
D213*
X018488Y013782D02*
X018488Y013192D01*
X019488Y013192D02*
X019488Y013782D01*
X020488Y013782D02*
X020488Y013192D01*
D214*
X003777Y015715D03*
D215*
X002777Y015715D03*
X002777Y016715D03*
X003777Y016715D03*
X003777Y017715D03*
X002777Y017715D03*
D216*
X003077Y013715D02*
X002477Y013715D01*
X002477Y012715D02*
X003077Y012715D01*
X003077Y011715D02*
X002477Y011715D01*
X002477Y010715D02*
X003077Y010715D01*
X003077Y009715D02*
X002477Y009715D01*
X002477Y008715D02*
X003077Y008715D01*
X003077Y003715D02*
X002477Y003715D01*
X002477Y002715D02*
X003077Y002715D01*
X003077Y001715D02*
X002477Y001715D01*
X016531Y006715D02*
X017131Y006715D01*
X017131Y007715D02*
X016531Y007715D01*
X016531Y008715D02*
X017131Y008715D01*
X017131Y009715D02*
X016531Y009715D01*
X016531Y010715D02*
X017131Y010715D01*
X017131Y011715D02*
X016531Y011715D01*
X016531Y012715D02*
X017131Y012715D01*
X017131Y013715D02*
X016531Y013715D01*
D217*
X016128Y013298D02*
X015244Y013298D01*
X015242Y013296D02*
X015396Y013450D01*
X015479Y013650D01*
X015479Y013867D01*
X015396Y014068D01*
X015242Y014221D01*
X015042Y014304D01*
X014824Y014304D01*
X014624Y014221D01*
X014521Y014119D01*
X013999Y014119D01*
X013867Y014064D01*
X013767Y013964D01*
X012995Y013964D01*
X012892Y013921D01*
X012814Y013843D01*
X012771Y013740D01*
X012771Y012683D01*
X012814Y012580D01*
X012892Y012502D01*
X012936Y012483D01*
X012822Y012369D01*
X011854Y012369D01*
X011751Y012326D01*
X011672Y012248D01*
X011629Y012145D01*
X011629Y011167D01*
X011672Y011064D01*
X011751Y010986D01*
X011854Y010943D01*
X012258Y010943D01*
X012258Y009909D01*
X012219Y009893D01*
X012141Y009814D01*
X012128Y009784D01*
X012124Y009791D01*
X012083Y009832D01*
X012033Y009861D01*
X011977Y009876D01*
X011708Y009876D01*
X011439Y009876D01*
X011383Y009861D01*
X011344Y009838D01*
X011344Y009897D01*
X011274Y010065D01*
X011145Y010194D01*
X011009Y010251D01*
X010969Y010291D01*
X010969Y010669D01*
X010926Y010772D01*
X010902Y010796D01*
X010909Y010820D01*
X010909Y011097D01*
X010402Y011097D01*
X010402Y011113D01*
X010909Y011113D01*
X010909Y011390D01*
X010894Y011446D01*
X010865Y011496D01*
X010824Y011537D01*
X010774Y011566D01*
X010718Y011581D01*
X010402Y011581D01*
X010402Y011113D01*
X010386Y011113D01*
X010386Y011581D01*
X010069Y011581D01*
X010013Y011566D01*
X009963Y011537D01*
X009922Y011496D01*
X009893Y011446D01*
X009878Y011390D01*
X009878Y011113D01*
X010386Y011113D01*
X010386Y011097D01*
X009878Y011097D01*
X009878Y010820D01*
X009885Y010796D01*
X009868Y010779D01*
X009868Y013327D01*
X009899Y013296D01*
X010032Y013241D01*
X010285Y012988D01*
X010387Y012887D01*
X010519Y012832D01*
X011039Y012832D01*
X011039Y012683D01*
X011081Y012580D01*
X011160Y012502D01*
X011263Y012459D01*
X012319Y012459D01*
X012422Y012502D01*
X012501Y012580D01*
X012544Y012683D01*
X012544Y013740D01*
X012501Y013843D01*
X012422Y013921D01*
X012319Y013964D01*
X011263Y013964D01*
X011160Y013921D01*
X011081Y013843D01*
X011039Y013740D01*
X011039Y013552D01*
X010740Y013552D01*
X010721Y013570D01*
X010754Y013650D01*
X010754Y013867D01*
X010671Y014068D01*
X010576Y014163D01*
X010576Y014997D01*
X012249Y014997D01*
X012108Y014855D01*
X012025Y014655D01*
X012025Y014438D01*
X012108Y014237D01*
X012262Y014083D01*
X012462Y014000D01*
X012679Y014000D01*
X012880Y014083D01*
X012943Y014146D01*
X013186Y014146D01*
X013333Y014207D01*
X013610Y014485D01*
X018859Y014485D01*
X019006Y014546D01*
X020468Y016007D01*
X020483Y016007D01*
X020479Y016003D01*
X020406Y015827D01*
X020406Y015636D01*
X020479Y015459D01*
X020780Y015158D01*
X020780Y014284D01*
X020603Y014358D01*
X020374Y014358D01*
X020162Y014270D01*
X020000Y014108D01*
X019956Y014000D01*
X019929Y014052D01*
X019881Y014118D01*
X019824Y014175D01*
X019758Y014223D01*
X019686Y014260D01*
X019609Y014285D01*
X019529Y014298D01*
X019488Y014298D01*
X019448Y014298D01*
X019367Y014285D01*
X019290Y014260D01*
X019218Y014223D01*
X019152Y014175D01*
X019095Y014118D01*
X019047Y014052D01*
X019021Y014000D01*
X018976Y014108D01*
X018814Y014270D01*
X018603Y014358D01*
X018374Y014358D01*
X018162Y014270D01*
X018000Y014108D01*
X017913Y013897D01*
X017913Y013077D01*
X018000Y012866D01*
X018162Y012704D01*
X018374Y012617D01*
X018603Y012617D01*
X018814Y012704D01*
X018976Y012866D01*
X019021Y012974D01*
X019047Y012922D01*
X019095Y012856D01*
X019152Y012799D01*
X019218Y012751D01*
X019290Y012714D01*
X019367Y012689D01*
X019448Y012677D01*
X019488Y012677D01*
X019488Y013487D01*
X019488Y013487D01*
X019488Y012677D01*
X019529Y012677D01*
X019609Y012689D01*
X019655Y012704D01*
X019342Y012391D01*
X018720Y012391D01*
X018573Y012330D01*
X018460Y012218D01*
X018395Y012153D01*
X018283Y012040D01*
X018222Y011893D01*
X018222Y001997D01*
X015401Y001997D01*
X015372Y002068D01*
X015218Y002221D01*
X015058Y002288D01*
X015204Y002434D01*
X015305Y002535D01*
X015360Y002667D01*
X015360Y003199D01*
X015388Y003228D01*
X015458Y003396D01*
X015458Y003578D01*
X015388Y003747D01*
X015259Y003875D01*
X015091Y003945D01*
X014909Y003945D01*
X014740Y003875D01*
X014612Y003747D01*
X014612Y006016D01*
X014801Y005937D01*
X015018Y005937D01*
X015218Y006020D01*
X015372Y006174D01*
X015455Y006375D01*
X015455Y006592D01*
X015372Y006792D01*
X015218Y006946D01*
X015018Y007029D01*
X014801Y007029D01*
X014600Y006946D01*
X014568Y006913D01*
X014557Y006939D01*
X014456Y007040D01*
X012978Y008518D01*
X012978Y008523D01*
X013017Y008538D01*
X013073Y008595D01*
X013129Y008538D01*
X013232Y008496D01*
X013824Y008496D01*
X013926Y008538D01*
X014005Y008617D01*
X014048Y008720D01*
X014048Y008856D01*
X014205Y008856D01*
X014374Y008925D01*
X014387Y008939D01*
X014387Y008926D01*
X014470Y008725D01*
X014624Y008572D01*
X014824Y008489D01*
X015042Y008489D01*
X015242Y008572D01*
X015396Y008725D01*
X015479Y008926D01*
X015479Y009143D01*
X015396Y009343D01*
X015242Y009497D01*
X015042Y009580D01*
X014824Y009580D01*
X014624Y009497D01*
X014560Y009434D01*
X014502Y009573D01*
X014374Y009702D01*
X014205Y009772D01*
X014023Y009772D01*
X014023Y009772D01*
X014005Y009814D01*
X013926Y009893D01*
X013824Y009936D01*
X013232Y009936D01*
X013129Y009893D01*
X013073Y009837D01*
X013017Y009893D01*
X012978Y009909D01*
X012978Y010943D01*
X013382Y010943D01*
X013485Y010986D01*
X013564Y011064D01*
X013607Y011167D01*
X013607Y012136D01*
X013829Y012358D01*
X013871Y012459D01*
X014052Y012459D01*
X014097Y012478D01*
X014064Y012399D01*
X014064Y012276D01*
X014107Y012173D01*
X014112Y012168D01*
X014115Y012161D01*
X014124Y012152D01*
X014127Y012145D01*
X014136Y012136D01*
X014139Y012130D01*
X014148Y012121D01*
X014150Y012114D01*
X014159Y012105D01*
X013607Y012105D01*
X013607Y011867D02*
X014188Y011867D01*
X014205Y011884D02*
X014127Y011805D01*
X014123Y011801D01*
X014119Y011797D01*
X014115Y011793D01*
X014111Y011789D01*
X014107Y011785D01*
X014103Y011782D01*
X014100Y011775D01*
X014099Y011774D01*
X014095Y011770D01*
X014094Y011767D01*
X014091Y011766D01*
X014013Y011687D01*
X014009Y011683D01*
X014005Y011679D01*
X014001Y011675D01*
X013997Y011671D01*
X013954Y011568D01*
X013954Y011566D01*
X013950Y011557D01*
X013950Y011394D01*
X013954Y011384D01*
X013954Y011382D01*
X013997Y011279D01*
X014072Y011204D01*
X014111Y011110D01*
X014112Y011109D01*
X014115Y011102D01*
X014116Y011101D01*
X014119Y011094D01*
X014120Y011093D01*
X014123Y011086D01*
X014124Y011085D01*
X014127Y011078D01*
X014132Y011073D01*
X014135Y011067D01*
X014140Y011062D01*
X014142Y011055D01*
X014148Y011050D01*
X014150Y011043D01*
X014229Y010964D01*
X014233Y010960D01*
X014237Y010956D01*
X014241Y010952D01*
X014245Y010949D01*
X014249Y010945D01*
X014253Y010941D01*
X014257Y010937D01*
X014261Y010933D01*
X014267Y010930D01*
X014268Y010929D01*
X014272Y010925D01*
X014279Y010922D01*
X014280Y010921D01*
X014284Y010917D01*
X014291Y010914D01*
X014292Y010913D01*
X014299Y010910D01*
X014300Y010909D01*
X014307Y010906D01*
X014308Y010905D01*
X014411Y010863D01*
X014413Y010863D01*
X014423Y010859D01*
X014429Y010859D01*
X014438Y010855D01*
X014448Y010855D01*
X014458Y010851D01*
X014991Y010851D01*
X015000Y010855D01*
X015014Y010855D01*
X015024Y010859D01*
X015026Y010859D01*
X015036Y010863D01*
X015038Y010863D01*
X015141Y010905D01*
X015142Y010906D01*
X015149Y010909D01*
X015150Y010910D01*
X015157Y010913D01*
X015158Y010914D01*
X015164Y010917D01*
X015166Y010918D01*
X015172Y010921D01*
X015176Y010925D01*
X015177Y010926D01*
X015184Y010929D01*
X015188Y010933D01*
X015192Y010937D01*
X015196Y010941D01*
X015197Y010942D01*
X015204Y010945D01*
X015208Y010949D01*
X015286Y011027D01*
X015289Y011034D01*
X015306Y011051D01*
X015309Y011058D01*
X015314Y011063D01*
X015317Y011069D01*
X015322Y011075D01*
X015325Y011081D01*
X015326Y011082D01*
X015329Y011089D01*
X015330Y011090D01*
X015333Y011097D01*
X015334Y011098D01*
X015337Y011105D01*
X015338Y011106D01*
X015340Y011113D01*
X015342Y011114D01*
X015383Y011215D01*
X015448Y011279D01*
X015451Y011286D01*
X015452Y011287D01*
X015494Y011390D01*
X015494Y011560D01*
X015452Y011663D01*
X015451Y011665D01*
X015448Y011671D01*
X015447Y011672D01*
X015444Y011679D01*
X015440Y011683D01*
X015361Y011762D01*
X015356Y011764D01*
X015353Y011770D01*
X015352Y011771D01*
X015349Y011778D01*
X015348Y011779D01*
X015346Y011785D01*
X015344Y011787D01*
X015342Y011793D01*
X015338Y011797D01*
X015337Y011798D01*
X015334Y011805D01*
X015330Y011809D01*
X015326Y011813D01*
X015322Y011817D01*
X015243Y011896D01*
X015231Y011908D01*
X015225Y011910D01*
X015220Y011915D01*
X015213Y011918D01*
X015212Y011919D01*
X015205Y011922D01*
X015204Y011923D01*
X015165Y011939D01*
X015167Y011943D01*
X015176Y011952D01*
X015179Y011959D01*
X015188Y011968D01*
X015191Y011975D01*
X015200Y011984D01*
X015203Y011991D01*
X015212Y012000D01*
X015214Y012006D01*
X015220Y012012D01*
X015222Y012018D01*
X015231Y012027D01*
X015234Y012034D01*
X015243Y012043D01*
X015246Y012050D01*
X015255Y012059D01*
X015258Y012066D01*
X015267Y012075D01*
X015270Y012081D01*
X015279Y012090D01*
X015281Y012097D01*
X015286Y012102D01*
X015289Y012109D01*
X015298Y012118D01*
X015301Y012125D01*
X015310Y012134D01*
X015313Y012140D01*
X015322Y012149D01*
X015325Y012156D01*
X015334Y012165D01*
X015337Y012172D01*
X015342Y012177D01*
X015384Y012280D01*
X015384Y012395D01*
X015342Y012498D01*
X015338Y012502D01*
X015334Y012506D01*
X015255Y012585D01*
X015248Y012587D01*
X015247Y012589D01*
X015240Y012591D01*
X015239Y012593D01*
X015232Y012595D01*
X015227Y012600D01*
X015221Y012603D01*
X015220Y012604D01*
X015213Y012607D01*
X015212Y012608D01*
X015205Y012611D01*
X015204Y012612D01*
X015197Y012615D01*
X015196Y012616D01*
X015189Y012619D01*
X015188Y012620D01*
X015181Y012623D01*
X015180Y012624D01*
X015173Y012627D01*
X015172Y012628D01*
X015166Y012631D01*
X015164Y012632D01*
X015158Y012635D01*
X015157Y012636D01*
X015150Y012639D01*
X015149Y012640D01*
X015142Y012643D01*
X015141Y012644D01*
X015038Y012686D01*
X015037Y012686D01*
X015018Y012694D01*
X015016Y012694D01*
X015006Y012698D01*
X015004Y012698D01*
X014995Y012702D01*
X014992Y012702D01*
X014983Y012706D01*
X014980Y012706D01*
X014971Y012710D01*
X014969Y012710D01*
X014959Y012714D01*
X014953Y012714D01*
X014943Y012718D01*
X014937Y012718D01*
X014928Y012722D01*
X014921Y012722D01*
X014912Y012726D01*
X014902Y012726D01*
X014892Y012730D01*
X014878Y012730D01*
X014869Y012734D01*
X014843Y012734D01*
X014833Y012738D01*
X014615Y012738D01*
X014606Y012734D01*
X014580Y012734D01*
X014571Y012730D01*
X014556Y012730D01*
X014547Y012726D01*
X014537Y012726D01*
X014527Y012722D01*
X014521Y012722D01*
X014511Y012718D01*
X014505Y012718D01*
X014496Y012714D01*
X014489Y012714D01*
X014480Y012710D01*
X014478Y012710D01*
X014468Y012706D01*
X014466Y012706D01*
X014456Y012702D01*
X014454Y012702D01*
X014445Y012698D01*
X014442Y012698D01*
X014433Y012694D01*
X014430Y012694D01*
X014411Y012686D01*
X014308Y012644D01*
X014307Y012643D01*
X014280Y012632D01*
X014279Y012631D01*
X014272Y012628D01*
X014271Y012627D01*
X014265Y012624D01*
X014263Y012623D01*
X014257Y012620D01*
X014255Y012619D01*
X014249Y012616D01*
X014248Y012615D01*
X014276Y012683D01*
X014276Y013399D01*
X014521Y013399D01*
X014624Y013296D01*
X014824Y013213D01*
X015042Y013213D01*
X015242Y013296D01*
X015431Y013536D02*
X015977Y013536D01*
X015951Y013600D02*
X016039Y013387D01*
X016202Y013224D01*
X016222Y013215D01*
X016202Y013207D01*
X016039Y013044D01*
X015951Y012831D01*
X015951Y012600D01*
X016039Y012387D01*
X016202Y012224D01*
X016222Y012215D01*
X016202Y012207D01*
X016039Y012044D01*
X015951Y011831D01*
X015951Y011600D01*
X016039Y011387D01*
X016202Y011224D01*
X016222Y011215D01*
X016202Y011207D01*
X016039Y011044D01*
X015951Y010831D01*
X015951Y010600D01*
X016039Y010387D01*
X016202Y010224D01*
X016222Y010215D01*
X016202Y010207D01*
X016039Y010044D01*
X015951Y009831D01*
X015951Y009600D01*
X016039Y009387D01*
X016202Y009224D01*
X016222Y009215D01*
X016202Y009207D01*
X016039Y009044D01*
X015951Y008831D01*
X015951Y008600D01*
X016039Y008387D01*
X016202Y008224D01*
X016222Y008215D01*
X016202Y008207D01*
X016039Y008044D01*
X015951Y007831D01*
X015951Y007600D01*
X016039Y007387D01*
X016202Y007224D01*
X016222Y007215D01*
X016202Y007207D01*
X016039Y007044D01*
X015951Y006831D01*
X015951Y006600D01*
X016039Y006387D01*
X016202Y006224D01*
X016415Y006135D01*
X017246Y006135D01*
X017459Y006224D01*
X017622Y006387D01*
X017711Y006600D01*
X017711Y006831D01*
X017622Y007044D01*
X017459Y007207D01*
X017439Y007215D01*
X017459Y007224D01*
X017622Y007387D01*
X017711Y007600D01*
X017711Y007831D01*
X017622Y008044D01*
X017459Y008207D01*
X017439Y008215D01*
X017459Y008224D01*
X017622Y008387D01*
X017711Y008600D01*
X017711Y008831D01*
X017622Y009044D01*
X017459Y009207D01*
X017439Y009215D01*
X017459Y009224D01*
X017622Y009387D01*
X017711Y009600D01*
X017711Y009831D01*
X017622Y010044D01*
X017459Y010207D01*
X017439Y010215D01*
X017459Y010224D01*
X017622Y010387D01*
X017711Y010600D01*
X017711Y010831D01*
X017622Y011044D01*
X017459Y011207D01*
X017439Y011215D01*
X017459Y011224D01*
X017622Y011387D01*
X017711Y011600D01*
X017711Y011831D01*
X017622Y012044D01*
X017459Y012207D01*
X017439Y012215D01*
X017459Y012224D01*
X017622Y012387D01*
X017711Y012600D01*
X017711Y012831D01*
X017622Y013044D01*
X017459Y013207D01*
X017439Y013215D01*
X017459Y013224D01*
X017622Y013387D01*
X017711Y013600D01*
X017711Y013831D01*
X017622Y014044D01*
X017459Y014207D01*
X017246Y014295D01*
X016415Y014295D01*
X016202Y014207D01*
X016039Y014044D01*
X015951Y013831D01*
X015951Y013600D01*
X015951Y013775D02*
X015479Y013775D01*
X015418Y014013D02*
X016026Y014013D01*
X016309Y014252D02*
X015169Y014252D01*
X014697Y014252D02*
X013377Y014252D01*
X013106Y014546D02*
X013445Y014885D01*
X018779Y014885D01*
X020807Y016912D01*
X018287Y016912D01*
X018110Y016735D01*
X017456Y016637D02*
X015221Y016637D01*
X015221Y016398D02*
X017456Y016398D01*
X017456Y016345D02*
X017499Y016242D01*
X017578Y016163D01*
X017680Y016120D01*
X018540Y016120D01*
X018643Y016163D01*
X018722Y016242D01*
X018764Y016345D01*
X018764Y016512D01*
X019841Y016512D01*
X018614Y015285D01*
X015985Y015285D01*
X016064Y015363D01*
X016204Y015422D01*
X016333Y015550D01*
X016403Y015719D01*
X016403Y015901D01*
X016333Y016069D01*
X016204Y016198D01*
X016036Y016268D01*
X015854Y016268D01*
X015685Y016198D01*
X015556Y016069D01*
X015498Y015929D01*
X015366Y015797D01*
X014807Y015797D01*
X014836Y015868D01*
X014906Y015938D01*
X014967Y016085D01*
X014967Y016120D01*
X014997Y016120D01*
X015099Y016163D01*
X015178Y016242D01*
X015221Y016345D01*
X015221Y017125D01*
X015178Y017228D01*
X015099Y017307D01*
X014997Y017350D01*
X014137Y017350D01*
X014034Y017307D01*
X013955Y017228D01*
X013913Y017125D01*
X013913Y016345D01*
X013955Y016242D01*
X013986Y016211D01*
X013932Y016078D01*
X013932Y015896D01*
X013973Y015797D01*
X005575Y015797D01*
X005605Y015826D01*
X005620Y015863D01*
X006902Y015863D01*
X007035Y015918D01*
X007105Y015989D01*
X007207Y016090D01*
X007259Y016218D01*
X007266Y016215D01*
X007537Y016215D01*
X007640Y016258D01*
X007651Y016269D01*
X007663Y016258D01*
X007766Y016215D01*
X008037Y016215D01*
X008140Y016258D01*
X008219Y016336D01*
X008261Y016439D01*
X008261Y017031D01*
X008219Y017134D01*
X008140Y017212D01*
X008037Y017255D01*
X007766Y017255D01*
X007663Y017212D01*
X007651Y017201D01*
X007640Y017212D01*
X007537Y017255D01*
X007266Y017255D01*
X007163Y017212D01*
X007151Y017201D01*
X007140Y017212D01*
X007037Y017255D01*
X006766Y017255D01*
X006663Y017212D01*
X006584Y017134D01*
X006541Y017031D01*
X006541Y016583D01*
X005283Y016583D01*
X005187Y016544D01*
X005125Y016544D01*
X005104Y016535D01*
X005104Y016821D01*
X005049Y016953D01*
X004357Y017645D01*
X004357Y017956D01*
X004067Y018246D01*
X004240Y018246D01*
X004510Y018357D01*
X004716Y018564D01*
X004828Y018833D01*
X004828Y019125D01*
X004716Y019395D01*
X004646Y019465D01*
X020111Y019465D01*
X019927Y019281D01*
X018677Y019281D01*
X018643Y019315D01*
X018540Y019358D01*
X017680Y019358D01*
X017578Y019315D01*
X017499Y019236D01*
X017456Y019133D01*
X017456Y018353D01*
X017499Y018250D01*
X017578Y018171D01*
X017680Y018128D01*
X018540Y018128D01*
X018643Y018171D01*
X018722Y018250D01*
X018764Y018353D01*
X018764Y018481D01*
X019927Y018481D01*
X020432Y017976D01*
X021182Y017976D01*
X021312Y018106D01*
X021312Y017687D01*
X021182Y017817D01*
X020432Y017817D01*
X019927Y017312D01*
X018630Y017312D01*
X018540Y017350D01*
X017680Y017350D01*
X017578Y017307D01*
X017499Y017228D01*
X017456Y017125D01*
X017456Y016345D01*
X017586Y016160D02*
X016243Y016160D01*
X016395Y015921D02*
X019250Y015921D01*
X019012Y015683D02*
X016388Y015683D01*
X016227Y015444D02*
X018773Y015444D01*
X019427Y014967D02*
X020780Y014967D01*
X020780Y014729D02*
X019189Y014729D01*
X018872Y014490D02*
X020780Y014490D01*
X020144Y014252D02*
X019702Y014252D01*
X019488Y014252D02*
X019488Y014252D01*
X019488Y014298D02*
X019488Y013487D01*
X019488Y013487D01*
X019488Y014298D01*
X019274Y014252D02*
X018832Y014252D01*
X019015Y014013D02*
X019027Y014013D01*
X019488Y014013D02*
X019488Y014013D01*
X019488Y013775D02*
X019488Y013775D01*
X019488Y013536D02*
X019488Y013536D01*
X019488Y013298D02*
X019488Y013298D01*
X019488Y013059D02*
X019488Y013059D01*
X019488Y012821D02*
X019488Y012821D01*
X019533Y012582D02*
X017703Y012582D01*
X017711Y012821D02*
X018046Y012821D01*
X017920Y013059D02*
X017607Y013059D01*
X017533Y013298D02*
X017913Y013298D01*
X017913Y013536D02*
X017684Y013536D01*
X017711Y013775D02*
X017913Y013775D01*
X017961Y014013D02*
X017635Y014013D01*
X017352Y014252D02*
X018144Y014252D01*
X018930Y012821D02*
X019131Y012821D01*
X018605Y012344D02*
X017579Y012344D01*
X017561Y012105D02*
X018347Y012105D01*
X018395Y012153D02*
X018395Y012153D01*
X018222Y011867D02*
X017696Y011867D01*
X017711Y011628D02*
X018222Y011628D01*
X018222Y011390D02*
X017623Y011390D01*
X017515Y011151D02*
X018222Y011151D01*
X018222Y010913D02*
X017677Y010913D01*
X017711Y010674D02*
X018222Y010674D01*
X018222Y010436D02*
X017642Y010436D01*
X017469Y010197D02*
X018222Y010197D01*
X018222Y009959D02*
X017658Y009959D01*
X017711Y009720D02*
X018222Y009720D01*
X018222Y009482D02*
X017662Y009482D01*
X017478Y009243D02*
X018222Y009243D01*
X018222Y009005D02*
X017639Y009005D01*
X017711Y008766D02*
X018222Y008766D01*
X018222Y008528D02*
X017681Y008528D01*
X017524Y008289D02*
X018222Y008289D01*
X018222Y008051D02*
X017616Y008051D01*
X017711Y007812D02*
X018222Y007812D01*
X018222Y007574D02*
X017700Y007574D01*
X017570Y007335D02*
X018222Y007335D01*
X018222Y007097D02*
X017570Y007097D01*
X017699Y006858D02*
X018222Y006858D01*
X018222Y006620D02*
X017711Y006620D01*
X017616Y006381D02*
X018222Y006381D01*
X018222Y006143D02*
X017263Y006143D01*
X016398Y006143D02*
X015341Y006143D01*
X015455Y006381D02*
X016045Y006381D01*
X015951Y006620D02*
X015444Y006620D01*
X015306Y006858D02*
X015962Y006858D01*
X016091Y007097D02*
X014400Y007097D01*
X014161Y007335D02*
X016091Y007335D01*
X015962Y007574D02*
X013923Y007574D01*
X013684Y007812D02*
X015951Y007812D01*
X016045Y008051D02*
X013446Y008051D01*
X013207Y008289D02*
X016137Y008289D01*
X015981Y008528D02*
X015136Y008528D01*
X015413Y008766D02*
X015951Y008766D01*
X016023Y009005D02*
X015479Y009005D01*
X015437Y009243D02*
X016183Y009243D01*
X016000Y009482D02*
X015258Y009482D01*
X014608Y009482D02*
X014540Y009482D01*
X014331Y009720D02*
X015951Y009720D01*
X016004Y009959D02*
X012978Y009959D01*
X012978Y010197D02*
X016192Y010197D01*
X016019Y010436D02*
X012978Y010436D01*
X012978Y010674D02*
X015951Y010674D01*
X015984Y010913D02*
X015155Y010913D01*
X015357Y011151D02*
X016146Y011151D01*
X016038Y011390D02*
X015494Y011390D01*
X015467Y011628D02*
X015951Y011628D01*
X015965Y011867D02*
X015272Y011867D01*
X015243Y011896D02*
X015243Y011896D01*
X015288Y012105D02*
X016100Y012105D01*
X016082Y012344D02*
X015384Y012344D01*
X015258Y012582D02*
X015958Y012582D01*
X015951Y012821D02*
X014276Y012821D01*
X014411Y012686D02*
X014411Y012686D01*
X014276Y013059D02*
X016054Y013059D01*
X014622Y013298D02*
X014276Y013298D01*
X013816Y014013D02*
X012710Y014013D01*
X012786Y013775D02*
X012529Y013775D01*
X012544Y013536D02*
X012771Y013536D01*
X012771Y013298D02*
X012544Y013298D01*
X012544Y013059D02*
X012771Y013059D01*
X012771Y012821D02*
X012544Y012821D01*
X012502Y012582D02*
X012813Y012582D01*
X013815Y012344D02*
X014064Y012344D01*
X014159Y012105D02*
X014162Y012098D01*
X014171Y012089D01*
X014174Y012082D01*
X014183Y012073D01*
X014186Y012067D01*
X014195Y012058D01*
X014198Y012051D01*
X014207Y012042D01*
X014209Y012035D01*
X014218Y012026D01*
X014221Y012019D01*
X014230Y012010D01*
X014233Y012004D01*
X014238Y011999D01*
X014241Y011992D01*
X014250Y011983D01*
X014253Y011976D01*
X014262Y011967D01*
X014264Y011960D01*
X014274Y011951D01*
X014276Y011945D01*
X014285Y011936D01*
X014288Y011929D01*
X014295Y011922D01*
X014221Y011892D01*
X014220Y011891D01*
X014213Y011888D01*
X014212Y011887D01*
X014205Y011884D01*
X013979Y011628D02*
X013607Y011628D01*
X013607Y011390D02*
X013952Y011390D01*
X014094Y011151D02*
X013600Y011151D01*
X012978Y010913D02*
X014294Y010913D01*
X012258Y010913D02*
X010909Y010913D01*
X010909Y011151D02*
X011636Y011151D01*
X011629Y011390D02*
X010909Y011390D01*
X010402Y011390D02*
X010386Y011390D01*
X010386Y011151D02*
X010402Y011151D01*
X009878Y011151D02*
X009868Y011151D01*
X009868Y010913D02*
X009878Y010913D01*
X009868Y011390D02*
X009878Y011390D01*
X009868Y011628D02*
X011629Y011628D01*
X011629Y011867D02*
X009868Y011867D01*
X009868Y012105D02*
X011629Y012105D01*
X011792Y012344D02*
X009868Y012344D01*
X009868Y012582D02*
X011081Y012582D01*
X011039Y012821D02*
X009868Y012821D01*
X009868Y013059D02*
X010214Y013059D01*
X009898Y013298D02*
X009868Y013298D01*
X009068Y013258D02*
X008959Y013213D01*
X008742Y013213D01*
X008541Y013296D01*
X008438Y013399D01*
X007957Y013399D01*
X007957Y012742D01*
X007914Y012640D01*
X007836Y012561D01*
X007733Y012518D01*
X006961Y012518D01*
X006773Y012330D01*
X007123Y012330D01*
X007225Y012287D01*
X007304Y012208D01*
X007347Y012105D01*
X009068Y012105D01*
X009068Y011867D02*
X007347Y011867D01*
X007347Y012105D02*
X007347Y011128D01*
X007304Y011025D01*
X007225Y010946D01*
X007123Y010904D01*
X006718Y010904D01*
X006718Y010428D01*
X006747Y010400D01*
X006816Y010232D01*
X006816Y010050D01*
X006747Y009881D01*
X006730Y009865D01*
X006757Y009854D01*
X006813Y009797D01*
X006869Y009854D01*
X006908Y009870D01*
X006908Y010295D01*
X006963Y010428D01*
X007064Y010529D01*
X007180Y010644D01*
X007180Y010685D01*
X007249Y010853D01*
X007378Y010982D01*
X007547Y011051D01*
X007587Y011051D01*
X008005Y011469D01*
X008052Y011489D01*
X008089Y011579D01*
X008168Y011658D01*
X008271Y011700D01*
X008973Y011700D01*
X009068Y011661D01*
X009068Y013258D01*
X009068Y013059D02*
X007957Y013059D01*
X007957Y013298D02*
X008540Y013298D01*
X009068Y012821D02*
X007957Y012821D01*
X007857Y012582D02*
X009068Y012582D01*
X009068Y012344D02*
X006787Y012344D01*
X006245Y012821D02*
X006225Y012821D01*
X006225Y012800D02*
X006225Y013799D01*
X006182Y013902D01*
X006103Y013980D01*
X006000Y014023D01*
X004944Y014023D01*
X004841Y013980D01*
X004763Y013902D01*
X004720Y013799D01*
X004720Y013674D01*
X004672Y013722D01*
X004672Y013867D01*
X004589Y014068D01*
X004486Y014171D01*
X004486Y014629D01*
X004853Y014997D01*
X006167Y014997D01*
X006025Y014855D01*
X005942Y014655D01*
X005942Y014438D01*
X006025Y014237D01*
X006179Y014083D01*
X006380Y014000D01*
X006597Y014000D01*
X006797Y014083D01*
X006951Y014237D01*
X007034Y014438D01*
X007034Y014655D01*
X006951Y014855D01*
X006809Y014997D01*
X009856Y014997D01*
X009856Y014475D01*
X009728Y014604D01*
X009560Y014674D01*
X009377Y014674D01*
X009209Y014604D01*
X009080Y014475D01*
X009010Y014307D01*
X009010Y014283D01*
X008959Y014304D01*
X008742Y014304D01*
X008541Y014221D01*
X008438Y014119D01*
X007621Y014119D01*
X007489Y014064D01*
X007448Y014023D01*
X006676Y014023D01*
X006574Y013980D01*
X006495Y013902D01*
X006452Y013799D01*
X006452Y013027D01*
X006225Y012800D01*
X006009Y012522D02*
X005998Y012496D01*
X005998Y012330D01*
X005594Y012330D01*
X005491Y012287D01*
X005412Y012208D01*
X005370Y012105D01*
X004651Y012105D01*
X004673Y011977D02*
X004651Y011968D01*
X004651Y012799D01*
X004720Y012867D01*
X004720Y012742D01*
X004763Y012640D01*
X004841Y012561D01*
X004944Y012518D01*
X006000Y012518D01*
X006009Y012522D01*
X005998Y012344D02*
X004651Y012344D01*
X004651Y012582D02*
X004820Y012582D01*
X004720Y012821D02*
X004673Y012821D01*
X004047Y013213D02*
X003986Y013152D01*
X003982Y013142D01*
X003982Y013228D01*
X004017Y013213D01*
X004047Y013213D01*
X004672Y013775D02*
X004720Y013775D01*
X004611Y014013D02*
X004920Y014013D01*
X004486Y014252D02*
X006019Y014252D01*
X006025Y014013D02*
X006349Y014013D01*
X006452Y013775D02*
X006225Y013775D01*
X006225Y013536D02*
X006452Y013536D01*
X006452Y013298D02*
X006225Y013298D01*
X006225Y013059D02*
X006452Y013059D01*
X006627Y014013D02*
X006652Y014013D01*
X006957Y014252D02*
X008614Y014252D01*
X009095Y014490D02*
X007034Y014490D01*
X007003Y014729D02*
X009856Y014729D01*
X009856Y014967D02*
X006839Y014967D01*
X006137Y014967D02*
X004824Y014967D01*
X004585Y014729D02*
X005973Y014729D01*
X005942Y014490D02*
X004486Y014490D01*
X003766Y014777D02*
X003726Y014818D01*
X003726Y014858D01*
X003656Y015026D01*
X003527Y015155D01*
X003359Y015225D01*
X003176Y015225D01*
X003058Y015176D01*
X003281Y015399D01*
X003286Y015387D01*
X003449Y015224D01*
X003662Y015135D01*
X003893Y015135D01*
X004031Y015193D01*
X003821Y014982D01*
X003766Y014850D01*
X003766Y014777D01*
X003814Y014967D02*
X003680Y014967D01*
X003493Y015206D02*
X003405Y015206D01*
X003130Y015206D02*
X003088Y015206D01*
X002989Y015135D02*
X002879Y015026D01*
X002810Y014858D01*
X002810Y014675D01*
X002879Y014507D01*
X003008Y014378D01*
X003176Y014309D01*
X003217Y014309D01*
X003256Y014269D01*
X003193Y014295D01*
X002427Y014295D01*
X002427Y015245D01*
X002537Y015135D01*
X002989Y015135D01*
X002855Y014967D02*
X002427Y014967D01*
X002427Y014729D02*
X002810Y014729D01*
X002896Y014490D02*
X002427Y014490D01*
X002427Y015206D02*
X002467Y015206D01*
X003281Y016032D02*
X003098Y016215D01*
X003277Y016395D01*
X003461Y016212D01*
X003449Y016207D01*
X003286Y016044D01*
X003281Y016032D01*
X003401Y016160D02*
X003154Y016160D01*
X002457Y016215D02*
X002427Y016186D01*
X002427Y016245D01*
X002457Y016215D01*
X003277Y017036D02*
X003055Y017258D01*
X003235Y017438D01*
X003457Y017215D01*
X003277Y017036D01*
X003200Y017114D02*
X003355Y017114D01*
X003321Y017352D02*
X003149Y017352D01*
X003235Y017993D02*
X002993Y018235D01*
X002826Y018235D01*
X003361Y018944D01*
X003361Y018833D01*
X003473Y018564D01*
X003679Y018357D01*
X003829Y018295D01*
X003537Y018295D01*
X003235Y017993D01*
X003161Y018068D02*
X003309Y018068D01*
X002879Y018306D02*
X003803Y018306D01*
X003492Y018545D02*
X003059Y018545D01*
X003240Y018783D02*
X003382Y018783D01*
X004246Y018068D02*
X006601Y018068D01*
X006601Y017995D02*
X006901Y017995D01*
X006601Y017995D01*
X006601Y017726D01*
X006616Y017670D01*
X006645Y017620D01*
X006686Y017579D01*
X006737Y017550D01*
X006793Y017535D01*
X006901Y017535D01*
X006901Y017995D01*
X006901Y017995D01*
X006901Y017995D01*
X006901Y018455D01*
X006793Y018455D01*
X006737Y018440D01*
X006686Y018411D01*
X006645Y018370D01*
X006616Y018320D01*
X006601Y018264D01*
X006601Y017995D01*
X006601Y017829D02*
X004357Y017829D01*
X004411Y017591D02*
X006675Y017591D01*
X006901Y017591D02*
X006901Y017591D01*
X006901Y017535D02*
X007010Y017535D01*
X007066Y017550D01*
X007107Y017573D01*
X007163Y017518D01*
X007266Y017475D01*
X007537Y017475D01*
X007640Y017518D01*
X007651Y017529D01*
X007663Y017518D01*
X007766Y017475D01*
X008037Y017475D01*
X008140Y017518D01*
X008219Y017596D01*
X008261Y017699D01*
X008261Y018291D01*
X008219Y018394D01*
X008140Y018472D01*
X008037Y018515D01*
X007766Y018515D01*
X007663Y018472D01*
X007651Y018461D01*
X007640Y018472D01*
X007537Y018515D01*
X007266Y018515D01*
X007163Y018472D01*
X007107Y018417D01*
X007066Y018440D01*
X007010Y018455D01*
X006901Y018455D01*
X006901Y017995D01*
X006901Y017995D01*
X006901Y017535D01*
X006901Y017829D02*
X006901Y017829D01*
X006901Y017995D02*
X007041Y017995D01*
X007041Y017995D01*
X006901Y017995D01*
X006901Y017995D01*
X006901Y018068D02*
X006901Y018068D01*
X006901Y018306D02*
X006901Y018306D01*
X006613Y018306D02*
X004386Y018306D01*
X004697Y018545D02*
X013973Y018545D01*
X013973Y018696D02*
X013973Y018379D01*
X013988Y018323D01*
X014017Y018273D01*
X014058Y018232D01*
X014108Y018203D01*
X014164Y018188D01*
X014520Y018188D01*
X014520Y018696D01*
X014614Y018696D01*
X014614Y018790D01*
X015161Y018790D01*
X015161Y019107D01*
X015146Y019163D01*
X015117Y019213D01*
X015076Y019254D01*
X015026Y019283D01*
X014970Y019298D01*
X014614Y019298D01*
X014614Y018790D01*
X014520Y018790D01*
X014520Y019298D01*
X014164Y019298D01*
X014108Y019283D01*
X014058Y019254D01*
X014017Y019213D01*
X013988Y019163D01*
X013973Y019107D01*
X013973Y018790D01*
X014519Y018790D01*
X014519Y018696D01*
X013973Y018696D01*
X013973Y019022D02*
X004828Y019022D01*
X004807Y018783D02*
X014519Y018783D01*
X014614Y018783D02*
X017456Y018783D01*
X017456Y018545D02*
X015161Y018545D01*
X015161Y018696D02*
X015161Y018379D01*
X015146Y018323D01*
X015117Y018273D01*
X015076Y018232D01*
X015026Y018203D01*
X014970Y018188D01*
X014614Y018188D01*
X014614Y018696D01*
X015161Y018696D01*
X015161Y019022D02*
X017456Y019022D01*
X017523Y019260D02*
X015065Y019260D01*
X014614Y019260D02*
X014520Y019260D01*
X014520Y019022D02*
X014614Y019022D01*
X014614Y018545D02*
X014520Y018545D01*
X014520Y018306D02*
X014614Y018306D01*
X015136Y018306D02*
X017475Y018306D01*
X018110Y018743D02*
X018248Y018881D01*
X020807Y018881D01*
X020102Y018306D02*
X018745Y018306D01*
X019967Y017352D02*
X004650Y017352D01*
X004888Y017114D02*
X006576Y017114D01*
X006541Y016875D02*
X005081Y016875D01*
X005104Y016637D02*
X006541Y016637D01*
X007235Y016160D02*
X013965Y016160D01*
X013932Y015921D02*
X007037Y015921D01*
X008244Y016398D02*
X013913Y016398D01*
X013913Y016637D02*
X008261Y016637D01*
X008261Y016875D02*
X013913Y016875D01*
X013913Y017114D02*
X008227Y017114D01*
X008213Y017591D02*
X020205Y017591D01*
X020340Y018068D02*
X008261Y018068D01*
X008261Y017829D02*
X021312Y017829D01*
X021312Y018068D02*
X021274Y018068D01*
X019727Y016398D02*
X018764Y016398D01*
X018634Y016160D02*
X019489Y016160D01*
X020143Y015683D02*
X020406Y015683D01*
X020381Y015921D02*
X020445Y015921D01*
X020494Y015444D02*
X019904Y015444D01*
X019666Y015206D02*
X020733Y015206D01*
X021312Y015983D02*
X021235Y016061D01*
X021312Y016138D01*
X021312Y015983D01*
X019961Y014013D02*
X019949Y014013D01*
X020488Y013487D02*
X020488Y012971D01*
X019508Y011991D01*
X018799Y011991D01*
X018622Y011814D01*
X018622Y001715D01*
X018504Y001597D01*
X015071Y001597D01*
X014909Y001759D01*
X014953Y001213D02*
X014991Y001197D01*
X018583Y001197D01*
X018730Y001258D01*
X018753Y001281D01*
X018905Y001218D01*
X019087Y001218D01*
X019255Y001288D01*
X019335Y001367D01*
X019433Y001269D01*
X019613Y001089D01*
X019748Y000954D01*
X019924Y000881D01*
X020007Y000881D01*
X020308Y000580D01*
X012928Y000580D01*
X013010Y000662D01*
X013093Y000863D01*
X013093Y001080D01*
X013015Y001268D01*
X013015Y001268D01*
X013144Y001397D01*
X013209Y001554D01*
X013774Y001554D01*
X013774Y001427D01*
X013844Y001259D01*
X013973Y001130D01*
X014141Y001060D01*
X014323Y001060D01*
X014492Y001130D01*
X014621Y001259D01*
X014631Y001283D01*
X014801Y001213D01*
X014953Y001213D01*
X014495Y001134D02*
X019568Y001134D01*
X019613Y001089D02*
X019613Y001089D01*
X019433Y001269D02*
X019433Y001269D01*
X019889Y000896D02*
X013093Y000896D01*
X013070Y001134D02*
X013969Y001134D01*
X013797Y001373D02*
X013120Y001373D01*
X012547Y000971D02*
X009409Y000971D01*
X009468Y001030D01*
X009468Y014215D01*
X009842Y014490D02*
X009856Y014490D01*
X010576Y014490D02*
X012025Y014490D01*
X012056Y014729D02*
X010576Y014729D01*
X010576Y014967D02*
X012220Y014967D01*
X012571Y014546D02*
X013106Y014546D01*
X012942Y014947D02*
X012892Y014997D01*
X012991Y014997D01*
X012942Y014947D01*
X012961Y014967D02*
X012922Y014967D01*
X012102Y014252D02*
X010576Y014252D01*
X010694Y014013D02*
X012432Y014013D01*
X011053Y013775D02*
X010754Y013775D01*
X010216Y015397D02*
X004744Y015397D01*
X004384Y015573D02*
X004365Y015527D01*
X004300Y015462D01*
X004357Y015600D01*
X004357Y015831D01*
X004269Y016044D01*
X004106Y016207D01*
X004094Y016212D01*
X004357Y016475D01*
X004357Y016626D01*
X004384Y016600D01*
X004384Y015573D01*
X004384Y015683D02*
X004357Y015683D01*
X004384Y015921D02*
X004320Y015921D01*
X004384Y016160D02*
X004154Y016160D01*
X004280Y016398D02*
X004384Y016398D01*
X002500Y017258D02*
X002427Y017186D01*
X002427Y017330D01*
X002500Y017258D01*
X004772Y019260D02*
X014069Y019260D01*
X013998Y018306D02*
X008255Y018306D01*
X010216Y015397D02*
X015531Y015397D01*
X015945Y015810D01*
X015647Y016160D02*
X015091Y016160D01*
X014889Y015921D02*
X015490Y015921D01*
X014567Y016164D02*
X014567Y016735D01*
X015221Y016875D02*
X017456Y016875D01*
X017456Y017114D02*
X015221Y017114D01*
X014567Y016164D02*
X014390Y015987D01*
X019022Y011591D02*
X019587Y011591D01*
X019734Y011652D01*
X020715Y012632D01*
X020767Y012685D01*
X020780Y012690D01*
X020780Y011836D01*
X019298Y010353D01*
X019225Y010177D01*
X019225Y002077D01*
X019087Y002134D01*
X019022Y002134D01*
X019022Y011591D01*
X019022Y011390D02*
X020334Y011390D01*
X020572Y011628D02*
X019677Y011628D01*
X019949Y011867D02*
X020780Y011867D01*
X020780Y012105D02*
X020187Y012105D01*
X020426Y012344D02*
X020780Y012344D01*
X020780Y012582D02*
X020664Y012582D01*
X020095Y011151D02*
X019022Y011151D01*
X019022Y010913D02*
X019857Y010913D01*
X019618Y010674D02*
X019022Y010674D01*
X019022Y010436D02*
X019380Y010436D01*
X019233Y010197D02*
X019022Y010197D01*
X019022Y009959D02*
X019225Y009959D01*
X019225Y009720D02*
X019022Y009720D01*
X019022Y009482D02*
X019225Y009482D01*
X019225Y009243D02*
X019022Y009243D01*
X019022Y009005D02*
X019225Y009005D01*
X019225Y008766D02*
X019022Y008766D01*
X019022Y008528D02*
X019225Y008528D01*
X019225Y008289D02*
X019022Y008289D01*
X019022Y008051D02*
X019225Y008051D01*
X019225Y007812D02*
X019022Y007812D01*
X019022Y007574D02*
X019225Y007574D01*
X019225Y007335D02*
X019022Y007335D01*
X019022Y007097D02*
X019225Y007097D01*
X019225Y006858D02*
X019022Y006858D01*
X019022Y006620D02*
X019225Y006620D01*
X019225Y006381D02*
X019022Y006381D01*
X019022Y006143D02*
X019225Y006143D01*
X019225Y005904D02*
X019022Y005904D01*
X019022Y005666D02*
X019225Y005666D01*
X019225Y005427D02*
X019022Y005427D01*
X019022Y005189D02*
X019225Y005189D01*
X019225Y004950D02*
X019022Y004950D01*
X019022Y004712D02*
X019225Y004712D01*
X019225Y004473D02*
X019022Y004473D01*
X019022Y004235D02*
X019225Y004235D01*
X019225Y003996D02*
X019022Y003996D01*
X019022Y003758D02*
X019225Y003758D01*
X019225Y003519D02*
X019022Y003519D01*
X019022Y003281D02*
X019225Y003281D01*
X019225Y003042D02*
X019022Y003042D01*
X019022Y002804D02*
X019225Y002804D01*
X019225Y002565D02*
X019022Y002565D01*
X019022Y002327D02*
X019225Y002327D01*
X019225Y002088D02*
X019199Y002088D01*
X018222Y002088D02*
X015352Y002088D01*
X015096Y002327D02*
X018222Y002327D01*
X018222Y002565D02*
X015317Y002565D01*
X015360Y002804D02*
X018222Y002804D01*
X018222Y003042D02*
X015360Y003042D01*
X015410Y003281D02*
X018222Y003281D01*
X018222Y003519D02*
X015458Y003519D01*
X015377Y003758D02*
X018222Y003758D01*
X018222Y003996D02*
X014612Y003996D01*
X014612Y003758D02*
X014622Y003758D01*
X014612Y004235D02*
X018222Y004235D01*
X018222Y004473D02*
X014612Y004473D01*
X014612Y004712D02*
X018222Y004712D01*
X018222Y004950D02*
X014612Y004950D01*
X014612Y005189D02*
X018222Y005189D01*
X018222Y005427D02*
X014612Y005427D01*
X014612Y005666D02*
X018222Y005666D01*
X018222Y005904D02*
X014612Y005904D01*
X013892Y005694D02*
X013892Y003376D01*
X013947Y003244D01*
X013971Y003220D01*
X013971Y003179D01*
X014021Y003058D01*
X013015Y003058D01*
X012912Y003016D01*
X012840Y002944D01*
X012840Y003148D01*
X013363Y003148D01*
X013466Y003191D01*
X013544Y003270D01*
X013587Y003373D01*
X013587Y004350D01*
X013544Y004453D01*
X013466Y004532D01*
X013363Y004575D01*
X012958Y004575D01*
X012958Y005608D01*
X012997Y005624D01*
X013076Y005703D01*
X013088Y005733D01*
X013092Y005727D01*
X013133Y005686D01*
X013183Y005657D01*
X013239Y005642D01*
X013508Y005642D01*
X013508Y006302D01*
X013508Y006962D01*
X013239Y006962D01*
X013183Y006947D01*
X013133Y006918D01*
X013092Y006877D01*
X013088Y006870D01*
X013076Y006900D01*
X012997Y006979D01*
X012894Y007022D01*
X012303Y007022D01*
X012200Y006979D01*
X012143Y006923D01*
X012087Y006979D01*
X011984Y007022D01*
X011393Y007022D01*
X011290Y006979D01*
X011211Y006900D01*
X011169Y006797D01*
X011169Y006662D01*
X011147Y006662D01*
X011147Y008339D01*
X011185Y008355D01*
X011313Y008483D01*
X011356Y008587D01*
X011383Y008571D01*
X011439Y008556D01*
X011708Y008556D01*
X011708Y009216D01*
X011708Y009876D01*
X011708Y009216D01*
X011708Y009216D01*
X011708Y009216D01*
X011248Y009216D01*
X011248Y009521D01*
X011145Y009418D01*
X010977Y009348D01*
X010795Y009348D01*
X010626Y009418D01*
X010497Y009546D01*
X010428Y009715D01*
X010428Y009814D01*
X010420Y009821D01*
X010043Y009821D01*
X009940Y009864D01*
X009868Y009935D01*
X009868Y009466D01*
X009899Y009497D01*
X010100Y009580D01*
X010317Y009580D01*
X010518Y009497D01*
X010671Y009343D01*
X010745Y009164D01*
X010834Y009201D01*
X011016Y009201D01*
X011185Y009131D01*
X011248Y009068D01*
X011248Y009216D01*
X011708Y009216D01*
X011708Y009216D01*
X011708Y008556D01*
X011977Y008556D01*
X012033Y008571D01*
X012083Y008600D01*
X012124Y008641D01*
X012128Y008648D01*
X012141Y008617D01*
X012219Y008538D01*
X012258Y008523D01*
X012258Y008297D01*
X012313Y008165D01*
X012414Y008064D01*
X013516Y006962D01*
X013508Y006962D01*
X013508Y006302D01*
X013508Y006302D01*
X013508Y006302D01*
X013508Y005642D01*
X013777Y005642D01*
X013833Y005657D01*
X013883Y005686D01*
X013892Y005694D01*
X013892Y005666D02*
X013848Y005666D01*
X013892Y005427D02*
X012958Y005427D01*
X013038Y005666D02*
X013168Y005666D01*
X013508Y005666D02*
X013508Y005666D01*
X013508Y005904D02*
X013508Y005904D01*
X013508Y006143D02*
X013508Y006143D01*
X013508Y006381D02*
X013508Y006381D01*
X013508Y006620D02*
X013508Y006620D01*
X013508Y006858D02*
X013508Y006858D01*
X013381Y007097D02*
X011147Y007097D01*
X011147Y007335D02*
X013143Y007335D01*
X012904Y007574D02*
X011147Y007574D01*
X011147Y007812D02*
X012666Y007812D01*
X012427Y008051D02*
X011147Y008051D01*
X011147Y008289D02*
X012261Y008289D01*
X012246Y008528D02*
X011332Y008528D01*
X011708Y008766D02*
X011708Y008766D01*
X011708Y009005D02*
X011708Y009005D01*
X011708Y009243D02*
X011708Y009243D01*
X011708Y009482D02*
X011708Y009482D01*
X011708Y009720D02*
X011708Y009720D01*
X011318Y009959D02*
X012258Y009959D01*
X012258Y010197D02*
X011139Y010197D01*
X010969Y010436D02*
X012258Y010436D01*
X012258Y010674D02*
X010967Y010674D01*
X010428Y009720D02*
X009868Y009720D01*
X009868Y009482D02*
X009884Y009482D01*
X010209Y009034D02*
X010216Y009026D01*
X010216Y007444D01*
X010049Y007017D02*
X009957Y007055D01*
X009868Y007144D01*
X009868Y006938D01*
X009876Y006946D01*
X010049Y007017D01*
X009916Y007097D02*
X009868Y007097D01*
X010353Y007004D02*
X010427Y006973D01*
X010427Y007035D01*
X010353Y007004D01*
X011147Y006858D02*
X011194Y006858D01*
X011169Y005942D02*
X011169Y005806D01*
X011211Y005703D01*
X011290Y005624D01*
X011393Y005582D01*
X011984Y005582D01*
X012087Y005624D01*
X012143Y005681D01*
X012200Y005624D01*
X012238Y005608D01*
X012238Y004575D01*
X011834Y004575D01*
X011731Y004532D01*
X011652Y004453D01*
X011610Y004350D01*
X011610Y003373D01*
X011652Y003270D01*
X011731Y003191D01*
X011834Y003148D01*
X012120Y003148D01*
X012120Y003124D01*
X012054Y003058D01*
X011283Y003058D01*
X011180Y003016D01*
X011101Y002937D01*
X011058Y002834D01*
X011058Y002666D01*
X010661Y002666D01*
X010528Y002611D01*
X010222Y002304D01*
X010076Y002304D01*
X009876Y002221D01*
X009868Y002214D01*
X009868Y006028D01*
X009876Y006020D01*
X010076Y005937D01*
X010293Y005937D01*
X010427Y005993D01*
X010427Y005539D01*
X010200Y005539D01*
X010097Y005496D01*
X010018Y005417D01*
X009976Y005314D01*
X009976Y004691D01*
X010018Y004588D01*
X010042Y004564D01*
X010036Y004540D01*
X010036Y004263D01*
X010543Y004263D01*
X010543Y004247D01*
X010036Y004247D01*
X010036Y003970D01*
X010051Y003914D01*
X010080Y003864D01*
X010121Y003823D01*
X010171Y003794D01*
X010227Y003779D01*
X010543Y003779D01*
X010543Y004247D01*
X010559Y004247D01*
X010559Y004263D01*
X011066Y004263D01*
X011066Y004540D01*
X011060Y004564D01*
X011084Y004588D01*
X011126Y004691D01*
X011126Y005117D01*
X011147Y005167D01*
X011147Y005942D01*
X011169Y005942D01*
X011169Y005904D02*
X011147Y005904D01*
X011147Y005666D02*
X011249Y005666D01*
X011147Y005427D02*
X012238Y005427D01*
X012159Y005666D02*
X012128Y005666D01*
X012238Y005189D02*
X011147Y005189D01*
X011126Y004950D02*
X012238Y004950D01*
X012238Y004712D02*
X011126Y004712D01*
X011066Y004473D02*
X011672Y004473D01*
X011610Y004235D02*
X011066Y004235D01*
X011066Y004247D02*
X011066Y003970D01*
X011051Y003914D01*
X011022Y003864D01*
X010981Y003823D01*
X010931Y003794D01*
X010875Y003779D01*
X010559Y003779D01*
X010559Y004247D01*
X011066Y004247D01*
X011066Y003996D02*
X011610Y003996D01*
X011610Y003758D02*
X009868Y003758D01*
X009868Y003996D02*
X010036Y003996D01*
X010036Y004235D02*
X009868Y004235D01*
X009868Y004473D02*
X010036Y004473D01*
X009976Y004712D02*
X009868Y004712D01*
X009868Y004950D02*
X009976Y004950D01*
X009976Y005189D02*
X009868Y005189D01*
X009868Y005427D02*
X010028Y005427D01*
X009868Y005666D02*
X010427Y005666D01*
X010427Y005904D02*
X009868Y005904D01*
X009068Y005904D02*
X008647Y005904D01*
X008647Y005967D02*
X008718Y005937D01*
X008935Y005937D01*
X009068Y005993D01*
X009068Y002249D01*
X008935Y002304D01*
X008790Y002304D01*
X008424Y002670D01*
X008292Y002725D01*
X008292Y002725D01*
X008292Y002893D01*
X008249Y002996D01*
X008170Y003075D01*
X008067Y003117D01*
X007011Y003117D01*
X006989Y003108D01*
X006994Y003120D01*
X006994Y003168D01*
X007398Y003168D01*
X007501Y003211D01*
X007580Y003290D01*
X007622Y003392D01*
X007622Y004370D01*
X007580Y004473D01*
X007501Y004552D01*
X007444Y004575D01*
X007455Y004586D01*
X007525Y004754D01*
X007525Y004936D01*
X007455Y005105D01*
X007326Y005234D01*
X007158Y005303D01*
X006994Y005303D01*
X006994Y005628D01*
X007032Y005644D01*
X007111Y005723D01*
X007124Y005753D01*
X007128Y005746D01*
X007169Y005705D01*
X007219Y005676D01*
X007275Y005661D01*
X007544Y005661D01*
X007813Y005661D01*
X007868Y005676D01*
X007919Y005705D01*
X007927Y005714D01*
X007927Y005035D01*
X007899Y005006D01*
X007829Y004838D01*
X007829Y004656D01*
X007899Y004487D01*
X008028Y004359D01*
X008196Y004289D01*
X008378Y004289D01*
X008547Y004359D01*
X008676Y004487D01*
X008745Y004656D01*
X008745Y004838D01*
X008676Y005006D01*
X008647Y005035D01*
X008647Y005967D01*
X008647Y005666D02*
X009068Y005666D01*
X009068Y005427D02*
X008647Y005427D01*
X008647Y005189D02*
X009068Y005189D01*
X009068Y004950D02*
X008699Y004950D01*
X008745Y004712D02*
X009068Y004712D01*
X009068Y004473D02*
X008661Y004473D01*
X009068Y004235D02*
X007622Y004235D01*
X007580Y004473D02*
X007913Y004473D01*
X007829Y004712D02*
X007507Y004712D01*
X007519Y004950D02*
X007876Y004950D01*
X007927Y005189D02*
X007372Y005189D01*
X006994Y005427D02*
X007927Y005427D01*
X007927Y005666D02*
X007828Y005666D01*
X007544Y005666D02*
X007544Y005666D01*
X007544Y005661D02*
X007544Y006321D01*
X007544Y006321D01*
X007544Y005661D01*
X007544Y005904D02*
X007544Y005904D01*
X007544Y006143D02*
X007544Y006143D01*
X007544Y006321D02*
X007544Y006981D01*
X007544Y006321D01*
X007544Y006321D01*
X007544Y006381D02*
X007544Y006381D01*
X007544Y006620D02*
X007544Y006620D01*
X007544Y006858D02*
X007544Y006858D01*
X007544Y006981D02*
X007813Y006981D01*
X007868Y006966D01*
X007919Y006937D01*
X007927Y006929D01*
X007927Y009401D01*
X007921Y009407D01*
X007881Y009407D01*
X007788Y009446D01*
X007788Y008681D01*
X007745Y008578D01*
X007667Y008499D01*
X007564Y008456D01*
X006972Y008456D01*
X006869Y008499D01*
X006813Y008555D01*
X006757Y008499D01*
X006654Y008456D01*
X006456Y008456D01*
X006469Y008443D01*
X006521Y008318D01*
X006521Y007909D01*
X006569Y007861D01*
X006639Y007692D01*
X006639Y007510D01*
X006569Y007342D01*
X006441Y007213D01*
X006272Y007143D01*
X006090Y007143D01*
X005922Y007213D01*
X005915Y007219D01*
X005913Y007217D01*
X005928Y007202D01*
X005928Y007202D01*
X006029Y007101D01*
X006061Y007024D01*
X006122Y006999D01*
X006179Y006942D01*
X006235Y006999D01*
X006338Y007041D01*
X006929Y007041D01*
X007032Y006999D01*
X007111Y006920D01*
X007124Y006890D01*
X007128Y006896D01*
X007169Y006937D01*
X007219Y006966D01*
X007275Y006981D01*
X007544Y006981D01*
X007927Y007097D02*
X006031Y007097D01*
X006563Y007335D02*
X007927Y007335D01*
X007927Y007574D02*
X006639Y007574D01*
X006590Y007812D02*
X007927Y007812D01*
X007927Y008051D02*
X006521Y008051D01*
X006521Y008289D02*
X007927Y008289D01*
X007927Y008528D02*
X007695Y008528D01*
X007788Y008766D02*
X007927Y008766D01*
X007927Y009005D02*
X007788Y009005D01*
X007788Y009243D02*
X007927Y009243D01*
X008647Y009622D02*
X008592Y009754D01*
X008430Y009916D01*
X008430Y009940D01*
X008614Y009940D01*
X008614Y010408D01*
X008630Y010408D01*
X008630Y009940D01*
X008946Y009940D01*
X009002Y009955D01*
X009052Y009984D01*
X009068Y010000D01*
X009068Y009535D01*
X008959Y009580D01*
X008742Y009580D01*
X008647Y009541D01*
X008647Y009622D01*
X008607Y009720D02*
X009068Y009720D01*
X009068Y009959D02*
X009008Y009959D01*
X008630Y009959D02*
X008614Y009959D01*
X008614Y010197D02*
X008630Y010197D01*
X008614Y010408D02*
X008107Y010408D01*
X008107Y010305D01*
X008063Y010323D01*
X008015Y010323D01*
X008026Y010334D01*
X008096Y010502D01*
X008096Y010542D01*
X008107Y010553D01*
X008107Y010424D01*
X008614Y010424D01*
X008614Y010408D01*
X008107Y010436D02*
X008068Y010436D01*
X007309Y010913D02*
X007144Y010913D01*
X007180Y010674D02*
X006718Y010674D01*
X006718Y010436D02*
X006971Y010436D01*
X006908Y010197D02*
X006816Y010197D01*
X006779Y009959D02*
X006908Y009959D01*
X005986Y009865D02*
X005960Y009854D01*
X005881Y009775D01*
X005868Y009745D01*
X005864Y009751D01*
X005823Y009792D01*
X005773Y009821D01*
X005717Y009836D01*
X005448Y009836D01*
X005179Y009836D01*
X005124Y009821D01*
X005124Y011231D01*
X005152Y011259D01*
X005222Y011427D01*
X005222Y011610D01*
X005152Y011778D01*
X005023Y011907D01*
X004855Y011977D01*
X004673Y011977D01*
X005064Y011867D02*
X005370Y011867D01*
X005370Y012105D02*
X005370Y011128D01*
X005412Y011025D01*
X005491Y010946D01*
X005594Y010904D01*
X005998Y010904D01*
X005998Y010428D01*
X005970Y010400D01*
X005900Y010232D01*
X005900Y010050D01*
X005970Y009881D01*
X005986Y009865D01*
X005938Y009959D02*
X005124Y009959D01*
X005124Y010197D02*
X005900Y010197D01*
X005998Y010436D02*
X005124Y010436D01*
X005124Y010674D02*
X005998Y010674D01*
X005572Y010913D02*
X005124Y010913D01*
X005124Y011151D02*
X005370Y011151D01*
X005370Y011390D02*
X005206Y011390D01*
X005214Y011628D02*
X005370Y011628D01*
X005448Y009836D02*
X005448Y009176D01*
X005448Y009176D01*
X005448Y009836D01*
X005448Y009720D02*
X005448Y009720D01*
X005448Y009482D02*
X005448Y009482D01*
X005448Y009243D02*
X005448Y009243D01*
X004404Y008559D02*
X004404Y007786D01*
X004458Y007653D01*
X005231Y006881D01*
X005204Y006817D01*
X005204Y006682D01*
X004889Y006682D01*
X004757Y006627D01*
X004655Y006526D01*
X004648Y006518D01*
X004648Y006592D01*
X004565Y006792D01*
X004411Y006946D01*
X004211Y007029D01*
X003994Y007029D01*
X003793Y006946D01*
X003640Y006792D01*
X003557Y006592D01*
X003557Y006375D01*
X003640Y006174D01*
X003793Y006020D01*
X003994Y005937D01*
X004112Y005937D01*
X004089Y005882D01*
X004089Y005259D01*
X003995Y005221D01*
X003916Y005142D01*
X003873Y005039D01*
X003873Y004416D01*
X003916Y004313D01*
X003940Y004289D01*
X003933Y004264D01*
X003933Y003987D01*
X004441Y003987D01*
X004441Y003971D01*
X004457Y003971D01*
X004457Y003987D01*
X004964Y003987D01*
X004964Y004264D01*
X004957Y004289D01*
X004981Y004313D01*
X005024Y004416D01*
X005024Y005039D01*
X004981Y005142D01*
X004903Y005221D01*
X004809Y005259D01*
X004809Y005661D01*
X005110Y005962D01*
X005204Y005962D01*
X005204Y005826D01*
X005247Y005723D01*
X005325Y005644D01*
X005428Y005601D01*
X006020Y005601D01*
X006122Y005644D01*
X006179Y005700D01*
X006235Y005644D01*
X006274Y005628D01*
X006274Y004594D01*
X005869Y004594D01*
X005766Y004552D01*
X005688Y004473D01*
X005024Y004473D01*
X005024Y004712D02*
X006274Y004712D01*
X006274Y004950D02*
X005024Y004950D01*
X004935Y005189D02*
X006274Y005189D01*
X006274Y005427D02*
X004809Y005427D01*
X004813Y005666D02*
X005304Y005666D01*
X005204Y005904D02*
X005052Y005904D01*
X004749Y006620D02*
X004636Y006620D01*
X004499Y006858D02*
X005221Y006858D01*
X005015Y007097D02*
X002427Y007097D01*
X002427Y007335D02*
X004777Y007335D01*
X004538Y007574D02*
X002427Y007574D01*
X002427Y007812D02*
X004404Y007812D01*
X004404Y008051D02*
X002427Y008051D01*
X002427Y008135D02*
X003193Y008135D01*
X003406Y008224D01*
X003569Y008387D01*
X003657Y008600D01*
X003657Y008739D01*
X003663Y008725D01*
X003817Y008572D01*
X004017Y008489D01*
X004234Y008489D01*
X004404Y008559D01*
X004404Y008528D02*
X004328Y008528D01*
X004404Y008289D02*
X003471Y008289D01*
X003627Y008528D02*
X003923Y008528D01*
X003580Y009017D02*
X003569Y009044D01*
X003406Y009207D01*
X003386Y009215D01*
X003406Y009224D01*
X003538Y009355D01*
X003675Y009355D01*
X003663Y009343D01*
X003580Y009143D01*
X003580Y009017D01*
X003622Y009243D02*
X003425Y009243D01*
X002427Y008135D02*
X002427Y004234D01*
X002437Y004235D01*
X002777Y004235D01*
X002777Y003715D01*
X002777Y003715D01*
X002777Y003715D01*
X003597Y003715D01*
X003597Y003675D01*
X003585Y003594D01*
X003559Y003516D01*
X003522Y003443D01*
X003474Y003377D01*
X003416Y003319D01*
X003350Y003271D01*
X003306Y003248D01*
X003406Y003207D01*
X003569Y003044D01*
X003657Y002831D01*
X003657Y002600D01*
X003569Y002387D01*
X003406Y002224D01*
X003386Y002215D01*
X003406Y002207D01*
X003569Y002044D01*
X003599Y001971D01*
X003640Y002068D01*
X003793Y002221D01*
X003994Y002304D01*
X004211Y002304D01*
X004411Y002221D01*
X004514Y002119D01*
X005052Y002119D01*
X005055Y002122D01*
X005055Y002893D01*
X005097Y002996D01*
X005176Y003075D01*
X005279Y003117D01*
X006050Y003117D01*
X006101Y003168D01*
X005869Y003168D01*
X005766Y003211D01*
X005688Y003290D01*
X005645Y003392D01*
X005645Y004370D01*
X005688Y004473D01*
X005645Y004235D02*
X004964Y004235D01*
X004964Y003996D02*
X005645Y003996D01*
X005645Y003758D02*
X004964Y003758D01*
X004964Y003694D02*
X004964Y003971D01*
X004457Y003971D01*
X004457Y003503D01*
X004773Y003503D01*
X004829Y003518D01*
X004879Y003547D01*
X004920Y003588D01*
X004949Y003638D01*
X004964Y003694D01*
X004830Y003519D02*
X005645Y003519D01*
X005697Y003281D02*
X003364Y003281D01*
X003560Y003519D02*
X004067Y003519D01*
X004069Y003518D02*
X004124Y003503D01*
X004441Y003503D01*
X004441Y003971D01*
X003933Y003971D01*
X003933Y003694D01*
X003948Y003638D01*
X003977Y003588D01*
X004018Y003547D01*
X004069Y003518D01*
X003933Y003758D02*
X003597Y003758D01*
X003597Y003756D02*
X003585Y003837D01*
X003559Y003915D01*
X003522Y003988D01*
X003474Y004054D01*
X003416Y004112D01*
X003350Y004160D01*
X003277Y004197D01*
X003199Y004223D01*
X003118Y004235D01*
X002777Y004235D01*
X002777Y003715D01*
X003597Y003715D01*
X003597Y003756D01*
X003516Y003996D02*
X003933Y003996D01*
X003933Y004235D02*
X003124Y004235D01*
X002777Y004235D02*
X002777Y004235D01*
X002777Y003996D02*
X002777Y003996D01*
X002777Y003758D02*
X002777Y003758D01*
X002431Y004235D02*
X002427Y004235D01*
X002427Y004473D02*
X003873Y004473D01*
X003873Y004712D02*
X002427Y004712D01*
X002427Y004950D02*
X003873Y004950D01*
X003963Y005189D02*
X002427Y005189D01*
X002427Y005427D02*
X004089Y005427D01*
X004089Y005666D02*
X002427Y005666D01*
X002427Y005904D02*
X004098Y005904D01*
X003671Y006143D02*
X002427Y006143D01*
X002427Y006381D02*
X003557Y006381D01*
X003568Y006620D02*
X002427Y006620D01*
X002427Y006858D02*
X003705Y006858D01*
X005655Y008040D02*
X005655Y008129D01*
X005685Y008099D01*
X005841Y008034D01*
X005841Y007990D01*
X005721Y008040D01*
X005655Y008040D01*
X005655Y008051D02*
X005802Y008051D01*
X006785Y008528D02*
X006841Y008528D01*
X008647Y008528D02*
X008647Y007000D01*
X008718Y007029D01*
X008935Y007029D01*
X009068Y006974D01*
X009068Y008534D01*
X008959Y008489D01*
X008742Y008489D01*
X008647Y008528D01*
X008648Y008528D01*
X008647Y008289D02*
X009068Y008289D01*
X009068Y008051D02*
X008647Y008051D01*
X008647Y007812D02*
X009068Y007812D01*
X009068Y007574D02*
X008647Y007574D01*
X008647Y007335D02*
X009068Y007335D01*
X009068Y007097D02*
X008647Y007097D01*
X009053Y008528D02*
X009068Y008528D01*
X010533Y009482D02*
X010562Y009482D01*
X010713Y009243D02*
X011248Y009243D01*
X011248Y009482D02*
X011209Y009482D01*
X012990Y008528D02*
X013156Y008528D01*
X013900Y008528D02*
X014730Y008528D01*
X014453Y008766D02*
X014048Y008766D01*
X013892Y005189D02*
X012958Y005189D01*
X012958Y004950D02*
X013892Y004950D01*
X013892Y004712D02*
X012958Y004712D01*
X013525Y004473D02*
X013892Y004473D01*
X013892Y004235D02*
X013587Y004235D01*
X013587Y003996D02*
X013892Y003996D01*
X013892Y003758D02*
X013587Y003758D01*
X013587Y003519D02*
X013892Y003519D01*
X013931Y003281D02*
X013549Y003281D01*
X012975Y003042D02*
X012840Y003042D01*
X012791Y002784D02*
X012791Y002200D01*
X012705Y002114D01*
X012665Y002114D01*
X012563Y002073D01*
X012563Y002549D01*
X012785Y002771D01*
X012791Y002784D01*
X012791Y002565D02*
X012579Y002565D01*
X012563Y002327D02*
X012791Y002327D01*
X012601Y002088D02*
X012563Y002088D01*
X012303Y001554D02*
X012335Y001474D01*
X012238Y001434D01*
X012175Y001371D01*
X010569Y001371D01*
X010648Y001450D01*
X010731Y001650D01*
X010731Y001795D01*
X010881Y001946D01*
X011058Y001946D01*
X011058Y001778D01*
X011101Y001675D01*
X011180Y001596D01*
X011283Y001554D01*
X012303Y001554D01*
X012177Y001373D02*
X010571Y001373D01*
X010714Y001611D02*
X011165Y001611D01*
X011058Y001850D02*
X010785Y001850D01*
X010244Y002327D02*
X009868Y002327D01*
X009868Y002565D02*
X010482Y002565D01*
X011058Y002804D02*
X009868Y002804D01*
X009868Y003042D02*
X011243Y003042D01*
X011648Y003281D02*
X009868Y003281D01*
X009868Y003519D02*
X011610Y003519D01*
X010559Y003996D02*
X010543Y003996D01*
X010543Y004235D02*
X010559Y004235D01*
X009068Y003996D02*
X007622Y003996D01*
X007622Y003758D02*
X009068Y003758D01*
X009068Y003519D02*
X007622Y003519D01*
X007571Y003281D02*
X009068Y003281D01*
X009068Y003042D02*
X008203Y003042D01*
X008292Y002804D02*
X009068Y002804D01*
X009068Y002565D02*
X008530Y002565D01*
X008768Y002327D02*
X009068Y002327D01*
X008281Y001795D02*
X008281Y001650D01*
X008364Y001450D01*
X008442Y001371D01*
X006836Y001371D01*
X006774Y001434D01*
X006573Y001517D01*
X006356Y001517D01*
X006155Y001434D01*
X006002Y001280D01*
X005919Y001080D01*
X005919Y000863D01*
X006002Y000662D01*
X006084Y000580D01*
X002427Y000580D01*
X002427Y001135D01*
X003193Y001135D01*
X003406Y001224D01*
X003569Y001387D01*
X003617Y001503D01*
X003640Y001450D01*
X003793Y001296D01*
X003994Y001213D01*
X004211Y001213D01*
X004411Y001296D01*
X004514Y001399D01*
X005272Y001399D01*
X005405Y001454D01*
X005564Y001613D01*
X006335Y001613D01*
X006438Y001655D01*
X006517Y001734D01*
X006559Y001837D01*
X006559Y002608D01*
X006787Y002836D01*
X006787Y001837D01*
X006829Y001734D01*
X006908Y001655D01*
X007011Y001613D01*
X008067Y001613D01*
X008170Y001655D01*
X008249Y001734D01*
X008276Y001800D01*
X008281Y001795D01*
X008297Y001611D02*
X005562Y001611D01*
X006094Y001373D02*
X004488Y001373D01*
X003717Y001373D02*
X003555Y001373D01*
X003525Y002088D02*
X003660Y002088D01*
X003509Y002327D02*
X005055Y002327D01*
X005055Y002565D02*
X003643Y002565D01*
X003657Y002804D02*
X005055Y002804D01*
X005143Y003042D02*
X003570Y003042D01*
X004441Y003519D02*
X004457Y003519D01*
X004441Y003758D02*
X004457Y003758D01*
X006559Y002565D02*
X006787Y002565D01*
X006787Y002327D02*
X006559Y002327D01*
X006559Y002088D02*
X006787Y002088D01*
X006787Y001850D02*
X006559Y001850D01*
X006835Y001373D02*
X008441Y001373D01*
X009409Y000971D02*
X006464Y000971D01*
X005941Y001134D02*
X002427Y001134D01*
X002427Y000896D02*
X005919Y000896D01*
X006007Y000657D02*
X002427Y000657D01*
X006755Y002804D02*
X006787Y002804D01*
X007054Y005666D02*
X007259Y005666D01*
X006214Y005666D02*
X006144Y005666D01*
X007347Y011151D02*
X007686Y011151D01*
X007925Y011390D02*
X007347Y011390D01*
X007347Y011628D02*
X008139Y011628D01*
X014296Y002830D02*
X014296Y002544D01*
X014595Y002844D01*
X014520Y002812D01*
X014338Y002812D01*
X014296Y002830D01*
X014296Y002804D02*
X014555Y002804D01*
X014317Y002565D02*
X014296Y002565D01*
X013005Y000657D02*
X020231Y000657D01*
X021306Y000580D02*
X021312Y000587D01*
X021312Y000580D01*
X021306Y000580D01*
X021312Y002135D02*
X021182Y002266D01*
X020432Y002266D01*
X020185Y002019D01*
X020185Y002672D01*
X020432Y002425D01*
X021182Y002425D01*
X021312Y002555D01*
X021312Y002135D01*
X021312Y002327D02*
X020185Y002327D01*
X020185Y002565D02*
X020292Y002565D01*
X020254Y002088D02*
X020185Y002088D01*
X020185Y003987D02*
X020185Y004641D01*
X020432Y004393D01*
X021182Y004393D01*
X021312Y004524D01*
X021312Y004104D01*
X021182Y004235D01*
X020432Y004235D01*
X020185Y003987D01*
X020185Y003996D02*
X020194Y003996D01*
X020185Y004235D02*
X020432Y004235D01*
X020352Y004473D02*
X020185Y004473D01*
X021182Y004235D02*
X021312Y004235D01*
X021312Y004473D02*
X021262Y004473D01*
X020185Y005956D02*
X020185Y006609D01*
X020432Y006362D01*
X021182Y006362D01*
X021312Y006492D01*
X021312Y006072D01*
X021182Y006203D01*
X020432Y006203D01*
X020185Y005956D01*
X020185Y006143D02*
X020372Y006143D01*
X020413Y006381D02*
X020185Y006381D01*
X021201Y006381D02*
X021312Y006381D01*
X021312Y006143D02*
X021242Y006143D01*
X020185Y007924D02*
X020185Y008578D01*
X020432Y008330D01*
X021182Y008330D01*
X021312Y008461D01*
X021312Y008041D01*
X021182Y008172D01*
X020432Y008172D01*
X020185Y007924D01*
X020185Y008051D02*
X020311Y008051D01*
X020185Y008289D02*
X021312Y008289D01*
X021303Y008051D02*
X021312Y008051D01*
X020235Y008528D02*
X020185Y008528D01*
X021312Y010009D02*
X021312Y011011D01*
X020442Y010140D01*
X021182Y010140D01*
X021312Y010009D01*
X021312Y010197D02*
X020499Y010197D01*
X020737Y010436D02*
X021312Y010436D01*
X021312Y010674D02*
X020976Y010674D01*
X021214Y010913D02*
X021312Y010913D01*
D218*
X020886Y015731D03*
X015945Y015810D03*
X014390Y015987D03*
X014035Y014491D03*
X010650Y012483D03*
X011240Y011204D03*
X011653Y010239D03*
X010886Y009806D03*
X010925Y008743D03*
X010216Y007444D03*
X012027Y007168D03*
X014114Y009314D03*
X008799Y009806D03*
X007972Y009865D03*
X007638Y010593D03*
X006358Y010141D03*
X004764Y011519D03*
X004901Y012365D03*
X003268Y014767D03*
X005216Y016086D03*
X005020Y017247D03*
X003268Y017225D03*
X007520Y018881D03*
X011142Y018881D03*
X009468Y014215D03*
X005945Y008487D03*
X005315Y008487D03*
X005630Y007582D03*
X006181Y007601D03*
X006712Y007326D03*
X007067Y004845D03*
X008287Y004747D03*
X010354Y003172D03*
X012756Y001656D03*
X014232Y001519D03*
X014429Y003271D03*
X015000Y003487D03*
X018996Y001676D03*
X004409Y002818D03*
D219*
X019705Y001676D02*
X019705Y010082D01*
X021260Y011637D01*
X021260Y015357D01*
X020886Y015731D01*
X019705Y001676D02*
X020020Y001361D01*
X020807Y001361D01*
D220*
X006181Y007601D02*
X006181Y008251D01*
X005945Y008487D01*
X005315Y008487D02*
X005315Y007897D01*
X005630Y007582D01*
M02*
