G75*
%MOIN*%
%OFA0B0*%
%FSLAX24Y24*%
%IPPOS*%
%LPD*%
%AMOC8*
5,1,8,0,0,1.08239X$1,22.5*
%
%ADD10C,0.0160*%
%ADD11C,0.0060*%
%ADD12C,0.0000*%
%ADD13C,0.0080*%
%ADD14C,0.0040*%
%ADD15C,0.0050*%
%ADD16C,0.0100*%
%ADD17R,0.0013X0.1455*%
%ADD18R,0.0013X0.1573*%
%ADD19R,0.0013X0.1665*%
%ADD20R,0.0013X0.1731*%
%ADD21R,0.0013X0.1796*%
%ADD22R,0.0013X0.1849*%
%ADD23R,0.0013X0.1888*%
%ADD24R,0.0013X0.1927*%
%ADD25R,0.0013X0.1967*%
%ADD26R,0.0013X0.2006*%
%ADD27R,0.0013X0.2045*%
%ADD28R,0.0013X0.2071*%
%ADD29R,0.0013X0.2098*%
%ADD30R,0.0013X0.2137*%
%ADD31R,0.0013X0.2150*%
%ADD32R,0.0013X0.2176*%
%ADD33R,0.0013X0.2203*%
%ADD34R,0.0013X0.2229*%
%ADD35R,0.0013X0.2242*%
%ADD36R,0.0013X0.2268*%
%ADD37R,0.0013X0.2281*%
%ADD38R,0.0013X0.2307*%
%ADD39R,0.0013X0.2321*%
%ADD40R,0.0013X0.2334*%
%ADD41R,0.0013X0.2360*%
%ADD42R,0.0013X0.2373*%
%ADD43R,0.0013X0.2386*%
%ADD44R,0.0013X0.2399*%
%ADD45R,0.0013X0.2412*%
%ADD46R,0.0013X0.2439*%
%ADD47R,0.0013X0.2452*%
%ADD48R,0.0013X0.2465*%
%ADD49R,0.0013X0.2478*%
%ADD50R,0.0013X0.2491*%
%ADD51R,0.0013X0.2504*%
%ADD52R,0.0013X0.2517*%
%ADD53R,0.0013X0.2530*%
%ADD54R,0.0013X0.2543*%
%ADD55R,0.0013X0.2556*%
%ADD56R,0.0013X0.2570*%
%ADD57R,0.0013X0.2583*%
%ADD58R,0.0013X0.2596*%
%ADD59R,0.0013X0.2609*%
%ADD60R,0.0013X0.2622*%
%ADD61R,0.0013X0.2635*%
%ADD62R,0.0013X0.2648*%
%ADD63R,0.0013X0.2661*%
%ADD64R,0.0013X0.2674*%
%ADD65R,0.0013X0.2688*%
%ADD66R,0.0013X0.2701*%
%ADD67R,0.0013X0.2714*%
%ADD68R,0.0013X0.2727*%
%ADD69R,0.0013X0.2740*%
%ADD70R,0.0013X0.2753*%
%ADD71R,0.0013X0.2766*%
%ADD72R,0.0013X0.2779*%
%ADD73R,0.0013X0.2792*%
%ADD74R,0.0013X0.2806*%
%ADD75R,0.0013X0.3081*%
%ADD76R,0.0013X0.3146*%
%ADD77R,0.0013X0.3186*%
%ADD78R,0.0013X0.3225*%
%ADD79R,0.0013X0.3251*%
%ADD80R,0.0013X0.3264*%
%ADD81R,0.0013X0.3278*%
%ADD82R,0.0013X0.3238*%
%ADD83R,0.0013X0.3199*%
%ADD84R,0.0013X0.3160*%
%ADD85R,0.0013X0.3107*%
%ADD86R,0.0013X0.0774*%
%ADD87R,0.0013X0.0760*%
%ADD88R,0.0013X0.1822*%
%ADD89R,0.0013X0.0747*%
%ADD90R,0.0013X0.0734*%
%ADD91R,0.0013X0.1783*%
%ADD92R,0.0013X0.1770*%
%ADD93R,0.0013X0.1757*%
%ADD94R,0.0013X0.1704*%
%ADD95R,0.0013X0.1678*%
%ADD96R,0.0013X0.1639*%
%ADD97R,0.0013X0.1613*%
%ADD98R,0.0013X0.1586*%
%ADD99R,0.0013X0.1560*%
%ADD100R,0.0013X0.1508*%
%ADD101R,0.0013X0.1232*%
%ADD102R,0.0013X0.0184*%
%ADD103R,0.0013X0.1193*%
%ADD104R,0.0013X0.1180*%
%ADD105R,0.0013X0.1141*%
%ADD106R,0.0013X0.1101*%
%ADD107R,0.0013X0.1075*%
%ADD108R,0.0013X0.1036*%
%ADD109R,0.0013X0.1023*%
%ADD110R,0.0013X0.1009*%
%ADD111R,0.0013X0.0249*%
%ADD112R,0.0013X0.0446*%
%ADD113R,0.0013X0.1495*%
%ADD114R,0.0013X0.1481*%
%ADD115R,0.0013X0.1468*%
%ADD116R,0.0013X0.1442*%
%ADD117R,0.0013X0.1206*%
%ADD118R,0.0013X0.0197*%
%ADD119R,0.0013X0.0118*%
%ADD120R,0.0013X0.0052*%
%ADD121R,0.0013X0.1154*%
%ADD122R,0.0013X0.0210*%
%ADD123R,0.0013X0.0616*%
%ADD124R,0.0013X0.0144*%
%ADD125R,0.0013X0.0564*%
%ADD126R,0.0013X0.0026*%
%ADD127R,0.0013X0.0498*%
%ADD128R,0.0013X0.0170*%
%ADD129R,0.0013X0.0420*%
%ADD130R,0.0013X0.0341*%
%ADD131R,0.0013X0.0105*%
%ADD132R,0.0013X0.0066*%
%ADD133R,0.0013X0.0039*%
%ADD134R,0.0013X0.0013*%
%ADD135R,0.0013X0.0092*%
%ADD136R,0.0013X0.0223*%
%ADD137R,0.0013X0.0275*%
%ADD138R,0.0013X0.0302*%
%ADD139R,0.0013X0.0328*%
%ADD140R,0.0013X0.0354*%
%ADD141R,0.0013X0.0367*%
%ADD142R,0.0013X0.0380*%
%ADD143R,0.0013X0.0406*%
%ADD144R,0.0013X0.0433*%
%ADD145R,0.0013X0.0459*%
%ADD146R,0.0013X0.0485*%
%ADD147R,0.0013X0.0511*%
%ADD148R,0.0013X0.0538*%
%ADD149R,0.0013X0.0590*%
%ADD150R,0.0013X0.0642*%
%ADD151R,0.0013X0.0669*%
%ADD152R,0.0013X0.0695*%
%ADD153R,0.0013X0.0721*%
%ADD154R,0.0013X0.0800*%
%ADD155R,0.0013X0.0813*%
%ADD156R,0.0013X0.0826*%
%ADD157R,0.0013X0.0852*%
%ADD158R,0.0013X0.0878*%
%ADD159R,0.0013X0.0891*%
%ADD160R,0.0013X0.0905*%
%ADD161R,0.0013X0.0931*%
%ADD162R,0.0013X0.0957*%
%ADD163R,0.0013X0.0970*%
%ADD164R,0.0013X0.0983*%
%ADD165R,0.0013X0.0551*%
%ADD166R,0.0013X0.0524*%
%ADD167R,0.0013X0.0472*%
%ADD168R,0.0013X0.0629*%
%ADD169R,0.0013X0.1219*%
%ADD170R,0.0013X0.1245*%
%ADD171R,0.0013X0.1259*%
%ADD172R,0.0013X0.1272*%
%ADD173R,0.0013X0.1298*%
%ADD174R,0.0013X0.1324*%
%ADD175R,0.0013X0.1337*%
%ADD176R,0.0013X0.1350*%
%ADD177R,0.0013X0.1377*%
%ADD178R,0.0013X0.1403*%
%ADD179R,0.0013X0.1416*%
%ADD180R,0.0013X0.1429*%
%ADD181R,0.0013X0.1534*%
%ADD182R,0.0013X0.1547*%
%ADD183R,0.0013X0.1626*%
%ADD184R,0.0013X0.1652*%
%ADD185R,0.0013X0.1691*%
%ADD186R,0.0013X0.1744*%
%ADD187R,0.0013X0.1809*%
%ADD188R,0.0013X0.1862*%
%ADD189R,0.0013X0.1901*%
%ADD190R,0.0013X0.1940*%
%ADD191R,0.0013X0.1363*%
%ADD192R,0.0013X0.0577*%
%ADD193R,0.0013X0.0603*%
%ADD194R,0.0013X0.2111*%
%ADD195R,0.0013X0.2189*%
%ADD196R,0.0013X0.2216*%
%ADD197R,0.0013X0.2255*%
%ADD198R,0.0013X0.2294*%
%ADD199R,0.0013X0.1521*%
%ADD200R,0.0013X0.0839*%
%ADD201R,0.0013X0.2425*%
%ADD202R,0.0013X0.0315*%
%ADD203R,0.0013X0.2085*%
%ADD204R,0.0013X0.0787*%
%ADD205R,0.0013X0.2163*%
%ADD206R,0.0013X0.2124*%
%ADD207R,0.0013X0.2019*%
%ADD208R,0.0013X0.1953*%
%ADD209R,0.0013X0.1717*%
%ADD210R,0.0013X0.1599*%
%ADD211R,0.0013X0.1114*%
%ADD212C,0.0070*%
D10*
X002027Y000180D02*
X021712Y000180D01*
X021712Y019865D01*
X003681Y019865D01*
X002027Y018211D01*
X002027Y000180D01*
D11*
X015803Y005192D02*
X015803Y005266D01*
X015803Y005192D02*
X015950Y005046D01*
X015950Y004825D01*
X015950Y005046D02*
X016097Y005192D01*
X016097Y005266D01*
X016264Y005119D02*
X016264Y004825D01*
X016264Y005046D02*
X016557Y005046D01*
X016557Y005119D02*
X016410Y005266D01*
X016264Y005119D01*
X016557Y005119D02*
X016557Y004825D01*
X016724Y004825D02*
X017018Y004825D01*
X017018Y005266D01*
X017184Y005266D02*
X017478Y005266D01*
X017478Y004825D01*
X017184Y004825D01*
X017331Y005046D02*
X017478Y005046D01*
X017645Y005046D02*
X017718Y004972D01*
X017938Y004972D01*
X017792Y004972D02*
X017645Y004825D01*
X017645Y005046D02*
X017645Y005192D01*
X017718Y005266D01*
X017938Y005266D01*
X017938Y004825D01*
X017785Y004516D02*
X017565Y004516D01*
X017491Y004442D01*
X017491Y004149D01*
X017565Y004075D01*
X017785Y004075D01*
X017785Y004516D01*
X017325Y004516D02*
X017178Y004516D01*
X017251Y004516D02*
X017251Y004075D01*
X017178Y004075D02*
X017325Y004075D01*
X017018Y004075D02*
X017018Y004516D01*
X016797Y004516D01*
X016724Y004442D01*
X016724Y004296D01*
X016797Y004222D01*
X017018Y004222D01*
X016097Y004075D02*
X015950Y004075D01*
X016023Y004075D02*
X016023Y004516D01*
X015950Y004516D02*
X016097Y004516D01*
X016553Y002060D02*
X016553Y001620D01*
X016700Y001766D01*
X016846Y001620D01*
X016846Y002060D01*
X017013Y002060D02*
X017307Y001766D01*
X017233Y001840D02*
X017013Y001620D01*
X017307Y001620D02*
X017307Y002060D01*
X017474Y002060D02*
X017620Y002060D01*
X017547Y002060D02*
X017547Y001693D01*
X017620Y001620D01*
X017694Y001620D01*
X017767Y001693D01*
X017307Y001237D02*
X017233Y001310D01*
X017087Y001310D01*
X017013Y001237D01*
X017307Y000943D01*
X017233Y000870D01*
X017087Y000870D01*
X017013Y000943D01*
X017013Y001237D01*
X016616Y001163D02*
X016469Y001310D01*
X016469Y000870D01*
X016323Y000870D02*
X016616Y000870D01*
X016773Y000870D02*
X016846Y000870D01*
X016846Y000943D01*
X016773Y000943D01*
X016773Y000870D01*
X017307Y000943D02*
X017307Y001237D01*
X017474Y001163D02*
X017620Y000870D01*
X017767Y001163D01*
X007751Y016965D02*
X007753Y016985D01*
X007759Y017003D01*
X007768Y017021D01*
X007780Y017036D01*
X007795Y017048D01*
X007813Y017057D01*
X007831Y017063D01*
X007851Y017065D01*
X007871Y017063D01*
X007889Y017057D01*
X007907Y017048D01*
X007922Y017036D01*
X007934Y017021D01*
X007943Y017003D01*
X007949Y016985D01*
X007951Y016965D01*
X007949Y016945D01*
X007943Y016927D01*
X007934Y016909D01*
X007922Y016894D01*
X007907Y016882D01*
X007889Y016873D01*
X007871Y016867D01*
X007851Y016865D01*
X007831Y016867D01*
X007813Y016873D01*
X007795Y016882D01*
X007780Y016894D01*
X007768Y016909D01*
X007759Y016927D01*
X007753Y016945D01*
X007751Y016965D01*
D12*
X003681Y018979D02*
X003683Y019019D01*
X003689Y019060D01*
X003699Y019099D01*
X003712Y019137D01*
X003730Y019174D01*
X003751Y019208D01*
X003775Y019241D01*
X003802Y019271D01*
X003832Y019298D01*
X003865Y019322D01*
X003899Y019343D01*
X003936Y019361D01*
X003974Y019374D01*
X004013Y019384D01*
X004054Y019390D01*
X004094Y019392D01*
X004134Y019390D01*
X004175Y019384D01*
X004214Y019374D01*
X004252Y019361D01*
X004289Y019343D01*
X004323Y019322D01*
X004356Y019298D01*
X004386Y019271D01*
X004413Y019241D01*
X004437Y019208D01*
X004458Y019174D01*
X004476Y019137D01*
X004489Y019099D01*
X004499Y019060D01*
X004505Y019019D01*
X004507Y018979D01*
X004505Y018939D01*
X004499Y018898D01*
X004489Y018859D01*
X004476Y018821D01*
X004458Y018784D01*
X004437Y018750D01*
X004413Y018717D01*
X004386Y018687D01*
X004356Y018660D01*
X004323Y018636D01*
X004289Y018615D01*
X004252Y018597D01*
X004214Y018584D01*
X004175Y018574D01*
X004134Y018568D01*
X004094Y018566D01*
X004054Y018568D01*
X004013Y018574D01*
X003974Y018584D01*
X003936Y018597D01*
X003899Y018615D01*
X003865Y018636D01*
X003832Y018660D01*
X003802Y018687D01*
X003775Y018717D01*
X003751Y018750D01*
X003730Y018784D01*
X003712Y018821D01*
X003699Y018859D01*
X003689Y018898D01*
X003683Y018939D01*
X003681Y018979D01*
D13*
X006414Y013664D02*
X006414Y012877D01*
X006012Y013271D01*
X006414Y013664D01*
X007648Y011097D02*
X005068Y011097D01*
X005068Y009697D01*
X007648Y009697D01*
X007648Y011097D01*
X011328Y011136D02*
X011328Y009736D01*
X013908Y009736D01*
X013908Y011136D01*
X011328Y011136D01*
X012733Y012818D02*
X012733Y013605D01*
X012331Y013211D01*
X012733Y012818D01*
X013888Y005782D02*
X011308Y005782D01*
X011308Y004382D01*
X013888Y004382D01*
X013888Y005782D01*
X012601Y002700D02*
X012601Y001912D01*
X013004Y002306D01*
X012601Y002700D01*
X007924Y004401D02*
X005344Y004401D01*
X005344Y005801D01*
X007924Y005801D01*
X007924Y004401D01*
X006597Y002759D02*
X006597Y001971D01*
X007000Y002365D01*
X006597Y002759D01*
D14*
X005783Y003115D02*
X007563Y003115D01*
X007563Y001615D02*
X005783Y001615D01*
X005785Y001200D02*
X006015Y001200D01*
X006015Y000740D01*
X005785Y000740D01*
X005708Y000816D01*
X005708Y001123D01*
X005785Y001200D01*
X005555Y001123D02*
X005478Y001200D01*
X005325Y001200D01*
X005248Y001123D01*
X005248Y001047D01*
X005555Y000740D01*
X005248Y000740D01*
X003909Y003840D02*
X003449Y003840D01*
X003602Y003840D02*
X003602Y004070D01*
X003679Y004147D01*
X003833Y004147D01*
X003909Y004070D01*
X003909Y003840D01*
X003602Y003994D02*
X003449Y004147D01*
X003526Y004301D02*
X003602Y004301D01*
X003679Y004377D01*
X003679Y004531D01*
X003602Y004608D01*
X003526Y004608D01*
X003449Y004531D01*
X003449Y004377D01*
X003526Y004301D01*
X003679Y004377D02*
X003756Y004301D01*
X003833Y004301D01*
X003909Y004377D01*
X003909Y004531D01*
X003833Y004608D01*
X003756Y004608D01*
X003679Y004531D01*
X006032Y004942D02*
X006108Y004866D01*
X006262Y004866D01*
X006339Y004942D01*
X006492Y004942D02*
X006492Y005019D01*
X006569Y005096D01*
X006722Y005096D01*
X006799Y005173D01*
X006799Y005249D01*
X006722Y005326D01*
X006569Y005326D01*
X006492Y005249D01*
X006339Y005249D02*
X006262Y005326D01*
X006108Y005326D01*
X006032Y005249D01*
X006032Y005173D01*
X006108Y005096D01*
X006032Y005019D01*
X006032Y004942D01*
X006108Y005096D02*
X006185Y005096D01*
X006492Y004942D02*
X006569Y004866D01*
X006722Y004866D01*
X006799Y004942D01*
X006953Y004942D02*
X006953Y005326D01*
X007259Y005326D02*
X007259Y004942D01*
X007183Y004866D01*
X007029Y004866D01*
X006953Y004942D01*
X006646Y004789D02*
X006646Y005403D01*
X009571Y004669D02*
X009571Y004515D01*
X009648Y004438D01*
X009955Y004745D01*
X009648Y004745D01*
X009571Y004669D01*
X009648Y004438D02*
X009955Y004438D01*
X010031Y004515D01*
X010031Y004669D01*
X009955Y004745D01*
X009571Y004285D02*
X009571Y003978D01*
X009571Y003825D02*
X009725Y003671D01*
X009725Y003748D02*
X009725Y003518D01*
X009571Y003518D02*
X010031Y003518D01*
X010031Y003748D01*
X009955Y003825D01*
X009801Y003825D01*
X009725Y003748D01*
X009878Y003978D02*
X010031Y004131D01*
X009571Y004131D01*
X011787Y003056D02*
X013567Y003056D01*
X013567Y001556D02*
X011787Y001556D01*
X013291Y000965D02*
X013598Y000965D01*
X013368Y001195D01*
X013368Y000735D01*
X013751Y000812D02*
X013751Y001119D01*
X013828Y001195D01*
X014058Y001195D01*
X014058Y000735D01*
X013828Y000735D01*
X013751Y000812D01*
X013121Y004761D02*
X013121Y005375D01*
X013044Y005298D02*
X012968Y005221D01*
X013044Y005298D02*
X013198Y005298D01*
X013274Y005221D01*
X013274Y005144D01*
X013198Y005068D01*
X013044Y005068D01*
X012968Y004991D01*
X012968Y004914D01*
X013044Y004837D01*
X013198Y004837D01*
X013274Y004914D01*
X013428Y004914D02*
X013428Y005298D01*
X013735Y005298D02*
X013735Y004914D01*
X013658Y004837D01*
X013505Y004837D01*
X013428Y004914D01*
X012814Y004837D02*
X012507Y004837D01*
X012354Y004837D02*
X012047Y005144D01*
X012047Y005221D01*
X012123Y005298D01*
X012277Y005298D01*
X012354Y005221D01*
X012661Y005298D02*
X012661Y004837D01*
X012354Y004837D02*
X012047Y004837D01*
X012661Y005298D02*
X012814Y005144D01*
X012590Y010124D02*
X012590Y010737D01*
X012514Y010661D02*
X012437Y010584D01*
X012514Y010661D02*
X012667Y010661D01*
X012744Y010584D01*
X012744Y010507D01*
X012667Y010431D01*
X012514Y010431D01*
X012437Y010354D01*
X012437Y010277D01*
X012514Y010200D01*
X012667Y010200D01*
X012744Y010277D01*
X012897Y010277D02*
X012897Y010661D01*
X013204Y010661D02*
X013204Y010277D01*
X013128Y010200D01*
X012974Y010200D01*
X012897Y010277D01*
X012284Y010277D02*
X012207Y010200D01*
X012053Y010200D01*
X011977Y010277D01*
X011977Y010584D01*
X012053Y010661D01*
X012207Y010661D01*
X012284Y010584D01*
X012284Y010507D01*
X012207Y010431D01*
X011977Y010431D01*
X009917Y010495D02*
X009917Y010265D01*
X009457Y010265D01*
X009610Y010265D02*
X009610Y010495D01*
X009687Y010572D01*
X009841Y010572D01*
X009917Y010495D01*
X009841Y010725D02*
X009764Y010725D01*
X009687Y010802D01*
X009687Y011032D01*
X009534Y011032D02*
X009841Y011032D01*
X009917Y010956D01*
X009917Y010802D01*
X009841Y010725D01*
X009534Y010725D02*
X009457Y010802D01*
X009457Y010956D01*
X009534Y011032D01*
X009457Y010572D02*
X009610Y010418D01*
X008859Y011661D02*
X008859Y012121D01*
X008629Y012121D01*
X008552Y012044D01*
X008552Y011891D01*
X008629Y011814D01*
X008859Y011814D01*
X008706Y011814D02*
X008552Y011661D01*
X008399Y011737D02*
X008399Y011891D01*
X008169Y011891D01*
X008092Y011814D01*
X008092Y011737D01*
X008169Y011661D01*
X008322Y011661D01*
X008399Y011737D01*
X008399Y011891D02*
X008245Y012044D01*
X008092Y012121D01*
X007228Y012521D02*
X005448Y012521D01*
X005448Y014021D02*
X007228Y014021D01*
X005759Y014263D02*
X005529Y014263D01*
X005452Y014340D01*
X005452Y014647D01*
X005529Y014724D01*
X005759Y014724D01*
X005759Y014263D01*
X005299Y014263D02*
X004992Y014263D01*
X005145Y014263D02*
X005145Y014724D01*
X005299Y014570D01*
X005618Y010858D02*
X005618Y010781D01*
X005925Y010474D01*
X005925Y010397D01*
X006079Y010474D02*
X006079Y010551D01*
X006155Y010627D01*
X006309Y010627D01*
X006386Y010704D01*
X006386Y010781D01*
X006309Y010858D01*
X006155Y010858D01*
X006079Y010781D01*
X005925Y010858D02*
X005618Y010858D01*
X006079Y010474D02*
X006155Y010397D01*
X006309Y010397D01*
X006386Y010474D01*
X006539Y010474D02*
X006539Y010858D01*
X006232Y010934D02*
X006232Y010320D01*
X006539Y010474D02*
X006616Y010397D01*
X006769Y010397D01*
X006846Y010474D01*
X006846Y010858D01*
X003677Y009245D02*
X003217Y009245D01*
X003217Y009398D02*
X003217Y009091D01*
X003217Y008938D02*
X003370Y008785D01*
X003370Y008861D02*
X003370Y008631D01*
X003217Y008631D02*
X003677Y008631D01*
X003677Y008861D01*
X003600Y008938D01*
X003447Y008938D01*
X003370Y008861D01*
X003524Y009091D02*
X003677Y009245D01*
X011075Y014320D02*
X011151Y014244D01*
X011305Y014244D01*
X011382Y014320D01*
X011535Y014320D02*
X011535Y014627D01*
X011612Y014704D01*
X011842Y014704D01*
X011842Y014244D01*
X011612Y014244D01*
X011535Y014320D01*
X011228Y014474D02*
X011151Y014474D01*
X011075Y014397D01*
X011075Y014320D01*
X011151Y014474D02*
X011075Y014551D01*
X011075Y014627D01*
X011151Y014704D01*
X011305Y014704D01*
X011382Y014627D01*
X011767Y013961D02*
X013547Y013961D01*
X013547Y012461D02*
X011767Y012461D01*
X015482Y016528D02*
X015482Y016902D01*
X015295Y016715D02*
X015669Y016715D01*
X017195Y016715D02*
X017211Y016703D01*
X017225Y016688D01*
X017235Y016671D01*
X017243Y016652D01*
X017247Y016632D01*
X017247Y016612D01*
X017243Y016592D01*
X017235Y016573D01*
X017225Y016556D01*
X017211Y016541D01*
X017195Y016529D01*
X017195Y016716D02*
X017179Y016728D01*
X017165Y016743D01*
X017155Y016760D01*
X017147Y016779D01*
X017143Y016799D01*
X017143Y016819D01*
X017147Y016839D01*
X017155Y016858D01*
X017165Y016875D01*
X017179Y016890D01*
X017195Y016902D01*
X017195Y018576D02*
X017211Y018588D01*
X017225Y018603D01*
X017235Y018620D01*
X017243Y018639D01*
X017247Y018659D01*
X017247Y018679D01*
X017243Y018699D01*
X017235Y018718D01*
X017225Y018735D01*
X017211Y018750D01*
X017195Y018762D01*
X017195Y018763D02*
X017179Y018775D01*
X017165Y018790D01*
X017155Y018807D01*
X017147Y018826D01*
X017143Y018846D01*
X017143Y018866D01*
X017147Y018886D01*
X017155Y018905D01*
X017165Y018922D01*
X017179Y018937D01*
X017195Y018949D01*
X015482Y018950D02*
X015482Y018576D01*
X019631Y003634D02*
X019631Y003394D01*
X019811Y003574D01*
X019451Y003574D01*
X019451Y003265D02*
X019811Y003265D01*
X019811Y003025D02*
X019451Y003265D01*
X019451Y003025D02*
X019811Y003025D01*
D15*
X019563Y001575D02*
X019487Y001575D01*
X019487Y001500D01*
X019563Y001500D01*
X019563Y001575D01*
X019487Y001340D02*
X019487Y001040D01*
X019938Y001040D01*
X019938Y001340D01*
X019713Y001190D02*
X019713Y001040D01*
X019847Y004900D02*
X019397Y004900D01*
X019397Y005201D02*
X019847Y005201D01*
X019772Y005361D02*
X019847Y005436D01*
X019847Y005586D01*
X019772Y005661D01*
X019697Y005661D01*
X019622Y005586D01*
X019547Y005661D01*
X019472Y005661D01*
X019397Y005586D01*
X019397Y005436D01*
X019472Y005361D01*
X019397Y005201D02*
X019847Y004900D01*
X019622Y005511D02*
X019622Y005586D01*
X019456Y006869D02*
X019906Y006869D01*
X019456Y007169D01*
X019906Y007169D01*
X019831Y007329D02*
X019906Y007404D01*
X019906Y007554D01*
X019831Y007629D01*
X019756Y007629D01*
X019456Y007329D01*
X019456Y007629D01*
X019377Y008837D02*
X019828Y008837D01*
X019377Y009138D01*
X019828Y009138D01*
X019678Y009298D02*
X019828Y009448D01*
X019377Y009448D01*
X019377Y009298D02*
X019377Y009598D01*
D16*
X017559Y016145D02*
X015118Y016145D01*
X015118Y016341D01*
X017559Y016341D01*
X017559Y016145D02*
X017559Y019334D01*
X015118Y019334D01*
X015118Y016341D01*
X008131Y016655D02*
X008131Y018075D01*
X006671Y018075D01*
X006671Y016655D01*
X008131Y016655D01*
D17*
X009105Y017419D03*
X010115Y017419D03*
X013392Y017419D03*
D18*
X013379Y017426D03*
X010036Y017413D03*
D19*
X009971Y017419D03*
X009145Y017419D03*
X013366Y017419D03*
D20*
X013353Y017426D03*
X011754Y017019D03*
X009931Y017413D03*
D21*
X009171Y017419D03*
X011806Y017013D03*
X013340Y017419D03*
D22*
X013327Y017419D03*
X011845Y017026D03*
X009853Y017419D03*
X009184Y017419D03*
D23*
X009826Y017413D03*
X013314Y017426D03*
D24*
X013301Y017419D03*
X009800Y017419D03*
D25*
X013287Y017426D03*
D26*
X013274Y017419D03*
D27*
X013261Y017426D03*
D28*
X013248Y017426D03*
X009446Y017229D03*
X009433Y017216D03*
X009420Y017203D03*
X009407Y017203D03*
X009236Y017413D03*
D29*
X009354Y017216D03*
X009367Y017203D03*
X009381Y017190D03*
X009682Y017413D03*
X013235Y017426D03*
D30*
X013222Y017419D03*
X009656Y017419D03*
D31*
X009643Y017413D03*
X013209Y017426D03*
D32*
X013196Y017426D03*
X009630Y017413D03*
D33*
X013183Y017426D03*
D34*
X013169Y017426D03*
X009590Y017413D03*
D35*
X013156Y017419D03*
D36*
X013143Y017419D03*
X009564Y017419D03*
X009289Y017419D03*
D37*
X013130Y017426D03*
D38*
X013117Y017426D03*
X009538Y017413D03*
D39*
X013104Y017419D03*
D40*
X013091Y017426D03*
X009525Y017413D03*
D41*
X013078Y017426D03*
D42*
X013065Y017419D03*
D43*
X013051Y017426D03*
D44*
X013038Y017419D03*
D45*
X013025Y017426D03*
D46*
X013012Y017426D03*
D47*
X012999Y017419D03*
D48*
X012986Y017426D03*
D49*
X012973Y017419D03*
D50*
X012960Y017426D03*
D51*
X012947Y017419D03*
D52*
X012933Y017426D03*
X012920Y017426D03*
D53*
X012907Y017419D03*
D54*
X012894Y017426D03*
D55*
X012881Y017419D03*
D56*
X012868Y017426D03*
X012855Y017426D03*
D57*
X012842Y017419D03*
D58*
X012829Y017426D03*
D59*
X012815Y017419D03*
X012802Y017419D03*
D60*
X012789Y017426D03*
D61*
X012776Y017419D03*
X012763Y017419D03*
D62*
X012750Y017426D03*
X012737Y017426D03*
X011858Y017413D03*
D63*
X011872Y017419D03*
X011885Y017419D03*
X012724Y017419D03*
D64*
X012711Y017426D03*
X012697Y017426D03*
X011911Y017413D03*
X011898Y017413D03*
D65*
X011924Y017419D03*
X011937Y017419D03*
X011950Y017419D03*
X011963Y017419D03*
X012684Y017419D03*
D66*
X012671Y017426D03*
X012658Y017426D03*
D67*
X012645Y017419D03*
X012632Y017419D03*
D68*
X012619Y017426D03*
X012606Y017426D03*
D69*
X012593Y017419D03*
X012579Y017419D03*
D70*
X012566Y017426D03*
X012553Y017426D03*
X012540Y017426D03*
D71*
X012527Y017419D03*
X012514Y017419D03*
D72*
X012501Y017426D03*
X012488Y017426D03*
D73*
X012475Y017419D03*
X012461Y017419D03*
D74*
X012448Y017426D03*
D75*
X012435Y017419D03*
D76*
X012422Y017413D03*
D77*
X012409Y017419D03*
D78*
X012396Y017413D03*
X012383Y017413D03*
X012107Y017413D03*
D79*
X012134Y017413D03*
X012370Y017413D03*
D80*
X012357Y017419D03*
X012147Y017419D03*
D81*
X012160Y017413D03*
X012173Y017413D03*
X012186Y017413D03*
X012199Y017413D03*
X012212Y017413D03*
X012225Y017413D03*
X012239Y017413D03*
X012252Y017413D03*
X012265Y017413D03*
X012278Y017413D03*
X012291Y017413D03*
X012304Y017413D03*
X012317Y017413D03*
X012330Y017413D03*
X012343Y017413D03*
D82*
X012121Y017419D03*
D83*
X012094Y017413D03*
D84*
X012081Y017419D03*
D85*
X012068Y017419D03*
D86*
X011557Y018114D03*
X011570Y018140D03*
X011583Y018153D03*
X011596Y018180D03*
X011609Y018193D03*
X011622Y018206D03*
X011636Y018232D03*
X011845Y018350D03*
X010574Y017419D03*
D87*
X011544Y018081D03*
X011649Y018252D03*
X011832Y018357D03*
D88*
X011832Y017013D03*
X011819Y017013D03*
X009866Y017419D03*
D89*
X010587Y017419D03*
X011662Y018258D03*
X011675Y018271D03*
X011688Y018284D03*
X011701Y018298D03*
X011714Y018298D03*
X011727Y018311D03*
X011754Y018324D03*
X011767Y018337D03*
X011780Y018337D03*
X011806Y018350D03*
X011819Y018350D03*
D90*
X011793Y018343D03*
X011740Y018317D03*
X010600Y017413D03*
D91*
X009892Y017413D03*
X011793Y017019D03*
D92*
X011780Y017013D03*
X009905Y017419D03*
D93*
X011767Y017019D03*
D94*
X011740Y017019D03*
X009944Y017413D03*
D95*
X011727Y017006D03*
D96*
X011714Y017000D03*
D97*
X011701Y017013D03*
X010010Y017419D03*
D98*
X010023Y017419D03*
X011688Y017013D03*
D99*
X011675Y017013D03*
X009341Y017852D03*
D100*
X009315Y017839D03*
X009512Y017000D03*
X009499Y016987D03*
X010075Y017419D03*
X011662Y017013D03*
D101*
X011649Y017137D03*
D102*
X011649Y016390D03*
D103*
X011636Y017131D03*
D104*
X011622Y017124D03*
X011452Y017491D03*
X011439Y017491D03*
X011426Y017491D03*
D105*
X011400Y017485D03*
X011609Y017118D03*
D106*
X011596Y017111D03*
D107*
X011583Y017098D03*
D108*
X011570Y017091D03*
X011531Y017118D03*
X009040Y017419D03*
D109*
X011557Y017098D03*
D110*
X011544Y017105D03*
X010416Y017419D03*
D111*
X010928Y017419D03*
X011531Y018284D03*
D112*
X011531Y017898D03*
X010338Y017072D03*
X010325Y017072D03*
D113*
X010089Y017413D03*
X009302Y017819D03*
X011518Y017360D03*
D114*
X011504Y017367D03*
X010102Y017419D03*
D115*
X011491Y017373D03*
D116*
X011478Y017373D03*
D117*
X011465Y017491D03*
D118*
X010967Y017419D03*
X011373Y017026D03*
X011465Y016764D03*
D119*
X011452Y016751D03*
X011334Y017013D03*
X011019Y017419D03*
D120*
X011439Y016744D03*
D121*
X011413Y017491D03*
D122*
X011321Y017439D03*
X011386Y017032D03*
X011386Y017950D03*
D123*
X011386Y017472D03*
X010678Y017419D03*
D124*
X010993Y017419D03*
X011006Y017419D03*
X011347Y017013D03*
X011373Y017970D03*
D125*
X011373Y017472D03*
X010718Y017419D03*
X010325Y017708D03*
X009721Y016672D03*
D126*
X011360Y017989D03*
D127*
X011360Y017465D03*
D128*
X010980Y017419D03*
X011360Y017026D03*
D129*
X011347Y017452D03*
X010390Y017098D03*
X010377Y017098D03*
X010364Y017085D03*
D130*
X011334Y017452D03*
X009381Y018514D03*
X009354Y018488D03*
D131*
X011321Y017006D03*
D132*
X011308Y017000D03*
X011059Y017419D03*
X011046Y017419D03*
D133*
X011072Y017419D03*
X011295Y017000D03*
D134*
X011085Y017419D03*
D135*
X011032Y017419D03*
D136*
X010954Y017419D03*
X010941Y017419D03*
D137*
X010914Y017419D03*
D138*
X010901Y017419D03*
X010888Y017419D03*
D139*
X010875Y017419D03*
X009407Y018507D03*
X009394Y018507D03*
D140*
X009367Y018507D03*
X010862Y017419D03*
D141*
X010849Y017413D03*
D142*
X010836Y017419D03*
D143*
X010823Y017419D03*
D144*
X010810Y017419D03*
X010796Y017419D03*
X010403Y017118D03*
X010351Y017078D03*
X008987Y017419D03*
D145*
X010783Y017419D03*
D146*
X010770Y017419D03*
X010298Y017065D03*
D147*
X010744Y017419D03*
X010757Y017419D03*
D148*
X010731Y017419D03*
X010377Y017681D03*
X010364Y017694D03*
X009761Y016698D03*
X009748Y016685D03*
D149*
X010298Y017708D03*
X010311Y017708D03*
X010692Y017419D03*
X010705Y017419D03*
D150*
X010665Y017419D03*
X009000Y017419D03*
D151*
X010639Y017419D03*
X010652Y017419D03*
D152*
X010626Y017419D03*
D153*
X010613Y017419D03*
D154*
X010560Y017419D03*
X009499Y018193D03*
X009315Y016633D03*
D155*
X009328Y016626D03*
X010547Y017413D03*
X009512Y018186D03*
X009485Y018199D03*
D156*
X010534Y017419D03*
D157*
X010521Y017419D03*
X009341Y016619D03*
D158*
X010508Y017419D03*
D159*
X010495Y017413D03*
D160*
X010482Y017419D03*
X009027Y017419D03*
D161*
X010469Y017419D03*
D162*
X010456Y017419D03*
D163*
X010442Y017413D03*
D164*
X010429Y017419D03*
D165*
X010403Y017662D03*
X010351Y017701D03*
X010338Y017701D03*
X009774Y016705D03*
X009735Y016678D03*
D166*
X010285Y017072D03*
X010390Y017675D03*
D167*
X010311Y017072D03*
D168*
X010285Y017701D03*
D169*
X010272Y017419D03*
X009066Y017419D03*
D170*
X010259Y017419D03*
D171*
X010246Y017413D03*
D172*
X010233Y017419D03*
D173*
X010220Y017419D03*
X009079Y017419D03*
D174*
X010207Y017419D03*
D175*
X010193Y017413D03*
D176*
X010180Y017419D03*
X009748Y017734D03*
D177*
X009721Y017747D03*
X010167Y017419D03*
X009092Y017419D03*
D178*
X009708Y017747D03*
X010154Y017419D03*
D179*
X010141Y017413D03*
X009695Y017740D03*
D180*
X010128Y017419D03*
D181*
X010062Y017419D03*
X009328Y017852D03*
X009118Y017419D03*
D182*
X009472Y016980D03*
X010049Y017413D03*
D183*
X009997Y017413D03*
D184*
X009984Y017413D03*
D185*
X009957Y017419D03*
D186*
X009918Y017419D03*
D187*
X009879Y017413D03*
D188*
X009839Y017413D03*
D189*
X009813Y017419D03*
X009197Y017419D03*
D190*
X009787Y017413D03*
D191*
X009774Y017714D03*
X009761Y017727D03*
X009735Y017740D03*
D192*
X009708Y016678D03*
D193*
X009695Y016678D03*
D194*
X009669Y017419D03*
D195*
X009617Y017419D03*
D196*
X009603Y017419D03*
X009276Y017419D03*
D197*
X009577Y017413D03*
D198*
X009551Y017419D03*
D199*
X009485Y016980D03*
D200*
X009472Y018199D03*
D201*
X009459Y017419D03*
D202*
X009446Y018475D03*
X009433Y018488D03*
X009420Y018501D03*
D203*
X009394Y017196D03*
D204*
X009013Y017426D03*
X009302Y016652D03*
D205*
X009263Y017419D03*
D206*
X009249Y017413D03*
D207*
X009223Y017413D03*
D208*
X009210Y017419D03*
D209*
X009158Y017419D03*
D210*
X009131Y017413D03*
D211*
X009053Y017419D03*
D212*
X013604Y017391D02*
X014025Y017391D01*
X013815Y017391D02*
X013815Y018022D01*
X014025Y017811D01*
X014249Y017811D02*
X014249Y017916D01*
X014354Y018022D01*
X014669Y018022D01*
X014669Y017391D01*
X014354Y017391D01*
X014249Y017496D01*
X014249Y017601D01*
X014354Y017706D01*
X014669Y017706D01*
X014354Y017706D02*
X014249Y017811D01*
M02*
