G75*
%MOIN*%
%OFA0B0*%
%FSLAX24Y24*%
%IPPOS*%
%LPD*%
%AMOC8*
5,1,8,0,0,1.08239X$1,22.5*
%
%ADD10C,0.0160*%
%ADD11C,0.0000*%
%ADD12C,0.0827*%
%ADD13OC8,0.1250*%
%ADD14C,0.0531*%
%ADD15R,0.0480X0.0880*%
%ADD16R,0.1417X0.0866*%
%ADD17R,0.0160X0.0480*%
%ADD18R,0.0591X0.0512*%
%ADD19R,0.0945X0.0945*%
%ADD20R,0.0748X0.0669*%
%ADD21C,0.0591*%
%ADD22C,0.0600*%
%ADD23OC8,0.0600*%
%ADD24C,0.0600*%
D10*
X002027Y000180D02*
X021712Y000180D01*
X021712Y019865D01*
X003681Y019865D01*
X002027Y018211D01*
X002027Y000180D01*
D11*
X003681Y018979D02*
X003683Y019019D01*
X003689Y019060D01*
X003699Y019099D01*
X003712Y019137D01*
X003730Y019174D01*
X003751Y019208D01*
X003775Y019241D01*
X003802Y019271D01*
X003832Y019298D01*
X003865Y019322D01*
X003899Y019343D01*
X003936Y019361D01*
X003974Y019374D01*
X004013Y019384D01*
X004054Y019390D01*
X004094Y019392D01*
X004134Y019390D01*
X004175Y019384D01*
X004214Y019374D01*
X004252Y019361D01*
X004289Y019343D01*
X004323Y019322D01*
X004356Y019298D01*
X004386Y019271D01*
X004413Y019241D01*
X004437Y019208D01*
X004458Y019174D01*
X004476Y019137D01*
X004489Y019099D01*
X004499Y019060D01*
X004505Y019019D01*
X004507Y018979D01*
X004505Y018939D01*
X004499Y018898D01*
X004489Y018859D01*
X004476Y018821D01*
X004458Y018784D01*
X004437Y018750D01*
X004413Y018717D01*
X004386Y018687D01*
X004356Y018660D01*
X004323Y018636D01*
X004289Y018615D01*
X004252Y018597D01*
X004214Y018584D01*
X004175Y018574D01*
X004134Y018568D01*
X004094Y018566D01*
X004054Y018568D01*
X004013Y018574D01*
X003974Y018584D01*
X003936Y018597D01*
X003899Y018615D01*
X003865Y018636D01*
X003832Y018660D01*
X003802Y018687D01*
X003775Y018717D01*
X003751Y018750D01*
X003730Y018784D01*
X003712Y018821D01*
X003699Y018859D01*
X003689Y018898D01*
X003683Y018939D01*
X003681Y018979D01*
D12*
X004094Y018979D03*
D13*
X020807Y018881D03*
X020807Y016912D03*
X020807Y009235D03*
X020807Y007267D03*
X020807Y005298D03*
X020807Y003330D03*
X020807Y001361D03*
D14*
X014909Y001759D03*
X012547Y000971D03*
X010185Y001759D03*
X008827Y001759D03*
X006464Y000971D03*
X004102Y001759D03*
X004102Y006483D03*
X004126Y009034D03*
X008850Y009034D03*
X010209Y009034D03*
X010185Y006483D03*
X008827Y006483D03*
X014909Y006483D03*
X014933Y009034D03*
X014933Y013759D03*
X012571Y014546D03*
X010209Y013759D03*
X008850Y013759D03*
X006488Y014546D03*
X004126Y013759D03*
D15*
X005448Y009176D03*
X006358Y009176D03*
X007268Y009176D03*
X007544Y006321D03*
X006634Y006321D03*
X005724Y006321D03*
X011688Y006302D03*
X012598Y006302D03*
X013508Y006302D03*
X013528Y009216D03*
X012618Y009216D03*
X011708Y009216D03*
D16*
X012618Y011656D03*
X006358Y011617D03*
X006634Y003881D03*
X012598Y003861D03*
D17*
X007901Y016735D03*
X007401Y016735D03*
X006901Y016735D03*
X006901Y017995D03*
X007401Y017995D03*
X007901Y017995D03*
D18*
X008622Y011164D03*
X008622Y010416D03*
X010394Y010357D03*
X010394Y011105D03*
X004114Y010711D03*
X004114Y009963D03*
X004449Y004727D03*
X004449Y003979D03*
X010551Y004255D03*
X010551Y005003D03*
D19*
X011811Y002306D03*
X013543Y002306D03*
X007539Y002365D03*
X005807Y002365D03*
X011791Y013211D03*
X013524Y013211D03*
X007205Y013271D03*
X005472Y013271D03*
D20*
X014567Y016735D03*
X014567Y018743D03*
X018110Y018743D03*
X018110Y016735D03*
D21*
X018488Y013782D02*
X018488Y013192D01*
X019488Y013192D02*
X019488Y013782D01*
X020488Y013782D02*
X020488Y013192D01*
D22*
X003777Y015715D03*
D23*
X002777Y015715D03*
X002777Y016715D03*
X003777Y016715D03*
X003777Y017715D03*
X002777Y017715D03*
D24*
X003077Y013715D02*
X002477Y013715D01*
X002477Y012715D02*
X003077Y012715D01*
X003077Y011715D02*
X002477Y011715D01*
X002477Y010715D02*
X003077Y010715D01*
X003077Y009715D02*
X002477Y009715D01*
X002477Y008715D02*
X003077Y008715D01*
X003077Y003715D02*
X002477Y003715D01*
X002477Y002715D02*
X003077Y002715D01*
X003077Y001715D02*
X002477Y001715D01*
X016531Y006715D02*
X017131Y006715D01*
X017131Y007715D02*
X016531Y007715D01*
X016531Y008715D02*
X017131Y008715D01*
X017131Y009715D02*
X016531Y009715D01*
X016531Y010715D02*
X017131Y010715D01*
X017131Y011715D02*
X016531Y011715D01*
X016531Y012715D02*
X017131Y012715D01*
X017131Y013715D02*
X016531Y013715D01*
M02*
