%
M48
M72
T01C0.0120
T02C0.0236
T03C0.0354
T04C0.0394
T05C0.0400
T06C0.0520
T07C0.0827
%
T01
X2562Y2818
X5219Y4845
X6420Y4708
X7089Y7227
X5692Y7326
X4904Y8428
X4097Y8487
X3467Y8487
X3782Y7582
X4334Y7601
X6026Y9078
X6125Y9865
X5436Y10357
X4511Y10141
X3054Y12365
X6912Y9708
X8389Y11656
X9589Y11578
X10121Y10613
X9806Y10239
X10141Y8467
X9491Y8428
X11735Y10062
X12365Y9235
X13448Y10357
X12739Y12050
X13586Y12365
X12956Y14688
X11656Y14767
X9944Y14688
X9019Y14373
X9117Y13743
X8487Y14904
X8763Y15318
X7463Y15377
X7621Y14215
X7089Y17444
X6814Y18566
X5672Y18881
X3172Y17247
X1420Y17225
X11774Y5554
X11814Y4589
X13192Y4353
X13152Y3487
X12700Y3231
X10908Y1656
X9353Y3093
X8881Y2956
X14983Y967
X16991Y1125
X15082Y4137
X17070Y10967
X17227Y11204
X17424Y11007
X17463Y11479
X17050Y11479
X16578Y14885
X18290Y17188
X13979Y18999
T02
X3369Y16086
X1420Y14767
X8369Y7444
X9845Y7070
X12739Y7168
T03
X13062Y6483
X13086Y9034
X13086Y13759
X10723Y14546
X8361Y13759
X7003Y13759
X4641Y14546
X2278Y13759
X2278Y9034
X2255Y6483
X6979Y6483
X8337Y6483
X8361Y9034
X7003Y9034
X6979Y1759
X8337Y1759
X10700Y971
X13062Y1759
X4617Y971
X2255Y1759
T04
X14806Y16365
X14806Y17365
X14806Y18365
T05
X930Y1715
X930Y2715
X930Y3715
X930Y8715
X930Y9715
X930Y10715
X930Y11715
X930Y12715
X930Y13715
X930Y15715
X1930Y15715
X1930Y16715
X930Y16715
X930Y17715
X1930Y17715
X14983Y13715
X14983Y12715
X14983Y11715
X14983Y10715
X14983Y9715
X14983Y8715
X14983Y7715
X14983Y6715
T06
X18566Y7267
X18566Y5298
X18566Y3330
X18566Y1361
X18566Y9235
X18566Y11204
X18566Y13172
T07
X2247Y18979
M30
