G75*
%MOIN*%
%OFA0B0*%
%FSLAX24Y24*%
%IPPOS*%
%LPD*%
%AMOC8*
5,1,8,0,0,1.08239X$1,22.5*
%
%ADD10C,0.0160*%
%ADD11C,0.0000*%
%ADD12C,0.0827*%
%ADD13OC8,0.1250*%
%ADD14R,0.0472X0.0472*%
%ADD15C,0.0531*%
%ADD16C,0.0591*%
%ADD17R,0.0984X0.1378*%
%ADD18C,0.0600*%
%ADD19OC8,0.0600*%
%ADD20C,0.0600*%
%ADD21R,0.0300X0.0600*%
%ADD22R,0.0591X0.0512*%
D10*
X000180Y000180D02*
X019865Y000180D01*
X019865Y019865D01*
X001834Y019865D01*
X000180Y018211D01*
X000180Y000180D01*
D11*
X001834Y018979D02*
X001836Y019019D01*
X001842Y019060D01*
X001852Y019099D01*
X001865Y019137D01*
X001883Y019174D01*
X001904Y019208D01*
X001928Y019241D01*
X001955Y019271D01*
X001985Y019298D01*
X002018Y019322D01*
X002052Y019343D01*
X002089Y019361D01*
X002127Y019374D01*
X002166Y019384D01*
X002207Y019390D01*
X002247Y019392D01*
X002287Y019390D01*
X002328Y019384D01*
X002367Y019374D01*
X002405Y019361D01*
X002442Y019343D01*
X002476Y019322D01*
X002509Y019298D01*
X002539Y019271D01*
X002566Y019241D01*
X002590Y019208D01*
X002611Y019174D01*
X002629Y019137D01*
X002642Y019099D01*
X002652Y019060D01*
X002658Y019019D01*
X002660Y018979D01*
X002658Y018939D01*
X002652Y018898D01*
X002642Y018859D01*
X002629Y018821D01*
X002611Y018784D01*
X002590Y018750D01*
X002566Y018717D01*
X002539Y018687D01*
X002509Y018660D01*
X002476Y018636D01*
X002442Y018615D01*
X002405Y018597D01*
X002367Y018584D01*
X002328Y018574D01*
X002287Y018568D01*
X002247Y018566D01*
X002207Y018568D01*
X002166Y018574D01*
X002127Y018584D01*
X002089Y018597D01*
X002052Y018615D01*
X002018Y018636D01*
X001985Y018660D01*
X001955Y018687D01*
X001928Y018717D01*
X001904Y018750D01*
X001883Y018784D01*
X001865Y018821D01*
X001852Y018859D01*
X001842Y018898D01*
X001836Y018939D01*
X001834Y018979D01*
D12*
X002247Y018979D03*
D13*
X018566Y013172D03*
X018566Y011204D03*
X018566Y009235D03*
X018566Y007267D03*
X018566Y005298D03*
X018566Y003330D03*
X018566Y001361D03*
D14*
X016420Y000967D03*
X016420Y001755D03*
X016420Y002542D03*
X016420Y003330D03*
X016420Y004117D03*
X015593Y004117D03*
X015593Y003330D03*
X015593Y002542D03*
X015593Y001755D03*
X015593Y000967D03*
D15*
X013062Y001759D03*
X010700Y000971D03*
X008337Y001759D03*
X006979Y001759D03*
X004617Y000971D03*
X002255Y001759D03*
X002255Y006483D03*
X002278Y009034D03*
X002278Y013759D03*
X004641Y014546D03*
X007003Y013759D03*
X008361Y013759D03*
X010723Y014546D03*
X013086Y013759D03*
X013086Y009034D03*
X013062Y006483D03*
X008337Y006483D03*
X006979Y006483D03*
X007003Y009034D03*
X008361Y009034D03*
D16*
X014511Y016365D02*
X015101Y016365D01*
X015101Y017365D02*
X014511Y017365D01*
X014511Y018365D02*
X015101Y018365D01*
D17*
X011617Y018861D03*
X011617Y016302D03*
X008113Y016302D03*
X008113Y018861D03*
X004609Y018861D03*
X004609Y016302D03*
D18*
X001930Y015715D03*
D19*
X000930Y015715D03*
X000930Y016715D03*
X001930Y016715D03*
X001930Y017715D03*
X000930Y017715D03*
D20*
X001230Y013715D02*
X000630Y013715D01*
X000630Y012715D02*
X001230Y012715D01*
X001230Y011715D02*
X000630Y011715D01*
X000630Y010715D02*
X001230Y010715D01*
X001230Y009715D02*
X000630Y009715D01*
X000630Y008715D02*
X001230Y008715D01*
X001230Y003715D02*
X000630Y003715D01*
X000630Y002715D02*
X001230Y002715D01*
X001230Y001715D02*
X000630Y001715D01*
X014683Y006715D02*
X015283Y006715D01*
X015283Y007715D02*
X014683Y007715D01*
X014683Y008715D02*
X015283Y008715D01*
X015283Y009715D02*
X014683Y009715D01*
X014683Y010715D02*
X015283Y010715D01*
X015283Y011715D02*
X014683Y011715D01*
X014683Y012715D02*
X015283Y012715D01*
X015283Y013715D02*
X014683Y013715D01*
D21*
X017501Y016265D03*
X019001Y016265D03*
X019001Y018465D03*
X017501Y018465D03*
D22*
X016322Y013841D03*
X016322Y013093D03*
M02*
