G75*
%MOIN*%
%OFA0B0*%
%FSLAX24Y24*%
%IPPOS*%
%LPD*%
%AMOC8*
5,1,8,0,0,1.08239X$1,22.5*
%
%ADD10C,0.0160*%
%ADD11C,0.0060*%
%ADD12C,0.0000*%
%ADD13C,0.0050*%
%ADD14C,0.0080*%
%ADD15C,0.0040*%
%ADD16C,0.0100*%
%ADD17R,0.1455X0.0013*%
%ADD18R,0.1573X0.0013*%
%ADD19R,0.1665X0.0013*%
%ADD20R,0.1731X0.0013*%
%ADD21R,0.1796X0.0013*%
%ADD22R,0.1849X0.0013*%
%ADD23R,0.1888X0.0013*%
%ADD24R,0.1927X0.0013*%
%ADD25R,0.1967X0.0013*%
%ADD26R,0.2006X0.0013*%
%ADD27R,0.2045X0.0013*%
%ADD28R,0.2071X0.0013*%
%ADD29R,0.2098X0.0013*%
%ADD30R,0.2137X0.0013*%
%ADD31R,0.2150X0.0013*%
%ADD32R,0.2176X0.0013*%
%ADD33R,0.2203X0.0013*%
%ADD34R,0.2229X0.0013*%
%ADD35R,0.2242X0.0013*%
%ADD36R,0.2268X0.0013*%
%ADD37R,0.2281X0.0013*%
%ADD38R,0.2307X0.0013*%
%ADD39R,0.2321X0.0013*%
%ADD40R,0.2334X0.0013*%
%ADD41R,0.2360X0.0013*%
%ADD42R,0.2373X0.0013*%
%ADD43R,0.2386X0.0013*%
%ADD44R,0.2399X0.0013*%
%ADD45R,0.2412X0.0013*%
%ADD46R,0.2439X0.0013*%
%ADD47R,0.2452X0.0013*%
%ADD48R,0.2465X0.0013*%
%ADD49R,0.2478X0.0013*%
%ADD50R,0.2491X0.0013*%
%ADD51R,0.2504X0.0013*%
%ADD52R,0.2517X0.0013*%
%ADD53R,0.2530X0.0013*%
%ADD54R,0.2543X0.0013*%
%ADD55R,0.2556X0.0013*%
%ADD56R,0.2570X0.0013*%
%ADD57R,0.2583X0.0013*%
%ADD58R,0.2596X0.0013*%
%ADD59R,0.2609X0.0013*%
%ADD60R,0.2622X0.0013*%
%ADD61R,0.2635X0.0013*%
%ADD62R,0.2648X0.0013*%
%ADD63R,0.2661X0.0013*%
%ADD64R,0.2674X0.0013*%
%ADD65R,0.2688X0.0013*%
%ADD66R,0.2701X0.0013*%
%ADD67R,0.2714X0.0013*%
%ADD68R,0.2727X0.0013*%
%ADD69R,0.2740X0.0013*%
%ADD70R,0.2753X0.0013*%
%ADD71R,0.2766X0.0013*%
%ADD72R,0.2779X0.0013*%
%ADD73R,0.2792X0.0013*%
%ADD74R,0.2806X0.0013*%
%ADD75R,0.3081X0.0013*%
%ADD76R,0.3146X0.0013*%
%ADD77R,0.3186X0.0013*%
%ADD78R,0.3225X0.0013*%
%ADD79R,0.3251X0.0013*%
%ADD80R,0.3264X0.0013*%
%ADD81R,0.3278X0.0013*%
%ADD82R,0.3238X0.0013*%
%ADD83R,0.3199X0.0013*%
%ADD84R,0.3160X0.0013*%
%ADD85R,0.3107X0.0013*%
%ADD86R,0.0774X0.0013*%
%ADD87R,0.0760X0.0013*%
%ADD88R,0.1822X0.0013*%
%ADD89R,0.0747X0.0013*%
%ADD90R,0.0734X0.0013*%
%ADD91R,0.1783X0.0013*%
%ADD92R,0.1770X0.0013*%
%ADD93R,0.1757X0.0013*%
%ADD94R,0.1704X0.0013*%
%ADD95R,0.1678X0.0013*%
%ADD96R,0.1639X0.0013*%
%ADD97R,0.1613X0.0013*%
%ADD98R,0.1586X0.0013*%
%ADD99R,0.1560X0.0013*%
%ADD100R,0.1508X0.0013*%
%ADD101R,0.1232X0.0013*%
%ADD102R,0.0184X0.0013*%
%ADD103R,0.1193X0.0013*%
%ADD104R,0.1180X0.0013*%
%ADD105R,0.1141X0.0013*%
%ADD106R,0.1101X0.0013*%
%ADD107R,0.1075X0.0013*%
%ADD108R,0.1036X0.0013*%
%ADD109R,0.1023X0.0013*%
%ADD110R,0.1009X0.0013*%
%ADD111R,0.0249X0.0013*%
%ADD112R,0.0446X0.0013*%
%ADD113R,0.1495X0.0013*%
%ADD114R,0.1481X0.0013*%
%ADD115R,0.1468X0.0013*%
%ADD116R,0.1442X0.0013*%
%ADD117R,0.1206X0.0013*%
%ADD118R,0.0197X0.0013*%
%ADD119R,0.0118X0.0013*%
%ADD120R,0.0052X0.0013*%
%ADD121R,0.1154X0.0013*%
%ADD122R,0.0210X0.0013*%
%ADD123R,0.0616X0.0013*%
%ADD124R,0.0144X0.0013*%
%ADD125R,0.0564X0.0013*%
%ADD126R,0.0026X0.0013*%
%ADD127R,0.0498X0.0013*%
%ADD128R,0.0170X0.0013*%
%ADD129R,0.0420X0.0013*%
%ADD130R,0.0341X0.0013*%
%ADD131R,0.0105X0.0013*%
%ADD132R,0.0066X0.0013*%
%ADD133R,0.0039X0.0013*%
%ADD134R,0.0013X0.0013*%
%ADD135R,0.0092X0.0013*%
%ADD136R,0.0223X0.0013*%
%ADD137R,0.0275X0.0013*%
%ADD138R,0.0302X0.0013*%
%ADD139R,0.0328X0.0013*%
%ADD140R,0.0354X0.0013*%
%ADD141R,0.0367X0.0013*%
%ADD142R,0.0380X0.0013*%
%ADD143R,0.0406X0.0013*%
%ADD144R,0.0433X0.0013*%
%ADD145R,0.0459X0.0013*%
%ADD146R,0.0485X0.0013*%
%ADD147R,0.0511X0.0013*%
%ADD148R,0.0538X0.0013*%
%ADD149R,0.0590X0.0013*%
%ADD150R,0.0642X0.0013*%
%ADD151R,0.0669X0.0013*%
%ADD152R,0.0695X0.0013*%
%ADD153R,0.0721X0.0013*%
%ADD154R,0.0800X0.0013*%
%ADD155R,0.0813X0.0013*%
%ADD156R,0.0826X0.0013*%
%ADD157R,0.0852X0.0013*%
%ADD158R,0.0878X0.0013*%
%ADD159R,0.0891X0.0013*%
%ADD160R,0.0905X0.0013*%
%ADD161R,0.0931X0.0013*%
%ADD162R,0.0957X0.0013*%
%ADD163R,0.0970X0.0013*%
%ADD164R,0.0983X0.0013*%
%ADD165R,0.0551X0.0013*%
%ADD166R,0.0524X0.0013*%
%ADD167R,0.0472X0.0013*%
%ADD168R,0.0629X0.0013*%
%ADD169R,0.1219X0.0013*%
%ADD170R,0.1245X0.0013*%
%ADD171R,0.1259X0.0013*%
%ADD172R,0.1272X0.0013*%
%ADD173R,0.1298X0.0013*%
%ADD174R,0.1324X0.0013*%
%ADD175R,0.1337X0.0013*%
%ADD176R,0.1350X0.0013*%
%ADD177R,0.1377X0.0013*%
%ADD178R,0.1403X0.0013*%
%ADD179R,0.1416X0.0013*%
%ADD180R,0.1429X0.0013*%
%ADD181R,0.1534X0.0013*%
%ADD182R,0.1547X0.0013*%
%ADD183R,0.1626X0.0013*%
%ADD184R,0.1652X0.0013*%
%ADD185R,0.1691X0.0013*%
%ADD186R,0.1744X0.0013*%
%ADD187R,0.1809X0.0013*%
%ADD188R,0.1862X0.0013*%
%ADD189R,0.1901X0.0013*%
%ADD190R,0.1940X0.0013*%
%ADD191R,0.1363X0.0013*%
%ADD192R,0.0577X0.0013*%
%ADD193R,0.0603X0.0013*%
%ADD194R,0.2111X0.0013*%
%ADD195R,0.2189X0.0013*%
%ADD196R,0.2216X0.0013*%
%ADD197R,0.2255X0.0013*%
%ADD198R,0.2294X0.0013*%
%ADD199R,0.1521X0.0013*%
%ADD200R,0.0839X0.0013*%
%ADD201R,0.2425X0.0013*%
%ADD202R,0.0315X0.0013*%
%ADD203R,0.2085X0.0013*%
%ADD204R,0.0787X0.0013*%
%ADD205R,0.2163X0.0013*%
%ADD206R,0.2124X0.0013*%
%ADD207R,0.2019X0.0013*%
%ADD208R,0.1953X0.0013*%
%ADD209R,0.1717X0.0013*%
%ADD210R,0.1599X0.0013*%
%ADD211R,0.1114X0.0013*%
%ADD212C,0.0070*%
%ADD213C,0.0020*%
D10*
X000180Y000180D02*
X019865Y000180D01*
X019865Y019865D01*
X001834Y019865D01*
X000180Y018211D01*
X000180Y000180D01*
D11*
X001247Y004492D02*
X001540Y004492D01*
X001247Y004785D01*
X001247Y004859D01*
X001320Y004932D01*
X001467Y004932D01*
X001540Y004859D01*
X001697Y004565D02*
X001697Y004492D01*
X001771Y004492D01*
X001771Y004565D01*
X001697Y004565D01*
X001937Y004565D02*
X001937Y004859D01*
X002231Y004565D01*
X002158Y004492D01*
X002011Y004492D01*
X001937Y004565D01*
X001937Y004859D02*
X002011Y004932D01*
X002158Y004932D01*
X002231Y004859D01*
X002231Y004565D01*
X002398Y004785D02*
X002545Y004492D01*
X002691Y004785D01*
X002618Y005242D02*
X002545Y005242D01*
X002471Y005315D01*
X002471Y005682D01*
X002398Y005682D02*
X002545Y005682D01*
X002231Y005682D02*
X002231Y005242D01*
X002231Y005389D02*
X001937Y005682D01*
X001771Y005682D02*
X001771Y005242D01*
X001624Y005389D01*
X001477Y005242D01*
X001477Y005682D01*
X001937Y005242D02*
X002158Y005462D01*
X002618Y005242D02*
X002691Y005315D01*
X002804Y006969D02*
X002731Y007043D01*
X002731Y007336D01*
X002804Y007410D01*
X003024Y007410D01*
X003024Y006969D01*
X002804Y006969D01*
X002564Y006969D02*
X002417Y006969D01*
X002490Y006969D02*
X002490Y007410D01*
X002417Y007410D02*
X002564Y007410D01*
X002257Y007410D02*
X002037Y007410D01*
X001963Y007336D01*
X001963Y007189D01*
X002037Y007116D01*
X002257Y007116D01*
X002257Y006969D02*
X002257Y007410D01*
X002257Y007719D02*
X001963Y007719D01*
X001796Y007719D02*
X001796Y008013D01*
X001650Y008160D01*
X001503Y008013D01*
X001503Y007719D01*
X001336Y007410D02*
X001189Y007410D01*
X001263Y007410D02*
X001263Y006969D01*
X001336Y006969D02*
X001189Y006969D01*
X001189Y007719D02*
X001189Y007939D01*
X001042Y008086D01*
X001042Y008160D01*
X001189Y007939D02*
X001336Y008086D01*
X001336Y008160D01*
X001503Y007939D02*
X001796Y007939D01*
X002257Y007719D02*
X002257Y008160D01*
X002424Y008160D02*
X002717Y008160D01*
X002717Y007719D01*
X002424Y007719D01*
X002570Y007939D02*
X002717Y007939D01*
X002884Y007939D02*
X002957Y007866D01*
X003178Y007866D01*
X003178Y007719D02*
X003178Y008160D01*
X002957Y008160D01*
X002884Y008086D01*
X002884Y007939D01*
X003031Y007866D02*
X002884Y007719D01*
X007485Y016883D02*
X007485Y018123D01*
X007487Y018146D01*
X007492Y018169D01*
X007501Y018191D01*
X007514Y018211D01*
X007529Y018229D01*
X007547Y018244D01*
X007567Y018257D01*
X007589Y018266D01*
X007612Y018271D01*
X007635Y018273D01*
X007485Y016883D02*
X007487Y016860D01*
X007492Y016837D01*
X007501Y016815D01*
X007514Y016795D01*
X007529Y016777D01*
X007547Y016762D01*
X007567Y016749D01*
X007589Y016740D01*
X007612Y016735D01*
X007635Y016733D01*
X005904Y016965D02*
X005906Y016985D01*
X005912Y017003D01*
X005921Y017021D01*
X005933Y017036D01*
X005948Y017048D01*
X005966Y017057D01*
X005984Y017063D01*
X006004Y017065D01*
X006024Y017063D01*
X006042Y017057D01*
X006060Y017048D01*
X006075Y017036D01*
X006087Y017021D01*
X006096Y017003D01*
X006102Y016985D01*
X006104Y016965D01*
X006102Y016945D01*
X006096Y016927D01*
X006087Y016909D01*
X006075Y016894D01*
X006060Y016882D01*
X006042Y016873D01*
X006024Y016867D01*
X006004Y016865D01*
X005984Y016867D01*
X005966Y016873D01*
X005948Y016882D01*
X005933Y016894D01*
X005921Y016909D01*
X005912Y016927D01*
X005906Y016945D01*
X005904Y016965D01*
X010835Y016733D02*
X010858Y016735D01*
X010881Y016740D01*
X010903Y016749D01*
X010923Y016762D01*
X010941Y016777D01*
X010956Y016795D01*
X010969Y016815D01*
X010978Y016837D01*
X010983Y016860D01*
X010985Y016883D01*
X010985Y017303D01*
X010985Y017703D01*
X010985Y018123D01*
X010983Y018146D01*
X010978Y018169D01*
X010969Y018191D01*
X010956Y018211D01*
X010941Y018229D01*
X010923Y018244D01*
X010903Y018257D01*
X010881Y018266D01*
X010858Y018271D01*
X010835Y018273D01*
X010985Y017703D02*
X010958Y017701D01*
X010931Y017696D01*
X010905Y017686D01*
X010881Y017674D01*
X010859Y017658D01*
X010839Y017640D01*
X010822Y017618D01*
X010807Y017595D01*
X010797Y017570D01*
X010789Y017544D01*
X010785Y017517D01*
X010785Y017489D01*
X010789Y017462D01*
X010797Y017436D01*
X010807Y017411D01*
X010822Y017388D01*
X010839Y017366D01*
X010859Y017348D01*
X010881Y017332D01*
X010905Y017320D01*
X010931Y017310D01*
X010958Y017305D01*
X010985Y017303D01*
D12*
X001834Y018979D02*
X001836Y019019D01*
X001842Y019060D01*
X001852Y019099D01*
X001865Y019137D01*
X001883Y019174D01*
X001904Y019208D01*
X001928Y019241D01*
X001955Y019271D01*
X001985Y019298D01*
X002018Y019322D01*
X002052Y019343D01*
X002089Y019361D01*
X002127Y019374D01*
X002166Y019384D01*
X002207Y019390D01*
X002247Y019392D01*
X002287Y019390D01*
X002328Y019384D01*
X002367Y019374D01*
X002405Y019361D01*
X002442Y019343D01*
X002476Y019322D01*
X002509Y019298D01*
X002539Y019271D01*
X002566Y019241D01*
X002590Y019208D01*
X002611Y019174D01*
X002629Y019137D01*
X002642Y019099D01*
X002652Y019060D01*
X002658Y019019D01*
X002660Y018979D01*
X002658Y018939D01*
X002652Y018898D01*
X002642Y018859D01*
X002629Y018821D01*
X002611Y018784D01*
X002590Y018750D01*
X002566Y018717D01*
X002539Y018687D01*
X002509Y018660D01*
X002476Y018636D01*
X002442Y018615D01*
X002405Y018597D01*
X002367Y018584D01*
X002328Y018574D01*
X002287Y018568D01*
X002247Y018566D01*
X002207Y018568D01*
X002166Y018574D01*
X002127Y018584D01*
X002089Y018597D01*
X002052Y018615D01*
X002018Y018636D01*
X001985Y018660D01*
X001955Y018687D01*
X001928Y018717D01*
X001904Y018750D01*
X001883Y018784D01*
X001865Y018821D01*
X001852Y018859D01*
X001842Y018898D01*
X001836Y018939D01*
X001834Y018979D01*
D13*
X011160Y017845D02*
X011160Y017545D01*
X011160Y017695D02*
X011611Y017695D01*
X011460Y017545D01*
X011535Y017385D02*
X011611Y017310D01*
X011611Y017160D01*
X011535Y017085D01*
X011235Y017085D01*
X011160Y017160D01*
X011160Y017310D01*
X011235Y017385D01*
X011160Y016928D02*
X011160Y016778D01*
X011160Y016853D02*
X011611Y016853D01*
X011611Y016778D02*
X011611Y016928D01*
X016467Y013565D02*
X016467Y013265D01*
X016542Y013105D02*
X016542Y012805D01*
X016992Y012805D01*
X016992Y013105D01*
X017234Y013191D02*
X017234Y013491D01*
X017309Y013651D02*
X017309Y013801D01*
X017309Y013726D02*
X017760Y013726D01*
X017760Y013651D02*
X017760Y013801D01*
X017760Y013958D02*
X017309Y014258D01*
X017760Y014258D01*
X017760Y013958D02*
X017309Y013958D01*
X016992Y014033D02*
X016542Y014333D01*
X016992Y014333D01*
X016992Y014033D02*
X016542Y014033D01*
X016542Y013876D02*
X016542Y013726D01*
X016542Y013801D02*
X016992Y013801D01*
X016992Y013726D02*
X016992Y013876D01*
X017309Y013031D02*
X017760Y013031D01*
X017610Y012881D01*
X017760Y012731D01*
X017309Y012731D01*
X017384Y012570D02*
X017685Y012570D01*
X017760Y012495D01*
X017760Y012345D01*
X017685Y012270D01*
X017384Y012270D01*
X017309Y012345D01*
X017309Y012495D01*
X017384Y012570D01*
X016992Y012570D02*
X016992Y012420D01*
X016917Y012344D01*
X016842Y012344D01*
X016767Y012420D01*
X016767Y012570D01*
X016692Y012645D01*
X016617Y012645D01*
X016542Y012570D01*
X016542Y012420D01*
X016617Y012344D01*
X016542Y012184D02*
X016842Y012184D01*
X016992Y012034D01*
X016842Y011884D01*
X016542Y011884D01*
X016542Y011724D02*
X016992Y011724D01*
X016767Y011724D02*
X016767Y011424D01*
X016767Y011264D02*
X016692Y011188D01*
X016692Y010963D01*
X016542Y010963D02*
X016992Y010963D01*
X016992Y011188D01*
X016917Y011264D01*
X016767Y011264D01*
X016542Y011424D02*
X016992Y011424D01*
X016767Y011884D02*
X016767Y012184D01*
X016992Y012570D02*
X016917Y012645D01*
X016767Y012805D02*
X016767Y012955D01*
X017384Y012110D02*
X017309Y012035D01*
X017309Y011885D01*
X017384Y011810D01*
X017685Y011810D01*
X017760Y011885D01*
X017760Y012035D01*
X017685Y012110D01*
X017136Y009598D02*
X017136Y009298D01*
X017136Y009448D02*
X017586Y009448D01*
X017436Y009298D01*
X017586Y009138D02*
X017136Y009138D01*
X017586Y008837D01*
X017136Y008837D01*
X017215Y007629D02*
X017215Y007329D01*
X017515Y007629D01*
X017590Y007629D01*
X017665Y007554D01*
X017665Y007404D01*
X017590Y007329D01*
X017665Y007169D02*
X017215Y007169D01*
X017665Y006869D01*
X017215Y006869D01*
X017231Y005661D02*
X017156Y005586D01*
X017156Y005436D01*
X017231Y005361D01*
X017156Y005201D02*
X017606Y005201D01*
X017531Y005361D02*
X017606Y005436D01*
X017606Y005586D01*
X017531Y005661D01*
X017456Y005661D01*
X017381Y005586D01*
X017306Y005661D01*
X017231Y005661D01*
X017381Y005586D02*
X017381Y005511D01*
X017156Y005201D02*
X017606Y004900D01*
X017156Y004900D01*
X017218Y001260D02*
X017368Y001260D01*
X017443Y001185D01*
X017443Y000884D01*
X017368Y000809D01*
X017218Y000809D01*
X017143Y000884D01*
X016983Y000884D02*
X016908Y000809D01*
X016758Y000809D01*
X016682Y000884D01*
X016682Y001185D01*
X016758Y001260D01*
X016908Y001260D01*
X016983Y001185D01*
X016983Y000884D01*
X017143Y001185D02*
X017218Y001260D01*
X016522Y001260D02*
X016522Y000809D01*
X016222Y000809D02*
X016222Y001260D01*
X016372Y001110D01*
X016522Y001260D01*
X016062Y000734D02*
X015762Y000734D01*
X015602Y000884D02*
X015526Y000809D01*
X015376Y000809D01*
X015301Y000884D01*
X015301Y001185D01*
X015376Y001260D01*
X015526Y001260D01*
X015602Y001185D01*
X015602Y000884D01*
X015141Y000884D02*
X015141Y001260D01*
X014841Y001260D02*
X014841Y000884D01*
X014916Y000809D01*
X015066Y000809D01*
X015141Y000884D01*
X014681Y001260D02*
X014380Y001260D01*
X014531Y001260D02*
X014531Y000809D01*
D14*
X011156Y002306D02*
X010754Y001912D01*
X010754Y002700D01*
X011156Y002306D01*
X012041Y004382D02*
X009461Y004382D01*
X009461Y005782D01*
X012041Y005782D01*
X012041Y004382D01*
X012061Y009736D02*
X009480Y009736D01*
X009480Y011136D01*
X012061Y011136D01*
X012061Y009736D01*
X010886Y012818D02*
X010886Y013605D01*
X010483Y013211D01*
X010886Y012818D01*
X005801Y011097D02*
X005801Y009697D01*
X003221Y009697D01*
X003221Y011097D01*
X005801Y011097D01*
X004567Y012877D02*
X004567Y013664D01*
X004164Y013271D01*
X004567Y012877D01*
X003496Y005801D02*
X003496Y004401D01*
X006076Y004401D01*
X006076Y005801D01*
X003496Y005801D01*
X004750Y002759D02*
X004750Y001971D01*
X005152Y002365D01*
X004750Y002759D01*
D15*
X003936Y003115D02*
X005716Y003115D01*
X005716Y001615D02*
X003936Y001615D01*
X003938Y001200D02*
X004168Y001200D01*
X004168Y000740D01*
X003938Y000740D01*
X003861Y000816D01*
X003861Y001123D01*
X003938Y001200D01*
X003707Y001123D02*
X003631Y001200D01*
X003477Y001200D01*
X003400Y001123D01*
X003400Y001047D01*
X003707Y000740D01*
X003400Y000740D01*
X007724Y003518D02*
X008184Y003518D01*
X008184Y003748D01*
X008107Y003825D01*
X007954Y003825D01*
X007877Y003748D01*
X007877Y003518D01*
X007877Y003671D02*
X007724Y003825D01*
X007724Y003978D02*
X007724Y004285D01*
X007724Y004131D02*
X008184Y004131D01*
X008031Y003978D01*
X008107Y004438D02*
X007800Y004438D01*
X008107Y004745D01*
X007800Y004745D01*
X007724Y004669D01*
X007724Y004515D01*
X007800Y004438D01*
X008107Y004438D02*
X008184Y004515D01*
X008184Y004669D01*
X008107Y004745D01*
X009940Y003056D02*
X011720Y003056D01*
X011720Y001556D02*
X009940Y001556D01*
X011443Y000965D02*
X011750Y000965D01*
X011520Y001195D01*
X011520Y000735D01*
X011904Y000812D02*
X011904Y001119D01*
X011981Y001195D01*
X012211Y001195D01*
X012211Y000735D01*
X011981Y000735D01*
X011904Y000812D01*
X017210Y003025D02*
X017570Y003025D01*
X017210Y003265D01*
X017570Y003265D01*
X017390Y003394D02*
X017390Y003634D01*
X017570Y003574D02*
X017390Y003394D01*
X017210Y003574D02*
X017570Y003574D01*
X014349Y010836D02*
X013889Y010836D01*
X014042Y010836D02*
X014042Y011066D01*
X014119Y011143D01*
X014273Y011143D01*
X014349Y011066D01*
X014349Y010836D01*
X014042Y010989D02*
X013889Y011143D01*
X013966Y011296D02*
X013889Y011373D01*
X013889Y011526D01*
X013966Y011603D01*
X014042Y011603D01*
X014119Y011526D01*
X014119Y011296D01*
X013966Y011296D01*
X014119Y011296D02*
X014273Y011450D01*
X014349Y011603D01*
X012282Y011538D02*
X012282Y011308D01*
X011822Y011308D01*
X011976Y011308D02*
X011976Y011538D01*
X012052Y011615D01*
X012206Y011615D01*
X012282Y011538D01*
X012206Y011769D02*
X012129Y011769D01*
X012052Y011845D01*
X012052Y011999D01*
X011976Y012076D01*
X011899Y012076D01*
X011822Y011999D01*
X011822Y011845D01*
X011899Y011769D01*
X011976Y011769D01*
X012052Y011845D01*
X012052Y011999D02*
X012129Y012076D01*
X012206Y012076D01*
X012282Y011999D01*
X012282Y011845D01*
X012206Y011769D01*
X011976Y011462D02*
X011822Y011615D01*
X011700Y012461D02*
X009920Y012461D01*
X009920Y013961D02*
X011700Y013961D01*
X011702Y014165D02*
X011548Y014165D01*
X011471Y014242D01*
X011471Y014318D01*
X011548Y014395D01*
X011625Y014395D01*
X011548Y014395D02*
X011471Y014472D01*
X011471Y014549D01*
X011548Y014625D01*
X011702Y014625D01*
X011778Y014549D01*
X011932Y014549D02*
X012008Y014625D01*
X012239Y014625D01*
X012239Y014165D01*
X012008Y014165D01*
X011932Y014242D01*
X011932Y014549D01*
X011778Y014242D02*
X011702Y014165D01*
X008070Y010956D02*
X008070Y010802D01*
X007993Y010725D01*
X007916Y010725D01*
X007840Y010802D01*
X007840Y011032D01*
X007993Y011032D02*
X008070Y010956D01*
X007993Y011032D02*
X007686Y011032D01*
X007609Y010956D01*
X007609Y010802D01*
X007686Y010725D01*
X007609Y010572D02*
X007763Y010418D01*
X007763Y010495D02*
X007763Y010265D01*
X007609Y010265D02*
X008070Y010265D01*
X008070Y010495D01*
X007993Y010572D01*
X007840Y010572D01*
X007763Y010495D01*
X005381Y012521D02*
X003601Y012521D01*
X003601Y014021D02*
X005381Y014021D01*
X005444Y014224D02*
X005444Y014684D01*
X005597Y014531D01*
X005751Y014608D02*
X005751Y014301D01*
X005827Y014224D01*
X006058Y014224D01*
X006058Y014684D01*
X005827Y014684D01*
X005751Y014608D01*
X005597Y014224D02*
X005290Y014224D01*
X003129Y010603D02*
X002669Y010603D01*
X002669Y010450D02*
X002669Y010757D01*
X002975Y010450D02*
X003129Y010603D01*
X003052Y010296D02*
X002899Y010296D01*
X002822Y010220D01*
X002822Y009989D01*
X002669Y009989D02*
X003129Y009989D01*
X003129Y010220D01*
X003052Y010296D01*
X002822Y010143D02*
X002669Y010296D01*
X016765Y016450D02*
X016777Y016434D01*
X016792Y016420D01*
X016809Y016410D01*
X016828Y016402D01*
X016848Y016398D01*
X016868Y016398D01*
X016888Y016402D01*
X016907Y016410D01*
X016924Y016420D01*
X016939Y016434D01*
X016951Y016450D01*
X016952Y016450D02*
X016964Y016466D01*
X016979Y016480D01*
X016996Y016490D01*
X017015Y016498D01*
X017035Y016502D01*
X017055Y016502D01*
X017075Y016498D01*
X017094Y016490D01*
X017111Y016480D01*
X017126Y016466D01*
X017138Y016450D01*
X016952Y017975D02*
X016952Y018349D01*
X016765Y018162D02*
X017139Y018162D01*
X018812Y018162D02*
X019186Y018162D01*
X018998Y016450D02*
X018986Y016434D01*
X018971Y016420D01*
X018954Y016410D01*
X018935Y016402D01*
X018915Y016398D01*
X018895Y016398D01*
X018875Y016402D01*
X018856Y016410D01*
X018839Y016420D01*
X018824Y016434D01*
X018812Y016450D01*
X018999Y016450D02*
X019011Y016466D01*
X019026Y016480D01*
X019043Y016490D01*
X019062Y016498D01*
X019082Y016502D01*
X019102Y016502D01*
X019122Y016498D01*
X019141Y016490D01*
X019158Y016480D01*
X019173Y016466D01*
X019185Y016450D01*
D16*
X019570Y016086D02*
X019570Y018526D01*
X016578Y018526D01*
X016578Y016086D01*
X016381Y016086D02*
X016381Y018526D01*
X016578Y018526D01*
X016381Y016086D02*
X019570Y016086D01*
X006284Y016655D02*
X006284Y018075D01*
X004824Y018075D01*
X004824Y016655D01*
X006284Y016655D01*
D17*
X014388Y006173D03*
X014388Y005164D03*
X014388Y001886D03*
D18*
X014394Y001899D03*
X014381Y005242D03*
D19*
X014388Y005308D03*
X014388Y006134D03*
X014388Y001912D03*
D20*
X014394Y001925D03*
X013988Y003525D03*
X014381Y005347D03*
D21*
X014388Y006108D03*
X013981Y003472D03*
X014388Y001938D03*
D22*
X014388Y001952D03*
X013994Y003433D03*
X014388Y005426D03*
X014388Y006094D03*
D23*
X014381Y005452D03*
X014394Y001965D03*
D24*
X014388Y001978D03*
X014388Y005478D03*
D25*
X014394Y001991D03*
D26*
X014388Y002004D03*
D27*
X014394Y002017D03*
D28*
X014394Y002030D03*
X014198Y005832D03*
X014184Y005845D03*
X014171Y005858D03*
X014171Y005872D03*
X014381Y006042D03*
D29*
X014184Y005924D03*
X014171Y005911D03*
X014158Y005898D03*
X014381Y005596D03*
X014394Y002043D03*
D30*
X014388Y002056D03*
X014388Y005622D03*
D31*
X014381Y005636D03*
X014394Y002070D03*
D32*
X014394Y002083D03*
X014381Y005649D03*
D33*
X014394Y002096D03*
D34*
X014394Y002109D03*
X014381Y005688D03*
D35*
X014388Y002122D03*
D36*
X014388Y002135D03*
X014388Y005714D03*
X014388Y005990D03*
D37*
X014394Y002148D03*
D38*
X014394Y002161D03*
X014381Y005740D03*
D39*
X014388Y002174D03*
D40*
X014394Y002188D03*
X014381Y005754D03*
D41*
X014394Y002201D03*
D42*
X014388Y002214D03*
D43*
X014394Y002227D03*
D44*
X014388Y002240D03*
D45*
X014394Y002253D03*
D46*
X014394Y002266D03*
D47*
X014388Y002279D03*
D48*
X014394Y002292D03*
D49*
X014388Y002306D03*
D50*
X014394Y002319D03*
D51*
X014388Y002332D03*
D52*
X014394Y002345D03*
X014394Y002358D03*
D53*
X014388Y002371D03*
D54*
X014394Y002384D03*
D55*
X014388Y002397D03*
D56*
X014394Y002410D03*
X014394Y002424D03*
D57*
X014388Y002437D03*
D58*
X014394Y002450D03*
D59*
X014388Y002463D03*
X014388Y002476D03*
D60*
X014394Y002489D03*
D61*
X014388Y002502D03*
X014388Y002515D03*
D62*
X014394Y002528D03*
X014394Y002542D03*
X014381Y003420D03*
D63*
X014388Y003407D03*
X014388Y003394D03*
X014388Y002555D03*
D64*
X014394Y002568D03*
X014394Y002581D03*
X014381Y003367D03*
X014381Y003381D03*
D65*
X014388Y003354D03*
X014388Y003341D03*
X014388Y003328D03*
X014388Y003315D03*
X014388Y002594D03*
D66*
X014394Y002607D03*
X014394Y002620D03*
D67*
X014388Y002633D03*
X014388Y002646D03*
D68*
X014394Y002660D03*
X014394Y002673D03*
D69*
X014388Y002686D03*
X014388Y002699D03*
D70*
X014394Y002712D03*
X014394Y002725D03*
X014394Y002738D03*
D71*
X014388Y002751D03*
X014388Y002764D03*
D72*
X014394Y002778D03*
X014394Y002791D03*
D73*
X014388Y002804D03*
X014388Y002817D03*
D74*
X014394Y002830D03*
D75*
X014388Y002843D03*
D76*
X014381Y002856D03*
D77*
X014388Y002869D03*
D78*
X014381Y002882D03*
X014381Y002896D03*
X014381Y003171D03*
D79*
X014381Y003145D03*
X014381Y002909D03*
D80*
X014388Y002922D03*
X014388Y003131D03*
D81*
X014381Y003118D03*
X014381Y003105D03*
X014381Y003092D03*
X014381Y003079D03*
X014381Y003066D03*
X014381Y003053D03*
X014381Y003040D03*
X014381Y003027D03*
X014381Y003014D03*
X014381Y003000D03*
X014381Y002987D03*
X014381Y002974D03*
X014381Y002961D03*
X014381Y002948D03*
X014381Y002935D03*
D82*
X014388Y003158D03*
D83*
X014381Y003184D03*
D84*
X014388Y003197D03*
D85*
X014388Y003210D03*
D86*
X015083Y003721D03*
X015109Y003708D03*
X015122Y003695D03*
X015148Y003682D03*
X015161Y003669D03*
X015174Y003656D03*
X015200Y003643D03*
X015318Y003433D03*
X014388Y004705D03*
D87*
X015050Y003735D03*
X015220Y003630D03*
X015325Y003446D03*
D88*
X013981Y003446D03*
X013981Y003459D03*
X014388Y005413D03*
D89*
X014388Y004692D03*
X015227Y003617D03*
X015240Y003603D03*
X015253Y003590D03*
X015266Y003577D03*
X015266Y003564D03*
X015279Y003551D03*
X015292Y003525D03*
X015305Y003512D03*
X015305Y003499D03*
X015318Y003472D03*
X015318Y003459D03*
D90*
X015312Y003485D03*
X015286Y003538D03*
X014381Y004679D03*
D91*
X014381Y005386D03*
X013988Y003485D03*
D92*
X013981Y003499D03*
X014388Y005373D03*
D93*
X013988Y003512D03*
D94*
X013988Y003538D03*
X014381Y005334D03*
D95*
X013975Y003551D03*
D96*
X013968Y003564D03*
D97*
X013981Y003577D03*
X014388Y005268D03*
D98*
X014388Y005255D03*
X013981Y003590D03*
D99*
X013981Y003603D03*
X014820Y005937D03*
D100*
X014807Y005963D03*
X013968Y005767D03*
X013955Y005780D03*
X014388Y005203D03*
X013981Y003617D03*
D101*
X014106Y003630D03*
D102*
X013359Y003630D03*
D103*
X014099Y003643D03*
D104*
X014093Y003656D03*
X014460Y003826D03*
X014460Y003839D03*
X014460Y003853D03*
D105*
X014453Y003879D03*
X014086Y003669D03*
D106*
X014080Y003682D03*
D107*
X014066Y003695D03*
D108*
X014060Y003708D03*
X014086Y003748D03*
X014388Y006239D03*
D109*
X014066Y003721D03*
D110*
X014073Y003735D03*
X014388Y004862D03*
D111*
X014388Y004351D03*
X015253Y003748D03*
D112*
X014866Y003748D03*
X014040Y004941D03*
X014040Y004954D03*
D113*
X014381Y005190D03*
X014788Y005976D03*
X014329Y003761D03*
D114*
X014335Y003774D03*
X014388Y005177D03*
D115*
X014342Y003787D03*
D116*
X014342Y003800D03*
D117*
X014460Y003813D03*
D118*
X013994Y003905D03*
X013732Y003813D03*
X014388Y004311D03*
D119*
X014388Y004259D03*
X013981Y003944D03*
X013719Y003826D03*
D120*
X013712Y003839D03*
D121*
X014460Y003866D03*
D122*
X014407Y003957D03*
X014001Y003892D03*
X014919Y003892D03*
D123*
X014440Y003892D03*
X014388Y004600D03*
D124*
X014388Y004285D03*
X014388Y004272D03*
X013981Y003931D03*
X014938Y003905D03*
D125*
X014440Y003905D03*
X014388Y004561D03*
X014676Y004954D03*
X013640Y005557D03*
D126*
X014958Y003918D03*
D127*
X014434Y003918D03*
D128*
X014388Y004298D03*
X013994Y003918D03*
D129*
X014420Y003931D03*
X014066Y004888D03*
X014066Y004901D03*
X014053Y004914D03*
D130*
X014420Y003944D03*
X015482Y005898D03*
X015456Y005924D03*
D131*
X013975Y003957D03*
D132*
X013968Y003971D03*
X014388Y004220D03*
X014388Y004233D03*
D133*
X014388Y004207D03*
X013968Y003984D03*
D134*
X014388Y004193D03*
D135*
X014388Y004246D03*
D136*
X014388Y004325D03*
X014388Y004338D03*
D137*
X014388Y004364D03*
D138*
X014388Y004377D03*
X014388Y004390D03*
D139*
X014388Y004403D03*
X015476Y005872D03*
X015476Y005885D03*
D140*
X015476Y005911D03*
X014388Y004416D03*
D141*
X014381Y004429D03*
D142*
X014388Y004443D03*
D143*
X014388Y004456D03*
D144*
X014388Y004469D03*
X014388Y004482D03*
X014086Y004875D03*
X014047Y004928D03*
X014388Y006291D03*
D145*
X014388Y004495D03*
D146*
X014388Y004508D03*
X014034Y004980D03*
D147*
X014388Y004534D03*
X014388Y004521D03*
D148*
X014388Y004547D03*
X014650Y004901D03*
X014663Y004914D03*
X013667Y005518D03*
X013653Y005531D03*
D149*
X014388Y004587D03*
X014388Y004574D03*
X014676Y004967D03*
X014676Y004980D03*
D150*
X014388Y004613D03*
X014388Y006278D03*
D151*
X014388Y004639D03*
X014388Y004626D03*
D152*
X014388Y004652D03*
D153*
X014388Y004665D03*
D154*
X014388Y004718D03*
X015161Y005780D03*
X013601Y005963D03*
D155*
X013594Y005950D03*
X014381Y004731D03*
X015155Y005767D03*
X015168Y005793D03*
D156*
X014388Y004744D03*
D157*
X014388Y004757D03*
X013588Y005937D03*
D158*
X014388Y004770D03*
D159*
X014381Y004783D03*
D160*
X014388Y004796D03*
X014388Y006252D03*
D161*
X014388Y004810D03*
D162*
X014388Y004823D03*
D163*
X014381Y004836D03*
D164*
X014388Y004849D03*
D165*
X014630Y004875D03*
X014670Y004928D03*
X014670Y004941D03*
X013673Y005504D03*
X013647Y005544D03*
D166*
X014040Y004993D03*
X014643Y004888D03*
D167*
X014040Y004967D03*
D168*
X014670Y004993D03*
D169*
X014388Y005006D03*
X014388Y006212D03*
D170*
X014388Y005019D03*
D171*
X014381Y005032D03*
D172*
X014388Y005046D03*
D173*
X014388Y005059D03*
X014388Y006199D03*
D174*
X014388Y005072D03*
D175*
X014381Y005085D03*
D176*
X014388Y005098D03*
X014702Y005531D03*
D177*
X014715Y005557D03*
X014388Y005111D03*
X014388Y006186D03*
D178*
X014715Y005570D03*
X014388Y005124D03*
D179*
X014381Y005137D03*
X014709Y005583D03*
D180*
X014388Y005150D03*
D181*
X014388Y005216D03*
X014820Y005950D03*
X014388Y006160D03*
D182*
X013948Y005806D03*
X014381Y005229D03*
D183*
X014381Y005282D03*
D184*
X014381Y005295D03*
D185*
X014388Y005321D03*
D186*
X014388Y005360D03*
D187*
X014381Y005400D03*
D188*
X014381Y005439D03*
D189*
X014388Y005465D03*
X014388Y006081D03*
D190*
X014381Y005491D03*
D191*
X014683Y005504D03*
X014696Y005518D03*
X014709Y005544D03*
D192*
X013647Y005570D03*
D193*
X013647Y005583D03*
D194*
X014388Y005609D03*
D195*
X014388Y005662D03*
D196*
X014388Y005675D03*
X014388Y006003D03*
D197*
X014381Y005701D03*
D198*
X014388Y005727D03*
D199*
X013948Y005793D03*
D200*
X015168Y005806D03*
D201*
X014388Y005819D03*
D202*
X015443Y005832D03*
X015456Y005845D03*
X015469Y005858D03*
D203*
X014165Y005885D03*
D204*
X014394Y006265D03*
X013621Y005976D03*
D205*
X014388Y006016D03*
D206*
X014381Y006029D03*
D207*
X014381Y006055D03*
D208*
X014388Y006068D03*
D209*
X014388Y006121D03*
D210*
X014381Y006147D03*
D211*
X014388Y006226D03*
D212*
X017588Y016711D02*
X017588Y017027D01*
X017693Y017132D01*
X017798Y017132D01*
X017903Y017027D01*
X017903Y016711D01*
X017588Y016711D02*
X018218Y016711D01*
X018218Y017027D01*
X018113Y017132D01*
X018008Y017132D01*
X017903Y017027D01*
X018008Y017356D02*
X018218Y017566D01*
X017588Y017566D01*
X017588Y017356D02*
X017588Y017776D01*
D213*
X010985Y016873D02*
X007485Y016873D01*
M02*
