G75*
%MOIN*%
%OFA0B0*%
%FSLAX24Y24*%
%IPPOS*%
%LPD*%
%AMOC8*
5,1,8,0,0,1.08239X$1,22.5*
%
%ADD10C,0.0160*%
%ADD11C,0.0000*%
%ADD12OC8,0.1250*%
%ADD13R,0.0512X0.0591*%
%ADD14C,0.0531*%
%ADD15R,0.0480X0.0880*%
%ADD16R,0.1417X0.0866*%
%ADD17R,0.0160X0.0480*%
%ADD18R,0.0591X0.0512*%
%ADD19R,0.0945X0.0945*%
%ADD20R,0.0421X0.0004*%
%ADD21R,0.0465X0.0004*%
%ADD22R,0.0492X0.0004*%
%ADD23R,0.0516X0.0004*%
%ADD24R,0.0531X0.0004*%
%ADD25R,0.0547X0.0004*%
%ADD26R,0.0563X0.0004*%
%ADD27R,0.0575X0.0004*%
%ADD28R,0.0587X0.0004*%
%ADD29R,0.0598X0.0004*%
%ADD30R,0.0610X0.0004*%
%ADD31R,0.0618X0.0004*%
%ADD32R,0.0626X0.0004*%
%ADD33R,0.0638X0.0004*%
%ADD34R,0.0646X0.0004*%
%ADD35R,0.0650X0.0004*%
%ADD36R,0.0657X0.0004*%
%ADD37R,0.0665X0.0004*%
%ADD38R,0.0673X0.0004*%
%ADD39R,0.0677X0.0004*%
%ADD40R,0.0685X0.0004*%
%ADD41R,0.0689X0.0004*%
%ADD42R,0.0693X0.0004*%
%ADD43R,0.0701X0.0004*%
%ADD44R,0.0705X0.0004*%
%ADD45R,0.0709X0.0004*%
%ADD46R,0.0717X0.0004*%
%ADD47R,0.0720X0.0004*%
%ADD48R,0.0724X0.0004*%
%ADD49R,0.0728X0.0004*%
%ADD50R,0.0732X0.0004*%
%ADD51R,0.0736X0.0004*%
%ADD52R,0.0740X0.0004*%
%ADD53R,0.0744X0.0004*%
%ADD54R,0.0748X0.0004*%
%ADD55R,0.0752X0.0004*%
%ADD56R,0.0756X0.0004*%
%ADD57R,0.0760X0.0004*%
%ADD58R,0.0764X0.0004*%
%ADD59R,0.0768X0.0004*%
%ADD60R,0.0772X0.0004*%
%ADD61R,0.0776X0.0004*%
%ADD62R,0.0780X0.0004*%
%ADD63R,0.0783X0.0004*%
%ADD64R,0.0787X0.0004*%
%ADD65R,0.0791X0.0004*%
%ADD66R,0.0795X0.0004*%
%ADD67R,0.0799X0.0004*%
%ADD68R,0.0803X0.0004*%
%ADD69R,0.0807X0.0004*%
%ADD70R,0.0811X0.0004*%
%ADD71R,0.0815X0.0004*%
%ADD72R,0.0819X0.0004*%
%ADD73R,0.0823X0.0004*%
%ADD74R,0.0827X0.0004*%
%ADD75R,0.0831X0.0004*%
%ADD76R,0.0835X0.0004*%
%ADD77R,0.0839X0.0004*%
%ADD78R,0.0909X0.0004*%
%ADD79R,0.0937X0.0004*%
%ADD80R,0.0953X0.0004*%
%ADD81R,0.0961X0.0004*%
%ADD82R,0.0969X0.0004*%
%ADD83R,0.0976X0.0004*%
%ADD84R,0.0980X0.0004*%
%ADD85R,0.0984X0.0004*%
%ADD86R,0.0965X0.0004*%
%ADD87R,0.0957X0.0004*%
%ADD88R,0.0945X0.0004*%
%ADD89R,0.0921X0.0004*%
%ADD90R,0.0232X0.0004*%
%ADD91R,0.0555X0.0004*%
%ADD92R,0.0224X0.0004*%
%ADD93R,0.0543X0.0004*%
%ADD94R,0.0539X0.0004*%
%ADD95R,0.0220X0.0004*%
%ADD96R,0.0535X0.0004*%
%ADD97R,0.0528X0.0004*%
%ADD98R,0.0520X0.0004*%
%ADD99R,0.0512X0.0004*%
%ADD100R,0.0500X0.0004*%
%ADD101R,0.0488X0.0004*%
%ADD102R,0.0484X0.0004*%
%ADD103R,0.0476X0.0004*%
%ADD104R,0.0449X0.0004*%
%ADD105R,0.0370X0.0004*%
%ADD106R,0.0043X0.0004*%
%ADD107R,0.0228X0.0004*%
%ADD108R,0.0358X0.0004*%
%ADD109R,0.0350X0.0004*%
%ADD110R,0.0343X0.0004*%
%ADD111R,0.0331X0.0004*%
%ADD112R,0.0319X0.0004*%
%ADD113R,0.0311X0.0004*%
%ADD114R,0.0307X0.0004*%
%ADD115R,0.0303X0.0004*%
%ADD116R,0.0063X0.0004*%
%ADD117R,0.0130X0.0004*%
%ADD118R,0.0445X0.0004*%
%ADD119R,0.0437X0.0004*%
%ADD120R,0.0433X0.0004*%
%ADD121R,0.0362X0.0004*%
%ADD122R,0.0047X0.0004*%
%ADD123R,0.0354X0.0004*%
%ADD124R,0.0031X0.0004*%
%ADD125R,0.0346X0.0004*%
%ADD126R,0.0339X0.0004*%
%ADD127R,0.0055X0.0004*%
%ADD128R,0.0177X0.0004*%
%ADD129R,0.0035X0.0004*%
%ADD130R,0.0161X0.0004*%
%ADD131R,0.0051X0.0004*%
%ADD132R,0.0142X0.0004*%
%ADD133R,0.0118X0.0004*%
%ADD134R,0.0091X0.0004*%
%ADD135R,0.0024X0.0004*%
%ADD136R,0.0020X0.0004*%
%ADD137R,0.0008X0.0004*%
%ADD138R,0.0004X0.0004*%
%ADD139R,0.0012X0.0004*%
%ADD140R,0.0028X0.0004*%
%ADD141R,0.0059X0.0004*%
%ADD142R,0.0067X0.0004*%
%ADD143R,0.0075X0.0004*%
%ADD144R,0.0083X0.0004*%
%ADD145R,0.0098X0.0004*%
%ADD146R,0.0106X0.0004*%
%ADD147R,0.0114X0.0004*%
%ADD148R,0.0122X0.0004*%
%ADD149R,0.0138X0.0004*%
%ADD150R,0.0146X0.0004*%
%ADD151R,0.0154X0.0004*%
%ADD152R,0.0165X0.0004*%
%ADD153R,0.0169X0.0004*%
%ADD154R,0.0185X0.0004*%
%ADD155R,0.0189X0.0004*%
%ADD156R,0.0193X0.0004*%
%ADD157R,0.0201X0.0004*%
%ADD158R,0.0209X0.0004*%
%ADD159R,0.0213X0.0004*%
%ADD160R,0.0217X0.0004*%
%ADD161R,0.0236X0.0004*%
%ADD162R,0.0240X0.0004*%
%ADD163R,0.0248X0.0004*%
%ADD164R,0.0256X0.0004*%
%ADD165R,0.0264X0.0004*%
%ADD166R,0.0272X0.0004*%
%ADD167R,0.0280X0.0004*%
%ADD168R,0.0287X0.0004*%
%ADD169R,0.0295X0.0004*%
%ADD170R,0.0299X0.0004*%
%ADD171R,0.0126X0.0004*%
%ADD172R,0.0157X0.0004*%
%ADD173R,0.0134X0.0004*%
%ADD174R,0.0173X0.0004*%
%ADD175R,0.0366X0.0004*%
%ADD176R,0.0374X0.0004*%
%ADD177R,0.0382X0.0004*%
%ADD178R,0.0390X0.0004*%
%ADD179R,0.0394X0.0004*%
%ADD180R,0.0398X0.0004*%
%ADD181R,0.0406X0.0004*%
%ADD182R,0.0409X0.0004*%
%ADD183R,0.0417X0.0004*%
%ADD184R,0.0429X0.0004*%
%ADD185R,0.0441X0.0004*%
%ADD186R,0.0453X0.0004*%
%ADD187R,0.0457X0.0004*%
%ADD188R,0.0469X0.0004*%
%ADD189R,0.0480X0.0004*%
%ADD190R,0.0504X0.0004*%
%ADD191R,0.0508X0.0004*%
%ADD192R,0.0551X0.0004*%
%ADD193R,0.0567X0.0004*%
%ADD194R,0.0579X0.0004*%
%ADD195R,0.0413X0.0004*%
%ADD196R,0.0425X0.0004*%
%ADD197R,0.0181X0.0004*%
%ADD198R,0.0634X0.0004*%
%ADD199R,0.0654X0.0004*%
%ADD200R,0.0661X0.0004*%
%ADD201R,0.0669X0.0004*%
%ADD202R,0.0697X0.0004*%
%ADD203R,0.0244X0.0004*%
%ADD204R,0.0252X0.0004*%
%ADD205R,0.0461X0.0004*%
%ADD206R,0.0094X0.0004*%
%ADD207R,0.0622X0.0004*%
%ADD208R,0.0102X0.0004*%
%ADD209R,0.0630X0.0004*%
%ADD210R,0.0614X0.0004*%
%ADD211R,0.0583X0.0004*%
%ADD212R,0.0327X0.0004*%
%ADD213R,0.0669X0.0748*%
%ADD214C,0.0591*%
%ADD215C,0.0600*%
%ADD216OC8,0.0600*%
%ADD217C,0.0600*%
%ADD218R,0.0260X0.0800*%
%ADD219C,0.0240*%
%ADD220C,0.0240*%
%ADD221C,0.0100*%
%ADD222C,0.0400*%
%ADD223C,0.0356*%
%ADD224C,0.0320*%
%ADD225C,0.0700*%
%ADD226C,0.0120*%
D10*
X000180Y000180D02*
X019865Y000180D01*
X019865Y019865D01*
X001834Y019865D01*
X000180Y018211D01*
X000180Y000180D01*
X002255Y001759D02*
X003353Y001759D01*
X003960Y002365D01*
X004786Y003192D01*
X004786Y003881D01*
X004786Y004845D01*
X005219Y004845D01*
X004786Y004845D02*
X004786Y006321D01*
X005696Y006321D02*
X005696Y007330D01*
X005908Y007542D01*
X005908Y008763D01*
X006026Y008881D01*
X006026Y009078D01*
X006440Y009550D02*
X006440Y008389D01*
X006420Y008369D01*
X006420Y007621D02*
X006420Y004708D01*
X008310Y003310D02*
X009137Y003310D01*
X009353Y003093D01*
X008885Y002306D02*
X008337Y001759D01*
X008337Y002534D01*
X008310Y002562D01*
X008885Y002306D02*
X009963Y002306D01*
X010633Y002975D01*
X010633Y003684D01*
X010751Y003802D01*
X010751Y003861D01*
X010889Y003723D01*
X010751Y003861D02*
X010751Y006302D01*
X011661Y006302D02*
X011661Y005668D01*
X011774Y005554D01*
X011814Y005515D01*
X011814Y004589D01*
X012582Y004786D02*
X012582Y003349D01*
X012700Y003231D01*
X013152Y003487D02*
X013211Y003428D01*
X013664Y003428D01*
X013664Y002680D02*
X013349Y002365D01*
X012857Y002365D01*
X012483Y001991D01*
X012483Y001538D01*
X013054Y000967D01*
X014983Y000967D01*
X015082Y004137D02*
X015082Y004452D01*
X014747Y004786D01*
X013999Y004786D02*
X013625Y004786D01*
X013192Y004353D01*
X012582Y005534D02*
X012582Y006558D01*
X010771Y008369D01*
X010771Y009216D01*
X010771Y011656D01*
X011676Y012561D01*
X011676Y013211D01*
X012223Y013759D01*
X013086Y013759D01*
X009944Y013211D02*
X009924Y013192D01*
X008743Y013192D01*
X008361Y013574D01*
X008361Y013759D01*
X008369Y013767D01*
X007003Y013759D02*
X005845Y013759D01*
X005357Y013271D01*
X004511Y012424D01*
X004511Y011617D01*
X004511Y010141D01*
X004511Y009176D01*
X004491Y009157D01*
X003601Y009176D02*
X003601Y011818D01*
X003054Y012365D01*
X002444Y012948D02*
X002767Y013271D01*
X002278Y013759D01*
X002278Y014778D01*
X002897Y015397D01*
X002897Y016749D01*
X001930Y017715D01*
X003507Y016223D02*
X003369Y016086D01*
X003507Y016223D02*
X004983Y016223D01*
X005054Y016294D01*
X005054Y016735D01*
X005054Y017995D02*
X005054Y018617D01*
X005278Y018841D01*
X005633Y018841D01*
X005672Y018881D01*
X006814Y018566D02*
X007582Y019334D01*
X012404Y019334D01*
X014373Y017365D01*
X014806Y017365D01*
X017208Y017365D02*
X018113Y017365D01*
X018290Y017188D01*
X009861Y010184D02*
X009861Y009216D01*
X009861Y010184D02*
X009806Y010239D01*
X008467Y011578D02*
X008389Y011656D01*
X006440Y009550D02*
X006125Y009865D01*
X005696Y007330D02*
X005692Y007326D01*
X002267Y009963D02*
X002019Y009715D01*
X001834Y009715D01*
X001774Y009774D01*
X001774Y014412D01*
X001420Y014767D01*
X002767Y013271D02*
X003625Y013271D01*
X002444Y012948D02*
X002444Y011460D01*
X002267Y011282D01*
X002267Y010711D01*
X001834Y009715D02*
X000930Y009715D01*
X000930Y003715D02*
X001664Y003715D01*
X002562Y002818D01*
X005692Y002365D02*
X006373Y002365D01*
X006979Y001759D01*
X010908Y001656D02*
X011558Y002306D01*
X011696Y002306D01*
D11*
X001834Y018979D02*
X001836Y019019D01*
X001842Y019060D01*
X001852Y019099D01*
X001865Y019137D01*
X001883Y019174D01*
X001904Y019208D01*
X001928Y019241D01*
X001955Y019271D01*
X001985Y019298D01*
X002018Y019322D01*
X002052Y019343D01*
X002089Y019361D01*
X002127Y019374D01*
X002166Y019384D01*
X002207Y019390D01*
X002247Y019392D01*
X002287Y019390D01*
X002328Y019384D01*
X002367Y019374D01*
X002405Y019361D01*
X002442Y019343D01*
X002476Y019322D01*
X002509Y019298D01*
X002539Y019271D01*
X002566Y019241D01*
X002590Y019208D01*
X002611Y019174D01*
X002629Y019137D01*
X002642Y019099D01*
X002652Y019060D01*
X002658Y019019D01*
X002660Y018979D01*
X002658Y018939D01*
X002652Y018898D01*
X002642Y018859D01*
X002629Y018821D01*
X002611Y018784D01*
X002590Y018750D01*
X002566Y018717D01*
X002539Y018687D01*
X002509Y018660D01*
X002476Y018636D01*
X002442Y018615D01*
X002405Y018597D01*
X002367Y018584D01*
X002328Y018574D01*
X002287Y018568D01*
X002247Y018566D01*
X002207Y018568D01*
X002166Y018574D01*
X002127Y018584D01*
X002089Y018597D01*
X002052Y018615D01*
X002018Y018636D01*
X001985Y018660D01*
X001955Y018687D01*
X001928Y018717D01*
X001904Y018750D01*
X001883Y018784D01*
X001865Y018821D01*
X001852Y018859D01*
X001842Y018898D01*
X001836Y018939D01*
X001834Y018979D01*
D12*
X018566Y013172D03*
X018566Y011204D03*
X018566Y009235D03*
X018566Y007267D03*
X018566Y005298D03*
X018566Y003330D03*
X018566Y001361D03*
D13*
X014747Y004786D03*
X013999Y004786D03*
D14*
X013062Y006483D03*
X013086Y009034D03*
X013086Y013759D03*
X010723Y014546D03*
X008361Y013759D03*
X007003Y013759D03*
X004641Y014546D03*
X002278Y013759D03*
X002278Y009034D03*
X002255Y006483D03*
X006979Y006483D03*
X008337Y006483D03*
X008361Y009034D03*
X007003Y009034D03*
X006979Y001759D03*
X008337Y001759D03*
X010700Y000971D03*
X013062Y001759D03*
X004617Y000971D03*
X002255Y001759D03*
D15*
X003876Y006321D03*
X004786Y006321D03*
X005696Y006321D03*
X005421Y009176D03*
X004511Y009176D03*
X003601Y009176D03*
X009841Y006302D03*
X010751Y006302D03*
X011661Y006302D03*
X011680Y009216D03*
X010771Y009216D03*
X009861Y009216D03*
D16*
X010771Y011656D03*
X004511Y011617D03*
X004786Y003881D03*
X010751Y003861D03*
D17*
X006054Y016735D03*
X005554Y016735D03*
X005054Y016735D03*
X005054Y017995D03*
X005554Y017995D03*
X006054Y017995D03*
D18*
X012739Y011637D03*
X012739Y010889D03*
X013526Y010889D03*
X013526Y011637D03*
X008546Y011105D03*
X008546Y010357D03*
X006420Y008369D03*
X006420Y007621D03*
X008704Y005003D03*
X008704Y004255D03*
X008310Y003310D03*
X008310Y002562D03*
X012582Y004786D03*
X012582Y005534D03*
X013664Y003428D03*
X013664Y002680D03*
X002267Y009963D03*
X002267Y010711D03*
D19*
X003625Y013271D03*
X005357Y013271D03*
X009944Y013211D03*
X011676Y013211D03*
X011696Y002306D03*
X009963Y002306D03*
X005692Y002365D03*
X003960Y002365D03*
D20*
X006597Y010936D03*
X006597Y011912D03*
D21*
X006595Y011940D03*
X006477Y011452D03*
X006599Y010940D03*
D22*
X006597Y010944D03*
X006597Y011960D03*
X006597Y012211D03*
D23*
X006597Y012208D03*
X006597Y011975D03*
X006597Y010948D03*
D24*
X006597Y010952D03*
X006597Y011987D03*
X006597Y012204D03*
D25*
X006597Y012200D03*
X006475Y011404D03*
X006597Y010956D03*
D26*
X006597Y010960D03*
X006597Y012007D03*
D27*
X006595Y012015D03*
X006599Y010963D03*
D28*
X006597Y010967D03*
D29*
X006599Y010971D03*
X006595Y012188D03*
D30*
X006597Y010975D03*
D31*
X006597Y010979D03*
X006534Y012129D03*
D32*
X006530Y012137D03*
X006530Y012141D03*
X006538Y012149D03*
X006597Y012050D03*
X006597Y010983D03*
D33*
X006599Y010987D03*
X006595Y012058D03*
D34*
X006595Y012062D03*
X006595Y012176D03*
X006599Y010991D03*
D35*
X006597Y010995D03*
X006597Y012066D03*
D36*
X006597Y010999D03*
D37*
X006597Y011003D03*
D38*
X006597Y011007D03*
X006597Y012082D03*
X006597Y012168D03*
D39*
X006595Y012086D03*
X006599Y011011D03*
D40*
X006599Y011015D03*
X006595Y012089D03*
D41*
X006597Y011019D03*
D42*
X006599Y011023D03*
X006595Y012093D03*
D43*
X006599Y011026D03*
D44*
X006597Y011030D03*
D45*
X006599Y011034D03*
D46*
X006599Y011038D03*
D47*
X006597Y011042D03*
D48*
X006599Y011046D03*
X006595Y012117D03*
D49*
X006597Y011050D03*
D50*
X006599Y011054D03*
D51*
X006597Y011058D03*
D52*
X006599Y011062D03*
D53*
X006597Y011066D03*
D54*
X006599Y011070D03*
D55*
X006597Y011074D03*
D56*
X006599Y011078D03*
X006599Y011082D03*
D57*
X006597Y011086D03*
D58*
X006599Y011089D03*
D59*
X006597Y011093D03*
D60*
X006599Y011097D03*
X006599Y011101D03*
D61*
X006597Y011105D03*
D62*
X006599Y011109D03*
D63*
X006597Y011113D03*
X006597Y011117D03*
D64*
X006599Y011121D03*
D65*
X006597Y011125D03*
X006597Y011129D03*
X006597Y011397D03*
D66*
X006595Y011393D03*
X006599Y011137D03*
X006599Y011133D03*
D67*
X006597Y011141D03*
X006597Y011385D03*
X006597Y011389D03*
D68*
X006595Y011381D03*
X006595Y011377D03*
X006599Y011149D03*
X006599Y011145D03*
D69*
X006597Y011152D03*
X006597Y011156D03*
X006597Y011365D03*
X006597Y011369D03*
X006597Y011373D03*
D70*
X006599Y011164D03*
X006599Y011160D03*
D71*
X006597Y011168D03*
D72*
X006599Y011172D03*
X006599Y011176D03*
X006599Y011180D03*
D73*
X006597Y011184D03*
X006597Y011188D03*
D74*
X006599Y011192D03*
X006599Y011196D03*
D75*
X006597Y011200D03*
X006597Y011204D03*
D76*
X006599Y011208D03*
X006599Y011211D03*
D77*
X006597Y011215D03*
X006597Y011219D03*
D78*
X006597Y011223D03*
D79*
X006595Y011227D03*
D80*
X006595Y011231D03*
D81*
X006595Y011235D03*
D82*
X006595Y011239D03*
X006595Y011318D03*
D83*
X006595Y011314D03*
X006595Y011310D03*
X006595Y011247D03*
X006595Y011243D03*
D84*
X006597Y011251D03*
X006597Y011306D03*
D85*
X006595Y011302D03*
X006595Y011298D03*
X006595Y011294D03*
X006595Y011290D03*
X006595Y011286D03*
X006595Y011282D03*
X006595Y011278D03*
X006595Y011274D03*
X006595Y011271D03*
X006595Y011267D03*
X006595Y011263D03*
X006595Y011259D03*
X006595Y011255D03*
D86*
X006597Y011322D03*
D87*
X006597Y011326D03*
D88*
X006595Y011330D03*
D89*
X006595Y011334D03*
D90*
X006818Y011479D03*
X006830Y011471D03*
X006834Y011467D03*
X006877Y011400D03*
X006597Y011782D03*
X006369Y012164D03*
D91*
X006597Y012003D03*
X006479Y011400D03*
D92*
X006794Y011491D03*
X006845Y011460D03*
X006849Y011456D03*
X006853Y011452D03*
X006857Y011448D03*
X006861Y011440D03*
X006865Y011436D03*
X006869Y011428D03*
X006873Y011420D03*
X006877Y011412D03*
X006877Y011408D03*
X006877Y011404D03*
X006597Y011778D03*
X006597Y012251D03*
D93*
X006595Y011995D03*
X006477Y011408D03*
D94*
X006475Y011412D03*
X006597Y011991D03*
D95*
X006859Y011444D03*
X006867Y011432D03*
X006871Y011424D03*
X006875Y011416D03*
D96*
X006477Y011416D03*
D97*
X006477Y011420D03*
X006477Y011424D03*
X006595Y011983D03*
D98*
X006595Y011979D03*
X006477Y011428D03*
D99*
X006477Y011432D03*
D100*
X006475Y011436D03*
X006597Y011963D03*
D101*
X006595Y011956D03*
X006473Y011440D03*
D102*
X006475Y011444D03*
D103*
X006475Y011448D03*
X006597Y011948D03*
X006597Y012215D03*
D104*
X006717Y012164D03*
X006721Y012160D03*
X006477Y011456D03*
D105*
X006513Y011460D03*
X006595Y011877D03*
D106*
X006597Y011656D03*
X006475Y011550D03*
X006286Y011460D03*
D107*
X006804Y011487D03*
X006812Y011483D03*
X006824Y011475D03*
X006839Y011463D03*
D108*
X006511Y011463D03*
X006597Y012235D03*
D109*
X006511Y011467D03*
D110*
X006507Y011471D03*
D111*
X006505Y011475D03*
D112*
X006503Y011479D03*
D113*
X006499Y011483D03*
D114*
X006501Y011487D03*
X006509Y011495D03*
D115*
X006503Y011491D03*
D116*
X006481Y011538D03*
X006859Y011495D03*
D117*
X006739Y011495D03*
X006597Y011715D03*
X006495Y011853D03*
D118*
X006597Y011928D03*
X006582Y011503D03*
X006582Y011499D03*
D119*
X006582Y011507D03*
D120*
X006584Y011511D03*
X006595Y011920D03*
D121*
X006619Y011515D03*
D122*
X006603Y011558D03*
X006477Y011546D03*
X006399Y011515D03*
D123*
X006619Y011519D03*
X006619Y011523D03*
D124*
X006599Y011649D03*
X006473Y011554D03*
X006395Y011519D03*
D125*
X006619Y011526D03*
X006619Y011530D03*
D126*
X006619Y011534D03*
D127*
X006757Y011538D03*
D128*
X006613Y011538D03*
X006597Y011747D03*
X006684Y011865D03*
X006597Y012255D03*
D129*
X006597Y011652D03*
X006763Y011542D03*
D130*
X006613Y011542D03*
X006597Y011735D03*
X006668Y011834D03*
X006676Y011841D03*
X006680Y011849D03*
X006385Y012023D03*
X006381Y012026D03*
X006377Y012030D03*
X006377Y012034D03*
D131*
X006597Y011664D03*
X006597Y011660D03*
X006479Y011542D03*
D132*
X006611Y011546D03*
X006493Y011861D03*
X006493Y011865D03*
D133*
X006607Y011550D03*
D134*
X006605Y011554D03*
X006597Y011688D03*
D135*
X006473Y011558D03*
D136*
X006471Y011562D03*
X006597Y011641D03*
D137*
X006469Y011566D03*
D138*
X006597Y011629D03*
D139*
X006597Y011633D03*
X006597Y011637D03*
D140*
X006597Y011645D03*
D141*
X006597Y011668D03*
D142*
X006597Y011672D03*
D143*
X006597Y011676D03*
X006597Y011680D03*
D144*
X006597Y011684D03*
D145*
X006597Y011692D03*
X006597Y011696D03*
X006924Y012137D03*
D146*
X006597Y012259D03*
X006597Y011700D03*
D147*
X006597Y011704D03*
D148*
X006597Y011708D03*
X006597Y011711D03*
X006503Y011837D03*
D149*
X006597Y011719D03*
D150*
X006597Y011723D03*
X006597Y011727D03*
D151*
X006597Y011731D03*
X006495Y011869D03*
D152*
X006595Y011739D03*
X006682Y011853D03*
X006375Y012038D03*
D153*
X006684Y011857D03*
X006597Y011743D03*
D154*
X006597Y011751D03*
D155*
X006595Y011755D03*
X006682Y011869D03*
D156*
X006597Y011759D03*
D157*
X006597Y011763D03*
D158*
X006597Y011767D03*
D159*
X006595Y011771D03*
D160*
X006597Y011774D03*
D161*
X006595Y011786D03*
X006363Y012160D03*
D162*
X006597Y011790D03*
X006826Y012101D03*
X006830Y012105D03*
D163*
X006597Y011794D03*
D164*
X006597Y011798D03*
X006597Y011802D03*
X006357Y012152D03*
D165*
X006597Y012247D03*
X006597Y011806D03*
D166*
X006597Y011810D03*
D167*
X006597Y011814D03*
X006597Y011818D03*
D168*
X006597Y011822D03*
D169*
X006597Y011826D03*
X006597Y012243D03*
D170*
X006595Y011830D03*
D171*
X006509Y011834D03*
X006501Y011841D03*
X006497Y011845D03*
X006497Y011849D03*
D172*
X006674Y011837D03*
X006678Y011845D03*
D173*
X006493Y011857D03*
D174*
X006682Y011861D03*
X006375Y012042D03*
D175*
X006597Y011873D03*
D176*
X006597Y011881D03*
D177*
X006597Y011885D03*
X006597Y012231D03*
D178*
X006597Y011889D03*
D179*
X006595Y011893D03*
D180*
X006597Y011897D03*
D181*
X006597Y011900D03*
X006688Y012026D03*
X006692Y012030D03*
X006597Y012227D03*
D182*
X006694Y012034D03*
X006686Y012023D03*
X006595Y011904D03*
D183*
X006595Y011908D03*
X006694Y012042D03*
D184*
X006597Y011916D03*
X006597Y012223D03*
D185*
X006595Y011924D03*
D186*
X006597Y011932D03*
X006471Y012101D03*
X006467Y012105D03*
X006597Y012219D03*
D187*
X006725Y012156D03*
X006595Y011936D03*
X006465Y012109D03*
D188*
X006597Y011944D03*
X006727Y012152D03*
D189*
X006595Y011952D03*
D190*
X006595Y011967D03*
D191*
X006597Y011971D03*
D192*
X006595Y011999D03*
D193*
X006595Y012011D03*
X006595Y012196D03*
D194*
X006597Y012019D03*
D195*
X006696Y012038D03*
D196*
X006694Y012046D03*
D197*
X006375Y012046D03*
D198*
X006597Y012054D03*
D199*
X006595Y012070D03*
D200*
X006595Y012074D03*
X006595Y012172D03*
D201*
X006595Y012078D03*
D202*
X006597Y012097D03*
D203*
X006359Y012156D03*
X006832Y012109D03*
D204*
X006832Y012113D03*
D205*
X006467Y012113D03*
D206*
X006914Y012121D03*
X006918Y012125D03*
X006922Y012129D03*
X006922Y012133D03*
D207*
X006540Y012121D03*
X006536Y012125D03*
X006532Y012133D03*
D208*
X006918Y012149D03*
X006922Y012145D03*
X006926Y012141D03*
D209*
X006595Y012180D03*
X006532Y012145D03*
D210*
X006595Y012184D03*
D211*
X006595Y012192D03*
D212*
X006597Y012239D03*
D213*
X016971Y015534D03*
X018979Y015534D03*
X018979Y019078D03*
X016971Y019078D03*
D214*
X015101Y018365D02*
X014511Y018365D01*
X014511Y017365D02*
X015101Y017365D01*
X015101Y016365D02*
X014511Y016365D01*
D215*
X001930Y015715D03*
D216*
X000930Y015715D03*
X000930Y016715D03*
X001930Y016715D03*
X001930Y017715D03*
X000930Y017715D03*
D217*
X001230Y013715D02*
X000630Y013715D01*
X000630Y012715D02*
X001230Y012715D01*
X001230Y011715D02*
X000630Y011715D01*
X000630Y010715D02*
X001230Y010715D01*
X001230Y009715D02*
X000630Y009715D01*
X000630Y008715D02*
X001230Y008715D01*
X001230Y003715D02*
X000630Y003715D01*
X000630Y002715D02*
X001230Y002715D01*
X001230Y001715D02*
X000630Y001715D01*
X014683Y006715D02*
X015283Y006715D01*
X015283Y007715D02*
X014683Y007715D01*
X014683Y008715D02*
X015283Y008715D01*
X015283Y009715D02*
X014683Y009715D01*
X014683Y010715D02*
X015283Y010715D01*
X015283Y011715D02*
X014683Y011715D01*
X014683Y012715D02*
X015283Y012715D01*
X015283Y013715D02*
X014683Y013715D01*
D218*
X010735Y016293D03*
X010235Y016293D03*
X009735Y016293D03*
X009235Y016293D03*
X008735Y016293D03*
X008235Y016293D03*
X007735Y016293D03*
X007735Y018713D03*
X008235Y018713D03*
X008735Y018713D03*
X009235Y018713D03*
X009735Y018713D03*
X010235Y018713D03*
X010735Y018713D03*
D219*
X011145Y018783D02*
X013549Y018783D01*
X013572Y018727D02*
X013499Y018903D01*
X013499Y019094D01*
X013572Y019271D01*
X013767Y019465D01*
X002798Y019465D01*
X002869Y019395D01*
X002980Y019125D01*
X002980Y018833D01*
X002869Y018564D01*
X002662Y018357D01*
X002393Y018246D01*
X002220Y018246D01*
X002510Y017956D01*
X002510Y017645D01*
X003202Y016953D01*
X003257Y016821D01*
X003257Y016535D01*
X003278Y016544D01*
X003339Y016544D01*
X003435Y016583D01*
X004694Y016583D01*
X004694Y017031D01*
X004737Y017134D01*
X004815Y017212D01*
X004918Y017255D01*
X005190Y017255D01*
X005293Y017212D01*
X005304Y017201D01*
X005315Y017212D01*
X005418Y017255D01*
X005690Y017255D01*
X005793Y017212D01*
X005804Y017201D01*
X005815Y017212D01*
X005918Y017255D01*
X006190Y017255D01*
X006293Y017212D01*
X006371Y017134D01*
X006394Y017079D01*
X006394Y017228D01*
X006455Y017375D01*
X006568Y017488D01*
X006750Y017670D01*
X006750Y017670D01*
X006863Y017783D01*
X007010Y017844D01*
X007169Y017844D01*
X007316Y017783D01*
X007429Y017670D01*
X007489Y017523D01*
X007489Y017364D01*
X007429Y017217D01*
X007316Y017105D01*
X007316Y017105D01*
X007194Y016983D01*
X007194Y015167D01*
X007905Y015167D01*
X007905Y015676D01*
X007894Y015673D01*
X007735Y015673D01*
X007735Y016293D01*
X007735Y016913D01*
X007576Y016913D01*
X007520Y016898D01*
X007470Y016869D01*
X007429Y016828D01*
X007400Y016778D01*
X007385Y016722D01*
X007385Y016293D01*
X007735Y016293D01*
X007735Y016293D01*
X007735Y016293D01*
X007735Y016913D01*
X007894Y016913D01*
X007922Y016905D01*
X007947Y016930D01*
X008049Y016973D01*
X008421Y016973D01*
X008485Y016946D01*
X008549Y016973D01*
X008921Y016973D01*
X008985Y016946D01*
X009049Y016973D01*
X009421Y016973D01*
X009485Y016946D01*
X009549Y016973D01*
X009921Y016973D01*
X009985Y016946D01*
X010049Y016973D01*
X010421Y016973D01*
X010485Y016946D01*
X010549Y016973D01*
X010921Y016973D01*
X011024Y016930D01*
X011102Y016851D01*
X011145Y016749D01*
X011145Y015837D01*
X011118Y015772D01*
X011723Y015167D01*
X011736Y015167D01*
X011883Y015106D01*
X011995Y014993D01*
X012056Y014846D01*
X012056Y014687D01*
X012002Y014556D01*
X012258Y014556D01*
X012729Y015027D01*
X012821Y015065D01*
X012794Y015091D01*
X012744Y015213D01*
X012744Y017071D01*
X012524Y017291D01*
X009012Y017291D01*
X008891Y017341D01*
X008798Y017434D01*
X008455Y017777D01*
X008405Y017898D01*
X008405Y018033D01*
X008049Y018033D01*
X007985Y018059D01*
X007921Y018033D01*
X007549Y018033D01*
X007447Y018075D01*
X007368Y018154D01*
X007325Y018257D01*
X007325Y019169D01*
X007368Y019271D01*
X007447Y019350D01*
X007549Y019393D01*
X007921Y019393D01*
X007985Y019366D01*
X008049Y019393D01*
X008421Y019393D01*
X008485Y019366D01*
X008549Y019393D01*
X008921Y019393D01*
X008985Y019366D01*
X009049Y019393D01*
X009421Y019393D01*
X009485Y019366D01*
X009549Y019393D01*
X009921Y019393D01*
X009985Y019366D01*
X010049Y019393D01*
X010421Y019393D01*
X010485Y019366D01*
X010549Y019393D01*
X010921Y019393D01*
X011024Y019350D01*
X011102Y019271D01*
X011145Y019169D01*
X011145Y018384D01*
X012942Y018384D01*
X013064Y018334D01*
X013733Y017664D01*
X013826Y017572D01*
X013876Y017450D01*
X013876Y015789D01*
X014678Y014987D01*
X014771Y014894D01*
X014821Y014773D01*
X014821Y014344D01*
X014870Y014295D01*
X015399Y014295D01*
X015548Y014234D01*
X015548Y014798D01*
X014579Y015766D01*
X014556Y015790D01*
X014396Y015790D01*
X014185Y015877D01*
X014023Y016039D01*
X013935Y016251D01*
X013935Y016479D01*
X014023Y016691D01*
X014185Y016853D01*
X014293Y016898D01*
X014241Y016924D01*
X014175Y016972D01*
X014118Y017029D01*
X014070Y017095D01*
X014033Y017167D01*
X014008Y017244D01*
X013995Y017324D01*
X013995Y017365D01*
X014806Y017365D01*
X014806Y017365D01*
X015617Y017365D01*
X015617Y017324D01*
X015604Y017244D01*
X015579Y017167D01*
X015542Y017095D01*
X015494Y017029D01*
X015437Y016972D01*
X015371Y016924D01*
X015319Y016898D01*
X015427Y016853D01*
X015589Y016691D01*
X015677Y016479D01*
X015677Y016251D01*
X015589Y016039D01*
X015513Y015964D01*
X016174Y015303D01*
X016287Y015190D01*
X016296Y015169D01*
X016351Y015224D01*
X016357Y015226D01*
X016357Y015964D01*
X016399Y016067D01*
X016478Y016146D01*
X016581Y016188D01*
X017362Y016188D01*
X017465Y016146D01*
X017543Y016067D01*
X017586Y015964D01*
X017586Y015105D01*
X017543Y015002D01*
X017465Y014923D01*
X017451Y014917D01*
X017451Y012997D01*
X018340Y012109D01*
X018941Y012109D01*
X019465Y011584D01*
X019465Y012791D01*
X018941Y012267D01*
X018191Y012267D01*
X017661Y012797D01*
X017661Y013547D01*
X018191Y014077D01*
X018499Y014077D01*
X018499Y014917D01*
X018486Y014923D01*
X018407Y015002D01*
X018365Y015105D01*
X018365Y015964D01*
X018407Y016067D01*
X018486Y016146D01*
X018589Y016188D01*
X019370Y016188D01*
X019465Y016149D01*
X019465Y018544D01*
X019449Y018528D01*
X019399Y018499D01*
X019343Y018484D01*
X019027Y018484D01*
X019027Y019030D01*
X018932Y019030D01*
X018932Y018484D01*
X018616Y018484D01*
X018560Y018499D01*
X018509Y018528D01*
X018469Y018569D01*
X018440Y018619D01*
X018425Y018675D01*
X018425Y019030D01*
X018932Y019030D01*
X018932Y019125D01*
X018425Y019125D01*
X018425Y019465D01*
X017586Y019465D01*
X017586Y018648D01*
X017543Y018545D01*
X017465Y018466D01*
X017362Y018424D01*
X016581Y018424D01*
X016478Y018466D01*
X016399Y018545D01*
X016378Y018598D01*
X015628Y018598D01*
X015677Y018479D01*
X015677Y018251D01*
X015589Y018039D01*
X015427Y017877D01*
X015319Y017832D01*
X015371Y017806D01*
X015437Y017758D01*
X015494Y017701D01*
X015542Y017635D01*
X015579Y017563D01*
X015604Y017486D01*
X015617Y017406D01*
X015617Y017365D01*
X014806Y017365D01*
X014806Y017365D01*
X013995Y017365D01*
X013995Y017406D01*
X014008Y017486D01*
X014033Y017563D01*
X014070Y017635D01*
X014118Y017701D01*
X014175Y017758D01*
X014241Y017806D01*
X014293Y017832D01*
X014185Y017877D01*
X014023Y018039D01*
X013935Y018251D01*
X013935Y018479D01*
X013952Y018519D01*
X013884Y018519D01*
X013707Y018592D01*
X013572Y018727D01*
X013822Y018545D02*
X011145Y018545D01*
X011145Y019022D02*
X013499Y019022D01*
X013568Y019260D02*
X011107Y019260D01*
X013092Y018306D02*
X013935Y018306D01*
X014011Y018068D02*
X013330Y018068D01*
X013569Y017829D02*
X014286Y017829D01*
X014047Y017591D02*
X013807Y017591D01*
X013876Y017352D02*
X013995Y017352D01*
X014061Y017114D02*
X013876Y017114D01*
X013876Y016875D02*
X014239Y016875D01*
X014000Y016637D02*
X013876Y016637D01*
X013876Y016398D02*
X013935Y016398D01*
X013973Y016160D02*
X013876Y016160D01*
X013876Y015921D02*
X014141Y015921D01*
X013983Y015683D02*
X014663Y015683D01*
X014901Y015444D02*
X014221Y015444D01*
X014460Y015206D02*
X015140Y015206D01*
X015378Y014967D02*
X014698Y014967D01*
X014821Y014729D02*
X015548Y014729D01*
X015548Y014490D02*
X014821Y014490D01*
X015505Y014252D02*
X015548Y014252D01*
X015948Y014963D02*
X015948Y001637D01*
X015987Y001597D01*
X013223Y001597D01*
X013062Y001759D01*
X013554Y001997D02*
X013532Y002051D01*
X013553Y002060D01*
X013637Y002144D01*
X014015Y002144D01*
X014118Y002187D01*
X014197Y002265D01*
X014240Y002368D01*
X014240Y002992D01*
X014214Y003054D01*
X014240Y003116D01*
X014240Y003740D01*
X014197Y003843D01*
X014118Y003921D01*
X014015Y003964D01*
X013313Y003964D01*
X013210Y003921D01*
X013176Y003887D01*
X013073Y003887D01*
X012942Y003833D01*
X012942Y004254D01*
X013035Y004293D01*
X013114Y004372D01*
X013157Y004475D01*
X013157Y005098D01*
X013131Y005160D01*
X013157Y005223D01*
X013157Y005846D01*
X013119Y005937D01*
X013170Y005937D01*
X013371Y006020D01*
X013525Y006174D01*
X013608Y006375D01*
X013608Y006592D01*
X013525Y006792D01*
X013371Y006946D01*
X013176Y007027D01*
X013197Y007077D01*
X013197Y007160D01*
X014298Y008261D01*
X014304Y008274D01*
X014355Y008224D01*
X014375Y008215D01*
X014355Y008207D01*
X014191Y008044D01*
X014103Y007831D01*
X014103Y007600D01*
X014191Y007387D01*
X014355Y007224D01*
X014375Y007215D01*
X014355Y007207D01*
X014191Y007044D01*
X014103Y006831D01*
X014103Y006600D01*
X014191Y006387D01*
X014355Y006224D01*
X014568Y006135D01*
X015399Y006135D01*
X015548Y006197D01*
X015548Y001997D01*
X013554Y001997D01*
X013581Y002088D02*
X015548Y002088D01*
X015548Y002327D02*
X014222Y002327D01*
X014240Y002565D02*
X015548Y002565D01*
X015548Y002804D02*
X014240Y002804D01*
X014219Y003042D02*
X015548Y003042D01*
X015548Y003281D02*
X014240Y003281D01*
X014240Y003519D02*
X015548Y003519D01*
X015548Y003758D02*
X015211Y003758D01*
X015161Y003737D02*
X015308Y003798D01*
X015421Y003910D01*
X015482Y004057D01*
X015482Y004216D01*
X015442Y004313D01*
X015442Y004523D01*
X015387Y004656D01*
X015285Y004757D01*
X015283Y004760D01*
X015283Y005137D01*
X015240Y005240D01*
X015161Y005319D01*
X015059Y005362D01*
X014435Y005362D01*
X014332Y005319D01*
X014308Y005295D01*
X014284Y005302D01*
X014007Y005302D01*
X014007Y004794D01*
X013991Y004794D01*
X013991Y004778D01*
X014007Y004778D01*
X014007Y004271D01*
X014284Y004271D01*
X014308Y004278D01*
X014332Y004254D01*
X014435Y004211D01*
X014682Y004211D01*
X014682Y004057D01*
X014742Y003910D01*
X014855Y003798D01*
X015002Y003737D01*
X015161Y003737D01*
X014952Y003758D02*
X014232Y003758D01*
X014379Y004235D02*
X012942Y004235D01*
X012942Y003996D02*
X014707Y003996D01*
X015456Y003996D02*
X015548Y003996D01*
X015548Y004235D02*
X015474Y004235D01*
X015442Y004473D02*
X015548Y004473D01*
X015548Y004712D02*
X015331Y004712D01*
X015285Y004757D02*
X015285Y004757D01*
X015283Y004950D02*
X015548Y004950D01*
X015548Y005189D02*
X015262Y005189D01*
X015548Y005427D02*
X013157Y005427D01*
X013157Y005666D02*
X015548Y005666D01*
X015548Y005904D02*
X013133Y005904D01*
X013493Y006143D02*
X014551Y006143D01*
X014197Y006381D02*
X013608Y006381D01*
X013596Y006620D02*
X014103Y006620D01*
X014114Y006858D02*
X013459Y006858D01*
X013197Y007097D02*
X014244Y007097D01*
X014243Y007335D02*
X013373Y007335D01*
X013611Y007574D02*
X014114Y007574D01*
X014103Y007812D02*
X013850Y007812D01*
X014088Y008051D02*
X014198Y008051D01*
X013689Y008584D02*
X012730Y007626D01*
X012648Y007626D01*
X012480Y007557D01*
X012351Y007428D01*
X012313Y007336D01*
X011131Y008518D01*
X011131Y008523D01*
X011169Y008538D01*
X011225Y008595D01*
X011282Y008538D01*
X011385Y008496D01*
X011976Y008496D01*
X012079Y008538D01*
X012158Y008617D01*
X012200Y008720D01*
X012200Y008870D01*
X012285Y008835D01*
X012445Y008835D01*
X012558Y008882D01*
X012623Y008725D01*
X012776Y008572D01*
X012977Y008489D01*
X013194Y008489D01*
X013395Y008572D01*
X013548Y008725D01*
X013631Y008926D01*
X013631Y009143D01*
X013548Y009343D01*
X013395Y009497D01*
X013194Y009580D01*
X013069Y009580D01*
X013069Y010226D01*
X013109Y010131D01*
X013221Y010018D01*
X013368Y009957D01*
X013527Y009957D01*
X013674Y010018D01*
X013689Y010032D01*
X013689Y008584D01*
X013632Y008528D02*
X013288Y008528D01*
X013393Y008289D02*
X011360Y008289D01*
X011308Y008528D02*
X011143Y008528D01*
X011598Y008051D02*
X013155Y008051D01*
X012916Y007812D02*
X011837Y007812D01*
X012075Y007574D02*
X012520Y007574D01*
X012883Y008528D02*
X012052Y008528D01*
X012200Y008766D02*
X012606Y008766D01*
X012298Y009635D02*
X012285Y009635D01*
X012200Y009600D01*
X012200Y009711D01*
X012158Y009814D01*
X012093Y009880D01*
X012135Y009982D01*
X012135Y010141D01*
X012074Y010288D01*
X011962Y010401D01*
X011815Y010462D01*
X011656Y010462D01*
X011509Y010401D01*
X011396Y010288D01*
X011335Y010141D01*
X011335Y009982D01*
X011359Y009925D01*
X011282Y009893D01*
X011225Y009837D01*
X011169Y009893D01*
X011131Y009909D01*
X011131Y010943D01*
X011535Y010943D01*
X011638Y010986D01*
X011717Y011064D01*
X011759Y011167D01*
X011759Y012136D01*
X011981Y012358D01*
X012023Y012459D01*
X012204Y012459D01*
X012307Y012502D01*
X012386Y012580D01*
X012429Y012683D01*
X012429Y013399D01*
X012674Y013399D01*
X012776Y013296D01*
X012977Y013213D01*
X013194Y013213D01*
X013395Y013296D01*
X013548Y013450D01*
X013631Y013650D01*
X013631Y013867D01*
X013548Y014068D01*
X013395Y014221D01*
X013194Y014304D01*
X013138Y014304D01*
X013295Y014461D01*
X013333Y014553D01*
X013689Y014197D01*
X013689Y012755D01*
X013665Y012765D01*
X013506Y012765D01*
X013359Y012704D01*
X013246Y012592D01*
X013186Y012445D01*
X013186Y012285D01*
X013232Y012173D01*
X013175Y012173D01*
X013133Y012155D01*
X013128Y012157D01*
X013078Y012277D01*
X012966Y012389D01*
X012819Y012450D01*
X012659Y012450D01*
X012512Y012389D01*
X012400Y012277D01*
X012350Y012157D01*
X012285Y012130D01*
X012206Y012051D01*
X012164Y011948D01*
X012164Y011325D01*
X012190Y011263D01*
X012164Y011200D01*
X012164Y010577D01*
X012206Y010474D01*
X012285Y010395D01*
X012388Y010353D01*
X012409Y010353D01*
X012409Y009746D01*
X012298Y009635D01*
X012383Y009720D02*
X012197Y009720D01*
X012125Y009959D02*
X012409Y009959D01*
X012409Y010197D02*
X012112Y010197D01*
X012245Y010436D02*
X011878Y010436D01*
X012164Y010674D02*
X011131Y010674D01*
X011131Y010436D02*
X011592Y010436D01*
X011358Y010197D02*
X011131Y010197D01*
X011131Y009959D02*
X011345Y009959D01*
X010411Y009959D02*
X009345Y009959D01*
X009349Y009950D02*
X009298Y010072D01*
X009121Y010249D01*
X009121Y010480D01*
X009743Y010480D01*
X009782Y010386D01*
X009894Y010274D01*
X010041Y010213D01*
X010201Y010213D01*
X010348Y010274D01*
X010411Y010337D01*
X010411Y009909D01*
X010372Y009893D01*
X010293Y009814D01*
X010281Y009784D01*
X010277Y009791D01*
X010236Y009832D01*
X010186Y009861D01*
X010130Y009876D01*
X009861Y009876D01*
X009861Y009216D01*
X009861Y009216D01*
X009861Y009876D01*
X009592Y009876D01*
X009536Y009861D01*
X009486Y009832D01*
X009445Y009791D01*
X009416Y009741D01*
X009401Y009685D01*
X009401Y009216D01*
X009861Y009216D01*
X009861Y009216D01*
X009401Y009216D01*
X009401Y008824D01*
X009349Y008802D01*
X009349Y009950D01*
X009349Y009720D02*
X009410Y009720D01*
X009401Y009482D02*
X009349Y009482D01*
X009349Y009243D02*
X009401Y009243D01*
X009401Y009005D02*
X009349Y009005D01*
X009861Y009243D02*
X009861Y009243D01*
X009861Y009482D02*
X009861Y009482D01*
X009861Y009720D02*
X009861Y009720D01*
X010411Y010197D02*
X009173Y010197D01*
X009121Y010436D02*
X009762Y010436D01*
X009793Y011140D02*
X009273Y011140D01*
X009121Y011292D01*
X009121Y011417D01*
X009079Y011520D01*
X009000Y011598D01*
X008897Y011641D01*
X008195Y011641D01*
X008092Y011598D01*
X008021Y011527D01*
X008021Y011650D01*
X009295Y011650D01*
X009442Y011711D01*
X009555Y011823D01*
X009696Y011965D01*
X009782Y011965D01*
X009782Y011167D01*
X009793Y011140D01*
X009789Y011151D02*
X009262Y011151D01*
X009121Y011390D02*
X009782Y011390D01*
X009589Y011578D02*
X008467Y011578D01*
X008408Y011637D01*
X008164Y011628D02*
X008021Y011628D01*
X007739Y012050D02*
X007621Y012168D01*
X007621Y014215D01*
X007251Y014367D02*
X007221Y014295D01*
X007221Y014259D01*
X007111Y014304D01*
X006894Y014304D01*
X006694Y014221D01*
X006591Y014119D01*
X005774Y014119D01*
X005641Y014064D01*
X005600Y014023D01*
X004829Y014023D01*
X004726Y013980D01*
X004647Y013902D01*
X004605Y013799D01*
X004605Y013027D01*
X004377Y012800D01*
X004377Y013799D01*
X004335Y013902D01*
X004256Y013980D01*
X004153Y014023D01*
X003097Y014023D01*
X002994Y013980D01*
X002915Y013902D01*
X002872Y013799D01*
X002872Y013674D01*
X002824Y013722D01*
X002824Y013867D01*
X002741Y014068D01*
X002638Y014171D01*
X002638Y014629D01*
X003006Y014997D01*
X004319Y014997D01*
X004178Y014855D01*
X004095Y014655D01*
X004095Y014438D01*
X004178Y014237D01*
X004331Y014083D01*
X004532Y014000D01*
X004749Y014000D01*
X004950Y014083D01*
X005103Y014237D01*
X005186Y014438D01*
X005186Y014655D01*
X005103Y014855D01*
X004962Y014997D01*
X006394Y014997D01*
X006394Y014766D01*
X006455Y014619D01*
X006568Y014506D01*
X006646Y014428D01*
X006793Y014367D01*
X007251Y014367D01*
X006873Y014767D02*
X006794Y014845D01*
X006794Y015416D01*
X006774Y015397D01*
X002897Y015397D01*
X002537Y015573D02*
X002517Y015527D01*
X002453Y015462D01*
X002510Y015600D01*
X002510Y015831D01*
X002422Y016044D01*
X002259Y016207D01*
X002247Y016212D01*
X002510Y016475D01*
X002510Y016626D01*
X002537Y016600D01*
X002537Y015573D01*
X002537Y015683D02*
X002510Y015683D01*
X002537Y015921D02*
X002473Y015921D01*
X002537Y016160D02*
X002306Y016160D01*
X002433Y016398D02*
X002537Y016398D01*
X003257Y016637D02*
X004694Y016637D01*
X004694Y016875D02*
X003234Y016875D01*
X003041Y017114D02*
X004728Y017114D01*
X004889Y017550D02*
X004945Y017535D01*
X005054Y017535D01*
X005054Y017995D01*
X005054Y017995D01*
X004754Y017995D01*
X004754Y017726D01*
X004769Y017670D01*
X004798Y017620D01*
X004839Y017579D01*
X004889Y017550D01*
X004827Y017591D02*
X002564Y017591D01*
X002510Y017829D02*
X004754Y017829D01*
X004754Y017995D02*
X005054Y017995D01*
X005054Y017995D01*
X005054Y017535D01*
X005163Y017535D01*
X005219Y017550D01*
X005260Y017573D01*
X005315Y017518D01*
X005418Y017475D01*
X005690Y017475D01*
X005793Y017518D01*
X005804Y017529D01*
X005815Y017518D01*
X005918Y017475D01*
X006190Y017475D01*
X006293Y017518D01*
X006371Y017596D01*
X006414Y017699D01*
X006414Y018291D01*
X006371Y018394D01*
X006293Y018472D01*
X006190Y018515D01*
X005918Y018515D01*
X005815Y018472D01*
X005804Y018461D01*
X005793Y018472D01*
X005690Y018515D01*
X005418Y018515D01*
X005315Y018472D01*
X005260Y018417D01*
X005219Y018440D01*
X005163Y018455D01*
X005054Y018455D01*
X004945Y018455D01*
X004889Y018440D01*
X004839Y018411D01*
X004798Y018370D01*
X004769Y018320D01*
X004754Y018264D01*
X004754Y017995D01*
X004754Y018068D02*
X002398Y018068D01*
X002538Y018306D02*
X004765Y018306D01*
X005054Y018306D02*
X005054Y018306D01*
X005054Y018455D02*
X005054Y017995D01*
X005194Y017995D01*
X005194Y017995D01*
X005054Y017995D01*
X005054Y017995D01*
X005054Y017995D01*
X005054Y018455D01*
X005054Y018068D02*
X005054Y018068D01*
X005054Y017829D02*
X005054Y017829D01*
X005054Y017591D02*
X005054Y017591D01*
X006365Y017591D02*
X006671Y017591D01*
X006446Y017352D02*
X002803Y017352D01*
X001981Y018295D02*
X001690Y018295D01*
X001388Y017993D01*
X001145Y018235D01*
X000978Y018235D01*
X001514Y018944D01*
X001514Y018833D01*
X001625Y018564D01*
X001831Y018357D01*
X001981Y018295D01*
X001956Y018306D02*
X001032Y018306D01*
X001313Y018068D02*
X001462Y018068D01*
X001644Y018545D02*
X001212Y018545D01*
X001392Y018783D02*
X001534Y018783D01*
X002849Y018545D02*
X007325Y018545D01*
X007325Y018783D02*
X002959Y018783D01*
X002980Y019022D02*
X007325Y019022D01*
X007363Y019260D02*
X002924Y019260D01*
X001388Y017438D02*
X001610Y017215D01*
X001430Y017036D01*
X001208Y017258D01*
X001388Y017438D01*
X001473Y017352D02*
X001302Y017352D01*
X001352Y017114D02*
X001508Y017114D01*
X001430Y016395D02*
X001613Y016212D01*
X001601Y016207D01*
X001438Y016044D01*
X001433Y016032D01*
X001250Y016215D01*
X001430Y016395D01*
X001306Y016160D02*
X001554Y016160D01*
X001433Y015399D02*
X001438Y015387D01*
X001601Y015224D01*
X001815Y015135D01*
X002045Y015135D01*
X002184Y015193D01*
X001973Y014982D01*
X001918Y014850D01*
X001918Y014777D01*
X001878Y014818D01*
X001878Y014858D01*
X001809Y015026D01*
X001680Y015155D01*
X001511Y015225D01*
X001329Y015225D01*
X001210Y015176D01*
X001433Y015399D01*
X001558Y015206D02*
X001645Y015206D01*
X001833Y014967D02*
X001967Y014967D01*
X001283Y015206D02*
X001240Y015206D01*
X001141Y015135D02*
X001032Y015026D01*
X000962Y014858D01*
X000962Y014675D01*
X001032Y014507D01*
X001161Y014378D01*
X001329Y014309D01*
X001369Y014309D01*
X001408Y014269D01*
X001345Y014295D01*
X000580Y014295D01*
X000580Y015245D01*
X000690Y015135D01*
X001141Y015135D01*
X001007Y014967D02*
X000580Y014967D01*
X000580Y014729D02*
X000962Y014729D01*
X001049Y014490D02*
X000580Y014490D01*
X000580Y015206D02*
X000620Y015206D01*
X000580Y016186D02*
X000610Y016215D01*
X000580Y016245D01*
X000580Y016186D01*
X000580Y017186D02*
X000652Y017258D01*
X000580Y017330D01*
X000580Y017186D01*
X002976Y014967D02*
X004290Y014967D01*
X004125Y014729D02*
X002738Y014729D01*
X002638Y014490D02*
X004095Y014490D01*
X004172Y014252D02*
X002638Y014252D01*
X002764Y014013D02*
X003073Y014013D01*
X002872Y013775D02*
X002824Y013775D01*
X002200Y013213D02*
X002139Y013152D01*
X002134Y013142D01*
X002134Y013228D01*
X002170Y013213D01*
X002200Y013213D01*
X002804Y012799D02*
X002872Y012867D01*
X002872Y012742D01*
X002915Y012640D01*
X002994Y012561D01*
X003097Y012518D01*
X004153Y012518D01*
X004161Y012522D01*
X004151Y012496D01*
X004151Y012330D01*
X003746Y012330D01*
X003643Y012287D01*
X003565Y012208D01*
X003522Y012105D01*
X002804Y012105D01*
X002804Y011867D02*
X003522Y011867D01*
X003522Y012105D02*
X003522Y011128D01*
X003565Y011025D01*
X003643Y010946D01*
X003746Y010904D01*
X004151Y010904D01*
X004151Y010317D01*
X004111Y010220D01*
X004111Y010061D01*
X004151Y009964D01*
X004151Y009870D01*
X004112Y009854D01*
X004033Y009775D01*
X004021Y009745D01*
X004017Y009751D01*
X003976Y009792D01*
X003926Y009821D01*
X003870Y009836D01*
X003601Y009836D01*
X003601Y009176D01*
X003141Y009176D01*
X003141Y008726D01*
X003128Y008714D01*
X003067Y008567D01*
X003067Y008408D01*
X003127Y008263D01*
X003127Y007829D01*
X003179Y007704D01*
X003383Y007500D01*
X003443Y007355D01*
X003556Y007242D01*
X003703Y007182D01*
X003862Y007182D01*
X004009Y007242D01*
X004068Y007301D01*
X004107Y007262D01*
X004129Y007253D01*
X003917Y007041D01*
X003581Y007041D01*
X003478Y006999D01*
X003399Y006920D01*
X003356Y006817D01*
X003356Y005826D01*
X003399Y005723D01*
X003478Y005644D01*
X003581Y005601D01*
X004172Y005601D01*
X004275Y005644D01*
X004331Y005700D01*
X004388Y005644D01*
X004426Y005628D01*
X004426Y004594D01*
X004022Y004594D01*
X003919Y004552D01*
X003840Y004473D01*
X003798Y004370D01*
X003798Y003392D01*
X003840Y003290D01*
X003919Y003211D01*
X004022Y003168D01*
X004253Y003168D01*
X004203Y003117D01*
X003431Y003117D01*
X003328Y003075D01*
X003250Y002996D01*
X003207Y002893D01*
X003207Y002122D01*
X003204Y002119D01*
X002667Y002119D01*
X002564Y002221D01*
X002363Y002304D01*
X002146Y002304D01*
X001946Y002221D01*
X001792Y002068D01*
X001752Y001971D01*
X001722Y002044D01*
X001559Y002207D01*
X001539Y002215D01*
X001559Y002224D01*
X001722Y002387D01*
X001810Y002600D01*
X001810Y002831D01*
X001722Y003044D01*
X001559Y003207D01*
X001459Y003248D01*
X001503Y003271D01*
X001569Y003319D01*
X001627Y003377D01*
X001675Y003443D01*
X001712Y003516D01*
X001737Y003594D01*
X001750Y003675D01*
X001750Y003715D01*
X000930Y003715D01*
X000930Y003715D01*
X001750Y003715D01*
X001750Y003756D01*
X001737Y003837D01*
X001712Y003915D01*
X001675Y003988D01*
X001627Y004054D01*
X001569Y004112D01*
X001503Y004160D01*
X001430Y004197D01*
X001352Y004223D01*
X001271Y004235D01*
X000930Y004235D01*
X000589Y004235D01*
X000580Y004234D01*
X000580Y008135D01*
X001345Y008135D01*
X001559Y008224D01*
X001722Y008387D01*
X001810Y008600D01*
X001810Y008739D01*
X001816Y008725D01*
X001969Y008572D01*
X002170Y008489D01*
X002387Y008489D01*
X002588Y008572D01*
X002741Y008725D01*
X002824Y008926D01*
X002824Y009143D01*
X002741Y009343D01*
X002645Y009439D01*
X002720Y009470D01*
X002799Y009549D01*
X002842Y009652D01*
X002842Y010275D01*
X002816Y010337D01*
X002842Y010400D01*
X002842Y011023D01*
X002799Y011126D01*
X002720Y011205D01*
X002705Y011211D01*
X002749Y011256D01*
X002804Y011388D01*
X002804Y012799D01*
X002826Y012821D02*
X002872Y012821D01*
X002804Y012582D02*
X002973Y012582D01*
X002804Y012344D02*
X004151Y012344D01*
X004377Y012821D02*
X004398Y012821D01*
X004377Y013059D02*
X004605Y013059D01*
X004605Y013298D02*
X004377Y013298D01*
X004377Y013536D02*
X004605Y013536D01*
X004605Y013775D02*
X004377Y013775D01*
X004502Y014013D02*
X004177Y014013D01*
X004780Y014013D02*
X004805Y014013D01*
X005109Y014252D02*
X006766Y014252D01*
X006584Y014490D02*
X005186Y014490D01*
X005156Y014729D02*
X006410Y014729D01*
X006394Y014967D02*
X004992Y014967D01*
X005055Y015863D02*
X005187Y015918D01*
X005258Y015989D01*
X005359Y016090D01*
X005412Y016218D01*
X005418Y016215D01*
X005690Y016215D01*
X005793Y016258D01*
X005804Y016269D01*
X005815Y016258D01*
X005918Y016215D01*
X006190Y016215D01*
X006293Y016258D01*
X006371Y016336D01*
X006394Y016391D01*
X006394Y015797D01*
X003728Y015797D01*
X003757Y015826D01*
X003773Y015863D01*
X005055Y015863D01*
X005190Y015921D02*
X006394Y015921D01*
X006394Y016160D02*
X005388Y016160D01*
X006380Y017114D02*
X006394Y017114D01*
X006794Y017149D02*
X006794Y015416D01*
X007194Y015444D02*
X007905Y015444D01*
X007905Y015206D02*
X007194Y015206D01*
X006873Y014767D02*
X007916Y014767D01*
X008369Y014314D01*
X008369Y013767D01*
X008185Y013241D02*
X008438Y012988D01*
X008539Y012887D01*
X008671Y012832D01*
X009191Y012832D01*
X009191Y012683D01*
X009218Y012619D01*
X009050Y012450D01*
X008021Y012450D01*
X008021Y013327D01*
X008052Y013296D01*
X008185Y013241D01*
X008051Y013298D02*
X008021Y013298D01*
X008021Y013059D02*
X008367Y013059D01*
X008021Y012821D02*
X009191Y012821D01*
X009182Y012582D02*
X008021Y012582D01*
X007621Y012168D02*
X007621Y001030D01*
X007562Y000971D01*
X010700Y000971D01*
X011080Y000580D02*
X014873Y000580D01*
X014807Y000607D01*
X012982Y000607D01*
X012850Y000662D01*
X012749Y000763D01*
X012178Y001334D01*
X012123Y001467D01*
X012123Y001554D01*
X011315Y001554D01*
X011287Y001526D01*
X011247Y001430D01*
X011135Y001317D01*
X011128Y001315D01*
X011162Y001280D01*
X011245Y001080D01*
X011245Y000863D01*
X011162Y000662D01*
X011080Y000580D01*
X011157Y000657D02*
X012863Y000657D01*
X012617Y000896D02*
X011245Y000896D01*
X011223Y001134D02*
X012378Y001134D01*
X012162Y001373D02*
X011190Y001373D01*
X010542Y001497D02*
X010391Y001434D01*
X010328Y001371D01*
X008722Y001371D01*
X008800Y001450D01*
X008883Y001650D01*
X008883Y001795D01*
X009034Y001946D01*
X009211Y001946D01*
X009211Y001778D01*
X009254Y001675D01*
X009332Y001596D01*
X009435Y001554D01*
X010492Y001554D01*
X010514Y001563D01*
X010542Y001497D01*
X010329Y001373D02*
X008723Y001373D01*
X008867Y001611D02*
X009318Y001611D01*
X009211Y001850D02*
X008937Y001850D01*
X008885Y002666D02*
X008885Y002873D01*
X008859Y002936D01*
X008865Y002950D01*
X008980Y002950D01*
X009014Y002867D01*
X009127Y002754D01*
X009211Y002719D01*
X009211Y002666D01*
X008885Y002666D01*
X008885Y002804D02*
X009077Y002804D01*
X009753Y003058D02*
X009753Y003173D01*
X009692Y003320D01*
X009580Y003432D01*
X009483Y003472D01*
X009341Y003615D01*
X009208Y003670D01*
X008865Y003670D01*
X008845Y003719D01*
X009055Y003719D01*
X009158Y003762D01*
X009236Y003840D01*
X009271Y003925D01*
X009419Y003925D01*
X009540Y003975D01*
X009619Y004054D01*
X009712Y004147D01*
X009762Y004268D01*
X009762Y005582D01*
X010137Y005582D01*
X010240Y005624D01*
X010296Y005681D01*
X010352Y005624D01*
X010391Y005608D01*
X010391Y004575D01*
X009987Y004575D01*
X009884Y004532D01*
X009805Y004453D01*
X009762Y004350D01*
X009762Y003373D01*
X009805Y003270D01*
X009884Y003191D01*
X009987Y003148D01*
X010273Y003148D01*
X010273Y003124D01*
X010207Y003058D01*
X009753Y003058D01*
X009709Y003281D02*
X009800Y003281D01*
X009762Y003519D02*
X009437Y003519D01*
X009148Y003758D02*
X009762Y003758D01*
X009762Y003996D02*
X009561Y003996D01*
X009748Y004235D02*
X009762Y004235D01*
X009762Y004473D02*
X009825Y004473D01*
X009762Y004712D02*
X010391Y004712D01*
X010391Y004950D02*
X009762Y004950D01*
X009762Y005189D02*
X010391Y005189D01*
X010391Y005427D02*
X009762Y005427D01*
X010281Y005666D02*
X010311Y005666D01*
X011111Y005608D02*
X011149Y005624D01*
X011228Y005703D01*
X011241Y005733D01*
X011245Y005727D01*
X011286Y005686D01*
X011336Y005657D01*
X011392Y005642D01*
X011661Y005642D01*
X011930Y005642D01*
X011986Y005657D01*
X012006Y005669D01*
X012006Y005223D01*
X012032Y005160D01*
X012006Y005098D01*
X012006Y004475D01*
X012049Y004372D01*
X012128Y004293D01*
X012222Y004254D01*
X012222Y003278D01*
X012276Y003145D01*
X012321Y003101D01*
X012361Y003005D01*
X012473Y002892D01*
X012620Y002831D01*
X012779Y002831D01*
X012926Y002892D01*
X013039Y003005D01*
X013073Y003087D01*
X013094Y003087D01*
X013103Y003083D01*
X013115Y003054D01*
X013089Y002992D01*
X013089Y002725D01*
X012786Y002725D01*
X012653Y002670D01*
X012448Y002465D01*
X012448Y002834D01*
X012406Y002937D01*
X012327Y003016D01*
X012224Y003058D01*
X011168Y003058D01*
X011065Y003016D01*
X010993Y002944D01*
X010993Y003148D01*
X011515Y003148D01*
X011618Y003191D01*
X011697Y003270D01*
X011740Y003373D01*
X011740Y004350D01*
X011697Y004453D01*
X011618Y004532D01*
X011515Y004575D01*
X011111Y004575D01*
X011111Y005608D01*
X011191Y005666D02*
X011321Y005666D01*
X011111Y005427D02*
X012006Y005427D01*
X012001Y005666D02*
X012006Y005666D01*
X011661Y005666D02*
X011661Y005666D01*
X011661Y005642D02*
X011661Y006302D01*
X012121Y006302D01*
X012121Y006510D01*
X012222Y006409D01*
X012222Y006066D01*
X012128Y006028D01*
X012121Y006021D01*
X012121Y006302D01*
X011661Y006302D01*
X011661Y006302D01*
X011661Y006302D01*
X011661Y006962D01*
X011669Y006962D01*
X010567Y008064D01*
X010567Y008064D01*
X010465Y008165D01*
X010447Y008208D01*
X010367Y008128D01*
X010220Y008067D01*
X010207Y008067D01*
X009644Y007504D01*
X009644Y007482D01*
X009754Y007528D01*
X009936Y007528D01*
X010105Y007458D01*
X010234Y007329D01*
X010303Y007161D01*
X010303Y006979D01*
X010285Y006934D01*
X010296Y006923D01*
X010352Y006979D01*
X010455Y007022D01*
X011047Y007022D01*
X011149Y006979D01*
X011228Y006900D01*
X011241Y006870D01*
X011245Y006877D01*
X011286Y006918D01*
X011336Y006947D01*
X011392Y006962D01*
X011661Y006962D01*
X011661Y006302D01*
X011661Y006302D01*
X011661Y005642D01*
X011661Y005904D02*
X011661Y005904D01*
X011661Y006143D02*
X011661Y006143D01*
X011661Y006381D02*
X011661Y006381D01*
X011661Y006620D02*
X011661Y006620D01*
X011661Y006858D02*
X011661Y006858D01*
X011534Y007097D02*
X010303Y007097D01*
X010228Y007335D02*
X011295Y007335D01*
X011057Y007574D02*
X009713Y007574D01*
X009952Y007812D02*
X010818Y007812D01*
X010580Y008051D02*
X010190Y008051D01*
X008748Y007175D02*
X008748Y006845D01*
X008647Y006946D01*
X008505Y007004D01*
X008628Y007055D01*
X008748Y007175D01*
X008748Y007097D02*
X008670Y007097D01*
X008734Y006858D02*
X008748Y006858D01*
X008201Y007017D02*
X008028Y006946D01*
X008021Y006938D01*
X008021Y007144D01*
X008109Y007055D01*
X008201Y007017D01*
X008068Y007097D02*
X008021Y007097D01*
X008369Y007444D02*
X008369Y009026D01*
X008361Y009034D01*
X008021Y009466D02*
X008021Y009935D01*
X008092Y009864D01*
X008195Y009821D01*
X008615Y009821D01*
X008689Y009748D01*
X008689Y009479D01*
X008670Y009497D01*
X008470Y009580D01*
X008253Y009580D01*
X008052Y009497D01*
X008021Y009466D01*
X008021Y009482D02*
X008036Y009482D01*
X008021Y009720D02*
X008689Y009720D01*
X008686Y009482D02*
X008689Y009482D01*
X007221Y009535D02*
X007111Y009580D01*
X006894Y009580D01*
X006800Y009541D01*
X006800Y009622D01*
X006745Y009754D01*
X006644Y009855D01*
X006504Y009995D01*
X006464Y010092D01*
X006351Y010204D01*
X006204Y010265D01*
X006045Y010265D01*
X005898Y010204D01*
X005786Y010092D01*
X005766Y010044D01*
X005766Y010121D01*
X005775Y010131D01*
X005836Y010278D01*
X005836Y010437D01*
X005775Y010584D01*
X005662Y010696D01*
X005515Y010757D01*
X005356Y010757D01*
X005209Y010696D01*
X005097Y010584D01*
X005036Y010437D01*
X005036Y010278D01*
X005097Y010131D01*
X005106Y010121D01*
X005106Y009889D01*
X005022Y009854D01*
X004966Y009797D01*
X004909Y009854D01*
X004871Y009870D01*
X004871Y009964D01*
X004911Y010061D01*
X004911Y010220D01*
X004871Y010317D01*
X004871Y010904D01*
X005275Y010904D01*
X005378Y010946D01*
X005457Y011025D01*
X005499Y011128D01*
X005499Y012105D01*
X005937Y012105D01*
X005937Y012079D02*
X005980Y011976D01*
X005985Y011971D01*
X005988Y011964D01*
X005997Y011955D01*
X006000Y011949D01*
X006009Y011940D01*
X006012Y011933D01*
X006021Y011924D01*
X006023Y011917D01*
X006032Y011908D01*
X006035Y011901D01*
X006039Y011897D01*
X006044Y011892D01*
X006047Y011886D01*
X006056Y011877D01*
X006059Y011870D01*
X006068Y011861D01*
X006071Y011854D01*
X006080Y011845D01*
X006082Y011838D01*
X006091Y011829D01*
X006094Y011823D01*
X006103Y011814D01*
X006106Y011807D01*
X006111Y011802D01*
X006114Y011795D01*
X006123Y011786D01*
X006126Y011779D01*
X006135Y011770D01*
X006138Y011764D01*
X006147Y011754D01*
X006149Y011748D01*
X006158Y011739D01*
X006161Y011732D01*
X006168Y011725D01*
X006094Y011695D01*
X006093Y011694D01*
X006086Y011691D01*
X006085Y011690D01*
X006078Y011687D01*
X006000Y011608D01*
X005996Y011604D01*
X005992Y011600D01*
X005988Y011596D01*
X005984Y011593D01*
X005980Y011589D01*
X005976Y011585D01*
X005973Y011578D01*
X005972Y011577D01*
X005968Y011573D01*
X005967Y011570D01*
X005964Y011569D01*
X005886Y011490D01*
X005882Y011486D01*
X005878Y011482D01*
X005874Y011478D01*
X005870Y011474D01*
X005827Y011372D01*
X005827Y011369D01*
X005823Y011360D01*
X005823Y011197D01*
X005827Y011188D01*
X005827Y011185D01*
X005870Y011082D01*
X005945Y011007D01*
X005984Y010913D01*
X005985Y010912D01*
X005988Y010905D01*
X005989Y010904D01*
X005992Y010897D01*
X005993Y010896D01*
X005996Y010890D01*
X005997Y010888D01*
X006000Y010882D01*
X006005Y010877D01*
X006008Y010870D01*
X006013Y010865D01*
X006015Y010858D01*
X006021Y010853D01*
X006023Y010846D01*
X006102Y010767D01*
X006106Y010763D01*
X006110Y010760D01*
X006114Y010756D01*
X006118Y010752D01*
X006122Y010748D01*
X006126Y010744D01*
X006130Y010740D01*
X006134Y010736D01*
X006140Y010733D01*
X006141Y010732D01*
X006145Y010728D01*
X006152Y010725D01*
X006153Y010724D01*
X006157Y010720D01*
X006164Y010717D01*
X006165Y010716D01*
X006172Y010713D01*
X006173Y010712D01*
X006180Y010710D01*
X006181Y010708D01*
X006284Y010666D01*
X006286Y010666D01*
X006296Y010662D01*
X006302Y010662D01*
X006311Y010658D01*
X006321Y010658D01*
X006331Y010654D01*
X006864Y010654D01*
X006873Y010658D01*
X006887Y010658D01*
X006897Y010662D01*
X006899Y010662D01*
X006909Y010666D01*
X006911Y010666D01*
X007014Y010708D01*
X007015Y010710D01*
X007022Y010712D01*
X007023Y010713D01*
X007030Y010716D01*
X007031Y010717D01*
X007037Y010720D01*
X007039Y010721D01*
X007045Y010724D01*
X007049Y010728D01*
X007050Y010729D01*
X007057Y010732D01*
X007061Y010736D01*
X007065Y010740D01*
X007069Y010744D01*
X007070Y010745D01*
X007077Y010748D01*
X007081Y010752D01*
X007159Y010830D01*
X007162Y010837D01*
X007179Y010854D01*
X007182Y010861D01*
X007187Y010866D01*
X007190Y010873D01*
X007195Y010878D01*
X007198Y010884D01*
X007199Y010886D01*
X007202Y010892D01*
X007203Y010893D01*
X007206Y010900D01*
X007207Y010901D01*
X007210Y010908D01*
X007211Y010909D01*
X007213Y010916D01*
X007215Y010917D01*
X007221Y010932D01*
X007221Y009535D01*
X007221Y009720D02*
X006759Y009720D01*
X006541Y009959D02*
X007221Y009959D01*
X007221Y010197D02*
X006359Y010197D01*
X005891Y010197D02*
X005803Y010197D01*
X005836Y010436D02*
X007221Y010436D01*
X007221Y010674D02*
X006931Y010674D01*
X007212Y010913D02*
X007221Y010913D01*
X007221Y011583D02*
X007219Y011589D01*
X007217Y011590D01*
X007215Y011596D01*
X007211Y011600D01*
X007210Y011602D01*
X007207Y011608D01*
X007203Y011612D01*
X007124Y011691D01*
X007104Y011711D01*
X007098Y011713D01*
X007093Y011719D01*
X007086Y011721D01*
X007085Y011722D01*
X007078Y011725D01*
X007077Y011726D01*
X007038Y011742D01*
X007040Y011747D01*
X007049Y011756D01*
X007052Y011762D01*
X007061Y011771D01*
X007064Y011778D01*
X007069Y011783D01*
X007069Y011783D01*
X007073Y011787D01*
X007076Y011794D01*
X007085Y011803D01*
X007087Y011810D01*
X007093Y011815D01*
X007095Y011821D01*
X007104Y011830D01*
X007107Y011837D01*
X007116Y011846D01*
X007119Y011853D01*
X007128Y011862D01*
X007131Y011869D01*
X007140Y011878D01*
X007143Y011884D01*
X007152Y011893D01*
X007154Y011900D01*
X007159Y011905D01*
X007162Y011912D01*
X007171Y011921D01*
X007174Y011928D01*
X007183Y011937D01*
X007186Y011943D01*
X007195Y011952D01*
X007198Y011959D01*
X007207Y011968D01*
X007210Y011975D01*
X007215Y011980D01*
X007221Y011995D01*
X007221Y011583D01*
X007221Y011628D02*
X007187Y011628D01*
X007124Y011691D02*
X007124Y011691D01*
X007130Y011867D02*
X007221Y011867D01*
X007221Y012286D02*
X007215Y012301D01*
X007211Y012305D01*
X007207Y012309D01*
X007128Y012388D01*
X007121Y012391D01*
X007120Y012392D01*
X007113Y012395D01*
X007112Y012396D01*
X007106Y012399D01*
X007100Y012404D01*
X007094Y012406D01*
X007093Y012408D01*
X007086Y012410D01*
X007085Y012411D01*
X007078Y012414D01*
X007077Y012415D01*
X007070Y012418D01*
X007069Y012419D01*
X007062Y012422D01*
X007061Y012423D01*
X007054Y012426D01*
X007053Y012427D01*
X007046Y012430D01*
X007045Y012431D01*
X007039Y012434D01*
X007037Y012435D01*
X007031Y012438D01*
X007030Y012439D01*
X007023Y012442D01*
X007022Y012443D01*
X007015Y012446D01*
X007014Y012447D01*
X006911Y012490D01*
X006910Y012490D01*
X006891Y012497D01*
X006889Y012497D01*
X006879Y012501D01*
X006877Y012501D01*
X006868Y012505D01*
X006865Y012505D01*
X006856Y012509D01*
X006853Y012509D01*
X006844Y012513D01*
X006842Y012513D01*
X006832Y012517D01*
X006826Y012517D01*
X006816Y012521D01*
X006810Y012521D01*
X006801Y012525D01*
X006794Y012525D01*
X006785Y012529D01*
X006775Y012529D01*
X006765Y012533D01*
X006751Y012533D01*
X006742Y012537D01*
X006716Y012537D01*
X006706Y012541D01*
X006488Y012541D01*
X006479Y012537D01*
X006453Y012537D01*
X006444Y012533D01*
X006429Y012533D01*
X006420Y012529D01*
X006410Y012529D01*
X006400Y012525D01*
X006394Y012525D01*
X006384Y012521D01*
X006378Y012521D01*
X006369Y012517D01*
X006362Y012517D01*
X006353Y012513D01*
X006351Y012513D01*
X006341Y012509D01*
X006339Y012509D01*
X006329Y012505D01*
X006327Y012505D01*
X006318Y012501D01*
X006315Y012501D01*
X006306Y012497D01*
X006303Y012497D01*
X006284Y012490D01*
X006181Y012447D01*
X006180Y012446D01*
X006153Y012435D01*
X006152Y012434D01*
X006145Y012431D01*
X006144Y012430D01*
X006138Y012427D01*
X006136Y012426D01*
X006130Y012423D01*
X006129Y012422D01*
X006122Y012419D01*
X006121Y012418D01*
X006114Y012415D01*
X006113Y012414D01*
X006106Y012411D01*
X006101Y012406D01*
X006094Y012404D01*
X006093Y012402D01*
X006086Y012400D01*
X006085Y012399D01*
X006078Y012396D01*
X006077Y012395D01*
X006071Y012392D01*
X006067Y012388D01*
X006066Y012387D01*
X006059Y012384D01*
X005980Y012305D01*
X005937Y012202D01*
X005937Y012079D01*
X006039Y011897D02*
X006039Y011897D01*
X006062Y011867D02*
X005499Y011867D01*
X005499Y012105D02*
X005457Y012208D01*
X005378Y012287D01*
X005275Y012330D01*
X004925Y012330D01*
X005114Y012518D01*
X005885Y012518D01*
X005988Y012561D01*
X006067Y012640D01*
X006110Y012742D01*
X006110Y013399D01*
X006591Y013399D01*
X006694Y013296D01*
X006894Y013213D01*
X007111Y013213D01*
X007221Y013258D01*
X007221Y012286D01*
X007221Y012344D02*
X007172Y012344D01*
X007221Y012582D02*
X006009Y012582D01*
X006067Y012388D02*
X006067Y012388D01*
X006018Y012344D02*
X004939Y012344D01*
X005499Y011628D02*
X006019Y011628D01*
X005835Y011390D02*
X005499Y011390D01*
X005499Y011151D02*
X005841Y011151D01*
X005985Y010913D02*
X005297Y010913D01*
X005187Y010674D02*
X004871Y010674D01*
X004871Y010436D02*
X005036Y010436D01*
X005069Y010197D02*
X004911Y010197D01*
X004871Y009959D02*
X005106Y009959D01*
X005685Y010674D02*
X006264Y010674D01*
X005941Y009508D02*
X005995Y009486D01*
X006080Y009401D01*
X006080Y008905D01*
X006069Y008905D01*
X005966Y008862D01*
X005941Y008836D01*
X005941Y009508D01*
X005941Y009482D02*
X005999Y009482D01*
X005941Y009243D02*
X006080Y009243D01*
X006080Y009005D02*
X005941Y009005D01*
X005845Y008525D02*
X005819Y008499D01*
X005716Y008456D01*
X005304Y008456D01*
X005304Y008348D01*
X005244Y008201D01*
X005234Y008192D01*
X005234Y007496D01*
X005184Y007375D01*
X004851Y007041D01*
X005082Y007041D01*
X005185Y006999D01*
X005264Y006920D01*
X005276Y006890D01*
X005280Y006896D01*
X005321Y006937D01*
X005371Y006966D01*
X005427Y006981D01*
X005696Y006981D01*
X005696Y006321D01*
X005696Y006321D01*
X005696Y005661D01*
X005427Y005661D01*
X005371Y005676D01*
X005321Y005705D01*
X005280Y005746D01*
X005276Y005753D01*
X005264Y005723D01*
X005185Y005644D01*
X005146Y005628D01*
X005146Y005245D01*
X005299Y005245D01*
X005446Y005184D01*
X005558Y005072D01*
X005619Y004925D01*
X005619Y004766D01*
X005558Y004619D01*
X005534Y004594D01*
X005551Y004594D01*
X005654Y004552D01*
X005732Y004473D01*
X006089Y004473D01*
X006081Y004481D02*
X006194Y004368D01*
X006341Y004308D01*
X006500Y004308D01*
X006647Y004368D01*
X006759Y004481D01*
X006820Y004628D01*
X006820Y004787D01*
X006780Y004884D01*
X006780Y005975D01*
X006871Y005937D01*
X007088Y005937D01*
X007221Y005993D01*
X007221Y002249D01*
X007088Y002304D01*
X006943Y002304D01*
X006577Y002670D01*
X006445Y002725D01*
X006444Y002725D01*
X006444Y002893D01*
X006402Y002996D01*
X006323Y003075D01*
X006220Y003117D01*
X005164Y003117D01*
X005141Y003108D01*
X005146Y003120D01*
X005146Y003168D01*
X005551Y003168D01*
X005654Y003211D01*
X005732Y003290D01*
X005775Y003392D01*
X005775Y004370D01*
X005732Y004473D01*
X005775Y004235D02*
X007221Y004235D01*
X007221Y004473D02*
X006751Y004473D01*
X006820Y004712D02*
X007221Y004712D01*
X007221Y004950D02*
X006780Y004950D01*
X006780Y005189D02*
X007221Y005189D01*
X007221Y005427D02*
X006780Y005427D01*
X006780Y005666D02*
X007221Y005666D01*
X007221Y005904D02*
X006780Y005904D01*
X006060Y005699D02*
X006060Y004884D01*
X006020Y004787D01*
X006020Y004628D01*
X006081Y004481D01*
X006020Y004712D02*
X005597Y004712D01*
X005609Y004950D02*
X006060Y004950D01*
X006060Y005189D02*
X005436Y005189D01*
X005146Y005427D02*
X006060Y005427D01*
X006060Y005666D02*
X005980Y005666D01*
X005965Y005661D02*
X006021Y005676D01*
X006060Y005699D01*
X005965Y005661D02*
X005696Y005661D01*
X005696Y006321D01*
X005696Y006321D01*
X005696Y006981D01*
X005965Y006981D01*
X006021Y006966D01*
X006060Y006944D01*
X006060Y007089D01*
X005966Y007128D01*
X005888Y007206D01*
X005845Y007309D01*
X005845Y007933D01*
X005871Y007995D01*
X005845Y008057D01*
X005845Y008525D01*
X005845Y008289D02*
X005280Y008289D01*
X005234Y008051D02*
X005848Y008051D01*
X005845Y007812D02*
X005234Y007812D01*
X005234Y007574D02*
X005845Y007574D01*
X005845Y007335D02*
X005144Y007335D01*
X004906Y007097D02*
X006041Y007097D01*
X005696Y006858D02*
X005696Y006858D01*
X005696Y006620D02*
X005696Y006620D01*
X005696Y006381D02*
X005696Y006381D01*
X005696Y006143D02*
X005696Y006143D01*
X005696Y005904D02*
X005696Y005904D01*
X005696Y005666D02*
X005696Y005666D01*
X005412Y005666D02*
X005206Y005666D01*
X004426Y005427D02*
X000580Y005427D01*
X000580Y005189D02*
X004426Y005189D01*
X004426Y004950D02*
X000580Y004950D01*
X000580Y004712D02*
X004426Y004712D01*
X003840Y004473D02*
X000580Y004473D01*
X000580Y004235D02*
X000583Y004235D01*
X000930Y004235D02*
X000930Y003715D01*
X000930Y003715D01*
X000930Y004235D01*
X000930Y004235D01*
X000930Y003996D02*
X000930Y003996D01*
X000930Y003758D02*
X000930Y003758D01*
X001277Y004235D02*
X003798Y004235D01*
X003798Y003996D02*
X001669Y003996D01*
X001750Y003758D02*
X003798Y003758D01*
X003798Y003519D02*
X001713Y003519D01*
X001516Y003281D02*
X003849Y003281D01*
X003296Y003042D02*
X001723Y003042D01*
X001810Y002804D02*
X003207Y002804D01*
X003207Y002565D02*
X001795Y002565D01*
X001661Y002327D02*
X003207Y002327D01*
X003716Y001613D02*
X003557Y001454D01*
X003425Y001399D01*
X002667Y001399D01*
X002564Y001296D01*
X002363Y001213D01*
X002146Y001213D01*
X001946Y001296D01*
X001792Y001450D01*
X001770Y001503D01*
X001722Y001387D01*
X001559Y001224D01*
X001345Y001135D01*
X000580Y001135D01*
X000580Y000580D01*
X004237Y000580D01*
X004154Y000662D01*
X004071Y000863D01*
X004071Y001080D01*
X004154Y001280D01*
X004308Y001434D01*
X004508Y001517D01*
X004726Y001517D01*
X004926Y001434D01*
X004989Y001371D01*
X006595Y001371D01*
X006517Y001450D01*
X006433Y001650D01*
X006433Y001795D01*
X006429Y001800D01*
X006402Y001734D01*
X006323Y001655D01*
X006220Y001613D01*
X005164Y001613D01*
X005061Y001655D01*
X004982Y001734D01*
X004939Y001837D01*
X004939Y002836D01*
X004712Y002608D01*
X004712Y001837D01*
X004669Y001734D01*
X004591Y001655D01*
X004488Y001613D01*
X003716Y001613D01*
X003715Y001611D02*
X006450Y001611D01*
X006594Y001373D02*
X004988Y001373D01*
X004617Y000971D02*
X007562Y000971D01*
X007221Y002327D02*
X006921Y002327D01*
X006682Y002565D02*
X007221Y002565D01*
X007221Y002804D02*
X006444Y002804D01*
X006356Y003042D02*
X007221Y003042D01*
X007221Y003281D02*
X005723Y003281D01*
X005775Y003519D02*
X007221Y003519D01*
X007221Y003758D02*
X005775Y003758D01*
X005775Y003996D02*
X007221Y003996D01*
X008021Y003996D02*
X008128Y003996D01*
X008128Y003943D02*
X008169Y003846D01*
X008021Y003846D01*
X008021Y006028D01*
X008028Y006020D01*
X008229Y005937D01*
X008424Y005937D01*
X008374Y005817D01*
X008374Y005539D01*
X008353Y005539D01*
X008250Y005496D01*
X008171Y005417D01*
X008128Y005314D01*
X008128Y004691D01*
X008154Y004629D01*
X008128Y004566D01*
X008128Y003943D01*
X008128Y004235D02*
X008021Y004235D01*
X008021Y004473D02*
X008128Y004473D01*
X008128Y004712D02*
X008021Y004712D01*
X008021Y004950D02*
X008128Y004950D01*
X008128Y005189D02*
X008021Y005189D01*
X008021Y005427D02*
X008181Y005427D01*
X008021Y005666D02*
X008374Y005666D01*
X008410Y005904D02*
X008021Y005904D01*
X009034Y005545D02*
X009034Y005544D01*
X009040Y005539D01*
X009034Y005539D01*
X009034Y005545D01*
X007221Y006974D02*
X007088Y007029D01*
X006871Y007029D01*
X006780Y006991D01*
X006780Y007089D01*
X006874Y007128D01*
X006953Y007206D01*
X006995Y007309D01*
X006995Y007933D01*
X006970Y007995D01*
X006995Y008057D01*
X006995Y008489D01*
X007111Y008489D01*
X007221Y008534D01*
X007221Y006974D01*
X007221Y007097D02*
X006799Y007097D01*
X006995Y007335D02*
X007221Y007335D01*
X007221Y007574D02*
X006995Y007574D01*
X006995Y007812D02*
X007221Y007812D01*
X007221Y008051D02*
X006993Y008051D01*
X006995Y008289D02*
X007221Y008289D01*
X007205Y008528D02*
X007221Y008528D01*
X004366Y005666D02*
X004297Y005666D01*
X003456Y005666D02*
X000580Y005666D01*
X000580Y005904D02*
X003356Y005904D01*
X003356Y006143D02*
X002686Y006143D01*
X002717Y006174D02*
X002801Y006375D01*
X002801Y006592D01*
X002717Y006792D01*
X002564Y006946D01*
X002363Y007029D01*
X002146Y007029D01*
X001946Y006946D01*
X001792Y006792D01*
X001709Y006592D01*
X001709Y006375D01*
X001792Y006174D01*
X001946Y006020D01*
X002146Y005937D01*
X002363Y005937D01*
X002564Y006020D01*
X002717Y006174D01*
X002801Y006381D02*
X003356Y006381D01*
X003356Y006620D02*
X002789Y006620D01*
X002652Y006858D02*
X003373Y006858D01*
X003463Y007335D02*
X000580Y007335D01*
X000580Y007574D02*
X003310Y007574D01*
X003134Y007812D02*
X000580Y007812D01*
X000580Y008051D02*
X003127Y008051D01*
X003116Y008289D02*
X001624Y008289D01*
X001780Y008528D02*
X002076Y008528D01*
X002481Y008528D02*
X003067Y008528D01*
X003141Y008766D02*
X002758Y008766D01*
X002824Y009005D02*
X003141Y009005D01*
X003141Y009176D02*
X003601Y009176D01*
X003601Y009176D01*
X003601Y009176D01*
X003601Y009836D01*
X003332Y009836D01*
X003276Y009821D01*
X003226Y009792D01*
X003185Y009751D01*
X003156Y009701D01*
X003141Y009645D01*
X003141Y009176D01*
X003141Y009243D02*
X002783Y009243D01*
X002732Y009482D02*
X003141Y009482D01*
X003167Y009720D02*
X002842Y009720D01*
X002842Y009959D02*
X004151Y009959D01*
X004111Y010197D02*
X002842Y010197D01*
X002842Y010436D02*
X004151Y010436D01*
X004151Y010674D02*
X002842Y010674D01*
X002842Y010913D02*
X003725Y010913D01*
X003522Y011151D02*
X002774Y011151D01*
X002804Y011390D02*
X003522Y011390D01*
X003522Y011628D02*
X002804Y011628D01*
X003601Y009720D02*
X003601Y009720D01*
X003601Y009482D02*
X003601Y009482D01*
X003601Y009243D02*
X003601Y009243D01*
X003807Y008211D02*
X003807Y008037D01*
X003864Y007981D01*
X003994Y007927D01*
X003994Y008097D01*
X003871Y008148D01*
X003807Y008211D01*
X003807Y008051D02*
X003994Y008051D01*
X003972Y007097D02*
X000580Y007097D01*
X000580Y006858D02*
X001858Y006858D01*
X001721Y006620D02*
X000580Y006620D01*
X000580Y006381D02*
X001709Y006381D01*
X001824Y006143D02*
X000580Y006143D01*
X001733Y009017D02*
X001722Y009044D01*
X001559Y009207D01*
X001539Y009215D01*
X001559Y009224D01*
X001690Y009355D01*
X001828Y009355D01*
X001816Y009343D01*
X001733Y009143D01*
X001733Y009017D01*
X001774Y009243D02*
X001578Y009243D01*
X006110Y012821D02*
X007221Y012821D01*
X007221Y013059D02*
X006110Y013059D01*
X006110Y013298D02*
X006692Y013298D01*
X006284Y012490D02*
X006284Y012490D01*
X007739Y012050D02*
X009215Y012050D01*
X009530Y012365D01*
X010534Y012365D01*
X010723Y012554D01*
X010723Y014176D01*
X010743Y014156D01*
X012424Y014156D01*
X012956Y014688D01*
X012669Y014967D02*
X012006Y014967D01*
X012056Y014729D02*
X012431Y014729D01*
X012747Y015206D02*
X011684Y015206D01*
X011446Y015444D02*
X012744Y015444D01*
X012744Y015683D02*
X011207Y015683D01*
X011145Y015921D02*
X012744Y015921D01*
X012744Y016160D02*
X011145Y016160D01*
X011145Y016398D02*
X012744Y016398D01*
X012744Y016637D02*
X011145Y016637D01*
X011079Y016875D02*
X012744Y016875D01*
X012701Y017114D02*
X007325Y017114D01*
X007484Y017352D02*
X008880Y017352D01*
X008641Y017591D02*
X007462Y017591D01*
X007205Y017829D02*
X008434Y017829D01*
X007466Y018068D02*
X006414Y018068D01*
X006408Y018306D02*
X007325Y018306D01*
X006974Y017829D02*
X006414Y017829D01*
X007089Y017444D02*
X006794Y017149D01*
X007194Y016875D02*
X007481Y016875D01*
X007735Y016875D02*
X007735Y016875D01*
X007735Y016637D02*
X007735Y016637D01*
X007735Y016398D02*
X007735Y016398D01*
X007735Y016293D02*
X007825Y016293D01*
X007825Y016293D01*
X007735Y016293D01*
X007385Y016293D01*
X007385Y015864D01*
X007400Y015808D01*
X007429Y015758D01*
X007470Y015717D01*
X007520Y015688D01*
X007576Y015673D01*
X007735Y015673D01*
X007735Y016293D01*
X007735Y016293D01*
X007735Y016293D01*
X007735Y016160D02*
X007735Y016160D01*
X007735Y015921D02*
X007735Y015921D01*
X007735Y015683D02*
X007735Y015683D01*
X007540Y015683D02*
X007194Y015683D01*
X007194Y015921D02*
X007385Y015921D01*
X007385Y016160D02*
X007194Y016160D01*
X007194Y016398D02*
X007385Y016398D01*
X007385Y016637D02*
X007194Y016637D01*
X008887Y014936D02*
X008887Y014825D01*
X008850Y014736D01*
X008905Y014759D01*
X008905Y014944D01*
X008887Y014936D01*
X009565Y014967D02*
X009614Y014967D01*
X009614Y014924D02*
X009605Y014914D01*
X009565Y014819D01*
X009565Y015072D01*
X009614Y015024D01*
X009614Y014924D01*
X009565Y014557D02*
X009605Y014461D01*
X009698Y014368D01*
X009481Y014368D01*
X009515Y014403D01*
X009565Y014524D01*
X009565Y014557D01*
X009551Y014490D02*
X009593Y014490D01*
X010565Y015071D02*
X010565Y015391D01*
X010568Y015388D01*
X010887Y015069D01*
X010832Y015092D01*
X010615Y015092D01*
X010565Y015071D01*
X010565Y015206D02*
X010751Y015206D01*
X011246Y014710D02*
X011256Y014700D01*
X011256Y014687D01*
X011311Y014556D01*
X011269Y014556D01*
X011269Y014655D01*
X011246Y014710D01*
X010723Y014546D02*
X010723Y014176D01*
X012429Y013298D02*
X012775Y013298D01*
X012429Y013059D02*
X013689Y013059D01*
X013689Y013298D02*
X013396Y013298D01*
X013584Y013536D02*
X013689Y013536D01*
X013689Y013775D02*
X013631Y013775D01*
X013689Y014013D02*
X013571Y014013D01*
X013634Y014252D02*
X013322Y014252D01*
X013307Y014490D02*
X013395Y014490D01*
X014806Y016105D02*
X014806Y016365D01*
X014806Y016105D02*
X015948Y014963D01*
X016271Y015206D02*
X016333Y015206D01*
X016357Y015444D02*
X016033Y015444D01*
X015794Y015683D02*
X016357Y015683D01*
X016357Y015921D02*
X015556Y015921D01*
X015639Y016160D02*
X016511Y016160D01*
X015677Y016398D02*
X019465Y016398D01*
X019465Y016160D02*
X019439Y016160D01*
X019465Y016637D02*
X015611Y016637D01*
X015373Y016875D02*
X019465Y016875D01*
X019465Y017114D02*
X015551Y017114D01*
X015617Y017352D02*
X019465Y017352D01*
X019465Y017591D02*
X015565Y017591D01*
X015326Y017829D02*
X019465Y017829D01*
X019465Y018068D02*
X015601Y018068D01*
X015677Y018306D02*
X019465Y018306D01*
X019027Y018545D02*
X018932Y018545D01*
X018932Y018783D02*
X019027Y018783D01*
X019027Y019022D02*
X018932Y019022D01*
X018493Y018545D02*
X017543Y018545D01*
X017586Y018783D02*
X018425Y018783D01*
X018425Y019022D02*
X017586Y019022D01*
X017586Y019260D02*
X018425Y019260D01*
X016400Y018545D02*
X015650Y018545D01*
X017431Y016160D02*
X018519Y016160D01*
X018365Y015921D02*
X017586Y015921D01*
X017586Y015683D02*
X018365Y015683D01*
X018365Y015444D02*
X017586Y015444D01*
X017586Y015206D02*
X018365Y015206D01*
X018442Y014967D02*
X017509Y014967D01*
X017451Y014729D02*
X018499Y014729D01*
X018499Y014490D02*
X017451Y014490D01*
X017451Y014252D02*
X018499Y014252D01*
X018127Y014013D02*
X017451Y014013D01*
X017451Y013775D02*
X017888Y013775D01*
X017661Y013536D02*
X017451Y013536D01*
X017451Y013298D02*
X017661Y013298D01*
X017661Y013059D02*
X017451Y013059D01*
X017628Y012821D02*
X017661Y012821D01*
X017866Y012582D02*
X017876Y012582D01*
X018105Y012344D02*
X018115Y012344D01*
X018944Y012105D02*
X019465Y012105D01*
X019465Y011867D02*
X019183Y011867D01*
X019421Y011628D02*
X019465Y011628D01*
X019465Y012344D02*
X019017Y012344D01*
X019256Y012582D02*
X019465Y012582D01*
X019465Y013553D02*
X019459Y013559D01*
X019459Y014917D01*
X019465Y014920D01*
X019465Y013553D01*
X019459Y013775D02*
X019465Y013775D01*
X019459Y014013D02*
X019465Y014013D01*
X019459Y014252D02*
X019465Y014252D01*
X019459Y014490D02*
X019465Y014490D01*
X019459Y014729D02*
X019465Y014729D01*
X016971Y015121D02*
X016735Y014885D01*
X016578Y014885D01*
X016485Y014490D02*
X016348Y014490D01*
X016351Y014546D02*
X016491Y014488D01*
X016491Y012894D01*
X016491Y012703D01*
X016564Y012526D01*
X017257Y011834D01*
X017240Y011834D01*
X017130Y011879D01*
X016971Y011879D01*
X016823Y011818D01*
X016711Y011706D01*
X016650Y011559D01*
X016650Y011484D01*
X016578Y011309D01*
X016578Y002594D01*
X016673Y002363D01*
X016851Y002185D01*
X017661Y001375D01*
X017661Y000986D01*
X018067Y000580D01*
X015093Y000580D01*
X015210Y000628D01*
X015322Y000741D01*
X015383Y000888D01*
X015383Y001047D01*
X015322Y001194D01*
X015319Y001197D01*
X016491Y001197D01*
X016591Y001097D01*
X016591Y001045D01*
X016652Y000898D01*
X016764Y000786D01*
X016911Y000725D01*
X017071Y000725D01*
X017218Y000786D01*
X017330Y000898D01*
X017391Y001045D01*
X017391Y001342D01*
X017330Y001489D01*
X017218Y001602D01*
X016883Y001936D01*
X016736Y001997D01*
X016348Y001997D01*
X016348Y014549D01*
X016351Y014546D01*
X016348Y014252D02*
X016491Y014252D01*
X016491Y014013D02*
X016348Y014013D01*
X016348Y013775D02*
X016491Y013775D01*
X016491Y013536D02*
X016348Y013536D01*
X016348Y013298D02*
X016491Y013298D01*
X016491Y013059D02*
X016348Y013059D01*
X016348Y012821D02*
X016491Y012821D01*
X016541Y012582D02*
X016348Y012582D01*
X016348Y012344D02*
X016747Y012344D01*
X016986Y012105D02*
X016348Y012105D01*
X016348Y011867D02*
X016940Y011867D01*
X017160Y011867D02*
X017224Y011867D01*
X016679Y011628D02*
X016348Y011628D01*
X016348Y011390D02*
X016611Y011390D01*
X016578Y011151D02*
X016348Y011151D01*
X016348Y010913D02*
X016578Y010913D01*
X016578Y010674D02*
X016348Y010674D01*
X016348Y010436D02*
X016578Y010436D01*
X016578Y010197D02*
X016348Y010197D01*
X016348Y009959D02*
X016578Y009959D01*
X016578Y009720D02*
X016348Y009720D01*
X016348Y009482D02*
X016578Y009482D01*
X016578Y009243D02*
X016348Y009243D01*
X016348Y009005D02*
X016578Y009005D01*
X016578Y008766D02*
X016348Y008766D01*
X016348Y008528D02*
X016578Y008528D01*
X016578Y008289D02*
X016348Y008289D01*
X016348Y008051D02*
X016578Y008051D01*
X016578Y007812D02*
X016348Y007812D01*
X016348Y007574D02*
X016578Y007574D01*
X016578Y007335D02*
X016348Y007335D01*
X016348Y007097D02*
X016578Y007097D01*
X016578Y006858D02*
X016348Y006858D01*
X016348Y006620D02*
X016578Y006620D01*
X016578Y006381D02*
X016348Y006381D01*
X016348Y006143D02*
X016578Y006143D01*
X016578Y005904D02*
X016348Y005904D01*
X016348Y005666D02*
X016578Y005666D01*
X016578Y005427D02*
X016348Y005427D01*
X016348Y005189D02*
X016578Y005189D01*
X016578Y004950D02*
X016348Y004950D01*
X016348Y004712D02*
X016578Y004712D01*
X016578Y004473D02*
X016348Y004473D01*
X016348Y004235D02*
X016578Y004235D01*
X016578Y003996D02*
X016348Y003996D01*
X016348Y003758D02*
X016578Y003758D01*
X016578Y003519D02*
X016348Y003519D01*
X016348Y003281D02*
X016578Y003281D01*
X016578Y003042D02*
X016348Y003042D01*
X016348Y002804D02*
X016578Y002804D01*
X016590Y002565D02*
X016348Y002565D01*
X016348Y002327D02*
X016709Y002327D01*
X016948Y002088D02*
X016348Y002088D01*
X016656Y001597D02*
X015987Y001597D01*
X016656Y001597D02*
X016991Y001263D01*
X016991Y001125D01*
X017391Y001134D02*
X017661Y001134D01*
X017661Y001373D02*
X017378Y001373D01*
X017425Y001611D02*
X017208Y001611D01*
X017186Y001850D02*
X016970Y001850D01*
X016554Y001134D02*
X015347Y001134D01*
X015383Y000896D02*
X016655Y000896D01*
X017327Y000896D02*
X017752Y000896D01*
X017990Y000657D02*
X015238Y000657D01*
X013089Y002804D02*
X012448Y002804D01*
X012448Y002565D02*
X012548Y002565D01*
X012345Y003042D02*
X012264Y003042D01*
X012222Y003281D02*
X011701Y003281D01*
X011740Y003519D02*
X012222Y003519D01*
X012222Y003758D02*
X011740Y003758D01*
X011740Y003996D02*
X012222Y003996D01*
X012222Y004235D02*
X011740Y004235D01*
X011677Y004473D02*
X012007Y004473D01*
X012006Y004712D02*
X011111Y004712D01*
X011111Y004950D02*
X012006Y004950D01*
X012020Y005189D02*
X011111Y005189D01*
X012121Y006143D02*
X012222Y006143D01*
X012222Y006381D02*
X012121Y006381D01*
X013143Y005189D02*
X013551Y005189D01*
X013538Y005166D02*
X013523Y005111D01*
X013523Y004794D01*
X013991Y004794D01*
X013991Y005302D01*
X013714Y005302D01*
X013658Y005287D01*
X013608Y005258D01*
X013567Y005217D01*
X013538Y005166D01*
X013523Y004950D02*
X013157Y004950D01*
X013157Y004712D02*
X013523Y004712D01*
X013523Y004778D02*
X013523Y004462D01*
X013538Y004406D01*
X013567Y004356D01*
X013608Y004315D01*
X013658Y004286D01*
X013714Y004271D01*
X013991Y004271D01*
X013991Y004778D01*
X013523Y004778D01*
X013523Y004473D02*
X013156Y004473D01*
X013991Y004473D02*
X014007Y004473D01*
X013991Y004712D02*
X014007Y004712D01*
X013991Y004950D02*
X014007Y004950D01*
X013991Y005189D02*
X014007Y005189D01*
X015416Y006143D02*
X015548Y006143D01*
X017838Y006143D02*
X018130Y006143D01*
X018191Y006203D02*
X017838Y005850D01*
X017838Y006715D01*
X018191Y006362D01*
X018941Y006362D01*
X019465Y006886D01*
X019465Y005679D01*
X018941Y006203D01*
X018191Y006203D01*
X018172Y006381D02*
X017838Y006381D01*
X017838Y006620D02*
X017933Y006620D01*
X017892Y005904D02*
X017838Y005904D01*
X017838Y004747D02*
X018191Y004393D01*
X018941Y004393D01*
X019465Y004917D01*
X019465Y003710D01*
X018941Y004235D01*
X018191Y004235D01*
X017838Y003881D01*
X017838Y004747D01*
X017838Y004712D02*
X017873Y004712D01*
X017838Y004473D02*
X018111Y004473D01*
X018191Y004235D02*
X017838Y004235D01*
X017838Y003996D02*
X017952Y003996D01*
X018941Y004235D02*
X019465Y004235D01*
X019465Y004473D02*
X019021Y004473D01*
X019259Y004712D02*
X019465Y004712D01*
X019465Y003996D02*
X019179Y003996D01*
X019418Y003758D02*
X019465Y003758D01*
X019465Y002949D02*
X019465Y001742D01*
X018941Y002266D01*
X018552Y002266D01*
X018393Y002425D01*
X018941Y002425D01*
X019465Y002949D01*
X019465Y002804D02*
X019320Y002804D01*
X019465Y002565D02*
X019081Y002565D01*
X019465Y002327D02*
X018491Y002327D01*
X019119Y002088D02*
X019465Y002088D01*
X019465Y001850D02*
X019357Y001850D01*
X019465Y000980D02*
X019465Y000580D01*
X019065Y000580D01*
X019465Y000980D01*
X019465Y000896D02*
X019380Y000896D01*
X019465Y000657D02*
X019142Y000657D01*
X019240Y005904D02*
X019465Y005904D01*
X019465Y006143D02*
X019001Y006143D01*
X018960Y006381D02*
X019465Y006381D01*
X019465Y006620D02*
X019199Y006620D01*
X019437Y006858D02*
X019465Y006858D01*
X019465Y007647D02*
X018941Y008172D01*
X018191Y008172D01*
X017838Y007818D01*
X017838Y008684D01*
X018191Y008330D01*
X018941Y008330D01*
X019465Y008854D01*
X019465Y007647D01*
X019465Y007812D02*
X019300Y007812D01*
X019465Y008051D02*
X019062Y008051D01*
X019465Y008289D02*
X017838Y008289D01*
X017838Y008051D02*
X018070Y008051D01*
X017994Y008528D02*
X017838Y008528D01*
X017838Y009787D02*
X017838Y010652D01*
X018191Y010299D01*
X018941Y010299D01*
X019465Y010823D01*
X019465Y009616D01*
X018941Y010140D01*
X018191Y010140D01*
X017838Y009787D01*
X017838Y009959D02*
X018009Y009959D01*
X017838Y010197D02*
X019465Y010197D01*
X019465Y010436D02*
X019078Y010436D01*
X019316Y010674D02*
X019465Y010674D01*
X019465Y009959D02*
X019122Y009959D01*
X019361Y009720D02*
X019465Y009720D01*
X019465Y008766D02*
X019377Y008766D01*
X019465Y008528D02*
X019138Y008528D01*
X018054Y010436D02*
X017838Y010436D01*
X013689Y009959D02*
X013531Y009959D01*
X013365Y009959D02*
X013069Y009959D01*
X013069Y009720D02*
X013689Y009720D01*
X013689Y009482D02*
X013410Y009482D01*
X013590Y009243D02*
X013689Y009243D01*
X013689Y009005D02*
X013631Y009005D01*
X013689Y008766D02*
X013565Y008766D01*
X013081Y010197D02*
X013069Y010197D01*
X012164Y010913D02*
X011131Y010913D01*
X011752Y011151D02*
X012164Y011151D01*
X012164Y011390D02*
X011759Y011390D01*
X011759Y011628D02*
X012164Y011628D01*
X012164Y011867D02*
X011759Y011867D01*
X011759Y012105D02*
X012260Y012105D01*
X012467Y012344D02*
X011967Y012344D01*
X012387Y012582D02*
X013242Y012582D01*
X013186Y012344D02*
X013011Y012344D01*
X012429Y012821D02*
X013689Y012821D01*
X010411Y010943D02*
X010357Y010943D01*
X010411Y010889D01*
X010411Y010943D01*
X010411Y010913D02*
X010387Y010913D01*
X009782Y011628D02*
X008929Y011628D01*
X009598Y011867D02*
X009782Y011867D01*
X010993Y003042D02*
X011128Y003042D01*
X010943Y002784D02*
X010943Y002200D01*
X010778Y002035D01*
X010716Y002010D01*
X010716Y002549D01*
X010938Y002771D01*
X010943Y002784D01*
X010943Y002565D02*
X010732Y002565D01*
X010716Y002327D02*
X010943Y002327D01*
X010831Y002088D02*
X010716Y002088D01*
X013054Y003042D02*
X013110Y003042D01*
X004939Y002804D02*
X004907Y002804D01*
X004939Y002565D02*
X004712Y002565D01*
X004712Y002327D02*
X004939Y002327D01*
X004939Y002088D02*
X004712Y002088D01*
X004712Y001850D02*
X004939Y001850D01*
X004246Y001373D02*
X002640Y001373D01*
X001869Y001373D02*
X001707Y001373D01*
X001678Y002088D02*
X001812Y002088D01*
X000580Y001134D02*
X004094Y001134D01*
X004071Y000896D02*
X000580Y000896D01*
X000580Y000657D02*
X004160Y000657D01*
D220*
X002562Y002818D03*
X005219Y004845D03*
X006420Y004708D03*
X007089Y007227D03*
X005692Y007326D03*
X004904Y008428D03*
X004097Y008487D03*
X003467Y008487D03*
X003782Y007582D03*
X004334Y007601D03*
X006026Y009078D03*
X006125Y009865D03*
X005436Y010357D03*
X004511Y010141D03*
X003054Y012365D03*
X006912Y009708D03*
X008389Y011656D03*
X009589Y011578D03*
X010121Y010613D03*
X009806Y010239D03*
X010141Y008467D03*
X009491Y008428D03*
X011735Y010062D03*
X012365Y009235D03*
X013448Y010357D03*
X012739Y012050D03*
X013586Y012365D03*
X012956Y014688D03*
X011656Y014767D03*
X009944Y014688D03*
X009019Y014373D03*
X009117Y013743D03*
X008487Y014904D03*
X008763Y015318D03*
X007463Y015377D03*
X007621Y014215D03*
X007089Y017444D03*
X006814Y018566D03*
X005672Y018881D03*
X003172Y017247D03*
X001420Y017225D03*
X011774Y005554D03*
X011814Y004589D03*
X013192Y004353D03*
X013152Y003487D03*
X012700Y003231D03*
X010908Y001656D03*
X009353Y003093D03*
X008881Y002956D03*
X014983Y000967D03*
X016991Y001125D03*
X015082Y004137D03*
X017070Y010967D03*
X017227Y011204D03*
X017424Y011007D03*
X017463Y011479D03*
X017050Y011479D03*
X016578Y014885D03*
X018290Y017188D03*
X013979Y018999D03*
D221*
X012877Y018054D02*
X013546Y017385D01*
X013546Y015652D01*
X014491Y014708D01*
X014491Y014208D01*
X014983Y013715D01*
X014944Y013755D01*
X014255Y014550D02*
X013330Y015475D01*
X013330Y017267D01*
X012759Y017837D01*
X009452Y017837D01*
X009235Y018054D01*
X009235Y018713D01*
X008735Y018713D02*
X008735Y017963D01*
X009078Y017621D01*
X012660Y017621D01*
X013074Y017208D01*
X013074Y015278D01*
X014019Y014334D01*
X014019Y008448D01*
X012739Y007168D01*
X014255Y008979D02*
X014255Y014550D01*
X013586Y012365D02*
X013586Y011696D01*
X013526Y011637D01*
X012778Y010889D01*
X012739Y010889D01*
X012739Y009609D01*
X012365Y009235D01*
X011735Y009271D02*
X011680Y009216D01*
X011735Y009271D02*
X011735Y010062D01*
X010121Y010613D02*
X009924Y010810D01*
X009137Y010810D01*
X008841Y011105D01*
X008546Y011105D01*
X008546Y010357D02*
X009019Y009885D01*
X009019Y008605D01*
X009196Y008428D01*
X009078Y008310D01*
X009078Y006125D01*
X008704Y005751D01*
X008704Y005003D01*
X009432Y005613D02*
X009432Y004334D01*
X009353Y004255D01*
X008704Y004255D01*
X009432Y005613D02*
X009314Y005731D01*
X009314Y007641D01*
X010141Y008467D01*
X009491Y008428D02*
X009196Y008428D01*
X009845Y007070D02*
X009845Y006306D01*
X009841Y006302D01*
X013448Y010357D02*
X013448Y010810D01*
X013526Y010889D01*
X012739Y011637D02*
X012739Y012050D01*
X011656Y014767D02*
X010755Y015668D01*
X010755Y016273D01*
X010735Y016293D01*
X010235Y016293D02*
X010235Y014330D01*
X009944Y014038D01*
X009412Y014038D01*
X009117Y013743D01*
X009019Y014373D02*
X009235Y014589D01*
X009235Y016293D01*
X008763Y016265D02*
X008735Y016293D01*
X008763Y016265D02*
X008763Y015318D01*
X008487Y014904D02*
X008235Y015156D01*
X008235Y016293D01*
X007735Y016293D02*
X007735Y015649D01*
X007463Y015377D01*
X009735Y015369D02*
X009944Y015160D01*
X009944Y014688D01*
X009735Y015369D02*
X009735Y016293D01*
X010889Y018054D02*
X012877Y018054D01*
X010889Y018054D02*
X010735Y018208D01*
X010735Y018713D01*
X005436Y010357D02*
X005436Y009192D01*
X005421Y009176D01*
X004904Y008428D02*
X004904Y007562D01*
X003876Y006534D01*
X003876Y006321D01*
X014255Y008979D02*
X014570Y008664D01*
X014932Y008664D01*
X014983Y008715D01*
D222*
X018566Y011204D02*
X016971Y012798D01*
X016971Y015121D01*
X016971Y015534D01*
X017208Y017365D02*
X014806Y017365D01*
X013979Y018999D02*
X014058Y019078D01*
X016971Y019078D01*
X017208Y017365D02*
X017267Y017365D01*
X018979Y019078D01*
X018979Y015534D02*
X018979Y013586D01*
X018566Y013172D01*
D223*
X012739Y007168D03*
X009845Y007070D03*
X008369Y007444D03*
X001420Y014767D03*
X003369Y016086D03*
D224*
X018172Y001361D02*
X018566Y001361D01*
D225*
X017208Y002719D01*
X017208Y011184D01*
X017227Y011204D01*
D226*
X004334Y008251D02*
X004334Y007601D01*
X003782Y007582D02*
X003467Y007897D01*
X003467Y008487D01*
X004097Y008487D02*
X004334Y008251D01*
M02*
