G75*
%MOIN*%
%OFA0B0*%
%FSLAX24Y24*%
%IPPOS*%
%LPD*%
%AMOC8*
5,1,8,0,0,1.08239X$1,22.5*
%
%ADD10C,0.0160*%
%ADD11C,0.0000*%
%ADD12C,0.0827*%
%ADD13OC8,0.1250*%
%ADD14R,0.0512X0.0591*%
%ADD15C,0.0531*%
%ADD16R,0.0480X0.0880*%
%ADD17R,0.1417X0.0866*%
%ADD18R,0.0160X0.0480*%
%ADD19R,0.0591X0.0512*%
%ADD20R,0.0945X0.0945*%
%ADD21R,0.0669X0.0748*%
%ADD22C,0.0591*%
%ADD23C,0.0600*%
%ADD24OC8,0.0600*%
%ADD25C,0.0600*%
%ADD26R,0.0260X0.0800*%
D10*
X000180Y000180D02*
X019865Y000180D01*
X019865Y019865D01*
X001834Y019865D01*
X000180Y018211D01*
X000180Y000180D01*
D11*
X001834Y018979D02*
X001836Y019019D01*
X001842Y019060D01*
X001852Y019099D01*
X001865Y019137D01*
X001883Y019174D01*
X001904Y019208D01*
X001928Y019241D01*
X001955Y019271D01*
X001985Y019298D01*
X002018Y019322D01*
X002052Y019343D01*
X002089Y019361D01*
X002127Y019374D01*
X002166Y019384D01*
X002207Y019390D01*
X002247Y019392D01*
X002287Y019390D01*
X002328Y019384D01*
X002367Y019374D01*
X002405Y019361D01*
X002442Y019343D01*
X002476Y019322D01*
X002509Y019298D01*
X002539Y019271D01*
X002566Y019241D01*
X002590Y019208D01*
X002611Y019174D01*
X002629Y019137D01*
X002642Y019099D01*
X002652Y019060D01*
X002658Y019019D01*
X002660Y018979D01*
X002658Y018939D01*
X002652Y018898D01*
X002642Y018859D01*
X002629Y018821D01*
X002611Y018784D01*
X002590Y018750D01*
X002566Y018717D01*
X002539Y018687D01*
X002509Y018660D01*
X002476Y018636D01*
X002442Y018615D01*
X002405Y018597D01*
X002367Y018584D01*
X002328Y018574D01*
X002287Y018568D01*
X002247Y018566D01*
X002207Y018568D01*
X002166Y018574D01*
X002127Y018584D01*
X002089Y018597D01*
X002052Y018615D01*
X002018Y018636D01*
X001985Y018660D01*
X001955Y018687D01*
X001928Y018717D01*
X001904Y018750D01*
X001883Y018784D01*
X001865Y018821D01*
X001852Y018859D01*
X001842Y018898D01*
X001836Y018939D01*
X001834Y018979D01*
D12*
X002247Y018979D03*
D13*
X018566Y013172D03*
X018566Y011204D03*
X018566Y009235D03*
X018566Y007267D03*
X018566Y005298D03*
X018566Y003330D03*
X018566Y001361D03*
D14*
X014747Y004786D03*
X013999Y004786D03*
D15*
X013062Y006483D03*
X013086Y009034D03*
X013086Y013759D03*
X010723Y014546D03*
X008361Y013759D03*
X007003Y013759D03*
X004641Y014546D03*
X002278Y013759D03*
X002278Y009034D03*
X002255Y006483D03*
X006979Y006483D03*
X008337Y006483D03*
X008361Y009034D03*
X007003Y009034D03*
X006979Y001759D03*
X008337Y001759D03*
X010700Y000971D03*
X013062Y001759D03*
X004617Y000971D03*
X002255Y001759D03*
D16*
X003876Y006321D03*
X004786Y006321D03*
X005696Y006321D03*
X005421Y009176D03*
X004511Y009176D03*
X003601Y009176D03*
X009841Y006302D03*
X010751Y006302D03*
X011661Y006302D03*
X011680Y009216D03*
X010771Y009216D03*
X009861Y009216D03*
D17*
X010771Y011656D03*
X004511Y011617D03*
X004786Y003881D03*
X010751Y003861D03*
D18*
X006054Y016735D03*
X005554Y016735D03*
X005054Y016735D03*
X005054Y017995D03*
X005554Y017995D03*
X006054Y017995D03*
D19*
X012739Y011637D03*
X012739Y010889D03*
X013526Y010889D03*
X013526Y011637D03*
X008546Y011105D03*
X008546Y010357D03*
X006420Y008369D03*
X006420Y007621D03*
X008704Y005003D03*
X008704Y004255D03*
X008310Y003310D03*
X008310Y002562D03*
X012582Y004786D03*
X012582Y005534D03*
X013664Y003428D03*
X013664Y002680D03*
X002267Y009963D03*
X002267Y010711D03*
D20*
X003625Y013271D03*
X005357Y013271D03*
X009944Y013211D03*
X011676Y013211D03*
X011696Y002306D03*
X009963Y002306D03*
X005692Y002365D03*
X003960Y002365D03*
D21*
X016971Y015534D03*
X018979Y015534D03*
X018979Y019078D03*
X016971Y019078D03*
D22*
X015101Y018365D02*
X014511Y018365D01*
X014511Y017365D02*
X015101Y017365D01*
X015101Y016365D02*
X014511Y016365D01*
D23*
X001930Y015715D03*
D24*
X000930Y015715D03*
X000930Y016715D03*
X001930Y016715D03*
X001930Y017715D03*
X000930Y017715D03*
D25*
X001230Y013715D02*
X000630Y013715D01*
X000630Y012715D02*
X001230Y012715D01*
X001230Y011715D02*
X000630Y011715D01*
X000630Y010715D02*
X001230Y010715D01*
X001230Y009715D02*
X000630Y009715D01*
X000630Y008715D02*
X001230Y008715D01*
X001230Y003715D02*
X000630Y003715D01*
X000630Y002715D02*
X001230Y002715D01*
X001230Y001715D02*
X000630Y001715D01*
X014683Y006715D02*
X015283Y006715D01*
X015283Y007715D02*
X014683Y007715D01*
X014683Y008715D02*
X015283Y008715D01*
X015283Y009715D02*
X014683Y009715D01*
X014683Y010715D02*
X015283Y010715D01*
X015283Y011715D02*
X014683Y011715D01*
X014683Y012715D02*
X015283Y012715D01*
X015283Y013715D02*
X014683Y013715D01*
D26*
X010735Y016293D03*
X010235Y016293D03*
X009735Y016293D03*
X009235Y016293D03*
X008735Y016293D03*
X008235Y016293D03*
X007735Y016293D03*
X007735Y018713D03*
X008235Y018713D03*
X008735Y018713D03*
X009235Y018713D03*
X009735Y018713D03*
X010235Y018713D03*
X010735Y018713D03*
M02*
